<?xml version="1.0" standalone="no"?>
<!DOCTYPE svg PUBLIC "-//W3C//DTD SVG 20010904//EN"
 "http://www.w3.org/TR/2001/REC-SVG-20010904/DTD/svg10.dtd">
<svg version="1.0" xmlns="http://www.w3.org/2000/svg"
 width="250.000000pt" height="250.000000pt" viewBox="0 0 250.000000 250.000000"
 preserveAspectRatio="xMidYMid meet">
<metadata>
Created by potrace 1.11, written by Peter Selinger 2001-2013
</metadata>
<g transform="translate(0.000000,250.000000) scale(0.100000,-0.100000)"
fill="#000000" stroke="none">
<path d="M554 1809 c-3 -5 -2 -10 3 -10 18 -3 -54 -17 -91 -18 -24 -1 -47 5
-58 16 -28 25 -32 9 -5 -22 21 -25 29 -28 85 -26 55 1 65 -2 96 -29 l34 -30
-8 37 c-5 21 -17 43 -26 50 -10 7 -14 13 -9 13 5 0 17 -8 28 -17 18 -17 18
-17 7 9 -13 27 -46 43 -56 27z"/>
<path d="M705 1795 c-42 -41 -29 -95 26 -114 61 -21 118 31 97 90 -19 54 -82
66 -123 24z m50 5 c-3 -5 -14 -10 -23 -10 -15 0 -15 2 -2 10 20 13 33 13 25 0z
m12 -35 c-4 -8 -2 -17 3 -20 13 -8 13 -55 1 -55 -12 0 -24 37 -16 49 3 5 1 12
-5 16 -12 7 -4 25 12 25 5 0 8 -7 5 -15z m53 -17 c0 -6 -7 -5 -15 2 -8 7 -15
17 -15 22 0 6 7 5 15 -2 8 -7 15 -17 15 -22z m-105 2 c-10 -11 -21 -17 -24
-14 -3 3 3 12 13 20 28 20 32 17 11 -6z"/>
<path d="M297 1803 c-4 -3 -7 -15 -7 -25 0 -19 -15 -24 -25 -8 -9 15 -35 0
-35 -21 0 -10 -4 -19 -10 -19 -5 0 -14 -9 -20 -20 -21 -39 34 -86 68 -57 9 7
25 17 35 20 12 5 17 15 15 29 -2 16 3 23 22 28 28 7 39 42 20 66 -13 14 -51
19 -63 7z m57 -19 c11 -30 6 -39 -29 -50 -43 -14 -49 -6 -29 35 17 33 48 42
58 15z m-84 -39 c0 -8 9 -20 20 -27 11 -7 20 -16 20 -20 0 -14 -27 -9 -40 7
-7 8 -15 13 -19 11 -3 -2 -7 7 -7 20 -1 15 4 24 12 24 8 0 14 -7 14 -15z m-40
-29 c0 -2 -8 -10 -17 -17 -16 -13 -17 -12 -4 4 13 16 21 21 21 13z m20 -26 c0
-5 -2 -10 -4 -10 -3 0 -8 5 -11 10 -3 6 -1 10 4 10 6 0 11 -4 11 -10z"/>
<path d="M641 1790 c-17 -10 -7 -40 13 -40 7 0 16 6 19 14 8 19 -15 37 -32 26z"/>
<path d="M886 1768 c-9 -12 -16 -27 -16 -33 0 -15 77 -58 90 -50 6 3 22 -3 36
-14 30 -24 64 -28 64 -7 0 7 -12 22 -27 32 -15 9 -34 25 -43 34 -8 10 -32 27
-52 39 l-36 22 -16 -23z m55 -16 c15 -9 37 -27 50 -40 13 -12 33 -29 44 -37
11 -8 15 -15 8 -15 -6 0 -29 15 -51 33 -21 17 -52 42 -68 54 -34 26 -20 30 17
5z m-6 -32 c39 -26 26 -26 -22 0 -21 11 -31 20 -23 20 8 0 29 -9 45 -20z"/>
<path d="M1455 1779 c-16 -4 -56 -7 -87 -8 -37 -1 -62 -6 -72 -17 -19 -19 -20
-25 -3 -48 13 -18 15 -17 40 8 20 20 36 26 70 26 29 0 53 7 68 19 29 23 24 30
-16 20z"/>
<path d="M2092 1783 c-13 -3 -26 -11 -29 -20 -9 -24 17 -33 53 -18 18 7 34 11
37 9 2 -3 10 4 18 13 13 16 12 17 -3 4 -15 -11 -19 -11 -24 3 -6 16 -10 17
-52 9z m38 -12 c0 -6 -4 -13 -10 -16 -5 -3 -10 1 -10 9 0 9 5 16 10 16 6 0 10
-4 10 -9z"/>
<path d="M380 1764 c0 -11 9 -36 20 -57 11 -20 20 -51 20 -69 0 -18 9 -41 20
-53 29 -31 113 -20 147 19 25 30 28 43 13 80 -14 37 -51 59 -81 47 l-24 -10
23 0 c14 -1 26 -10 32 -26 13 -34 5 -50 -36 -74 -19 -11 -37 -28 -40 -36 -5
-12 -9 -13 -20 -4 -18 15 -17 49 1 73 22 29 18 51 -10 70 -13 9 -33 26 -45 38
-19 21 -20 21 -20 2z"/>
<path d="M1240 1780 c-10 -41 -9 -63 0 -105 9 -37 9 -61 2 -89 -9 -30 -8 -45
4 -70 l14 -31 -4 29 c-3 22 4 37 30 66 41 45 42 68 9 108 -14 17 -32 45 -40
64 -8 18 -15 31 -15 28z"/>
<path d="M1516 1744 c-4 -19 -10 -42 -13 -51 -5 -12 -1 -14 14 -9 11 4 33 2
48 -4 23 -9 26 -8 21 6 -3 8 -6 18 -6 20 0 3 -6 2 -12 -2 -7 -4 -4 2 6 14 11
12 17 24 15 25 -18 15 -55 37 -60 37 -4 0 -10 -16 -13 -36z m52 3 c8 -9 7 -16
-6 -23 -14 -9 -17 -7 -17 12 0 27 7 30 23 11z m-46 -49 c-6 -6 -7 0 -4 19 5
21 7 23 10 9 2 -10 0 -22 -6 -28z"/>
<path d="M1610 1764 c-14 -16 -8 -123 7 -132 7 -4 10 -29 9 -60 -2 -34 2 -56
11 -63 25 -21 41 -2 47 58 11 115 13 181 6 193 -11 17 -67 20 -80 4z m30 -61
c0 -64 -13 -65 -16 0 -2 39 2 57 12 57 2 0 4 -25 4 -57z m30 -88 c-7 -27 -11
-54 -10 -60 4 -19 0 -35 -10 -35 -5 0 -7 22 -4 53 3 28 7 77 9 109 1 31 7 62
11 70 14 21 17 -81 4 -137z"/>
<path d="M1926 1772 c-2 -4 -10 -37 -16 -73 -15 -84 -4 -115 50 -137 39 -17
52 -32 27 -32 -7 0 -20 -12 -29 -28 -14 -23 -14 -31 -3 -59 35 -82 143 -35
121 52 -8 31 -47 50 -59 29 -4 -8 -13 -14 -20 -14 -8 0 -7 3 2 9 26 16 8 94
-32 141 -33 39 -34 43 -21 68 8 15 14 33 14 40 0 13 -26 17 -34 4z m24 -12 c0
-5 -5 -10 -11 -10 -5 0 -7 5 -4 10 3 6 8 10 11 10 2 0 4 -4 4 -10z m78 -272
c-1 -7 2 -24 6 -37 5 -13 4 -27 -2 -33 -11 -11 -27 26 -17 41 3 5 1 12 -5 16
-12 7 -4 25 11 25 5 0 9 -6 7 -12z m-48 -13 c-7 -9 -15 -13 -19 -10 -3 3 1 10
9 15 21 14 24 12 10 -5z m90 5 c0 -5 -4 -10 -9 -10 -6 0 -13 5 -16 10 -3 6 1
10 9 10 9 0 16 -4 16 -10z"/>
<path d="M1990 1764 c-16 -18 -8 -48 13 -52 25 -5 46 15 40 37 -6 24 -39 33
-53 15z"/>
<path d="M2302 1767 c-7 -8 -11 -48 -10 -100 2 -86 2 -87 27 -87 l26 0 -3 87
c-4 92 -18 127 -40 100z m28 -147 c0 -33 -15 -41 -22 -12 -6 21 1 42 13 42 5
0 9 -13 9 -30z"/>
<path d="M2205 1740 c3 -5 -1 -10 -9 -10 -26 0 -18 -34 11 -47 19 -9 30 -10
40 -2 17 15 16 25 -4 49 -18 20 -50 29 -38 10z m22 -18 c0 -10 -9 -19 -20 -19
-18 -2 -18 -1 -2 18 22 23 24 24 22 1z"/>
<path d="M637 1724 c-11 -11 -8 -49 5 -62 9 -9 8 -12 -4 -12 -22 0 -29 -37
-11 -55 8 -8 18 -15 23 -15 14 0 41 31 35 41 -4 5 7 6 23 3 19 -4 32 -1 41 10
17 20 15 21 -26 29 -23 5 -37 2 -49 -10 -16 -16 -16 -16 -10 5 8 23 -15 78
-27 66z"/>
<path d="M1365 1716 c-19 -13 -19 -14 0 -13 38 0 43 -3 54 -33 14 -42 0 -70
-54 -102 -24 -15 -49 -36 -55 -48 -11 -21 -10 -21 51 -15 71 6 105 24 121 63
16 37 16 36 32 23 11 -9 19 -5 40 20 14 17 24 35 20 40 -10 17 -33 9 -50 -16
-21 -32 -34 -32 -34 1 0 31 -59 94 -87 94 -11 0 -28 -6 -38 -14z m200 -76 c-3
-5 -10 -10 -16 -10 -5 0 -9 5 -9 10 0 6 7 10 16 10 8 0 12 -4 9 -10z"/>
<path d="M338 1687 c-3 -15 -1 -30 4 -34 13 -7 28 16 28 42 0 15 -2 17 -9 6
-7 -11 -9 -11 -13 0 -3 8 -7 2 -10 -14z"/>
<path d="M500 1686 c0 -15 -11 -38 -25 -51 -28 -29 -9 -35 24 -7 27 21 34 57
15 73 -11 9 -14 7 -14 -15z"/>
<path d="M2040 1690 c-11 -11 -20 -31 -20 -44 0 -23 2 -24 31 -16 40 12 69 38
69 62 0 25 -54 24 -80 -2z"/>
<path d="M823 1682 c-45 -22 -41 -32 12 -32 41 0 50 -5 83 -41 34 -36 43 -40
90 -42 34 -1 52 2 52 10 0 6 -9 9 -21 6 -16 -4 -20 -2 -17 8 3 8 -6 22 -19 32
-13 10 -20 24 -17 30 5 9 4 9 -5 1 -10 -9 -10 -17 -1 -35 7 -13 -7 -2 -31 25
-49 54 -76 62 -126 38z"/>
<path d="M150 1651 c0 -43 9 -60 41 -76 15 -8 30 -15 34 -15 14 0 2 49 -20 83
-31 45 -55 49 -55 8z"/>
<path d="M1340 1649 c0 -37 -26 -84 -54 -98 l-21 -10 21 0 c26 -1 73 34 84 63
5 13 2 31 -6 49 -19 35 -24 34 -24 -4z"/>
<path d="M370 1651 c0 -10 -23 -19 -67 -27 -54 -9 -63 -15 -63 -40 0 -22 4
-24 48 -25 26 0 41 -3 35 -6 -17 -6 -17 -33 0 -33 7 0 22 6 33 14 17 13 17 15
2 21 -15 6 -15 8 3 26 17 17 28 79 14 79 -3 0 -5 -4 -5 -9z"/>
<path d="M2171 1642 c-13 -9 -45 -19 -70 -22 -36 -4 -48 -10 -58 -30 -17 -34
-3 -45 59 -44 43 0 54 4 74 28 22 25 24 25 24 7 0 -14 6 -21 20 -21 21 0 55
63 46 87 -9 22 -36 14 -49 -14 l-12 -27 -5 26 c-5 25 -6 25 -29 10z m82 -18
c-4 -10 -9 -12 -15 -6 -12 12 -1 35 12 27 5 -3 6 -13 3 -21z"/>
<path d="M806 1626 c-7 -6 -17 -20 -20 -32 -8 -25 23 -57 51 -52 10 1 28 -7
40 -19 22 -22 18 -33 -17 -46 -8 -3 4 -6 28 -6 29 -1 62 9 102 29 56 29 83 50
61 50 -6 0 -11 -4 -11 -9 0 -5 -13 -4 -29 2 -31 11 -91 -5 -91 -26 0 -19 -44
47 -45 67 0 12 -3 26 -7 32 -12 18 -45 23 -62 10z m9 -16 c-3 -5 -2 -10 4 -10
5 0 11 5 13 12 7 19 28 -1 28 -26 0 -15 -7 -26 -20 -29 -24 -6 -40 12 -35 38
5 26 4 25 11 25 3 0 2 -4 -1 -10z"/>
<path d="M743 1617 c-13 -5 -23 -16 -23 -24 0 -15 35 -10 55 8 16 16 -8 28
-32 16z m27 -7 c0 -5 -5 -10 -11 -10 -5 0 -7 5 -4 10 3 6 8 10 11 10 2 0 4 -4
4 -10z"/>
<path d="M1064 1598 c3 -13 6 -30 6 -39 0 -9 9 -19 20 -22 13 -3 20 0 20 10 0
9 -5 11 -12 7 -9 -5 -8 -2 1 9 12 15 11 20 -4 37 -24 27 -39 25 -31 -2z m36
-19 c0 -6 -4 -7 -10 -4 -5 3 -10 11 -10 16 0 6 5 7 10 4 6 -3 10 -11 10 -16z"/>
<path d="M1557 1583 c-4 -3 -7 -17 -7 -29 0 -23 31 -41 50 -29 14 9 12 35 -2
35 -10 0 -10 2 0 9 11 7 10 10 -3 15 -21 8 -30 8 -38 -1z"/>
<path d="M197 1532 c-22 -24 -22 -47 2 -71 15 -15 26 -18 47 -12 38 10 51 33
38 68 -12 35 -61 44 -87 15z m40 2 c-3 -3 -12 -4 -19 -1 -8 3 -5 6 6 6 11 1
17 -2 13 -5z m38 -24 c3 -6 -1 -7 -9 -4 -18 7 -21 14 -7 14 6 0 13 -4 16 -10z
m-65 -4 c0 -3 -4 -8 -10 -11 -5 -3 -10 -1 -10 4 0 6 5 11 10 11 6 0 10 -2 10
-4z m41 -29 c-1 -12 -15 -9 -19 4 -3 6 1 10 8 8 6 -3 11 -8 11 -12z"/>
<path d="M429 1543 c-1 -4 0 -12 1 -18 2 -5 4 -47 4 -93 1 -62 5 -85 16 -92
28 -17 38 12 41 110 l3 95 -32 3 c-18 2 -33 0 -33 -5z m48 -41 c-3 -41 -27
-40 -27 2 0 27 4 34 14 30 9 -3 14 -17 13 -32z"/>
<path d="M1456 1501 c-14 -27 -12 -41 5 -41 12 0 40 56 32 64 -12 12 -23 6
-37 -23z m34 15 c0 -3 -4 -8 -10 -11 -5 -3 -10 -1 -10 4 0 6 5 11 10 11 6 0
10 -2 10 -4z"/>
<path d="M2182 1512 c-55 -43 -25 -149 40 -140 34 5 46 -11 63 -87 l12 -50 11
35 c7 19 13 59 15 88 3 29 11 60 20 70 20 21 27 61 16 87 -7 18 -8 17 -8 -7
-1 -27 -35 -61 -71 -73 -11 -3 -22 -15 -25 -26 -4 -11 -9 -18 -12 -16 -10 10
28 67 55 81 l27 15 -24 1 c-20 0 -22 3 -13 12 21 21 13 28 -35 28 -30 0 -57
-7 -71 -18z m68 -41 c-18 -15 -24 -28 -23 -55 1 -31 -1 -35 -13 -25 -30 24
-10 75 36 92 26 9 26 7 0 -12z"/>
<path d="M1524 1502 c-24 -16 -35 -51 -23 -74 24 -46 68 -51 103 -13 15 16 34
25 55 25 21 0 31 5 31 15 0 11 -11 15 -36 15 -24 0 -33 -4 -28 -12 4 -7 3 -8
-4 -4 -7 4 -12 14 -12 21 0 26 -59 45 -86 27z m70 -34 c22 -36 -39 -78 -68
-47 -8 9 -8 10 0 6 8 -5 11 2 10 18 0 14 -5 25 -9 25 -5 0 -5 5 -2 11 10 15
56 7 69 -13z"/>
<path d="M386 1493 c-4 -4 -21 -7 -39 -8 -24 0 -31 -4 -28 -15 3 -8 4 -27 3
-42 -1 -22 3 -28 18 -28 11 0 20 5 20 11 0 8 5 8 15 -1 21 -17 51 6 34 26 -6
7 -8 22 -4 33 6 20 -7 36 -19 24z"/>
<path d="M1020 1489 c0 -6 7 -9 15 -5 8 3 18 -2 23 -11 11 -18 32 -9 32 13 0
9 -11 14 -35 14 -19 0 -35 -5 -35 -11z"/>
<path d="M977 1484 c-9 -10 2 -24 19 -24 8 0 14 7 14 15 0 15 -21 21 -33 9z"/>
<path d="M1901 1433 c-1 -35 1 -63 3 -63 30 0 49 41 26 55 -5 3 -14 20 -19 38
-8 28 -9 25 -10 -30z"/>
<path d="M780 1470 c0 -31 30 -60 62 -60 24 0 98 33 98 44 0 1 -32 2 -70 1
-52 0 -73 4 -80 15 -9 13 -10 13 -10 0z"/>
<path d="M2108 1432 c-14 -42 -15 -59 -7 -75 14 -27 52 -60 100 -88 41 -24 57
-51 70 -124 18 -92 16 -120 -6 -120 -11 -1 -30 5 -42 13 -12 8 -27 11 -33 7
-18 -11 -11 -22 13 -18 13 3 31 -4 44 -16 17 -16 22 -17 27 -6 11 29 34 5 31
-33 -3 -47 2 -61 23 -58 18 3 23 34 26 146 l1 55 -35 0 -36 0 4 55 c4 72 -19
117 -80 149 -56 30 -69 50 -77 116 l-6 50 -17 -53z m213 -352 c5 0 9 8 10 18
0 14 2 14 8 -3 5 -11 7 -31 5 -45 -11 -96 -14 -113 -20 -119 -3 -3 -3 26 1 65
6 60 4 72 -9 77 -9 4 -15 14 -15 24 1 17 2 17 6 1 2 -10 9 -18 14 -18z m-1
-41 c0 -6 -4 -7 -10 -4 -5 3 -10 11 -10 16 0 6 5 7 10 4 6 -3 10 -11 10 -16z"/>
<path d="M1013 1432 c-31 -37 -35 -56 -8 -46 7 3 12 11 9 18 -5 14 23 42 33
33 3 -4 0 -14 -8 -24 -13 -15 -12 -15 13 1 25 16 26 18 10 37 -9 10 -17 19
-17 19 0 -1 -14 -17 -32 -38z"/>
<path d="M1266 1457 c-25 -18 -15 -92 17 -124 22 -22 23 -29 14 -58 -14 -48
-2 -85 28 -85 30 0 39 25 29 85 -6 41 -4 47 20 66 23 18 27 27 24 68 l-3 46
-45 0 c-25 0 -50 3 -56 7 -6 4 -18 2 -28 -5z m42 -19 c9 -9 18 -9 37 0 35 16
41 11 39 -33 -2 -44 -22 -67 -58 -67 -40 0 -56 19 -56 68 0 45 14 56 38 32z
m30 -158 c8 -32 7 -36 -10 -36 -14 0 -18 5 -14 21 3 11 6 29 6 39 0 26 6 18
18 -24z"/>
<path d="M1305 1396 c1 -6 7 -22 13 -36 l10 -25 10 25 c11 29 9 36 -17 43 -11
2 -18 0 -16 -7z"/>
<path d="M973 1443 c9 -9 20 -13 24 -9 4 4 1 11 -7 16 -25 16 -35 11 -17 -7z"/>
<path d="M159 1423 c-1 -10 -1 -27 -1 -38 6 -116 8 -122 20 -118 17 7 26 47
18 81 -4 15 -10 39 -13 55 -6 32 -22 46 -24 20z"/>
<path d="M224 1405 c-12 -38 -7 -53 16 -50 10 2 15 -7 16 -27 2 -41 18 -55 47
-39 13 7 30 11 38 9 10 -2 13 6 11 32 -3 37 -21 64 -29 43 -8 -21 -33 -15 -33
7 0 11 -7 23 -15 26 -8 4 -15 12 -15 20 0 28 -25 13 -36 -21z m42 -20 c-8 -8
-16 -15 -19 -15 -2 0 -4 7 -4 15 0 8 9 15 19 15 17 0 18 -2 4 -15z m30 -60
c-1 -14 -6 -28 -11 -33 -4 -4 -5 -2 -1 5 3 6 2 14 -4 18 -15 9 -12 35 4 35 10
0 14 -9 12 -25z m40 0 c-3 -9 -10 -13 -16 -10 -6 4 -5 11 3 20 15 16 22 11 13
-10z"/>
<path d="M1226 1396 c-6 -25 1 -56 13 -56 7 0 6 68 -1 76 -3 3 -8 -6 -12 -20z"/>
<path d="M1409 1382 c-3 -24 -1 -46 3 -48 13 -8 21 46 11 69 -9 19 -11 17 -14
-21z"/>
<path d="M1667 1414 c-4 -4 -7 -22 -7 -41 0 -44 -24 -101 -57 -135 l-26 -28
34 10 c41 12 41 12 36 3 -3 -5 8 -23 23 -42 l28 -33 1 61 c0 33 -3 61 -6 61
-4 0 -16 -8 -27 -17 l-21 -18 19 23 c32 37 34 187 3 156z"/>
<path d="M1465 1400 c-3 -6 1 -7 9 -4 18 7 21 14 7 14 -6 0 -13 -4 -16 -10z"/>
<path d="M371 1377 c-14 -17 3 -41 23 -34 9 4 16 13 16 21 0 19 -26 28 -39 13z"/>
<path d="M805 1380 c-8 -13 -9 -12 27 -27 20 -9 28 -9 31 0 2 7 6 -5 8 -25 4
-30 2 -35 -11 -29 -20 11 -61 4 -78 -13 -12 -11 -10 -13 11 -9 17 3 38 -4 63
-21 21 -14 44 -26 51 -26 18 0 16 20 -2 40 -14 16 -14 17 9 13 39 -8 66 13 66
50 0 18 -5 38 -12 45 -15 15 -74 16 -83 2 -6 -10 -22 -8 -61 7 -7 2 -15 -1
-19 -7z m157 -24 c4 -6 8 -15 8 -21 0 -5 -5 -3 -10 5 -5 8 -10 12 -10 8 0 -3
-3 -14 -7 -24 -5 -13 -3 -15 8 -10 8 4 5 0 -5 -8 -17 -14 -23 -14 -40 -2 -25
16 -27 35 -7 59 15 18 49 15 63 -7z"/>
<path d="M1513 1356 c19 -28 19 -30 2 -16 -11 8 -25 22 -32 30 -10 13 -11 12
-7 -5 7 -28 43 -50 57 -36 14 14 -6 58 -27 58 -12 0 -11 -6 7 -31z"/>
<path d="M2032 1372 c-21 -17 -22 -20 -8 -32 14 -11 20 -10 36 5 41 37 16 61
-28 27z"/>
<path d="M674 1352 c-56 -37 -12 -125 51 -102 59 21 43 110 -20 110 -11 0 -25
-4 -31 -8z m46 -32 c0 -5 -4 -10 -9 -10 -6 0 -13 5 -16 10 -3 6 1 10 9 10 9 0
16 -4 16 -10z m-46 -15 c-4 -8 -8 -15 -10 -15 -2 0 -4 7 -4 15 0 8 4 15 10 15
5 0 7 -7 4 -15z m76 5 c0 -5 -2 -10 -4 -10 -3 0 -8 5 -11 10 -3 6 -1 10 4 10
6 0 11 -4 11 -10z m-26 -26 c4 -9 4 -19 2 -21 -8 -8 -26 8 -26 23 0 19 16 18
24 -2z"/>
<path d="M1920 1340 c-23 -23 -26 -68 -7 -93 33 -46 117 -15 117 43 0 59 -70
90 -110 50z m74 -16 c28 -27 18 -66 -19 -77 -24 -8 -38 0 -54 30 -10 19 -8 26
9 43 24 24 43 25 64 4z"/>
<path d="M1931 1289 c0 -9 6 -22 14 -29 10 -9 15 -9 15 -1 0 6 -4 11 -9 11 -5
0 -12 8 -14 18 -4 14 -5 14 -6 1z"/>
<path d="M1605 1326 c-9 -13 -20 -38 -25 -55 -8 -28 -7 -30 9 -21 24 12 51 55
51 80 0 27 -16 25 -35 -4z"/>
<path d="M210 1313 c0 -10 -7 -29 -16 -41 -18 -27 -4 -29 19 -4 19 21 22 48 7
57 -5 3 -10 -2 -10 -12z"/>
<path d="M450 1322 c-14 -2 -32 -9 -40 -16 -8 -7 -24 -17 -35 -22 -17 -7 -14
-9 18 -12 34 -3 117 30 117 48 0 7 -26 8 -60 2z"/>
<path d="M1441 1308 c-5 -13 -7 -25 -5 -27 6 -6 54 29 54 39 0 20 -41 10 -49
-12z"/>
<path d="M2100 1283 c0 -36 15 -55 98 -126 18 -15 30 -33 27 -40 -4 -7 0 -4 8
6 22 26 5 76 -35 107 -17 14 -47 39 -65 57 l-33 31 0 -35z"/>
<path d="M533 1303 c-7 -2 -13 -11 -13 -19 0 -8 -4 -14 -10 -14 -12 0 -13 -37
-1 -44 5 -4 7 4 4 16 -4 20 -2 19 12 -4 8 -16 19 -28 24 -28 5 0 6 -20 3 -45
-4 -41 -3 -45 17 -45 21 0 25 12 21 71 -1 16 5 29 14 32 9 4 16 14 17 24 1 12
3 10 9 -7 l8 -25 1 28 c1 15 -3 27 -9 27 -5 0 -10 6 -10 14 0 21 -20 30 -33
17 -8 -8 -6 -11 6 -11 22 0 23 -43 2 -60 -23 -19 -65 2 -65 33 0 31 10 40 28
24 12 -10 14 -9 11 2 -6 17 -18 22 -36 14z m47 -128 c0 -8 -4 -15 -10 -15 -5
0 -10 7 -10 15 0 8 5 15 10 15 6 0 10 -7 10 -15z"/>
<path d="M1538 1300 c-9 -6 -31 -12 -49 -14 -38 -4 -64 -33 -48 -52 8 -9 6
-11 -8 -8 -25 7 -63 -31 -58 -57 8 -43 38 -59 80 -43 26 11 38 53 21 78 -13
21 -12 22 20 22 39 0 59 17 68 57 7 29 1 32 -26 17z m-112 -89 c-4 -5 0 -11 6
-14 7 -2 9 -8 5 -13 -9 -10 -28 16 -21 28 3 4 7 8 10 8 3 0 3 -4 0 -9z m-35
-44 c-10 -9 -11 -8 -5 6 3 10 9 15 12 12 3 -3 0 -11 -7 -18z m84 13 c3 -6 -1
-7 -9 -4 -18 7 -21 14 -7 14 6 0 13 -4 16 -10z m-25 -36 c0 -8 -4 -14 -10 -14
-5 0 -10 9 -10 21 0 11 5 17 10 14 6 -3 10 -13 10 -21z"/>
<path d="M2056 1302 c-8 -13 10 -62 24 -62 14 0 12 33 -3 55 -9 11 -16 14 -21
7z"/>
<path d="M237 1273 c-4 -3 -7 -17 -7 -30 0 -33 24 -24 28 10 3 26 -7 35 -21
20z"/>
<path d="M350 1248 c20 -16 20 -16 -7 -26 -16 -6 -22 -11 -14 -11 8 -1 22 -8
31 -16 16 -14 18 -14 24 0 4 11 2 14 -7 9 -9 -5 -9 -4 -1 6 16 16 45 6 83 -30
17 -17 39 -30 48 -30 14 0 14 3 -5 16 -12 8 -22 25 -22 38 0 41 -21 54 -88 58
-60 3 -62 2 -42 -14z"/>
<path d="M557 1250 c6 -23 19 -26 26 -6 3 8 -1 17 -9 20 -22 9 -23 8 -17 -14z"/>
<path d="M737 1236 c-87 -53 -108 -98 -68 -147 l19 -23 6 31 c4 17 18 41 32
53 13 13 24 34 24 46 0 21 2 22 28 9 36 -18 84 -23 89 -9 6 17 -44 64 -69 64
-13 0 -40 -11 -61 -24z"/>
<path d="M2013 1228 c-14 -17 1 -58 20 -58 8 0 20 7 28 16 10 12 10 17 0 23
-7 5 -12 12 -11 17 2 15 -26 16 -37 2z"/>
<path d="M263 1214 c-3 -8 -3 -25 -1 -38 4 -18 0 -26 -14 -29 -24 -7 -23 -33
1 -40 11 -2 21 -15 23 -28 3 -21 10 -25 53 -29 46 -5 48 -7 22 -14 -15 -5 -43
-6 -62 -3 -33 5 -34 5 -17 -12 46 -48 81 -45 137 15 29 31 40 36 69 32 26 -3
33 -1 25 8 -15 19 -57 22 -85 8 -34 -18 -34 -18 -34 6 0 11 6 20 14 20 7 0 16
9 19 20 3 12 0 20 -8 20 -7 0 -25 12 -40 28 -16 15 -25 22 -22 16 9 -15 -44
-14 -56 1 -5 6 -7 3 -3 -7 3 -10 1 -20 -4 -23 -6 -4 -10 4 -10 15 0 13 8 24
20 27 26 7 26 18 -1 20 -11 1 -23 -5 -26 -13z m42 -54 c-3 -5 1 -10 10 -10 9
0 13 5 10 10 -3 6 3 10 14 10 12 0 21 -7 21 -16 0 -8 4 -13 8 -10 5 3 7 -5 6
-17 -1 -12 -3 -33 -4 -47 -1 -24 -2 -23 -15 8 -20 46 -55 40 -68 -13 -3 -13
-5 -8 -6 13 -1 19 -5 31 -11 27 -5 -3 -10 1 -10 9 0 12 9 15 43 12 23 -2 33
-2 22 1 -37 8 -46 13 -40 23 3 5 11 10 16 10 6 0 7 -4 4 -10z m39 -66 c10 -27
7 -34 -19 -34 -18 0 -25 5 -25 18 0 34 33 45 44 16z"/>
<path d="M172 1198 c2 -15 10 -23 23 -23 14 0 20 7 21 23 1 17 -4 22 -23 22
-20 0 -24 -4 -21 -22z"/>
<path d="M899 1204 c-10 -13 -6 -28 24 -90 20 -41 37 -81 37 -89 0 -21 24 -19
51 5 20 17 22 21 9 29 -9 5 -31 41 -49 80 -37 75 -52 89 -72 65z m95 -136 c21
-30 2 -52 -20 -24 -16 23 -19 46 -5 46 6 0 17 -10 25 -22z"/>
<path d="M1560 1190 c0 -14 72 -140 80 -140 3 1 18 12 34 26 l28 25 -38 33
c-22 18 -43 33 -47 32 -5 0 -13 7 -18 17 -11 18 -39 24 -39 7z m78 -49 c12
-11 22 -24 22 -29 0 -16 -33 -24 -42 -10 -21 31 -27 46 -21 52 10 9 16 7 41
-13z"/>
<path d="M1885 1180 c-7 -12 2 -12 30 0 19 8 19 9 -2 9 -12 1 -25 -3 -28 -9z"/>
<path d="M1940 1180 c0 -5 -6 -10 -13 -10 -8 0 -25 -9 -38 -21 -22 -19 -22
-21 -6 -30 9 -6 15 -14 12 -19 -3 -4 2 -11 11 -14 10 -4 13 -2 8 6 -4 6 1 17
11 24 15 11 16 16 5 29 -8 9 -8 15 -2 15 23 0 30 -33 14 -58 -14 -21 -14 -24
-2 -20 8 2 15 10 15 17 0 6 5 15 10 19 16 11 16 32 1 32 -9 0 -12 7 -9 20 3
11 0 20 -6 20 -6 0 -11 -4 -11 -10z m-16 -39 c3 -5 -1 -14 -8 -20 -16 -13 -32
2 -21 19 8 12 22 13 29 1z"/>
<path d="M760 1165 c0 -18 24 -30 39 -21 16 10 1 36 -20 36 -10 0 -19 -7 -19
-15z"/>
<path d="M820 1170 c0 -16 38 -32 46 -19 7 12 -12 29 -33 29 -7 0 -13 -4 -13
-10z"/>
<path d="M1276 1139 c2 -28 1 -36 -4 -21 -10 32 -27 28 -27 -5 0 -19 5 -27 14
-25 12 3 12 0 2 -12 -8 -9 -11 -29 -8 -48 3 -22 -1 -39 -11 -51 -8 -9 -12 -20
-7 -25 4 -4 10 -1 12 6 3 6 10 9 16 5 6 -4 8 0 4 10 -11 30 10 18 48 -25 l37
-43 -7 40 c-3 21 -15 55 -25 75 -10 19 -18 53 -17 76 0 22 -6 50 -15 63 -16
23 -16 22 -12 -20z"/>
<path d="M2090 1141 c0 -17 5 -33 11 -37 8 -4 9 1 5 17 -3 13 1 9 10 -10 11
-24 12 -37 5 -44 -8 -8 -11 -6 -11 6 0 9 -4 17 -9 17 -4 0 -6 -11 -3 -25 4
-23 7 -24 21 -12 9 7 29 14 45 15 39 3 43 8 21 32 -14 16 -15 23 -6 34 10 12
6 16 -26 25 -57 16 -63 14 -63 -18z m76 -21 l-1 -29 -22 27 c-28 35 -28 40 1
35 18 -4 23 -11 22 -33z"/>
<path d="M146 1135 c-6 -17 9 -21 19 -5 11 17 25 11 25 -11 0 -16 -5 -20 -20
-16 -11 3 -17 1 -14 -4 3 -6 13 -9 22 -7 10 2 22 -3 29 -12 6 -8 14 -12 18 -9
3 4 0 13 -7 20 -7 8 -13 20 -14 27 -2 29 -5 32 -28 32 -13 0 -26 -7 -30 -15z"/>
<path d="M1996 1141 c-14 -22 -15 -79 -3 -89 21 -18 35 0 38 48 3 35 0 45 -13
48 -9 2 -19 -2 -22 -7z m24 -21 c0 -11 -4 -20 -10 -20 -5 0 -10 9 -10 20 0 11
5 20 10 20 6 0 10 -9 10 -20z"/>
<path d="M1338 1123 c-23 -27 -30 -60 -18 -83 16 -31 33 -25 25 10 -4 19 -1
41 8 60 17 33 9 40 -15 13z"/>
<path d="M1491 1126 c-15 -18 2 -56 23 -56 20 0 45 32 29 37 -7 2 -9 11 -6 19
7 19 -31 19 -46 0z"/>
<path d="M800 1119 c-12 -8 -10 -9 8 -4 16 5 22 2 22 -10 0 -13 -6 -16 -25
-11 -20 5 -25 3 -25 -11 0 -21 8 -32 33 -52 15 -12 17 -12 11 3 -4 11 -1 16
10 16 9 0 19 7 22 15 8 20 34 19 34 -1 0 -10 -6 -14 -15 -10 -9 3 -15 0 -15
-8 0 -8 -6 -17 -12 -19 -9 -4 -7 -6 3 -6 21 -1 49 31 49 57 0 43 -61 68 -100
41z m75 -10 c10 -14 1 -21 -19 -13 -9 3 -13 10 -10 15 7 12 21 11 29 -2z m-55
-45 c0 -17 -22 -14 -28 4 -2 7 3 12 12 12 9 0 16 -7 16 -16z"/>
<path d="M1386 1094 c-9 -8 -16 -19 -16 -24 0 -5 -3 -16 -6 -25 -5 -12 3 -10
30 9 21 14 46 28 57 31 31 10 22 25 -15 25 -19 0 -42 -7 -50 -16z"/>
<path d="M700 1067 c0 -15 -6 -27 -12 -27 -7 0 -4 -7 7 -16 11 -8 19 -18 17
-22 -2 -3 2 -8 10 -10 9 -2 8 0 -2 7 -8 6 -11 11 -6 11 5 0 3 6 -3 14 -10 11
-9 16 3 23 12 7 13 11 0 27 -13 19 -14 19 -14 -7z"/>
<path d="M740 1070 c8 -5 11 -10 6 -10 -5 0 -3 -6 3 -13 15 -19 1 -30 -18 -15
-12 10 -12 7 2 -8 9 -11 15 -24 12 -27 -3 -4 -3 -6 -1 -4 2 1 5 7 6 12 1 6 6
15 10 21 14 15 0 54 -19 54 -14 0 -14 -2 -1 -10z"/>
<path d="M195 1049 c-16 -4 -23 -7 -15 -8 12 -1 11 -4 -3 -12 -13 -8 -22 -7
-33 2 -8 6 -17 9 -21 6 -3 -4 2 -9 11 -13 10 -4 16 -17 16 -35 0 -29 13 -38
26 -18 3 6 15 9 25 6 20 -6 34 24 27 60 -2 15 -9 17 -33 12z m25 -39 c0 -11
-7 -20 -15 -20 -18 0 -19 12 -3 28 16 16 18 15 18 -8z"/>
<path d="M1512 1040 c-39 -37 -23 -92 33 -116 80 -33 136 52 77 119 -21 24
-82 22 -110 -3z m48 -15 c0 -17 -23 -25 -41 -14 -12 8 -11 12 5 24 21 16 36
12 36 -10z m54 12 c15 -11 16 -15 4 -25 -18 -14 -55 8 -44 26 9 15 18 15 40
-1z m-78 -73 c-6 -17 -8 -17 -24 0 -15 15 -15 18 -2 26 19 12 35 -3 26 -26z
m104 17 c0 -3 -5 -13 -10 -21 -12 -19 -35 2 -27 24 6 15 37 12 37 -3z m-45
-41 c0 -10 -8 -14 -24 -12 -30 3 -35 7 -26 22 10 16 50 8 50 -10z"/>
<path d="M1730 1036 c12 -14 23 -36 24 -50 1 -32 13 -33 37 -4 11 11 19 16 19
10 0 -6 -19 -30 -42 -53 -41 -40 -42 -41 -11 -25 36 18 63 52 63 78 0 20 -34
45 -80 58 l-33 9 23 -23z"/>
<path d="M1910 1046 c0 -8 -8 -16 -17 -18 -23 -4 -25 -49 -1 -56 10 -2 18 -10
18 -17 0 -7 6 -15 13 -18 17 -6 49 12 42 24 -4 5 3 9 14 9 30 0 29 48 -1 59
-13 5 -22 12 -20 17 1 5 -9 10 -23 12 -17 2 -25 -1 -25 -12z m40 -23 c0 -8 4
-12 9 -9 5 3 14 -1 20 -8 10 -11 8 -16 -8 -21 -12 -3 -21 -13 -21 -21 0 -8 -7
-14 -16 -14 -8 0 -13 4 -10 9 7 11 -18 33 -27 24 -4 -3 -7 1 -7 9 0 9 7 18 15
22 8 3 15 12 15 20 0 10 6 13 15 10 8 -4 15 -13 15 -21z"/>
<path d="M1374 1027 c-24 -14 -28 -77 -6 -85 7 -2 13 2 11 9 -4 35 2 41 39 39
62 -3 66 -1 41 19 -34 26 -61 32 -85 18z"/>
<path d="M1682 1023 c-19 -37 -22 -81 -6 -94 20 -16 33 -2 44 45 6 27 4 40 -7
51 -18 19 -20 19 -31 -2z m28 -23 c0 -11 -4 -20 -9 -20 -11 0 -22 26 -14 34
12 12 23 5 23 -14z"/>
<path d="M397 992 c-20 -21 -37 -43 -37 -50 0 -7 -16 -26 -35 -43 -38 -34 -44
-53 -19 -63 10 -4 29 5 50 24 19 16 38 30 42 30 15 0 92 78 92 92 0 13 -39 48
-53 48 -1 0 -20 -17 -40 -38z m38 -12 c-10 -11 -13 -20 -8 -20 6 0 16 7 23 15
7 8 16 12 21 9 9 -5 -59 -73 -73 -74 -5 0 -26 -16 -48 -36 -22 -20 -40 -30
-40 -23 0 16 39 59 54 59 17 1 60 40 52 47 -3 4 -12 1 -18 -5 -20 -20 -29 -13
-11 7 9 11 20 18 25 15 4 -3 8 1 8 10 0 8 6 16 13 19 20 7 21 -2 2 -23z"/>
<path d="M878 1010 c-14 -13 -17 -19 -8 -18 8 2 20 10 27 18 9 10 12 11 13 3
0 -7 7 -13 15 -13 16 0 20 -12 8 -24 -11 -10 -12 -37 -2 -30 5 3 7 10 4 15 -4
5 -2 9 4 9 5 0 7 -14 4 -33 -3 -23 0 -37 14 -48 28 -25 59 -31 72 -15 10 12 9
14 -7 10 -26 -7 -46 37 -27 62 12 17 13 17 9 -6 -5 -28 14 -64 22 -43 4 8 10
7 23 -5 33 -31 75 -62 79 -57 3 3 -7 28 -21 56 -15 28 -27 61 -27 74 0 12 -9
33 -20 46 l-20 24 11 -27 c10 -23 8 -32 -9 -60 -19 -29 -22 -30 -22 -11 0 12
5 25 10 28 6 3 10 11 10 17 0 6 -7 5 -17 -3 -15 -12 -16 -12 -10 4 8 21 -3 22
-29 2 -24 -18 -34 -19 -34 -1 0 7 -11 21 -24 30 -23 14 -26 14 -48 -4z"/>
<path d="M2075 1008 c-11 -11 -19 -24 -17 -29 1 -5 -3 -9 -9 -9 -5 0 -7 -4 -4
-10 9 -15 41 -12 56 6 10 13 10 17 0 24 -17 10 -3 33 16 26 8 -3 11 -1 8 4 -9
15 -28 11 -50 -12z m21 -35 c-7 -7 -26 7 -26 19 0 6 6 6 15 -2 9 -7 13 -15 11
-17z"/>
<path d="M245 1000 c-3 -4 -3 -15 1 -23 3 -9 -3 -16 -15 -20 -14 -3 -21 -13
-21 -29 0 -18 -2 -20 -10 -8 -7 11 -10 11 -10 2 0 -7 -4 -10 -10 -7 -16 10
-12 25 8 26 11 0 12 2 4 6 -7 3 -19 -1 -27 -7 -13 -11 -13 -15 3 -29 10 -9 16
-26 14 -40 -4 -25 18 -26 26 -1 3 7 0 10 -7 6 -19 -12 -12 10 9 29 12 10 18
25 16 32 -3 7 -1 13 4 13 6 0 10 -13 10 -29 0 -17 4 -33 10 -36 15 -9 24 43
10 60 -9 11 -9 15 -1 15 7 0 9 5 6 10 -9 14 19 12 33 -2 7 -7 12 -8 12 -2 0
13 -59 44 -65 34z"/>
<path d="M2158 1002 c-20 -4 -24 -17 -8 -27 6 -4 8 -15 5 -24 -6 -19 20 -49
32 -37 3 3 1 6 -6 6 -7 0 -10 4 -7 9 4 5 2 21 -4 35 -10 28 -2 34 19 14 10
-11 11 -9 5 7 -7 18 -6 18 9 7 9 -8 22 -10 28 -6 9 5 10 2 6 -9 -6 -17 7 -24
17 -9 8 13 -11 35 -23 28 -6 -4 -11 -2 -11 3 0 10 -23 11 -62 3z"/>
<path d="M758 976 c-16 -5 -28 -15 -28 -22 0 -18 40 -104 49 -104 4 0 15 -16
24 -35 15 -32 35 -44 50 -29 7 7 -11 52 -31 75 -10 13 -10 18 -1 21 9 3 8 16
-6 51 -10 26 -21 49 -24 51 -3 1 -18 -2 -33 -8z m36 -38 c23 -44 19 -60 -4
-18 -11 19 -19 38 -20 43 0 15 9 6 24 -25z m29 -101 c11 -15 17 -32 15 -38 -2
-7 -15 5 -29 26 -42 66 -67 120 -61 129 3 5 17 -13 31 -41 14 -28 34 -62 44
-76z"/>
<path d="M900 979 c0 -5 -4 -8 -8 -5 -5 3 -16 -8 -25 -24 -11 -18 -14 -31 -7
-35 5 -3 10 -1 10 5 0 6 5 8 10 5 6 -3 10 1 10 9 0 9 5 16 12 16 6 0 8 3 5 7
-4 3 -2 12 4 20 9 9 8 13 0 13 -6 0 -11 -5 -11 -11z"/>
<path d="M2200 960 c-12 -8 -12 -10 -1 -10 9 0 12 -8 9 -25 -4 -16 -1 -25 8
-25 9 0 10 8 4 29 -4 16 -6 32 -2 35 8 9 -1 7 -18 -4z"/>
<path d="M310 945 c-10 -12 -16 -13 -28 -3 -13 11 -14 11 -7 -2 21 -37 26 -40
48 -20 14 14 18 23 11 30 -8 8 -15 6 -24 -5z"/>
<path d="M473 923 c-39 -39 -40 -43 -9 -43 30 0 48 22 44 53 -3 23 -3 23 -35
-10z"/>
<path d="M1261 951 c-11 -7 -9 -15 10 -40 23 -31 49 -41 49 -18 -1 23 -44 67
-59 58z"/>
<path d="M1821 941 c-6 -11 -40 -33 -76 -50 -54 -26 -65 -35 -65 -56 0 -29 7
-30 35 -9 11 8 37 19 58 25 47 12 77 41 77 73 0 32 -16 42 -29 17z"/>
<path d="M2242 948 c-19 -19 -14 -29 8 -16 20 13 27 28 12 28 -4 0 -13 -5 -20
-12z"/>
<path d="M1445 940 c3 -6 -1 -7 -9 -4 -9 3 -16 2 -16 -4 0 -5 -22 -19 -50 -31
-28 -12 -50 -28 -50 -36 0 -8 3 -15 8 -15 4 0 16 -16 27 -35 12 -23 24 -34 33
-30 53 20 57 18 57 -30 1 -40 -1 -44 -12 -29 -7 10 -13 24 -13 32 0 7 -4 10
-10 7 -12 -8 13 -60 33 -68 19 -7 107 52 107 72 0 9 -5 22 -11 28 -8 8 -7 16
2 30 18 29 4 57 -24 49 -19 -4 -25 1 -40 34 -9 22 -22 40 -28 40 -5 0 -7 -4
-4 -10z m25 -45 c17 -21 6 -30 -13 -10 -17 17 -32 20 -22 5 3 -5 -5 -15 -19
-22 -28 -12 -30 -16 -17 -37 7 -10 13 -11 30 -2 11 7 21 14 21 17 0 3 -4 3 -9
-1 -5 -3 -12 -1 -15 4 -7 12 30 25 44 16 18 -11 11 -25 -22 -45 -43 -26 -58
-25 -59 3 -1 16 -2 18 -6 5 -5 -19 -23 -25 -23 -9 0 5 -3 16 -6 25 -9 23 40
66 74 66 16 0 35 -7 42 -15z m38 -47 c-2 -7 3 -12 11 -10 12 3 12 0 2 -12 -10
-12 -10 -19 3 -37 16 -24 12 -31 -36 -61 -23 -15 -27 -16 -32 -2 -21 55 7 82
47 47 16 -14 19 -15 15 -3 -2 8 -20 20 -39 27 -27 9 -30 13 -17 18 10 4 20 15
23 26 7 21 27 27 23 7z"/>
<path d="M1360 849 c0 -5 5 -7 10 -4 6 3 10 8 10 11 0 2 -4 4 -10 4 -5 0 -10
-5 -10 -11z"/>
<path d="M2002 938 c-7 -7 -12 -20 -12 -31 0 -18 -1 -18 -34 2 -38 24 -68 29
-48 9 7 -7 12 -22 12 -33 0 -26 30 -55 59 -58 l21 -1 -22 -23 c-20 -21 -20
-23 -4 -48 10 -14 24 -29 32 -32 25 -9 62 6 70 30 9 25 9 22 0 60 -5 22 -3 27
12 27 35 0 56 38 53 94 -1 19 -2 19 -23 -1 -13 -11 -42 -29 -66 -41 -39 -18
-42 -18 -27 -2 28 31 6 77 -23 48z m16 -109 c-3 -8 -7 -3 -11 10 -4 17 -3 21
5 13 5 -5 8 -16 6 -23z"/>
<path d="M1870 913 c-17 -20 -24 -69 -11 -77 13 -8 41 17 46 42 2 13 0 20 -6
17 -5 -4 -7 -11 -4 -16 4 -5 -1 -9 -9 -9 -8 0 -18 5 -21 10 -3 6 -2 10 3 10 5
0 12 9 15 20 6 24 5 25 -13 3z"/>
<path d="M2247 895 c-20 -14 -41 -25 -46 -25 -6 0 -11 -5 -11 -10 0 -13 43
-30 77 -30 22 0 24 2 13 15 -11 13 -11 20 0 40 19 35 9 38 -33 10z"/>
<path d="M1613 894 c-3 -8 2 -23 11 -32 16 -16 18 -16 31 2 11 14 12 23 4 33
-15 18 -38 16 -46 -3z"/>
<path d="M889 893 c0 -5 -2 -16 -4 -25 -4 -21 23 -32 41 -17 10 8 11 16 3 30
-9 18 -38 27 -40 12z"/>
<path d="M2316 893 c-3 -4 -6 -21 -6 -40 0 -23 5 -33 15 -33 8 0 15 9 15 20 0
11 -4 20 -10 20 -5 0 -10 8 -10 18 0 13 2 14 9 3 5 -8 11 -9 15 -3 7 11 -18
24 -28 15z"/>
<path d="M225 850 c-4 -11 -13 -19 -22 -18 -18 3 -41 -27 -29 -39 4 -4 13 0
20 10 16 21 26 22 26 2 0 -7 8 -19 18 -24 14 -8 12 -10 -12 -8 -40 3 -57 -25
-32 -52 11 -12 23 -21 28 -21 14 0 49 40 43 50 -4 6 -2 10 4 10 5 0 13 -4 16
-10 10 -16 40 -12 58 8 22 24 22 27 -8 30 -14 1 -36 3 -50 5 -19 2 -25 9 -30
40 -7 41 -20 48 -30 17z"/>
<path d="M388 858 c-8 -7 -18 -24 -21 -37 -8 -33 34 -75 66 -65 31 9 47 24 47
43 0 13 2 13 9 2 5 -8 15 -11 23 -8 16 6 13 63 -4 73 -6 4 -8 -1 -4 -14 4 -12
1 -22 -8 -25 -10 -4 -12 0 -9 16 3 15 2 18 -5 9 -7 -10 -11 -10 -22 3 -15 18
-50 20 -72 3z m72 -28 c14 -27 -19 -65 -48 -56 -28 9 -39 44 -18 62 9 8 11 9
6 2 -15 -19 -12 -32 5 -18 8 7 15 19 15 26 0 18 28 7 40 -16z"/>
<path d="M1016 852 c-5 -9 38 -80 59 -97 11 -10 15 -17 15 -32 0 -4 13 6 29
21 l30 29 -41 33 c-22 19 -44 32 -48 29 -4 -3 -10 2 -14 10 -6 16 -22 20 -30
7z m80 -53 c15 -17 16 -22 4 -29 -16 -10 -50 14 -50 37 0 20 24 16 46 -8z"/>
<path d="M1790 833 c-19 -8 -38 -20 -42 -26 -14 -22 9 -27 46 -12 21 9 40 14
43 11 8 -8 -58 -32 -105 -38 -24 -4 -40 -2 -36 3 3 5 12 9 20 9 8 0 14 4 14
10 0 6 -10 5 -25 -2 -69 -31 21 -42 103 -12 44 16 51 29 30 56 -12 14 -17 14
-48 1z m30 -12 c-8 -5 -26 -11 -40 -15 -21 -5 -20 -3 5 9 32 15 60 20 35 6z"/>
<path d="M1574 829 c-11 -18 12 -31 52 -27 27 2 40 8 42 21 3 14 -4 17 -42 17
-25 0 -48 -5 -52 -11z m78 -11 c-9 -9 -15 -9 -24 0 -9 9 -7 12 12 12 19 0 21
-3 12 -12z"/>
<path d="M2169 828 c0 -7 -2 -30 -5 -50 -2 -20 1 -40 6 -43 6 -3 10 -3 10 2 0
4 20 7 45 6 25 0 45 3 45 9 0 5 -13 7 -30 4 -34 -5 -44 5 -35 33 5 16 12 19
43 14 40 -7 57 -22 42 -37 -14 -14 -12 -29 2 -19 7 4 22 7 33 8 27 0 33 35 6
35 -11 0 -22 4 -25 9 -3 5 -27 12 -53 17 -27 4 -50 8 -53 8 -3 1 -11 5 -17 9
-8 5 -13 3 -14 -5z"/>
<path d="M868 824 c-8 -7 15 -144 23 -144 5 0 14 9 21 20 9 14 24 20 52 20 32
0 37 2 26 14 -6 8 -18 12 -26 9 -8 -3 -14 0 -14 7 0 6 4 9 9 6 4 -3 8 8 7 24
-1 29 0 29 -83 46 -6 1 -13 0 -15 -2z m71 -23 c9 -6 10 -14 4 -25 -8 -15 -12
-13 -31 9 -19 22 -20 25 -4 25 9 0 23 -4 31 -9z m-29 -70 c0 -9 -5 -23 -10
-31 -7 -11 -10 -7 -10 17 0 17 -3 40 -6 50 -5 16 -4 16 10 -1 9 -11 16 -27 16
-35z"/>
<path d="M2101 793 c0 -27 1 -27 11 -6 6 12 18 24 27 26 9 3 4 5 -11 6 -24 1
-28 -3 -27 -26z"/>
<path d="M1000 780 c0 -21 4 -30 13 -27 6 2 12 14 12 27 0 13 -6 25 -12 28 -9
2 -13 -7 -13 -28z"/>
<path d="M1587 777 c3 -5 13 -7 23 -4 11 3 21 -2 24 -10 4 -11 0 -13 -17 -9
-12 3 -16 3 -9 0 6 -3 9 -11 5 -17 -4 -7 0 -8 11 -4 10 4 22 7 27 7 6 0 7 5 4
10 -3 6 -1 10 6 10 9 0 10 3 3 10 -13 13 -85 20 -77 7z"/>
<path d="M1348 768 c-7 -17 1 -38 13 -38 6 0 8 4 5 9 -4 5 3 7 14 4 16 -4 19
-2 14 11 -4 10 -13 15 -21 12 -8 -3 -11 -1 -8 4 3 6 2 10 -3 10 -6 0 -12 -6
-14 -12z"/>
<path d="M467 763 c-9 -9 33 -54 44 -47 13 8 11 21 -7 38 -17 17 -27 20 -37 9z"/>
<path d="M360 742 c0 -18 33 -52 49 -52 11 0 29 9 42 20 l24 19 -32 1 c-17 0
-43 4 -57 10 -14 5 -26 6 -26 2z"/>
</g>
</svg>
