<svg xmlns="http://www.w3.org/2000/svg" width="30" height="30" viewBox="0 0 30 30">
  <metadata><?xpacket begin="﻿" id="W5M0MpCehiHzreSzNTczkc9d"?>
<x:xmpmeta xmlns:x="adobe:ns:meta/" x:xmptk="Adobe XMP Core 5.6-c138 79.159824, 2016/09/14-01:09:01        ">
   <rdf:RDF xmlns:rdf="http://www.w3.org/1999/02/22-rdf-syntax-ns#">
      <rdf:Description rdf:about=""/>
   </rdf:RDF>
</x:xmpmeta>
                                                                                                    
                                                                                                    
                                                                                                    
                                                                                                    
                                                                                                    
                                                                                                    
                                                                                                    
                                                                                                    
                                                                                                    
                                                                                                    
                                                                                                    
                                                                                                    
                                                                                                    
                                                                                                    
                                                                                                    
                                                                                                    
                                                                                                    
                                                                                                    
                                                                                                    
                                                                                                    
                           
<?xpacket end="w"?></metadata>
<defs>
    <style>
      .cls-1 {
        fill: #3b5998;
        fill-rule: evenodd;
      }
    </style>
  </defs>
  <path id="icon-facebook" class="cls-1" d="M234,921H212a4,4,0,0,1-4-4V895a4,4,0,0,1,4-4h22a4,4,0,0,1,4,4v22A4,4,0,0,1,234,921Zm-8.87-20.708h2.133V897h-3.631a2.984,2.984,0,0,0-3.04,3.094c0,0.667,0,1.882-.008,3.335H218.5v2.652h2.08c-0.012,4.218-.026,8.917-0.026,8.917h3.708v-8.917h2.449l0.79-2.652h-3.239v-1.606S224.081,900.292,225.13,900.292Z" transform="translate(-208 -891)"/>
</svg>
