<svg 
 xmlns="http://www.w3.org/2000/svg"
 xmlns:xlink="http://www.w3.org/1999/xlink"
 width="40px" height="40px">
<path fill-rule="evenodd"  fill="rgb(0, 93, 151)"
 d="M30.421,18.564 L31.516,22.630 L11.407,27.993 L10.313,23.927 L0.742,26.480 L0.466,25.455 C-1.279,18.972 2.249,12.304 8.414,10.017 C7.706,5.682 10.389,1.423 14.720,0.268 C19.051,-0.887 23.514,1.465 25.078,5.573 C31.566,4.485 37.971,8.504 39.716,14.987 L39.991,16.011 L30.421,18.564 ZM12.733,25.695 L29.213,21.300 L28.607,19.047 L12.127,23.443 L12.733,25.695 ZM15.209,2.083 C11.899,2.965 9.819,6.162 10.235,9.471 L23.227,6.006 C21.925,2.933 18.518,1.200 15.209,2.083 ZM24.366,7.647 L10.073,11.459 C4.459,12.957 1.018,18.550 2.097,24.173 L9.824,22.112 L29.932,16.749 L37.660,14.688 C35.769,9.282 29.980,6.150 24.366,7.647 ZM28.963,11.714 L30.777,11.230 L31.651,14.478 L29.837,14.962 L28.963,11.714 ZM17.642,14.734 L19.456,14.250 L20.330,17.497 L18.516,17.981 L17.642,14.734 ZM6.321,17.753 L8.135,17.269 L9.009,20.517 L7.195,21.001 L6.321,17.753 Z"/>
<path fill-rule="evenodd"  fill="rgb(0, 93, 151)"
 d="M37.349,32.758 L30.349,26.758 L31.651,25.240 L38.651,31.240 L37.349,32.758 ZM22.042,29.286 L23.958,28.712 L26.958,38.712 L25.042,39.286 L22.042,29.286 ZM11.006,38.889 L13.006,29.889 L14.994,30.109 L12.994,39.109 L11.006,38.889 Z"/>
</svg>