<svg xmlns="http://www.w3.org/2000/svg" width="30" height="30" viewBox="0 0 30 30">
  <metadata><?xpacket begin="﻿" id="W5M0MpCehiHzreSzNTczkc9d"?>
<x:xmpmeta xmlns:x="adobe:ns:meta/" x:xmptk="Adobe XMP Core 5.6-c138 79.159824, 2016/09/14-01:09:01        ">
   <rdf:RDF xmlns:rdf="http://www.w3.org/1999/02/22-rdf-syntax-ns#">
      <rdf:Description rdf:about=""/>
   </rdf:RDF>
</x:xmpmeta>
                                                                                                    
                                                                                                    
                                                                                                    
                                                                                                    
                                                                                                    
                                                                                                    
                                                                                                    
                                                                                                    
                                                                                                    
                                                                                                    
                                                                                                    
                                                                                                    
                                                                                                    
                                                                                                    
                                                                                                    
                                                                                                    
                                                                                                    
                                                                                                    
                                                                                                    
                                                                                                    
                           
<?xpacket end="w"?></metadata>
<defs>
    <style>
      .cls-1 {
        fill: #fff;
        fill-rule: evenodd;
      }
    </style>
  </defs>
  <path id="icon-instagram-white" class="cls-1" d="M370.922,916.36a9.509,9.509,0,0,1-.605,3.155,6.641,6.641,0,0,1-3.8,3.8,9.509,9.509,0,0,1-3.155.605c-1.387.063-1.829,0.078-5.36,0.078s-3.973-.015-5.36-0.078a9.521,9.521,0,0,1-3.156-.605,6.648,6.648,0,0,1-3.8-3.8,9.538,9.538,0,0,1-.6-3.155c-0.063-1.387-.078-1.829-0.078-5.36s0.015-3.973.078-5.36a9.55,9.55,0,0,1,.6-3.156,6.656,6.656,0,0,1,3.8-3.8,9.55,9.55,0,0,1,3.156-.6c1.387-.063,1.829-0.078,5.36-0.078s3.973,0.015,5.36.078a9.538,9.538,0,0,1,3.155.6,6.648,6.648,0,0,1,3.8,3.8,9.521,9.521,0,0,1,.605,3.156c0.063,1.387.078,1.829,0.078,5.36S370.985,914.973,370.922,916.36Zm-2.34-10.613a7.193,7.193,0,0,0-.448-2.414,4.3,4.3,0,0,0-2.467-2.467,7.193,7.193,0,0,0-2.414-.448c-1.371-.062-1.782-0.076-5.253-0.076s-3.882.014-5.253,0.076a7.193,7.193,0,0,0-2.414.448,4.3,4.3,0,0,0-2.467,2.467,7.193,7.193,0,0,0-.448,2.414c-0.062,1.371-.076,1.782-0.076,5.253s0.014,3.882.076,5.253a7.193,7.193,0,0,0,.448,2.414,4.3,4.3,0,0,0,2.467,2.467,7.193,7.193,0,0,0,2.414.448c1.37,0.062,1.782.076,5.253,0.076s3.882-.014,5.253-0.076a7.193,7.193,0,0,0,2.414-.448,4.3,4.3,0,0,0,2.467-2.467,7.193,7.193,0,0,0,.448-2.414c0.062-1.371.076-1.782,0.076-5.253S368.644,907.118,368.582,905.747Zm-3.643-.126a1.56,1.56,0,1,1,1.56-1.56A1.561,1.561,0,0,1,364.939,905.621ZM358,917.676A6.676,6.676,0,1,1,364.676,911,6.676,6.676,0,0,1,358,917.676Zm0-11.009A4.333,4.333,0,1,0,362.333,911,4.333,4.333,0,0,0,358,906.667Z" transform="translate(-343 -896)"/>
</svg>
