<svg xmlns="http://www.w3.org/2000/svg" width="64" height="64" viewBox="0 0 64 64">
  <metadata><?xpacket begin="﻿" id="W5M0MpCehiHzreSzNTczkc9d"?>
<x:xmpmeta xmlns:x="adobe:ns:meta/" x:xmptk="Adobe XMP Core 5.6-c138 79.159824, 2016/09/14-01:09:01        ">
   <rdf:RDF xmlns:rdf="http://www.w3.org/1999/02/22-rdf-syntax-ns#">
      <rdf:Description rdf:about=""/>
   </rdf:RDF>
</x:xmpmeta>
                                                                                                    
                                                                                                    
                                                                                                    
                                                                                                    
                                                                                                    
                                                                                                    
                                                                                                    
                                                                                                    
                                                                                                    
                                                                                                    
                                                                                                    
                                                                                                    
                                                                                                    
                                                                                                    
                                                                                                    
                                                                                                    
                                                                                                    
                                                                                                    
                                                                                                    
                                                                                                    
                           
<?xpacket end="w"?></metadata>
<defs>
    <style>
      .cls-1 {
        fill: #89af0f;
        fill-rule: evenodd;
      }
    </style>
  </defs>
  <path id="icon-clown" class="cls-1" d="M326.96,255.239c-0.728,1.121.421,2.493,1.5,3.563a35.483,35.483,0,0,0,10.077,6.565,7.188,7.188,0,0,0,2.438.606,1.576,1.576,0,0,0,1.424-.673,1.387,1.387,0,0,0,.219-0.695l3.962-16.144a4.313,4.313,0,0,0,1.192-7.766h0a4.308,4.308,0,0,0-6.652,3.516l-13.618,10.545A1.811,1.811,0,0,0,326.96,255.239Zm14.565,5.515a1.973,1.973,0,1,1,.893-3.639Zm1.957-17.713a2.322,2.322,0,0,1,3.212-.681h0a2.326,2.326,0,0,1-.785,4.223c-0.07.015-.251,0.038-0.271,0.041A2.325,2.325,0,0,1,343.482,243.041Zm-4.907,5.654a1.973,1.973,0,0,1-2.726,2.733,2.008,2.008,0,0,1-.384-0.326Zm-4.681,3.625a3.984,3.984,0,0,0,.873.772,3.949,3.949,0,0,0,5.47-1.16,3.961,3.961,0,0,0-.091-4.455l1.479-1.145a4.324,4.324,0,0,0,2.9,2.193l-1.623,6.611a3.959,3.959,0,1,0-1.864,7.6l-0.3,1.238a28.484,28.484,0,0,1-11.886-7.744Zm-7.232,20.732a0.992,0.992,0,0,1,.991-0.993,1.969,1.969,0,0,1,1.965,1.969A2.162,2.162,0,0,1,326.662,273.052Zm11.7,9.228c-2.438,4.36-6.443,6.962-10.713,6.962s-8.275-2.6-10.713-6.962a0.992,0.992,0,1,1,1.73-.97c2.083,3.723,5.441,5.947,8.983,5.947s6.9-2.224,8.983-5.947A0.992,0.992,0,1,1,338.366,282.28Zm10.8-18.07A5.723,5.723,0,0,0,348.4,264a5.66,5.66,0,0,0,.318-0.732,5.8,5.8,0,0,0-1.178-5.846c-0.082-.09-0.167-0.176-0.25-0.257a0.992,0.992,0,0,0-1.381,1.425c0.055,0.054.111,0.111,0.166,0.171a3.816,3.816,0,0,1-.3,5.433,0.993,0.993,0,0,0,.82,1.727,3.8,3.8,0,0,1,1.912.165,3.818,3.818,0,0,1-1.077,7.395,0.993,0.993,0,0,0-.786,1.524,3.811,3.811,0,0,1-3.487,5.844,6.129,6.129,0,0,0-.136-0.605,5.706,5.706,0,0,0-2.716-3.453,5.409,5.409,0,0,0-.633-0.306,3.858,3.858,0,0,1,.8-1.822,0.993,0.993,0,0,0-.449-1.56,3.867,3.867,0,0,1-2.245-1.983,3.768,3.768,0,0,1-.147-2.909,0.992,0.992,0,1,0-1.869-.664,5.743,5.743,0,0,0,.229,4.434,5.8,5.8,0,0,0,2.27,2.482,5.859,5.859,0,0,0-.524,1.6,5.745,5.745,0,0,0-5.234,2.93h0a7.819,7.819,0,0,1-2.45,2.755,4.163,4.163,0,0,1-4.79,0,7.83,7.83,0,0,1-2.451-2.755,5.735,5.735,0,0,0-5.012-2.934h0a4.123,4.123,0,0,0-.533-1.05,4.944,4.944,0,0,0,.336-7.809,6.364,6.364,0,0,0,1.716-1.99,8.529,8.529,0,0,0,.984-2.959,5.061,5.061,0,0,0,1.932.727,5.5,5.5,0,0,0,5.459-2.331,0.992,0.992,0,1,0-1.665-1.078,3.546,3.546,0,0,1-3.479,1.449,2.933,2.933,0,0,1-2.415-2.1q-0.034-.13-0.075-0.258a0.991,0.991,0,0,0-1.9.546c0.022,0.088.047,0.174,0.074,0.259a6.756,6.756,0,0,1-.636,4.762,3.879,3.879,0,0,1-2.4,1.956,0.993,0.993,0,0,0-.03,1.921,3.005,3.005,0,0,1,1.839,1.429,2.924,2.924,0,0,1,.256,2.25,2.961,2.961,0,0,1-1.916,2,0.993,0.993,0,0,0-.318,1.709,2.9,2.9,0,0,1,.787.927,5.741,5.741,0,0,0-3.6,4.171,2.965,2.965,0,0,1-1.155-4.911,0.992,0.992,0,0,0-.873-1.682,3.417,3.417,0,0,1-3.519-1.138,3.006,3.006,0,0,1-.447-3.028,3.117,3.117,0,0,1,2.852-1.645,0.992,0.992,0,0,0,.7-1.622c-2.2-2.678-2.822-5.482-1.741-7.9a6.85,6.85,0,0,1,5.909-3.9,0.936,0.936,0,0,0,.14-0.015,1,1,0,0,0,.652-0.433,4.709,4.709,0,0,1,2.737-2.03,2.6,2.6,0,0,1,2.09.75,0.992,0.992,0,0,0,1.625-.625,4.082,4.082,0,0,1,3.395-3.74,4.154,4.154,0,0,1,4.432,1.9,0.992,0.992,0,1,0,1.744-.944,6.15,6.15,0,0,0-6.533-2.908,6,6,0,0,0-4.653,3.971,4.127,4.127,0,0,0-2.379-.368,6.4,6.4,0,0,0-3.815,2.493,8.871,8.871,0,0,0-7.153,5.041c-0.733,1.637-1.472,4.811,1.056,8.668a4.636,4.636,0,0,0-2.868,2.5,5.014,5.014,0,0,0,.7,5.063,5.108,5.108,0,0,0,3.424,1.928c-0.051.133-.1,0.269-0.135,0.406a4.947,4.947,0,0,0,3.39,6.117c0.118,0.034.237,0.063,0.357,0.088a5.713,5.713,0,0,0,.672,1.984,19.322,19.322,0,0,0,6.174,6.753,15.566,15.566,0,0,0,17.353,0A19.315,19.315,0,0,0,342.5,284.6a5.755,5.755,0,0,0,.641-1.769,5.8,5.8,0,0,0,5.788-7.606A5.823,5.823,0,0,0,349.17,264.21Zm-8.4,19.422a17.334,17.334,0,0,1-5.53,6.063,13.583,13.583,0,0,1-15.18,0,17.314,17.314,0,0,1-5.53-6.062,3.764,3.764,0,0,1,1.438-5.114,3.751,3.751,0,0,1,5.107,1.44,9.809,9.809,0,0,0,3.094,3.446,6.142,6.142,0,0,0,6.963,0,9.809,9.809,0,0,0,3.094-3.446A3.752,3.752,0,0,1,340.773,283.632ZM332.6,267.6h-0.176a0.993,0.993,0,0,1,0-1.986H332.6A0.993,0.993,0,0,1,332.6,267.6Zm-4.946,11.42a4.994,4.994,0,1,0-4.987-4.994A5,5,0,0,0,327.653,279.022Zm0-8a3.008,3.008,0,1,1-3,3.008A3.009,3.009,0,0,1,327.653,271.02Zm-4.77-3.418h-0.176a0.993,0.993,0,0,1,0-1.986h0.176A0.993,0.993,0,0,1,322.883,267.6Z" transform="translate(-296.5 -235)"/>
</svg>
