<svg xmlns="http://www.w3.org/2000/svg" width="30" height="30" viewBox="0 0 30 30">
  <metadata><?xpacket begin="﻿" id="W5M0MpCehiHzreSzNTczkc9d"?>
<x:xmpmeta xmlns:x="adobe:ns:meta/" x:xmptk="Adobe XMP Core 5.6-c138 79.159824, 2016/09/14-01:09:01        ">
   <rdf:RDF xmlns:rdf="http://www.w3.org/1999/02/22-rdf-syntax-ns#">
      <rdf:Description rdf:about=""/>
   </rdf:RDF>
</x:xmpmeta>
                                                                                                    
                                                                                                    
                                                                                                    
                                                                                                    
                                                                                                    
                                                                                                    
                                                                                                    
                                                                                                    
                                                                                                    
                                                                                                    
                                                                                                    
                                                                                                    
                                                                                                    
                                                                                                    
                                                                                                    
                                                                                                    
                                                                                                    
                                                                                                    
                                                                                                    
                                                                                                    
                           
<?xpacket end="w"?></metadata>
<defs>
    <style>
      .cls-1 {
        fill: #fff;
        fill-rule: evenodd;
      }
    </style>
  </defs>
  <path id="icon-sale" class="cls-1" d="M466.7,911.783l-2.965,3.21,0.6,4.424a1.122,1.122,0,0,1-.879,1.267l-4.2.772-2,3.946a1.07,1.07,0,0,1-.951.6,1.041,1.041,0,0,1-.471-0.114L452,923.924l-3.831,1.962a1.053,1.053,0,0,1-1.422-.484l-2-3.946-4.2-.772a1.122,1.122,0,0,1-.879-1.267l0.6-4.424-2.965-3.21a1.165,1.165,0,0,1,0-1.566l2.965-3.211-0.6-4.423a1.12,1.12,0,0,1,.878-1.267l4.2-.771,2-3.947a1.052,1.052,0,0,1,1.422-.484L452,898.076l3.831-1.962a1.052,1.052,0,0,1,1.422.484l2,3.946,4.2,0.772a1.121,1.121,0,0,1,.879,1.267l-0.6,4.423,2.965,3.211A1.163,1.163,0,0,1,466.7,911.783Zm-4.875-3.606a1.158,1.158,0,0,1-.292-0.941l0.525-3.889-3.693-.679a1.081,1.081,0,0,1-.764-0.581l-1.757-3.47-3.369,1.725a1.028,1.028,0,0,1-.944,0l-3.369-1.725-1.757,3.47a1.077,1.077,0,0,1-.764.581l-3.693.679,0.525,3.889a1.158,1.158,0,0,1-.292.941L439.57,911l2.607,2.823a1.158,1.158,0,0,1,.292.941l-0.525,3.89,3.693,0.678a1.079,1.079,0,0,1,.764.582l1.757,3.47,3.369-1.725a1.026,1.026,0,0,1,.944,0l3.369,1.725,1.757-3.47a1.083,1.083,0,0,1,.764-0.582l3.693-.678-0.525-3.89a1.16,1.16,0,0,1,.292-0.941L464.428,911Zm-6.407,9.128a2.73,2.73,0,1,1,2.6-2.728A2.67,2.67,0,0,1,455.414,917.305Zm0-3.653a0.927,0.927,0,1,0,.883.925A0.906,0.906,0,0,0,455.414,913.652Zm-7.391,2.788a0.833,0.833,0,0,1-1.217,0,0.933,0.933,0,0,1,0-1.274l9.17-9.606a0.832,0.832,0,0,1,1.216,0,0.931,0.931,0,0,1,0,1.274Zm0.562-6.29a2.73,2.73,0,1,1,2.6-2.727A2.67,2.67,0,0,1,448.585,910.15Zm0-3.653a0.927,0.927,0,1,0,.883.926A0.906,0.906,0,0,0,448.585,906.5Z" transform="translate(-437.015 -896)"/>
</svg>
