<svg xmlns="http://www.w3.org/2000/svg" width="64" height="64" viewBox="0 0 64 64">
  <metadata><?xpacket begin="﻿" id="W5M0MpCehiHzreSzNTczkc9d"?>
<x:xmpmeta xmlns:x="adobe:ns:meta/" x:xmptk="Adobe XMP Core 5.6-c138 79.159824, 2016/09/14-01:09:01        ">
   <rdf:RDF xmlns:rdf="http://www.w3.org/1999/02/22-rdf-syntax-ns#">
      <rdf:Description rdf:about=""/>
   </rdf:RDF>
</x:xmpmeta>
                                                                                                    
                                                                                                    
                                                                                                    
                                                                                                    
                                                                                                    
                                                                                                    
                                                                                                    
                                                                                                    
                                                                                                    
                                                                                                    
                                                                                                    
                                                                                                    
                                                                                                    
                                                                                                    
                                                                                                    
                                                                                                    
                                                                                                    
                                                                                                    
                                                                                                    
                                                                                                    
                           
<?xpacket end="w"?></metadata>
<defs>
    <style>
      .cls-1 {
        fill: #1bbee8;
        fill-rule: evenodd;
      }
    </style>
  </defs>
  <path id="icon-pillow" class="cls-1" d="M643.52,257.978A33.081,33.081,0,0,1,645,267.2a35.824,35.824,0,0,1-1.563,9.81c1.082,3.28,2.643,8.88,1.006,9.712-1.931.983-8.219,0.085-10.341-.255A66.115,66.115,0,0,1,614.385,290a60.509,60.509,0,0,1-19.338-3.7c-2.24.337-8.241,1.122-10.112,0.185-1.77-.887.231-7.337,1.274-10.332A31.526,31.526,0,0,1,585,267.955a35.336,35.336,0,0,1,1.289-8.912c-1.017-2.939-3.171-9.831-1.353-10.762,1.977-1.012,8.546-.029,10.45.285A59.392,59.392,0,0,1,614.231,245a66.374,66.374,0,0,1,19.477,3.429c1.382-.247,8.715-1.489,10.83-0.388C646.183,248.9,644.6,254.639,643.52,257.978Zm-1.185-8.208c-1.976-1-7.208.386-8.5,0.611C629.059,248.888,620.708,247,614.03,247c-6.6,0-13.985,1.966-18.465,3.491-1.779-.286-7.049-1.423-8.9-0.5-1.7.849,0.38,6.334,1.33,9.011a37.894,37.894,0,0,0-1.27,8.915A32.891,32.891,0,0,0,588,276c-0.974,2.729-2.984,7.987-1.331,8.8,1.747,0.853,6.239-.108,8.331-0.414,4.518,1.554,12.366,3.618,19.173,3.618s15.065-2,19.827-3.515c1.982,0.311,6.443,1.42,8.247.525,1.528-.758-0.237-5.02-1.247-8.009a38.118,38.118,0,0,0,1.766-9.778A35.474,35.474,0,0,0,641,258C642.012,254.957,643.871,250.549,642.335,249.77Zm-3.648,27.235c1.082,3.28-1.427,2.984-2.437,0a38.118,38.118,0,0,0,1.766-9.778A35.474,35.474,0,0,0,636.25,258c1.012-3.043,3.6-3.361,2.52-.022a33.081,33.081,0,0,1,1.48,9.217A35.824,35.824,0,0,1,638.687,277.005Z" transform="translate(-582.735 -235.5)"/>
</svg>
