<svg xmlns="http://www.w3.org/2000/svg" width="24" height="24" viewBox="0 0 24 24">
  <metadata><?xpacket begin="﻿" id="W5M0MpCehiHzreSzNTczkc9d"?>
<x:xmpmeta xmlns:x="adobe:ns:meta/" x:xmptk="Adobe XMP Core 5.6-c138 79.159824, 2016/09/14-01:09:01        ">
   <rdf:RDF xmlns:rdf="http://www.w3.org/1999/02/22-rdf-syntax-ns#">
      <rdf:Description rdf:about=""/>
   </rdf:RDF>
</x:xmpmeta>
                                                                                                    
                                                                                                    
                                                                                                    
                                                                                                    
                                                                                                    
                                                                                                    
                                                                                                    
                                                                                                    
                                                                                                    
                                                                                                    
                                                                                                    
                                                                                                    
                                                                                                    
                                                                                                    
                                                                                                    
                                                                                                    
                                                                                                    
                                                                                                    
                                                                                                    
                                                                                                    
                           
<?xpacket end="w"?></metadata>
<defs>
    <style>
      .cls-1 {
        fill: #333;
        fill-rule: evenodd;
      }
    </style>
  </defs>
  <path id="icon-print" class="cls-1" d="M153.5,392.014H150V394.5a1.563,1.563,0,0,1-1.615,1.5H137.614A1.563,1.563,0,0,1,136,394.5v-2.484H132.63a1.62,1.62,0,0,1-1.63-1.565V380.031a4.126,4.126,0,0,1,3.986-4.021V373.5a1.614,1.614,0,0,1,1.67-1.5h12.822a1.487,1.487,0,0,1,1.536,1.5V376A4.023,4.023,0,0,1,155,380.031v10.418A1.518,1.518,0,0,1,153.5,392.014ZM138,394H148v-7.006H138V394Zm-1-20v1.986h12V374H137Zm16,6a2,2,0,0,0-2-2h-1c-0.019,0-.035.01-0.054,0.01S149.914,378,149.9,378H136.1c-0.018,0-.031.01-0.049,0.01S136.02,378,136,378h-1a2,2,0,0,0-2,2v10h3v-3.508a1.563,1.563,0,0,1,1.615-1.5h10.772a1.563,1.563,0,0,1,1.615,1.5V390h3V380Z" transform="translate(-131 -372)"/>
</svg>
