<svg 
 xmlns="http://www.w3.org/2000/svg"
 xmlns:xlink="http://www.w3.org/1999/xlink"
 width="45px" height="45px">
<path fill-rule="evenodd"  fill="rgb(27, 190, 232)"
 d="M44.025,29.761 C41.638,31.700 34.989,30.885 31.674,30.326 C31.922,30.806 32.129,31.371 32.210,31.980 C34.426,32.973 36.000,35.406 36.000,38.250 C36.000,41.971 33.308,45.000 30.000,45.000 C27.768,45.000 25.822,43.619 24.788,41.580 C24.272,41.799 23.526,42.000 22.500,42.000 C21.465,42.000 20.724,41.792 20.219,41.567 C19.187,43.613 17.236,45.000 15.000,45.000 C11.692,45.000 9.000,41.971 9.000,38.250 C9.000,35.406 10.573,32.973 12.790,31.980 C12.871,31.371 13.078,30.806 13.327,30.326 C10.012,30.885 3.364,31.699 0.975,29.761 C0.337,29.244 0.000,28.548 0.000,27.750 C0.000,26.706 0.409,25.809 1.183,25.153 C3.667,23.047 9.245,23.905 9.874,24.010 C10.282,24.077 10.558,24.464 10.489,24.872 C10.422,25.281 10.036,25.559 9.627,25.489 C8.111,25.238 3.809,24.893 2.151,26.298 C1.707,26.675 1.500,27.136 1.500,27.750 C1.500,28.099 1.630,28.360 1.920,28.596 C4.037,30.315 11.969,29.121 14.846,28.515 C15.174,28.447 15.502,28.601 15.659,28.893 C15.817,29.184 15.765,29.545 15.530,29.780 C15.521,29.789 14.785,30.548 14.434,31.532 C14.621,31.513 14.809,31.500 15.000,31.500 C18.308,31.500 21.000,34.528 21.000,38.250 C21.000,38.915 20.911,39.557 20.750,40.164 C21.061,40.317 21.617,40.499 22.500,40.499 C23.357,40.499 23.917,40.330 24.253,40.179 C24.090,39.567 24.000,38.920 24.000,38.250 C24.000,34.528 26.692,31.500 30.000,31.500 C30.191,31.500 30.380,31.513 30.566,31.532 C30.215,30.548 29.479,29.789 29.468,29.778 C29.236,29.543 29.184,29.182 29.342,28.891 C29.501,28.602 29.829,28.447 30.154,28.515 C33.031,29.121 40.962,30.315 43.080,28.596 C43.370,28.360 43.500,28.099 43.500,27.750 C43.500,27.136 43.293,26.674 42.848,26.297 C41.186,24.889 36.889,25.237 35.373,25.489 C34.965,25.558 34.579,25.281 34.511,24.872 C34.442,24.464 34.718,24.077 35.127,24.010 C35.755,23.905 41.334,23.049 43.818,25.153 C44.591,25.809 45.000,26.706 45.000,27.750 C45.000,28.548 44.663,29.244 44.025,29.761 ZM15.000,33.000 C12.518,33.000 10.500,35.354 10.500,38.250 C10.500,41.145 12.518,43.500 15.000,43.500 C17.482,43.500 19.500,41.145 19.500,38.250 C19.500,35.354 17.482,33.000 15.000,33.000 ZM30.000,33.000 C27.518,33.000 25.500,35.354 25.500,38.250 C25.500,38.934 25.615,39.586 25.821,40.185 C25.846,40.236 25.861,40.286 25.874,40.341 C26.569,42.197 28.156,43.500 30.000,43.500 C32.482,43.500 34.500,41.145 34.500,38.250 C34.500,35.354 32.482,33.000 30.000,33.000 ZM30.000,42.000 C28.345,42.000 27.000,40.654 27.000,38.999 C27.000,37.345 28.345,36.000 30.000,36.000 C31.654,36.000 33.000,37.345 33.000,38.999 C33.000,40.654 31.655,42.000 30.000,42.000 ZM30.000,37.499 C29.173,37.499 28.500,38.172 28.500,38.999 C28.500,39.827 29.173,40.499 30.000,40.499 C30.827,40.499 31.500,39.827 31.500,38.999 C31.500,38.172 30.827,37.500 30.000,37.499 ZM15.000,42.000 C13.346,42.000 12.000,40.654 12.000,38.999 C12.000,37.345 13.345,36.000 15.000,36.000 C16.654,36.000 18.000,37.345 18.000,38.999 C18.000,40.654 16.654,42.000 15.000,42.000 ZM15.000,37.499 C14.173,37.499 13.500,38.172 13.500,38.999 C13.500,39.827 14.173,40.499 15.000,40.499 C15.827,40.499 16.500,39.827 16.500,38.999 C16.500,38.172 15.827,37.499 15.000,37.499 ZM34.848,10.384 C35.612,12.294 36.000,14.347 36.000,16.500 C36.000,22.463 31.363,28.499 22.500,28.499 C13.637,28.499 9.000,22.463 9.000,16.500 C9.000,14.386 9.397,12.293 10.155,10.385 C7.783,9.879 6.000,7.769 6.000,5.250 C6.000,2.354 8.355,-0.001 11.250,-0.001 C13.455,-0.001 15.300,1.296 16.061,3.251 C18.000,2.090 20.161,1.500 22.500,1.500 C24.817,1.500 26.992,2.097 28.906,3.229 C29.695,1.310 31.582,-0.001 33.750,-0.001 C36.644,-0.001 39.000,2.354 39.000,5.250 C39.000,7.768 37.217,9.878 34.848,10.384 ZM33.750,1.499 C32.089,1.499 30.665,2.572 30.188,4.099 C31.171,4.857 32.067,5.770 32.855,6.833 C33.101,7.166 33.031,7.636 32.699,7.882 C32.565,7.982 32.408,8.030 32.253,8.030 C32.023,8.030 31.797,7.925 31.649,7.727 C29.390,4.678 26.141,2.999 22.500,2.999 C20.122,2.999 17.955,3.686 16.059,5.042 C15.046,5.766 14.135,6.669 13.353,7.724 C13.107,8.057 12.637,8.127 12.304,7.879 C11.971,7.632 11.901,7.163 12.148,6.830 C12.916,5.795 13.801,4.898 14.776,4.141 C14.328,2.570 12.940,1.500 11.250,1.500 C9.182,1.500 7.500,3.182 7.500,5.250 C7.500,7.318 9.182,8.999 11.250,8.999 C11.507,8.999 11.747,9.132 11.884,9.350 C12.022,9.567 12.037,9.841 11.926,10.073 C10.993,12.026 10.500,14.248 10.500,16.500 C10.500,21.717 14.622,27.000 22.500,27.000 C30.378,27.000 34.500,21.717 34.500,16.500 C34.500,14.209 34.020,12.047 33.074,10.074 C32.962,9.841 32.978,9.568 33.115,9.350 C33.253,9.132 33.492,8.999 33.750,8.999 C35.818,8.999 37.500,7.318 37.500,5.250 C37.500,3.182 35.818,1.499 33.750,1.499 ZM34.810,7.060 C34.619,7.060 34.426,6.987 34.280,6.840 C33.987,6.547 33.987,6.072 34.280,5.779 C34.423,5.638 34.500,5.450 34.500,5.250 C34.500,5.049 34.423,4.861 34.280,4.719 C33.987,4.427 33.513,4.427 33.220,4.719 C32.926,5.013 32.453,5.013 32.159,4.719 C31.866,4.426 31.866,3.951 32.159,3.659 C33.037,2.781 34.463,2.781 35.341,3.659 C35.766,4.083 36.000,4.649 36.000,5.250 C36.000,5.850 35.766,6.416 35.341,6.841 C35.194,6.987 35.002,7.060 34.810,7.060 ZM22.500,25.499 C18.364,25.499 15.000,22.808 15.000,19.500 C15.000,16.313 18.207,12.750 22.500,12.750 C26.793,12.750 30.000,16.313 30.000,19.500 C30.000,22.808 26.636,25.499 22.500,25.499 ZM22.500,14.249 C19.121,14.249 16.500,17.072 16.500,19.500 C16.500,21.981 19.192,23.999 22.500,23.999 C25.808,23.999 28.500,21.981 28.500,19.500 C28.500,17.072 25.879,14.249 22.500,14.249 ZM24.817,21.717 C24.660,21.717 24.517,21.701 24.389,21.674 C23.564,21.505 22.933,20.882 22.500,20.280 C22.066,20.882 21.436,21.505 20.611,21.674 C20.044,21.789 19.169,21.729 18.220,20.780 C17.927,20.487 17.927,20.013 18.220,19.720 C18.513,19.426 18.987,19.426 19.280,19.720 C19.664,20.102 20.009,20.264 20.309,20.205 C20.915,20.081 21.503,19.134 21.750,18.591 C20.912,18.252 20.250,17.398 20.250,16.500 C20.250,15.677 21.092,15.187 22.500,15.187 C23.909,15.187 24.750,15.677 24.750,16.500 C24.750,17.398 24.087,18.251 23.250,18.591 C23.495,19.133 24.084,20.081 24.692,20.205 C24.987,20.265 25.336,20.103 25.720,19.720 C26.013,19.426 26.487,19.426 26.780,19.720 C27.074,20.012 27.074,20.487 26.780,20.780 C26.045,21.515 25.354,21.717 24.817,21.717 ZM21.819,16.758 C21.951,17.016 22.247,17.249 22.500,17.249 C22.753,17.249 23.049,17.016 23.181,16.758 C22.870,16.684 22.130,16.684 21.819,16.758 ZM27.375,12.000 C26.755,12.000 26.250,11.495 26.250,10.875 C26.250,10.254 26.755,9.750 27.375,9.750 C27.995,9.750 28.500,10.254 28.500,10.875 C28.500,11.495 27.995,12.000 27.375,12.000 ZM17.625,12.000 C17.005,12.000 16.500,11.495 16.500,10.875 C16.500,10.254 17.005,9.750 17.625,9.750 C18.245,9.750 18.750,10.254 18.750,10.875 C18.750,11.495 18.245,12.000 17.625,12.000 ZM10.721,4.719 C10.578,4.861 10.500,5.049 10.500,5.250 C10.500,5.450 10.578,5.638 10.720,5.779 C11.013,6.072 11.013,6.547 10.721,6.840 C10.574,6.987 10.382,7.060 10.189,7.060 C9.997,7.060 9.805,6.987 9.659,6.841 C9.234,6.416 9.000,5.850 9.000,5.250 C9.000,4.649 9.234,4.083 9.659,3.658 C10.509,2.809 11.991,2.808 12.842,3.659 C13.134,3.951 13.134,4.427 12.841,4.719 C12.548,5.012 12.073,5.013 11.780,4.719 C11.498,4.436 11.003,4.436 10.721,4.719 Z"/>
</svg>