<svg xmlns="http://www.w3.org/2000/svg" width="50" height="30" viewBox="0 0 50 30">
  <metadata><?xpacket begin="﻿" id="W5M0MpCehiHzreSzNTczkc9d"?>
<x:xmpmeta xmlns:x="adobe:ns:meta/" x:xmptk="Adobe XMP Core 5.6-c138 79.159824, 2016/09/14-01:09:01        ">
   <rdf:RDF xmlns:rdf="http://www.w3.org/1999/02/22-rdf-syntax-ns#">
      <rdf:Description rdf:about=""/>
   </rdf:RDF>
</x:xmpmeta>
                                                                                                    
                                                                                                    
                                                                                                    
                                                                                                    
                                                                                                    
                                                                                                    
                                                                                                    
                                                                                                    
                                                                                                    
                                                                                                    
                                                                                                    
                                                                                                    
                                                                                                    
                                                                                                    
                                                                                                    
                                                                                                    
                                                                                                    
                                                                                                    
                                                                                                    
                                                                                                    
                           
<?xpacket end="w"?></metadata>
<defs>
    <style>
      .cls-1 {
        fill: #fff;
        fill-rule: evenodd;
      }
    </style>
  </defs>
  <path id="icon-visa" class="cls-1" d="M687,813H641a2,2,0,0,1-2-2V785a2,2,0,0,1,2-2h46a2,2,0,0,1,2,2v26A2,2,0,0,1,687,813Zm-0.009-28.007H641.007v26.016h45.984V784.993Zm-33.9,8.012,0.456,4.75c0.057,0.566.1,1.119,0.148,1.689,0.235-.546.508-1.143,0.825-1.8l2.239-4.638h2.971l-5.269,10h-2.829l-1.151-8.078,2.793,1.718-4.7-3.642h4.518Zm10.606,0-1.937,10h-2.662l1.941-10h2.658Zm0.64,7.282a4.3,4.3,0,0,0,2.115.56,1.041,1.041,0,0,0,1.23-.814c0-.312-0.185-0.588-1.137-1.07-1.008-.532-2.158-1.327-2.158-2.759,0-1.973,1.683-3.351,4.094-3.351a5,5,0,0,1,2.41.511l0.224,0.12-0.85,2.23-0.3-.164a3.58,3.58,0,0,0-1.593-.382c-0.856,0-1.219.364-1.219,0.7,0,0.361.47,0.648,1.248,1.073,1.385,0.712,2.061,1.611,2.061,2.743,0,2.072-1.689,3.464-4.206,3.464a5.243,5.243,0,0,1-2.933-.731l-0.183-.137,0.9-2.17Zm13.9-7.282,1.2,10h-2.763l-0.2-2.444h-2.3l-1.143,2.444h-2.85l4.971-10h3.09Zm-1.9,5.438-0.159-1.71c-0.015-.194-0.034-0.415-0.053-0.653-0.106.267-.215,0.521-0.322,0.746l-0.758,1.617h1.292Z" transform="translate(-639 -783)"/>
</svg>
