<svg 
 xmlns="http://www.w3.org/2000/svg"
 xmlns:xlink="http://www.w3.org/1999/xlink"
 width="40px" height="30px">
<path fill-rule="evenodd"  fill="rgb(0, 93, 151)"
 d="M-0.000,30.000 L-0.000,3.999 L13.000,3.999 L13.000,-0.001 L27.000,-0.001 L27.000,3.999 L40.000,3.999 L40.000,30.000 L-0.000,30.000 ZM25.000,1.999 L15.000,1.999 L15.000,6.000 L25.000,6.000 L25.000,1.999 ZM38.000,6.000 L27.000,6.000 L27.000,8.000 L13.000,8.000 L13.000,6.000 L2.000,6.000 L2.000,28.000 L38.000,28.000 L38.000,6.000 Z"/>
<path fill-rule="evenodd"  fill="rgb(0, 93, 151)"
 d="M17.000,14.000 L17.000,12.000 L35.000,12.000 L35.000,14.000 L17.000,14.000 ZM5.000,10.999 L14.000,10.999 L14.000,23.000 L5.000,23.000 L5.000,10.999 ZM7.000,21.000 L12.000,21.000 L12.000,19.999 C12.000,19.447 11.552,19.000 11.000,19.000 L8.000,19.000 C7.448,19.000 7.000,19.447 7.000,19.999 L7.000,21.000 ZM9.500,17.999 C10.881,17.999 12.000,16.880 12.000,15.500 C12.000,14.119 10.881,12.999 9.500,12.999 C8.119,12.999 7.000,14.119 7.000,15.500 C7.000,16.880 8.119,17.999 9.500,17.999 ZM26.000,17.999 L17.000,17.999 L17.000,15.999 L26.000,15.999 L26.000,17.999 ZM26.000,21.999 L17.000,21.999 L17.000,19.999 L26.000,19.999 L26.000,21.999 Z"/>
</svg>