<svg xmlns="http://www.w3.org/2000/svg" width="64" height="64" viewBox="0 0 64 64">
  <metadata><?xpacket begin="﻿" id="W5M0MpCehiHzreSzNTczkc9d"?>
<x:xmpmeta xmlns:x="adobe:ns:meta/" x:xmptk="Adobe XMP Core 5.6-c138 79.159824, 2016/09/14-01:09:01        ">
   <rdf:RDF xmlns:rdf="http://www.w3.org/1999/02/22-rdf-syntax-ns#">
      <rdf:Description rdf:about=""/>
   </rdf:RDF>
</x:xmpmeta>
                                                                                                    
                                                                                                    
                                                                                                    
                                                                                                    
                                                                                                    
                                                                                                    
                                                                                                    
                                                                                                    
                                                                                                    
                                                                                                    
                                                                                                    
                                                                                                    
                                                                                                    
                                                                                                    
                                                                                                    
                                                                                                    
                                                                                                    
                                                                                                    
                                                                                                    
                                                                                                    
                           
<?xpacket end="w"?></metadata>
<defs>
    <style>
      .cls-1 {
        fill: #005d97;
        fill-rule: evenodd;
      }
    </style>
  </defs>
  <path id="icon-kid" class="cls-1" d="M709.294,274.843a18.107,18.107,0,0,1-5.164,9.791A18.576,18.576,0,0,1,691,290h0a18.589,18.589,0,0,1-18.264-15.153,5.322,5.322,0,0,1-.3-10.536v-9.577a3.391,3.391,0,0,0-.634.476,1.685,1.685,0,0,1-2.082.211,1.634,1.634,0,0,1-.7-1.946l0.474-1.386a7.263,7.263,0,0,1,1.116-2.074c0.54-4.995,4.039-8.508,10.143-10.17a24.6,24.6,0,0,1,14.314.468l6.12,2.049a6.351,6.351,0,0,1,5.569.684,6.176,6.176,0,0,1,2.815,5.176v16.089A5.321,5.321,0,0,1,709.294,274.843Zm-39.344-5.287a3.422,3.422,0,0,0,2.53,3.284q-0.048-.666-0.048-1.342v-5.213A3.422,3.422,0,0,0,669.95,269.556Zm30.29-25.479-5.8-1.943a22.631,22.631,0,0,0-13.17-.434c-4.314,1.174-7.056,3.273-8.189,6.253,0.168-.087.339-0.17,0.515-0.244a7.513,7.513,0,0,1,6.045.093,5.545,5.545,0,0,0,6.394-1.314l0.242-.269a0.985,0.985,0,0,1,1.376-.084,0.953,0.953,0,0,1,.084,1.358l-0.242.269a7.522,7.522,0,0,1-8.677,1.784,5.533,5.533,0,0,0-4.454-.069,5.424,5.424,0,0,0-3.024,3.228l-0.189.553a5.341,5.341,0,0,1,5.891-.054,17.367,17.367,0,0,0,23.276-4.157Zm0.081,10.565v-2.609a19.363,19.363,0,0,1-24.347,2.782,3.407,3.407,0,0,0-1.593-.534V271.5A16.626,16.626,0,0,0,691,288.076h0a16.622,16.622,0,0,0,11.749-4.8,16.181,16.181,0,0,0,4.868-11.6v-8.933A8.212,8.212,0,0,1,700.321,254.642Zm7.3-6.42a4.211,4.211,0,0,0-1.943-3.574,4.32,4.32,0,0,0-3.486-.579l0.08,10.574a6.275,6.275,0,0,0,5.349,6.164V248.222Zm1.949,18.063v5.394c0,0.388-.013.774-0.037,1.158A3.4,3.4,0,0,0,709.568,266.285Zm-5.837,2.749a0.984,0.984,0,0,1-1.379,0,1.8,1.8,0,0,0-2.519,0,0.984,0.984,0,0,1-1.379,0,0.952,0.952,0,0,1,0-1.36,3.772,3.772,0,0,1,5.277,0A0.952,0.952,0,0,1,703.731,269.034Zm-1.265,8.128a0.952,0.952,0,0,1,0,1.36,16.391,16.391,0,0,1-22.932,0,0.954,0.954,0,0,1,0-1.36,0.984,0.984,0,0,1,1.379,0,14.418,14.418,0,0,0,20.174,0A0.984,0.984,0,0,1,702.466,277.162Zm-19.609-7.846a0.98,0.98,0,0,1-.69-0.282,1.8,1.8,0,0,0-2.519,0,0.984,0.984,0,0,1-1.379,0,0.954,0.954,0,0,1,0-1.36,3.768,3.768,0,0,1,5.277,0,0.952,0.952,0,0,1,0,1.36A0.979,0.979,0,0,1,682.857,269.316Z" transform="translate(-659 -232.5)"/>
</svg>
