<svg xmlns="http://www.w3.org/2000/svg" width="64" height="64" viewBox="0 0 64 64">
  <metadata><?xpacket begin="﻿" id="W5M0MpCehiHzreSzNTczkc9d"?>
<x:xmpmeta xmlns:x="adobe:ns:meta/" x:xmptk="Adobe XMP Core 5.6-c138 79.159824, 2016/09/14-01:09:01        ">
   <rdf:RDF xmlns:rdf="http://www.w3.org/1999/02/22-rdf-syntax-ns#">
      <rdf:Description rdf:about=""/>
   </rdf:RDF>
</x:xmpmeta>
                                                                                                    
                                                                                                    
                                                                                                    
                                                                                                    
                                                                                                    
                                                                                                    
                                                                                                    
                                                                                                    
                                                                                                    
                                                                                                    
                                                                                                    
                                                                                                    
                                                                                                    
                                                                                                    
                                                                                                    
                                                                                                    
                                                                                                    
                                                                                                    
                                                                                                    
                                                                                                    
                           
<?xpacket end="w"?></metadata>
<defs>
    <style>
      .cls-1 {
        fill: #feb800;
        fill-rule: evenodd;
      }
    </style>
  </defs>
  <path id="icon-wreath-right" class="cls-1" d="M224.68,292.571A74.231,74.231,0,0,1,211.474,296l-0.487-2.94a76.128,76.128,0,0,0,9.511-2.221,43.36,43.36,0,0,0,4.182-1.453q1.536-.6,2.973-1.269c-0.841-3.077-1.169-9.423,7.991-14.145a25.98,25.98,0,0,1,.313,9.077,32.872,32.872,0,0,0,4.1-3.882c-2-2.146-5.775-7.977,1.039-16.7a25.335,25.335,0,0,1,4.133,8.573,32.472,32.472,0,0,0,1.99-6.379c0.082-.4.155-0.808,0.224-1.219-2.531-.838-8.638-4.007-6.588-14.746a24.344,24.344,0,0,1,6.967,5.112,38.642,38.642,0,0,0-1.272-7.371c-2.408-.853-6.43-3.475-5.557-11.437,0,0,9.9,3.684,8.185,9.846a41.972,41.972,0,0,1,.988,4.278,13.927,13.927,0,0,1,5.943-4.285s1.77,11.59-5.215,12.717a41.359,41.359,0,0,1-.493,6.039,12.893,12.893,0,0,1,7.678-2.109c0.606,0,1.246.026,1.919,0.083,0,0-3.428,10.351-9.735,10.351a6.268,6.268,0,0,1-2.055-.358,33.33,33.33,0,0,1-2.27,4.564,0.015,0.015,0,0,0,0,.009,13.2,13.2,0,0,1,3.294-.4,21.441,21.441,0,0,1,7.737,1.634s-6.232,9.07-12.935,9.07a7.556,7.556,0,0,1-5.072-2.026,42.834,42.834,0,0,1-10.1,6.425C227.048,291.616,226.381,291.909,224.68,292.571Zm22.485-34.109c-0.341-1.438-1.667-3.1-3.745-4.695a8.441,8.441,0,0,0,1.326,4.162,6.746,6.746,0,0,0,2.388,2.145A3.1,3.1,0,0,0,247.165,258.462Zm-0.835-15.693a5.924,5.924,0,0,0-2.078-2.552,5.666,5.666,0,0,0,.936,1.772,4.931,4.931,0,0,0,1.222,1.095A2.493,2.493,0,0,0,246.33,242.769Zm5.629,11.007a7.193,7.193,0,0,0,1.285-3.687,6.323,6.323,0,0,0-1.481,2.156,5.514,5.514,0,0,0-.388,2.039A2.281,2.281,0,0,0,251.959,253.776Zm-1.694,15.162a3.732,3.732,0,0,0,2.321-.946,11.409,11.409,0,0,0,2.383-2.776q0.155-.245.3-0.491a7.257,7.257,0,0,0-4.7,2.83,7.127,7.127,0,0,0-.737,1.35A2.825,2.825,0,0,0,250.265,268.938Zm-6.233,14.521c1.96,0,4.344-1.267,6.9-3.66,0.3-.282.584-0.564,0.853-0.841a14.484,14.484,0,0,0-2.552-.241,8.843,8.843,0,0,0-6.663,2.695,9.535,9.535,0,0,0-1.011,1.261A4.4,4.4,0,0,0,244.032,283.459ZM240.2,272.928a7.291,7.291,0,0,0,1.3,3.328,3.38,3.38,0,0,0,.932-1.649c0.379-1.555-.089-3.828-1.324-6.405-0.015-.033-0.03-0.065-0.047-0.1A9.1,9.1,0,0,0,240.2,272.928Zm-9.86,13.731a3.465,3.465,0,0,0,1.524-1.108c1.2-1.522,1.481-4.123,1.425-6.468a8.978,8.978,0,0,0-2.762,4A7.327,7.327,0,0,0,230.337,286.659Z" transform="translate(-203.5 -233.5)"/>
</svg>
