<svg xmlns="http://www.w3.org/2000/svg" width="30" height="30" viewBox="0 0 30 30">
  <metadata><?xpacket begin="﻿" id="W5M0MpCehiHzreSzNTczkc9d"?>
<x:xmpmeta xmlns:x="adobe:ns:meta/" x:xmptk="Adobe XMP Core 5.6-c138 79.159824, 2016/09/14-01:09:01        ">
   <rdf:RDF xmlns:rdf="http://www.w3.org/1999/02/22-rdf-syntax-ns#">
      <rdf:Description rdf:about=""/>
   </rdf:RDF>
</x:xmpmeta>
                                                                                                    
                                                                                                    
                                                                                                    
                                                                                                    
                                                                                                    
                                                                                                    
                                                                                                    
                                                                                                    
                                                                                                    
                                                                                                    
                                                                                                    
                                                                                                    
                                                                                                    
                                                                                                    
                                                                                                    
                                                                                                    
                                                                                                    
                                                                                                    
                                                                                                    
                                                                                                    
                           
<?xpacket end="w"?></metadata>
<defs>
    <style>
      .cls-1 {
        fill: #55acee;
        fill-rule: evenodd;
      }
    </style>
  </defs>
  <path id="icon-twitter" class="cls-1" d="M274,921H252a4,4,0,0,1-4-4V895a4,4,0,0,1,4-4h22a4,4,0,0,1,4,4v22A4,4,0,0,1,274,921Zm-1.767-22.209a7.6,7.6,0,0,1-2.444.965,3.78,3.78,0,0,0-2.807-1.256,3.913,3.913,0,0,0-3.847,3.976,4.158,4.158,0,0,0,.1.906,10.811,10.811,0,0,1-7.928-4.155,4.072,4.072,0,0,0,1.191,5.309,3.748,3.748,0,0,1-1.742-.5v0.05a3.951,3.951,0,0,0,3.084,3.9,3.689,3.689,0,0,1-1.737.067,3.871,3.871,0,0,0,3.592,2.763,7.56,7.56,0,0,1-4.776,1.7,7.723,7.723,0,0,1-.918-0.055,10.632,10.632,0,0,0,5.9,1.787c7.075,0,10.944-6.06,10.944-11.316l-0.012-.515a7.9,7.9,0,0,0,1.922-2.056,7.5,7.5,0,0,1-2.208.627A3.986,3.986,0,0,0,272.233,898.791Z" transform="translate(-248 -891)"/>
</svg>
