<svg xmlns="http://www.w3.org/2000/svg" width="30" height="30" viewBox="0 0 30 30">
  <metadata><?xpacket begin="﻿" id="W5M0MpCehiHzreSzNTczkc9d"?>
<x:xmpmeta xmlns:x="adobe:ns:meta/" x:xmptk="Adobe XMP Core 5.6-c138 79.159824, 2016/09/14-01:09:01        ">
   <rdf:RDF xmlns:rdf="http://www.w3.org/1999/02/22-rdf-syntax-ns#">
      <rdf:Description rdf:about=""/>
   </rdf:RDF>
</x:xmpmeta>
                                                                                                    
                                                                                                    
                                                                                                    
                                                                                                    
                                                                                                    
                                                                                                    
                                                                                                    
                                                                                                    
                                                                                                    
                                                                                                    
                                                                                                    
                                                                                                    
                                                                                                    
                                                                                                    
                                                                                                    
                                                                                                    
                                                                                                    
                                                                                                    
                                                                                                    
                                                                                                    
                           
<?xpacket end="w"?></metadata>
<defs>
    <style>
      .cls-1 {
        fill: #f58220;
        fill-rule: evenodd;
      }
    </style>
  </defs>
  <path id="icon-odnoklassniki" class="cls-1" d="M194,921H172a4,4,0,0,1-4-4V895a4,4,0,0,1,4-4h22a4,4,0,0,1,4,4v22A4,4,0,0,1,194,921Zm-11-25.5a5.419,5.419,0,1,0,5.347,5.42A5.389,5.389,0,0,0,183,895.5Zm5.759,11.766a1.552,1.552,0,0,0-2.16-.5,6.711,6.711,0,0,1-7.2,0,1.551,1.551,0,0,0-2.159.5,1.6,1.6,0,0,0,.49,2.19,9.954,9.954,0,0,0,3.105,1.3l-2.989,3.03a1.6,1.6,0,0,0,0,2.245,1.553,1.553,0,0,0,2.216,0L183,913.057l2.939,2.977a1.548,1.548,0,0,0,2.214,0,1.6,1.6,0,0,0,0-2.245l-2.989-3.03a9.92,9.92,0,0,0,3.1-1.3A1.6,1.6,0,0,0,188.759,907.266Zm-5.759-4.1a2.244,2.244,0,1,1,2.214-2.243A2.232,2.232,0,0,1,183,903.163Z" transform="translate(-168 -891)"/>
</svg>
