<svg xmlns="http://www.w3.org/2000/svg" width="30" height="30" viewBox="0 0 30 30">
  <metadata><?xpacket begin="﻿" id="W5M0MpCehiHzreSzNTczkc9d"?>
<x:xmpmeta xmlns:x="adobe:ns:meta/" x:xmptk="Adobe XMP Core 5.6-c138 79.159824, 2016/09/14-01:09:01        ">
   <rdf:RDF xmlns:rdf="http://www.w3.org/1999/02/22-rdf-syntax-ns#">
      <rdf:Description rdf:about=""/>
   </rdf:RDF>
</x:xmpmeta>
                                                                                                    
                                                                                                    
                                                                                                    
                                                                                                    
                                                                                                    
                                                                                                    
                                                                                                    
                                                                                                    
                                                                                                    
                                                                                                    
                                                                                                    
                                                                                                    
                                                                                                    
                                                                                                    
                                                                                                    
                                                                                                    
                                                                                                    
                                                                                                    
                                                                                                    
                                                                                                    
                           
<?xpacket end="w"?></metadata>
<defs>
    <style>
      .cls-1 {
        fill: #2aa1da;
        fill-rule: evenodd;
      }
    </style>
  </defs>
  <path id="icon-telegram" class="cls-1" d="M114,920H92a4,4,0,0,1-4-4V894a4,4,0,0,1,4-4h22a4,4,0,0,1,4,4v22A4,4,0,0,1,114,920Zm-3.628-21.969L94.3,904.317a0.47,0.47,0,0,0,0,.875l3.917,1.482,1.516,4.942a0.459,0.459,0,0,0,.732.223l2.184-1.8a0.644,0.644,0,0,1,.794-0.022l3.938,2.9a0.459,0.459,0,0,0,.723-0.283l2.885-14.064A0.464,0.464,0,0,0,110.372,898.031Zm-9.384,9.242a1.335,1.335,0,0,0-.406.794l-0.215,1.616a0.2,0.2,0,0,1-.387.029l-0.828-2.948a0.787,0.787,0,0,1,.337-0.879l7.656-4.778a0.135,0.135,0,0,1,.161.214Z" transform="translate(-88 -890)"/>
</svg>
