<svg xmlns="http://www.w3.org/2000/svg" width="42" height="30" viewBox="0 0 42 30">
  <metadata><?xpacket begin="﻿" id="W5M0MpCehiHzreSzNTczkc9d"?>
<x:xmpmeta xmlns:x="adobe:ns:meta/" x:xmptk="Adobe XMP Core 5.6-c138 79.159824, 2016/09/14-01:09:01        ">
   <rdf:RDF xmlns:rdf="http://www.w3.org/1999/02/22-rdf-syntax-ns#">
      <rdf:Description rdf:about=""/>
   </rdf:RDF>
</x:xmpmeta>
                                                                                                    
                                                                                                    
                                                                                                    
                                                                                                    
                                                                                                    
                                                                                                    
                                                                                                    
                                                                                                    
                                                                                                    
                                                                                                    
                                                                                                    
                                                                                                    
                                                                                                    
                                                                                                    
                                                                                                    
                                                                                                    
                                                                                                    
                                                                                                    
                                                                                                    
                                                                                                    
                           
<?xpacket end="w"?></metadata>
<defs>
    <style>
      .cls-1 {
        fill: #fff;
        fill-rule: evenodd;
      }
    </style>
  </defs>
  <path id="icon-pocket" class="cls-1" d="M783,805v6a2,2,0,0,1-2,2H745a2,2,0,0,1-2-2V785a2,2,0,0,1,2-2h36a2,2,0,0,1,2,2v10a2,2,0,0,1,2,2v6A2,2,0,0,1,783,805Zm-2.009-16H747v-2h33.991v-2.007H745.007v26.016h35.984V805H771a2,2,0,0,1-2-2v-6a2,2,0,0,1,2-2h9.991v-6ZM783,798a1,1,0,0,0-1-1H772a1,1,0,0,0-1,1v4a1,1,0,0,0,1,1h10a1,1,0,0,0,1-1v-4Zm-9,3a1,1,0,1,1,1-1A1,1,0,0,1,774,801Z" transform="translate(-743 -783)"/>
</svg>
