<svg xmlns="http://www.w3.org/2000/svg" width="50" height="30" viewBox="0 0 50 30">
  <metadata><?xpacket begin="﻿" id="W5M0MpCehiHzreSzNTczkc9d"?>
<x:xmpmeta xmlns:x="adobe:ns:meta/" x:xmptk="Adobe XMP Core 5.6-c138 79.159824, 2016/09/14-01:09:01        ">
   <rdf:RDF xmlns:rdf="http://www.w3.org/1999/02/22-rdf-syntax-ns#">
      <rdf:Description rdf:about=""/>
   </rdf:RDF>
</x:xmpmeta>
                                                                                                    
                                                                                                    
                                                                                                    
                                                                                                    
                                                                                                    
                                                                                                    
                                                                                                    
                                                                                                    
                                                                                                    
                                                                                                    
                                                                                                    
                                                                                                    
                                                                                                    
                                                                                                    
                                                                                                    
                                                                                                    
                                                                                                    
                                                                                                    
                                                                                                    
                                                                                                    
                           
<?xpacket end="w"?></metadata>
<defs>
    <style>
      .cls-1 {
        fill: #fff;
        fill-rule: evenodd;
      }
    </style>
  </defs>
  <path id="icon-mastercard" class="cls-1" d="M739,813H693a2,2,0,0,1-2-2V785a2,2,0,0,1,2-2h46a2,2,0,0,1,2,2v26A2,2,0,0,1,739,813Zm-0.009-28.007H693.007v26.016h45.984V784.993ZM712,792a5.965,5.965,0,0,1,1.076.1l0.07,0.01a6.038,6.038,0,0,1,.994.288c0.02,0.008.041,0.014,0.06,0.022a5.9,5.9,0,0,1,.93.466l0.024,0.015a5.944,5.944,0,0,1,.846.634h0a6,6,0,1,1,0,8.926h0a5.944,5.944,0,0,1-.846.634l-0.024.015a6.019,6.019,0,0,1-.929.466l-0.061.022a6.038,6.038,0,0,1-.994.288l-0.07.01A6,6,0,1,1,712,792Zm4,6h0Zm4,4a4,4,0,1,0-2.771-6.876,5.75,5.75,0,0,1,0,5.752A3.98,3.98,0,0,0,720,802Zm-5.941-3.2c0-.014,0-0.028-0.007-0.042C714.054,798.769,714.057,798.783,714.059,798.8Zm0-1.594c0,0.014,0,.028-0.007.042C714.054,797.231,714.057,797.217,714.059,797.2Z" transform="translate(-691 -783)"/>
</svg>
