<svg 
 xmlns="http://www.w3.org/2000/svg"
 xmlns:xlink="http://www.w3.org/1999/xlink"
 width="44px" height="48px">
<path fill-rule="evenodd"  fill="rgb(0, 93, 151)"
 d="M43.227,9.023 C42.526,6.396 40.473,3.890 37.448,1.966 C33.722,-0.406 28.452,-0.670 23.692,1.276 L23.542,1.339 C23.458,1.376 23.377,1.412 23.288,1.443 C22.890,1.579 22.584,1.697 22.334,1.793 C21.543,2.095 21.544,2.096 20.243,1.716 C16.528,0.633 11.800,-0.450 8.169,0.823 C3.259,2.546 -1.095,8.250 0.251,17.107 C0.411,18.157 0.566,19.215 0.723,20.280 C1.847,27.928 3.010,35.837 5.997,42.979 L6.098,43.219 C6.840,45.010 8.082,48.007 10.245,48.007 L10.419,48.007 L10.579,47.940 C12.561,47.109 13.305,45.224 13.847,43.847 C14.213,42.917 14.538,41.970 14.854,41.055 C15.648,38.744 16.399,36.563 17.752,34.603 C18.778,33.118 21.548,29.886 25.085,31.972 C27.447,33.365 28.187,36.175 28.904,38.893 C29.108,39.668 29.320,40.468 29.565,41.217 C30.602,44.381 31.949,47.644 34.080,47.860 C35.192,47.974 36.237,47.224 37.155,45.628 C38.833,42.716 39.554,39.471 40.250,36.334 L40.496,35.230 C40.770,34.017 41.076,32.765 41.387,31.486 C43.137,24.283 45.123,16.118 43.227,9.023 ZM39.720,31.089 C39.406,32.378 39.099,33.639 38.823,34.860 L38.575,35.971 C37.906,38.985 37.214,42.101 35.666,44.789 C35.145,45.693 34.595,46.193 34.254,46.174 C33.861,46.133 32.776,45.520 31.195,40.695 C30.964,39.994 30.769,39.251 30.562,38.465 C29.795,35.558 28.927,32.264 25.962,30.515 C22.688,28.587 19.001,29.788 16.337,33.646 C14.852,35.797 14.028,38.192 13.231,40.507 C12.923,41.407 12.603,42.335 12.250,43.231 C11.701,44.624 11.187,45.743 10.097,46.292 C9.124,46.052 8.086,43.549 7.684,42.576 L7.581,42.329 C4.675,35.383 3.528,27.582 2.420,20.037 C2.262,18.969 2.107,17.908 1.947,16.856 C1.082,11.162 2.848,4.491 8.743,2.423 C9.703,2.087 10.790,1.950 11.928,1.950 C14.549,1.950 17.438,2.670 19.663,3.317 C25.168,6.413 25.168,7.754 25.146,13.293 L25.143,14.410 C25.143,14.880 25.526,15.259 26.000,15.259 C26.474,15.259 26.857,14.880 26.857,14.410 L26.860,13.299 C26.879,8.443 26.872,6.156 22.956,3.375 L22.957,3.375 C23.191,3.285 23.477,3.174 23.849,3.046 C23.976,3.003 24.101,2.950 24.228,2.895 L24.351,2.842 C28.596,1.104 33.261,1.316 36.522,3.392 C39.186,5.087 40.979,7.241 41.571,9.456 C43.355,16.138 41.423,24.081 39.720,31.089 Z"/>
</svg>