<svg 
 xmlns="http://www.w3.org/2000/svg"
 xmlns:xlink="http://www.w3.org/1999/xlink"
 width="40px" height="50px">
<path fill-rule="evenodd"  fill="rgb(0, 93, 151)"
 d="M29.163,49.999 C29.160,49.999 29.158,49.999 29.155,49.999 L0.831,49.999 C0.372,49.999 -0.000,49.636 -0.000,49.187 L-0.000,0.811 C-0.000,0.363 0.372,-0.001 0.831,-0.001 L39.168,-0.001 C39.627,-0.001 39.999,0.363 39.999,0.811 L39.999,39.140 C40.000,39.173 39.998,39.206 39.994,39.239 C39.994,39.239 39.994,39.239 39.994,39.240 C39.994,39.240 39.994,39.241 39.994,39.241 C39.994,39.241 39.994,39.242 39.994,39.242 C39.994,39.243 39.994,39.243 39.993,39.244 C39.993,39.244 39.993,39.245 39.993,39.246 L39.993,39.246 C39.989,39.279 39.983,39.312 39.975,39.344 C39.975,39.344 39.975,39.344 39.975,39.345 C39.975,39.345 39.974,39.346 39.974,39.346 C39.974,39.346 39.974,39.347 39.974,39.347 L39.974,39.348 C39.940,39.478 39.872,39.602 39.773,39.704 L39.773,39.704 C39.773,39.704 39.772,39.704 39.771,39.705 L39.771,39.705 C39.771,39.706 39.770,39.706 39.770,39.707 L39.770,39.707 C39.769,39.707 39.769,39.708 39.768,39.708 C39.768,39.709 39.768,39.709 39.768,39.709 C39.768,39.709 39.767,39.709 39.767,39.710 C39.767,39.710 39.766,39.710 39.766,39.710 C39.766,39.711 39.765,39.711 39.765,39.712 L29.759,49.753 C29.758,49.754 29.756,49.755 29.755,49.757 L29.755,49.757 C29.755,49.757 29.754,49.758 29.753,49.759 L29.753,49.759 C29.753,49.759 29.752,49.760 29.752,49.760 C29.752,49.760 29.752,49.760 29.751,49.761 C29.751,49.761 29.751,49.761 29.750,49.762 C29.750,49.762 29.750,49.762 29.749,49.762 C29.749,49.762 29.749,49.763 29.748,49.763 C29.748,49.764 29.748,49.764 29.748,49.764 C29.747,49.764 29.747,49.764 29.747,49.765 C29.746,49.765 29.746,49.765 29.746,49.766 C29.746,49.766 29.746,49.766 29.745,49.766 C29.637,49.870 29.503,49.941 29.362,49.974 C29.361,49.975 29.360,49.975 29.359,49.975 C29.359,49.975 29.358,49.975 29.357,49.975 C29.356,49.975 29.356,49.976 29.355,49.976 C29.354,49.977 29.353,49.976 29.353,49.977 C29.352,49.977 29.350,49.977 29.350,49.977 C29.349,49.977 29.348,49.977 29.348,49.977 C29.340,49.979 29.333,49.981 29.325,49.982 L29.325,49.982 C29.324,49.982 29.323,49.983 29.323,49.983 C29.323,49.984 29.321,49.983 29.320,49.983 C29.320,49.983 29.319,49.983 29.318,49.984 C29.316,49.984 29.316,49.984 29.315,49.984 C29.315,49.984 29.314,49.984 29.313,49.984 C29.313,49.984 29.312,49.984 29.311,49.984 C29.310,49.985 29.309,49.985 29.308,49.985 C29.259,49.995 29.211,49.999 29.163,49.999 ZM1.662,48.374 L28.332,48.374 L28.332,39.145 C28.332,38.697 28.704,38.334 29.163,38.334 L38.337,38.334 L38.337,1.624 L1.662,1.624 L1.662,48.374 ZM29.994,39.958 L29.994,47.188 L37.199,39.958 L29.994,39.958 ZM31.288,35.523 L5.697,35.523 C5.238,35.523 4.866,35.159 4.866,34.710 C4.866,34.261 5.238,33.897 5.697,33.897 L31.288,33.897 C31.747,33.897 32.119,34.261 32.119,34.710 C32.119,35.159 31.747,35.523 31.288,35.523 ZM34.165,31.856 L5.697,31.856 C5.238,31.856 4.866,31.492 4.866,31.043 C4.866,30.595 5.238,30.230 5.697,30.230 L34.165,30.230 C34.624,30.230 34.997,30.595 34.997,31.043 C34.997,31.492 34.624,31.856 34.165,31.856 ZM11.312,26.750 C11.274,26.750 11.237,26.747 11.199,26.742 L4.854,25.889 C4.626,25.858 4.420,25.736 4.288,25.551 C4.155,25.367 4.107,25.137 4.154,24.916 L6.131,15.782 C4.727,14.418 3.923,12.483 4.095,10.408 C4.404,6.670 7.766,3.874 11.592,4.177 C15.417,4.480 18.276,7.768 17.966,11.505 C17.825,13.211 17.048,14.720 15.882,15.828 L17.786,23.098 C17.844,23.320 17.804,23.555 17.675,23.746 C17.546,23.937 17.341,24.067 17.109,24.102 L12.169,24.856 L12.143,25.956 C12.138,26.187 12.031,26.406 11.851,26.556 C11.700,26.682 11.508,26.750 11.312,26.750 ZM5.965,24.398 L10.503,25.008 L10.672,17.749 C10.605,17.745 10.537,17.741 10.469,17.735 C9.424,17.653 8.450,17.347 7.594,16.870 L5.965,24.398 ZM12.215,22.894 L12.286,23.193 L15.949,22.635 L14.442,16.882 C13.795,17.239 13.086,17.497 12.338,17.638 L12.215,22.894 ZM11.022,5.779 C9.767,5.779 8.566,6.209 7.600,7.013 C6.522,7.908 5.866,9.161 5.751,10.539 C5.516,13.384 7.692,15.886 10.603,16.117 C13.514,16.348 16.074,14.219 16.310,11.375 C16.546,8.529 14.369,6.027 11.458,5.797 C11.312,5.785 11.167,5.779 11.022,5.779 ZM34.165,17.114 L22.422,17.114 C21.963,17.114 21.591,16.750 21.591,16.302 C21.591,15.853 21.963,15.489 22.422,15.489 L34.165,15.489 C34.624,15.489 34.997,15.853 34.997,16.302 C34.997,16.750 34.624,17.114 34.165,17.114 ZM32.488,12.790 L22.422,12.790 C21.963,12.790 21.591,12.426 21.591,11.978 C21.591,11.529 21.963,11.166 22.422,11.166 L32.488,11.166 C32.947,11.166 33.319,11.529 33.319,11.978 C33.319,12.426 32.947,12.790 32.488,12.790 ZM34.165,8.204 L22.422,8.204 C21.963,8.204 21.591,7.840 21.591,7.391 C21.591,6.943 21.963,6.579 22.422,6.579 L34.165,6.579 C34.624,6.579 34.997,6.943 34.997,7.391 C34.997,7.840 34.624,8.204 34.165,8.204 Z"/>
</svg>