<svg xmlns="http://www.w3.org/2000/svg" width="24" height="24" viewBox="0 0 24 24">
  <metadata><?xpacket begin="﻿" id="W5M0MpCehiHzreSzNTczkc9d"?>
<x:xmpmeta xmlns:x="adobe:ns:meta/" x:xmptk="Adobe XMP Core 5.6-c138 79.159824, 2016/09/14-01:09:01        ">
   <rdf:RDF xmlns:rdf="http://www.w3.org/1999/02/22-rdf-syntax-ns#">
      <rdf:Description rdf:about=""/>
   </rdf:RDF>
</x:xmpmeta>
                                                                                                    
                                                                                                    
                                                                                                    
                                                                                                    
                                                                                                    
                                                                                                    
                                                                                                    
                                                                                                    
                                                                                                    
                                                                                                    
                                                                                                    
                                                                                                    
                                                                                                    
                                                                                                    
                                                                                                    
                                                                                                    
                                                                                                    
                                                                                                    
                                                                                                    
                                                                                                    
                           
<?xpacket end="w"?></metadata>
<defs>
    <style>
      .cls-1 {
        fill: #1bbee8;
        fill-rule: evenodd;
      }
    </style>
  </defs>
  <path id="icon-arrow2-right" class="cls-1" d="M315.972,382.9a1.268,1.268,0,0,1-.041.527,0.955,0.955,0,0,1-.1.15,0.823,0.823,0,0,1-.1.154l-7.98,7.983a0.978,0.978,0,0,1-1.365.013,0.936,0.936,0,0,1-.013-1.34l6.438-6.44H292.965a0.948,0.948,0,1,1,0-1.9H312.7l-6.348-6.445a0.934,0.934,0,0,1,.024-1.339,0.978,0.978,0,0,1,1.365.022l8,8.119a0.922,0.922,0,0,1,.1.157,1,1,0,0,1,.1.149A0.908,0.908,0,0,1,315.972,382.9Z" transform="translate(-292 -371)"/>
</svg>
