<svg xmlns="http://www.w3.org/2000/svg" width="30" height="30" viewBox="0 0 30 30">
  <metadata><?xpacket begin="﻿" id="W5M0MpCehiHzreSzNTczkc9d"?>
<x:xmpmeta xmlns:x="adobe:ns:meta/" x:xmptk="Adobe XMP Core 5.6-c138 79.159824, 2016/09/14-01:09:01        ">
   <rdf:RDF xmlns:rdf="http://www.w3.org/1999/02/22-rdf-syntax-ns#">
      <rdf:Description rdf:about=""/>
   </rdf:RDF>
</x:xmpmeta>
                                                                                                    
                                                                                                    
                                                                                                    
                                                                                                    
                                                                                                    
                                                                                                    
                                                                                                    
                                                                                                    
                                                                                                    
                                                                                                    
                                                                                                    
                                                                                                    
                                                                                                    
                                                                                                    
                                                                                                    
                                                                                                    
                                                                                                    
                                                                                                    
                                                                                                    
                                                                                                    
                           
<?xpacket end="w"?></metadata>
<defs>
    <style>
      .cls-1 {
        fill: #45668e;
        fill-rule: evenodd;
      }
    </style>
  </defs>
  <path id="icon-vkontakte" class="cls-1" d="M154,921H132a4,4,0,0,1-4-4V895a4,4,0,0,1,4-4h22a4,4,0,0,1,4,4v22A4,4,0,0,1,154,921Zm-0.6-20.2a0.66,0.66,0,0,0-.351-0.193,1.753,1.753,0,0,0-.725-0.029l-3.261.024a0.408,0.408,0,0,0-.227,0l-0.147.035-0.057.03-0.045.035a0.5,0.5,0,0,0-.124.122,0.809,0.809,0,0,0-.113.2,19.247,19.247,0,0,1-1.212,2.619q-0.418.721-.77,1.251a6.075,6.075,0,0,1-.588.78,4.118,4.118,0,0,1-.431.4,0.412,0.412,0,0,1-.294.129l-0.193-.047a0.772,0.772,0,0,1-.254-0.285,1.3,1.3,0,0,1-.131-0.454c-0.022-.183-0.036-0.34-0.039-0.472s0-.318,0-0.558,0.012-.4.012-0.489c0-.295.005-0.615,0.017-0.96s0.02-.619.028-0.821,0.011-.415.011-0.64a2.811,2.811,0,0,0-.039-0.53,1.831,1.831,0,0,0-.119-0.372,0.629,0.629,0,0,0-.232-0.28,1.326,1.326,0,0,0-.379-0.157,7.366,7.366,0,0,0-1.529-.151,7.238,7.238,0,0,0-2.706.28,1.537,1.537,0,0,0-.431.348c-0.136.171-.155,0.265-0.056,0.28a1.377,1.377,0,0,1,.962.5l0.068,0.139a2.279,2.279,0,0,1,.159.536,5.648,5.648,0,0,1,.1.849,9.233,9.233,0,0,1,0,1.455q-0.056.606-.107,0.943a1.926,1.926,0,0,1-.153.547,2.234,2.234,0,0,1-.136.256,0.205,0.205,0,0,1-.056.058,0.827,0.827,0,0,1-.306.058,0.7,0.7,0,0,1-.385-0.163,2.71,2.71,0,0,1-.47-0.448,6.042,6.042,0,0,1-.549-0.8q-0.306-.513-0.634-1.21l-0.181-.338c-0.114-.218-0.268-0.534-0.465-0.949s-0.37-.817-0.521-1.2a0.765,0.765,0,0,0-.271-0.373l-0.057-.035a0.77,0.77,0,0,0-.181-0.1,1.158,1.158,0,0,0-.26-0.075l-3.1.023a0.776,0.776,0,0,0-.645.221l-0.046.07a0.394,0.394,0,0,0-.034.186,0.953,0.953,0,0,0,.068.314q0.679,1.641,1.478,3.166t1.387,2.456q0.588,0.93,1.2,1.757t0.81,1.059c0.132,0.156.236,0.272,0.311,0.35l0.283,0.279a6.781,6.781,0,0,0,.8.669,13.42,13.42,0,0,0,1.167.768,6.221,6.221,0,0,0,1.489.617,5.014,5.014,0,0,0,1.653.192h1.3a0.889,0.889,0,0,0,.6-0.256l0.045-.058a0.749,0.749,0,0,0,.085-0.215,1.193,1.193,0,0,0,.04-0.32,3.953,3.953,0,0,1,.073-0.9,2.417,2.417,0,0,1,.193-0.605,1.472,1.472,0,0,1,.243-0.343,0.955,0.955,0,0,1,.193-0.169,0.745,0.745,0,0,1,.09-0.041,0.7,0.7,0,0,1,.64.181,3.752,3.752,0,0,1,.691.675q0.323,0.4.776,0.9a5.414,5.414,0,0,0,.792.744l0.227,0.14a2.686,2.686,0,0,0,.589.256,1.229,1.229,0,0,0,.634.058l2.9-.046a1.281,1.281,0,0,0,.668-0.146,0.563,0.563,0,0,0,.283-0.32,0.917,0.917,0,0,0,.006-0.4,1.451,1.451,0,0,0-.08-0.308,1.488,1.488,0,0,0-.073-0.145,11.541,11.541,0,0,0-2.163-2.573l-0.023-.023-0.011-.011-0.011-.012H151.09q-0.725-.711-0.917-0.955a0.914,0.914,0,0,1-.158-0.943,8.772,8.772,0,0,1,1.019-1.524c0.309-.412.555-0.741,0.736-0.99q1.959-2.676,1.7-3.422Z" transform="translate(-128 -891)"/>
</svg>
