<svg xmlns="http://www.w3.org/2000/svg" width="30" height="30" viewBox="0 0 30 30">
  <metadata><?xpacket begin="﻿" id="W5M0MpCehiHzreSzNTczkc9d"?>
<x:xmpmeta xmlns:x="adobe:ns:meta/" x:xmptk="Adobe XMP Core 5.6-c138 79.159824, 2016/09/14-01:09:01        ">
   <rdf:RDF xmlns:rdf="http://www.w3.org/1999/02/22-rdf-syntax-ns#">
      <rdf:Description rdf:about=""/>
   </rdf:RDF>
</x:xmpmeta>
                                                                                                    
                                                                                                    
                                                                                                    
                                                                                                    
                                                                                                    
                                                                                                    
                                                                                                    
                                                                                                    
                                                                                                    
                                                                                                    
                                                                                                    
                                                                                                    
                                                                                                    
                                                                                                    
                                                                                                    
                                                                                                    
                                                                                                    
                                                                                                    
                                                                                                    
                                                                                                    
                           
<?xpacket end="w"?></metadata>
<defs>
    <style>
      .cls-1 {
        fill: #f8f7f7;
        fill-rule: evenodd;
      }
    </style>
  </defs>
  <path id="icon-vkontakte-white" class="cls-1" d="M404.871,916.645a1.641,1.641,0,0,0-.081-0.159,12.646,12.646,0,0,0-2.386-2.825l-0.025-.026-0.013-.012-0.012-.013h-0.013q-0.8-.78-1.012-1.048a1,1,0,0,1-.175-1.035,9.619,9.619,0,0,1,1.125-1.674q0.512-.678.812-1.087,2.161-2.938,1.874-3.757l-0.075-.128a0.731,0.731,0,0,0-.387-0.21,1.915,1.915,0,0,0-.8-0.032l-3.6.025a0.455,0.455,0,0,0-.25.007l-0.162.038-0.063.032-0.05.038a0.6,0.6,0,0,0-.137.134,0.91,0.91,0,0,0-.125.224,21.1,21.1,0,0,1-1.337,2.876q-0.462.792-.849,1.374a6.679,6.679,0,0,1-.65.856,4.592,4.592,0,0,1-.475.441,0.456,0.456,0,0,1-.325.14c-0.075-.017-0.145-0.034-0.212-0.051a0.836,0.836,0,0,1-.281-0.313,1.423,1.423,0,0,1-.144-0.5c-0.025-.2-0.04-0.372-0.044-0.517s0-.35.007-0.614,0.012-.443.012-0.537c0-.323.006-0.675,0.019-1.054s0.022-.679.031-0.9,0.012-.456.012-0.7a3.024,3.024,0,0,0-.043-0.581,2.031,2.031,0,0,0-.131-0.409,0.693,0.693,0,0,0-.256-0.307,1.432,1.432,0,0,0-.419-0.172,11.7,11.7,0,0,0-4.673.14,1.7,1.7,0,0,0-.475.384q-0.225.28-.062,0.306a1.523,1.523,0,0,1,1.062.55l0.075,0.153a2.544,2.544,0,0,1,.175.588,6.023,6.023,0,0,1,.112.933,10.065,10.065,0,0,1,0,1.6c-0.042.444-.081,0.789-0.119,1.036a2.082,2.082,0,0,1-.168.6,2.477,2.477,0,0,1-.15.281,0.208,0.208,0,0,1-.063.064,0.9,0.9,0,0,1-.337.064,0.778,0.778,0,0,1-.425-0.179,3.015,3.015,0,0,1-.518-0.492,6.584,6.584,0,0,1-.606-0.875q-0.337-.562-0.7-1.329l-0.2-.371q-0.187-.359-0.512-1.042t-0.575-1.322a0.834,0.834,0,0,0-.3-0.409l-0.062-.039a0.835,0.835,0,0,0-.2-0.108,1.278,1.278,0,0,0-.287-0.083l-3.424.025a0.858,0.858,0,0,0-.712.243l-0.05.077a0.416,0.416,0,0,0-.038.2,1.036,1.036,0,0,0,.075.345q0.75,1.8,1.631,3.476t1.53,2.7q0.649,1.022,1.325,1.93t0.893,1.163c0.146,0.17.26,0.3,0.344,0.383l0.312,0.307a7.514,7.514,0,0,0,.881.734,14.729,14.729,0,0,0,1.287.844,6.855,6.855,0,0,0,1.643.677,5.552,5.552,0,0,0,1.824.211h1.437a0.98,0.98,0,0,0,.662-0.281l0.05-.064a0.879,0.879,0,0,0,.094-0.236,1.342,1.342,0,0,0,.043-0.352,4.352,4.352,0,0,1,.081-0.99,2.679,2.679,0,0,1,.213-0.664,1.643,1.643,0,0,1,.268-0.377,1.106,1.106,0,0,1,.213-0.185,0.679,0.679,0,0,1,.1-0.045,0.781,0.781,0,0,1,.706.2,4.148,4.148,0,0,1,.762.741q0.357,0.441.856,0.991a5.971,5.971,0,0,0,.875.818l0.249,0.153a3.032,3.032,0,0,0,.65.281,1.37,1.37,0,0,0,.7.064l3.2-.051a1.422,1.422,0,0,0,.737-0.16,0.632,0.632,0,0,0,.313-0.351,1.018,1.018,0,0,0,.006-0.435A1.6,1.6,0,0,0,404.871,916.645Z" transform="translate(-378 -896)"/>
</svg>
