<svg 
 xmlns="http://www.w3.org/2000/svg"
 xmlns:xlink="http://www.w3.org/1999/xlink"
 width="24px" height="37px">
<path fill-rule="evenodd"  fill="rgb(27, 190, 232)"
 d="M24.000,24.000 C24.000,25.447 24.168,27.000 23.000,27.000 C22.445,27.000 21.915,27.000 21.000,27.000 C19.251,27.000 17.007,27.000 15.000,27.000 L15.000,25.000 C17.320,25.000 20.031,25.000 22.000,25.000 C22.000,20.524 22.000,15.476 22.000,11.000 C20.674,11.000 17.326,11.000 16.000,11.000 C15.275,11.000 15.000,10.674 15.000,10.000 C15.000,8.273 15.000,3.727 15.000,2.000 C11.100,2.000 5.900,2.000 2.000,2.000 C2.000,9.096 2.000,17.904 2.000,25.000 C3.959,25.000 6.680,25.000 9.000,25.000 L9.000,27.000 C6.996,27.000 4.822,27.000 3.000,27.000 C1.666,27.000 1.664,27.000 1.000,27.000 C0.391,27.000 0.031,25.537 0.031,24.855 C0.031,23.563 0.031,22.270 0.031,20.978 C0.031,16.008 0.031,11.037 0.031,6.068 C0.031,4.952 0.031,3.835 0.031,2.719 C0.031,2.229 -0.058,1.556 0.064,1.133 C0.194,0.683 0.565,0.282 0.959,0.111 C1.422,-0.090 2.570,0.041 3.180,0.041 C4.860,0.041 6.540,0.041 8.219,0.041 C10.098,0.041 11.976,0.041 13.855,0.041 C14.429,0.041 16.567,0.041 17.141,0.041 C17.403,0.041 17.444,0.002 17.656,0.076 C18.306,0.302 23.699,7.368 23.933,8.148 C24.035,8.490 23.966,9.046 23.966,9.452 C23.966,10.368 23.966,11.285 23.966,12.201 C23.966,15.855 24.000,20.346 24.000,24.000 ZM17.000,3.625 C17.000,4.553 17.000,8.072 17.000,9.000 C17.884,9.000 20.585,9.000 21.469,9.000 C21.469,8.988 17.231,3.788 17.000,3.625 ZM8.586,30.171 L11.000,32.586 C11.000,31.197 11.000,29.260 11.000,28.000 C11.000,27.573 11.000,27.223 11.000,27.000 L11.000,25.000 C11.000,24.687 11.000,24.351 11.000,24.000 C11.000,21.516 11.000,18.213 11.000,16.000 C11.000,14.159 10.750,13.688 11.833,13.329 C12.152,13.223 12.525,13.353 12.661,13.505 C13.110,14.005 13.000,14.649 13.000,16.000 C13.000,18.477 13.000,21.413 13.000,24.000 C13.000,24.333 13.000,24.681 13.000,25.000 L13.000,27.000 C13.000,27.230 13.000,27.579 13.000,28.000 C13.000,29.283 13.000,31.247 13.000,32.642 L15.358,30.285 C15.733,29.910 16.340,29.910 16.715,30.285 C17.090,30.659 17.090,31.267 16.715,31.642 L13.094,35.264 C13.064,35.469 12.987,35.670 12.828,35.828 C12.438,36.219 11.805,36.219 11.414,35.828 L11.333,35.747 C11.318,35.734 11.299,35.729 11.285,35.715 C11.270,35.701 11.266,35.681 11.252,35.667 L7.172,31.586 C6.781,31.195 6.781,30.562 7.172,30.171 C7.562,29.781 8.195,29.781 8.586,30.171 Z"/>
</svg>