<svg 
 xmlns="http://www.w3.org/2000/svg"
 xmlns:xlink="http://www.w3.org/1999/xlink"
 width="40px" height="57px">
<path fill-rule="evenodd"  fill="rgb(137, 175, 15)"
 d="M39.051,45.858 L35.512,45.858 C34.988,45.858 34.563,45.440 34.563,44.923 L34.563,33.756 L32.949,33.756 L32.949,41.349 C32.949,41.865 32.524,42.283 32.000,42.283 L30.315,42.283 L30.315,50.712 L31.512,50.712 C32.037,50.712 32.461,51.131 32.461,51.647 L32.461,56.065 C32.461,56.581 32.037,57.000 31.512,57.000 L23.512,57.000 C22.988,57.000 22.563,56.581 22.563,56.065 L22.563,51.647 C22.563,51.131 22.988,50.712 23.512,50.712 L24.709,50.712 L24.709,42.283 L15.291,42.283 L15.291,50.712 L16.488,50.712 C17.012,50.712 17.437,51.131 17.437,51.647 L17.437,56.065 C17.437,56.581 17.012,57.000 16.488,57.000 L8.488,57.000 C7.963,57.000 7.538,56.581 7.538,56.065 L7.538,51.647 C7.538,51.131 7.963,50.712 8.488,50.712 L9.685,50.712 L9.685,42.283 L8.000,42.283 C7.475,42.283 7.051,41.865 7.051,41.349 L7.051,33.756 L5.437,33.756 L5.437,44.923 C5.437,45.440 5.012,45.858 4.488,45.858 L0.949,45.858 C0.425,45.858 0.000,45.440 0.000,44.923 L0.000,26.099 C0.000,25.582 0.425,25.164 0.949,25.164 L4.488,25.164 C5.012,25.164 5.437,25.582 5.437,26.099 L5.437,28.045 L7.051,28.045 L7.051,26.099 C7.051,25.582 7.476,25.164 8.000,25.164 L11.929,25.164 L11.929,23.232 L8.000,23.232 C7.476,23.232 7.051,22.814 7.051,22.298 L7.051,7.361 C7.051,5.102 8.917,3.265 11.211,3.265 L19.051,3.265 L19.051,0.934 C19.051,0.418 19.476,-0.000 20.000,-0.000 C20.524,-0.000 20.949,0.418 20.949,0.934 L20.949,3.265 L28.789,3.265 C31.083,3.265 32.949,5.102 32.949,7.361 L32.949,22.298 C32.949,22.814 32.524,23.232 32.000,23.232 L28.071,23.232 L28.071,25.164 L32.000,25.164 C32.524,25.164 32.949,25.582 32.949,26.099 L32.949,28.045 L34.563,28.045 L34.563,26.099 C34.563,25.582 34.988,25.164 35.512,25.164 L39.051,25.164 C39.575,25.164 40.000,25.582 40.000,26.098 L40.000,44.923 C40.000,45.440 39.575,45.858 39.051,45.858 ZM3.538,27.033 L1.899,27.033 L1.899,43.989 L3.538,43.989 L3.538,27.033 ZM7.051,29.914 L5.437,29.914 L5.437,31.887 L7.051,31.887 L7.051,29.914 ZM24.461,52.581 L24.461,55.131 L30.563,55.131 L30.563,52.581 L24.461,52.581 ZM28.417,50.713 L28.417,42.284 L26.608,42.284 L26.608,50.713 L28.417,50.713 ZM9.437,52.581 L9.437,55.131 L15.538,55.131 L15.538,52.581 L9.437,52.581 ZM13.392,50.713 L13.392,42.284 L11.583,42.284 L11.583,50.713 L13.392,50.713 ZM31.051,21.364 L31.051,7.361 C31.051,6.133 30.036,5.134 28.789,5.134 L11.211,5.134 C9.964,5.134 8.949,6.133 8.949,7.361 L8.949,21.364 L31.051,21.364 ZM13.827,23.232 L13.827,25.164 L26.173,25.164 L26.173,23.232 L13.827,23.232 ZM31.051,27.033 L8.949,27.033 L8.949,40.414 L31.051,40.414 L31.051,27.033 ZM34.563,29.914 L32.949,29.914 L32.949,31.887 L34.563,31.887 L34.563,29.914 ZM38.101,27.033 L36.461,27.033 L36.461,43.989 L38.101,43.989 L38.101,27.033 ZM12.000,28.814 C12.524,28.814 12.949,29.232 12.949,29.748 C12.949,30.264 12.524,30.683 12.000,30.683 C11.476,30.683 11.051,30.264 11.051,29.748 C11.051,29.232 11.476,28.814 12.000,28.814 ZM20.000,30.158 C23.428,30.158 26.218,32.904 26.218,36.279 C26.218,36.795 25.793,37.214 25.268,37.214 L14.732,37.214 C14.207,37.214 13.783,36.795 13.783,36.279 C13.783,32.904 16.572,30.158 20.000,30.158 ZM24.214,35.345 C23.780,33.448 22.056,32.028 20.000,32.028 C17.945,32.028 16.220,33.448 15.786,35.345 L24.214,35.345 ZM28.000,28.814 C28.524,28.814 28.949,29.232 28.949,29.748 C28.949,30.264 28.524,30.683 28.000,30.683 C27.476,30.683 27.051,30.264 27.051,29.748 C27.051,29.232 27.476,28.814 28.000,28.814 ZM14.146,9.434 C16.499,9.434 18.413,11.318 18.413,13.634 C18.413,15.950 16.499,17.834 14.146,17.834 C11.794,17.834 9.880,15.950 9.880,13.634 C9.880,11.318 11.794,9.434 14.146,9.434 ZM14.146,15.965 C15.452,15.965 16.514,14.919 16.514,13.634 C16.514,12.349 15.452,11.303 14.146,11.303 C12.841,11.303 11.778,12.349 11.778,13.634 C11.778,14.919 12.841,15.965 14.146,15.965 ZM25.854,9.434 C28.206,9.434 30.120,11.318 30.120,13.634 C30.120,15.950 28.206,17.834 25.854,17.834 C23.501,17.834 21.587,15.950 21.587,13.634 C21.587,11.318 23.501,9.434 25.854,9.434 ZM25.854,15.965 C27.159,15.965 28.222,14.919 28.222,13.634 C28.222,12.349 27.159,11.303 25.854,11.303 C24.548,11.303 23.486,12.349 23.486,13.634 C23.486,14.919 24.548,15.965 25.854,15.965 Z"/>
</svg>