<svg xmlns="http://www.w3.org/2000/svg" width="64" height="64" viewBox="0 0 64 64">
  <metadata><?xpacket begin="﻿" id="W5M0MpCehiHzreSzNTczkc9d"?>
<x:xmpmeta xmlns:x="adobe:ns:meta/" x:xmptk="Adobe XMP Core 5.6-c138 79.159824, 2016/09/14-01:09:01        ">
   <rdf:RDF xmlns:rdf="http://www.w3.org/1999/02/22-rdf-syntax-ns#">
      <rdf:Description rdf:about=""/>
   </rdf:RDF>
</x:xmpmeta>
                                                                                                    
                                                                                                    
                                                                                                    
                                                                                                    
                                                                                                    
                                                                                                    
                                                                                                    
                                                                                                    
                                                                                                    
                                                                                                    
                                                                                                    
                                                                                                    
                                                                                                    
                                                                                                    
                                                                                                    
                                                                                                    
                                                                                                    
                                                                                                    
                                                                                                    
                                                                                                    
                           
<?xpacket end="w"?></metadata>
<defs>
    <style>
      .cls-1 {
        fill: #feb800;
        fill-rule: evenodd;
      }
    </style>
  </defs>
  <path id="icon-wreath-left" class="cls-1" d="M185.5,293.571A74.91,74.91,0,0,0,198.774,297l0.489-2.94a76.808,76.808,0,0,1-9.559-2.221,43.73,43.73,0,0,1-4.2-1.453q-1.543-.6-2.988-1.269c0.845-3.077,1.175-9.423-8.032-14.145a25.859,25.859,0,0,0-.314,9.077,32.94,32.94,0,0,1-4.124-3.882c2.007-2.146,5.805-7.977-1.044-16.7a25.29,25.29,0,0,0-4.154,8.573,32.426,32.426,0,0,1-2-6.379c-0.082-.4-0.156-0.808-0.225-1.219,2.544-.838,8.682-4.007,6.622-14.746a24.466,24.466,0,0,0-7,5.112,38.445,38.445,0,0,1,1.278-7.371c2.42-.853,6.463-3.475,5.586-11.437,0,0-9.95,3.684-8.227,9.846a42.028,42.028,0,0,0-.993,4.278,13.993,13.993,0,0,0-5.973-4.285s-1.779,11.59,5.241,12.717a41.357,41.357,0,0,0,.5,6.039,13.01,13.01,0,0,0-7.718-2.109c-0.609,0-1.252.026-1.928,0.083,0,0,3.445,10.351,9.785,10.351a6.329,6.329,0,0,0,2.065-.358,33.28,33.28,0,0,0,2.282,4.564,0.015,0.015,0,0,1,0,.009,13.33,13.33,0,0,0-3.311-.4,21.639,21.639,0,0,0-7.776,1.634s6.264,9.07,13,9.07a7.619,7.619,0,0,0,5.1-2.026,43.058,43.058,0,0,0,10.149,6.425C183.12,292.616,183.79,292.909,185.5,293.571Zm-22.6-34.109c0.342-1.438,1.675-3.1,3.763-4.695a8.4,8.4,0,0,1-1.332,4.162,6.771,6.771,0,0,1-2.4,2.145A3.076,3.076,0,0,1,162.9,259.462Zm0.838-15.693a5.941,5.941,0,0,1,2.089-2.552,5.653,5.653,0,0,1-.94,1.772,4.954,4.954,0,0,1-1.229,1.095A2.888,2.888,0,0,1,163.739,243.769Zm-5.657,11.007a7.163,7.163,0,0,1-1.292-3.687,6.322,6.322,0,0,1,1.489,2.156,5.5,5.5,0,0,1,.39,2.039A2.3,2.3,0,0,1,158.082,254.776Zm1.7,15.162a3.764,3.764,0,0,1-2.334-.946,11.449,11.449,0,0,1-2.394-2.776q-0.156-.245-0.306-0.491a7.3,7.3,0,0,1,4.72,2.83,7.158,7.158,0,0,1,.741,1.35A2.851,2.851,0,0,1,159.785,269.938Zm6.264,14.521c-1.97,0-4.366-1.267-6.931-3.66-0.3-.282-0.588-0.564-0.859-0.841a14.637,14.637,0,0,1,2.566-.241,8.911,8.911,0,0,1,6.7,2.695,9.518,9.518,0,0,1,1.016,1.261A4.44,4.44,0,0,1,166.049,284.459Zm3.855-10.531a7.259,7.259,0,0,1-1.311,3.328,3.376,3.376,0,0,1-.936-1.649c-0.382-1.555.089-3.828,1.33-6.405,0.015-.033.03-0.065,0.048-0.1A9.059,9.059,0,0,1,169.9,273.928Zm9.91,13.731a3.486,3.486,0,0,1-1.532-1.108c-1.2-1.522-1.488-4.123-1.432-6.468a8.967,8.967,0,0,1,2.776,4A7.291,7.291,0,0,1,179.814,287.659Z" transform="translate(-142.625 -234.5)"/>
</svg>
