<svg xmlns="http://www.w3.org/2000/svg" width="24" height="24" viewBox="0 0 24 24">
  <metadata><?xpacket begin="﻿" id="W5M0MpCehiHzreSzNTczkc9d"?>
<x:xmpmeta xmlns:x="adobe:ns:meta/" x:xmptk="Adobe XMP Core 5.6-c138 79.159824, 2016/09/14-01:09:01        ">
   <rdf:RDF xmlns:rdf="http://www.w3.org/1999/02/22-rdf-syntax-ns#">
      <rdf:Description rdf:about=""/>
   </rdf:RDF>
</x:xmpmeta>
                                                                                                    
                                                                                                    
                                                                                                    
                                                                                                    
                                                                                                    
                                                                                                    
                                                                                                    
                                                                                                    
                                                                                                    
                                                                                                    
                                                                                                    
                                                                                                    
                                                                                                    
                                                                                                    
                                                                                                    
                                                                                                    
                                                                                                    
                                                                                                    
                                                                                                    
                                                                                                    
                           
<?xpacket end="w"?></metadata>
<defs>
    <style>
      .cls-1 {
        fill: #737373;
        fill-rule: evenodd;
      }
    </style>
  </defs>
  <path id="icon-eye" class="cls-1" d="M180.887,446.822a12.582,12.582,0,0,1-2.217,2.081,11.639,11.639,0,0,1-2.512,1.433,8.684,8.684,0,0,1-3.266.664c-2.737,0-5.349-1.4-7.763-4.157a0.518,0.518,0,0,1-.016-0.666,12.667,12.667,0,0,1,2.217-2.081,11.615,11.615,0,0,1,2.512-1.433,8.679,8.679,0,0,1,3.266-.663c2.737,0,5.346,1.4,7.763,4.156A0.519,0.519,0,0,1,180.887,446.822Zm-7.783-3.729a8.677,8.677,0,0,0-5.016,1.839,12.582,12.582,0,0,0-1.744,1.563c2.09,2.266,4.291,3.414,6.548,3.414a8.674,8.674,0,0,0,5.017-1.839,12.322,12.322,0,0,0,1.744-1.563C177.562,444.241,175.361,443.093,173.1,443.093ZM173,449.058a2.564,2.564,0,1,1,0-5.114,0.547,0.547,0,1,1,0,1.091,1.47,1.47,0,1,0,1.58,1.466,0.59,0.59,0,0,1,1.176,0A2.664,2.664,0,0,1,173,449.058Z" transform="translate(-161.016 -434.5)"/>
</svg>
