<svg 
 xmlns="http://www.w3.org/2000/svg"
 xmlns:xlink="http://www.w3.org/1999/xlink"
 width="30px" height="28px">
<path fill-rule="evenodd"  fill="rgb(27, 190, 232)"
 d="M29.975,3.705 L28.639,9.848 C28.579,10.127 28.408,10.370 28.166,10.525 C28.014,10.621 27.842,10.678 27.666,10.693 C27.560,10.702 27.452,10.695 27.346,10.673 L21.114,9.357 C20.526,9.232 20.152,8.662 20.278,8.082 C20.403,7.502 20.982,7.133 21.570,7.257 L25.201,8.024 C23.074,4.414 19.147,2.147 14.841,2.147 C8.235,2.147 2.862,7.444 2.862,13.954 C2.862,14.547 2.374,15.028 1.773,15.028 C1.171,15.028 0.684,14.547 0.684,13.954 C0.684,6.260 7.035,-0.000 14.841,-0.000 C19.909,-0.000 24.534,2.659 27.054,6.896 L27.845,3.255 C27.971,2.676 28.550,2.306 29.138,2.431 C29.726,2.555 30.101,3.126 29.975,3.705 ZM2.194,17.663 C2.444,17.520 2.741,17.482 3.020,17.555 L9.176,19.183 C9.757,19.336 10.102,19.925 9.946,20.497 C9.790,21.070 9.193,21.410 8.612,21.256 L4.827,20.256 C6.998,23.717 10.842,25.853 15.014,25.853 C15.147,25.853 15.280,25.851 15.413,25.846 C18.611,25.742 21.576,24.417 23.763,22.114 C25.949,19.812 27.095,16.808 26.990,13.656 C26.970,13.063 27.441,12.567 28.042,12.547 C28.643,12.526 29.147,12.992 29.166,13.585 C29.291,17.310 27.937,20.860 25.353,23.581 C22.769,26.303 19.264,27.869 15.485,27.992 C15.328,27.997 15.170,28.000 15.014,28.000 C10.140,28.000 5.648,25.534 3.067,21.528 L2.140,24.938 C2.009,25.418 1.569,25.734 1.088,25.734 C0.995,25.734 0.900,25.722 0.806,25.697 C0.225,25.544 -0.120,24.955 0.036,24.382 L1.687,18.314 C1.761,18.039 1.944,17.805 2.194,17.663 Z"/>
</svg>