<svg 
 xmlns="http://www.w3.org/2000/svg"
 xmlns:xlink="http://www.w3.org/1999/xlink"
 width="46px" height="46px">
<path fill-rule="evenodd"  fill="rgb(137, 175, 15)"
 d="M40.954,23.558 C38.963,26.066 37.979,30.876 37.111,35.119 C36.556,37.837 36.031,40.403 35.281,42.346 C34.932,43.250 33.870,46.000 31.432,46.000 C29.852,46.000 28.579,44.978 27.540,42.874 C26.732,41.240 26.154,39.159 25.594,37.145 C25.134,35.490 24.699,33.926 24.188,32.796 C23.767,31.867 23.345,31.355 23.000,31.355 C22.655,31.355 22.233,31.867 21.812,32.796 C21.301,33.926 20.866,35.490 20.406,37.145 C19.846,39.159 19.267,41.240 18.460,42.874 C17.421,44.978 16.148,46.000 14.568,46.000 C12.130,46.000 11.068,43.250 10.719,42.346 C9.969,40.403 9.444,37.837 8.888,35.119 C8.021,30.876 7.037,26.066 5.046,23.558 C0.362,17.658 -0.000,14.950 -0.000,11.770 C-0.000,5.280 5.280,-0.000 11.770,-0.000 C16.736,-0.000 19.093,3.148 20.815,5.447 C21.623,6.527 22.386,7.547 23.000,7.547 C23.614,7.547 24.377,6.527 25.185,5.447 C26.906,3.148 29.264,-0.000 34.230,-0.000 C40.720,-0.000 46.000,5.280 46.000,11.770 C46.000,14.950 45.638,17.658 40.954,23.558 ZM41.276,20.125 C41.537,19.749 41.775,19.390 41.991,19.047 L29.199,19.047 L29.199,20.125 L41.276,20.125 ZM6.454,22.441 C8.711,25.285 9.696,30.101 10.649,34.759 C11.598,39.402 12.580,44.203 14.568,44.203 C16.579,44.203 17.741,40.023 18.674,36.664 C19.735,32.851 20.650,29.558 23.000,29.558 C25.350,29.558 26.265,32.851 27.325,36.664 C28.259,40.023 29.421,44.203 31.432,44.203 C33.420,44.203 34.402,39.402 35.351,34.759 C36.304,30.101 37.289,25.285 39.546,22.441 C39.686,22.265 39.822,22.092 39.954,21.922 L29.199,21.922 L29.199,23.449 C29.199,23.945 28.797,24.347 28.301,24.347 L17.699,24.347 C17.203,24.347 16.801,23.945 16.801,23.449 L16.801,21.922 L6.046,21.922 C6.178,22.092 6.314,22.265 6.454,22.441 ZM27.402,22.551 L27.402,21.023 L27.402,18.148 L27.402,16.621 L18.598,16.621 L18.598,18.148 L18.598,21.023 L18.598,22.551 L27.402,22.551 ZM4.724,20.125 L16.801,20.125 L16.801,19.047 L4.009,19.047 C4.225,19.390 4.463,19.749 4.724,20.125 ZM34.230,1.797 C30.163,1.797 28.201,4.418 26.624,6.524 C25.491,8.037 24.513,9.344 23.000,9.344 C21.487,9.344 20.509,8.037 19.376,6.524 C17.799,4.418 15.837,1.797 11.770,1.797 C6.270,1.797 1.797,6.271 1.797,11.770 C1.797,13.338 1.797,14.853 2.989,17.250 L16.801,17.250 L16.801,15.723 C16.801,15.226 17.203,14.824 17.699,14.824 L28.301,14.824 C28.797,14.824 29.199,15.226 29.199,15.723 L29.199,17.250 L43.011,17.250 C44.203,14.853 44.203,13.338 44.203,11.770 C44.203,6.271 39.729,1.797 34.230,1.797 ZM13.136,7.008 C9.928,7.008 7.243,9.511 7.023,12.707 C6.990,13.181 6.595,13.543 6.127,13.543 C6.106,13.543 6.085,13.543 6.064,13.541 C5.569,13.507 5.196,13.078 5.230,12.583 C5.515,8.449 8.988,5.211 13.136,5.211 C13.632,5.211 14.034,5.613 14.034,6.109 C14.034,6.605 13.632,7.008 13.136,7.008 ZM6.265,14.630 C6.740,14.487 7.240,14.753 7.382,15.229 L7.383,15.233 C7.526,15.708 7.257,16.210 6.781,16.353 C6.695,16.379 6.608,16.391 6.522,16.391 C6.136,16.391 5.780,16.141 5.663,15.753 C5.521,15.277 5.789,14.773 6.265,14.630 ZM22.641,18.238 L23.359,18.238 C23.856,18.238 24.258,18.640 24.258,19.136 L24.258,20.035 C24.258,20.531 23.856,20.934 23.359,20.934 L22.641,20.934 C22.144,20.934 21.742,20.531 21.742,20.035 L21.742,19.136 C21.742,18.640 22.144,18.238 22.641,18.238 Z"/>
</svg>