<svg xmlns="http://www.w3.org/2000/svg" width="24" height="24" viewBox="0 0 24 24">
  <metadata><?xpacket begin="﻿" id="W5M0MpCehiHzreSzNTczkc9d"?>
<x:xmpmeta xmlns:x="adobe:ns:meta/" x:xmptk="Adobe XMP Core 5.6-c138 79.159824, 2016/09/14-01:09:01        ">
   <rdf:RDF xmlns:rdf="http://www.w3.org/1999/02/22-rdf-syntax-ns#">
      <rdf:Description rdf:about=""/>
   </rdf:RDF>
</x:xmpmeta>
                                                                                                    
                                                                                                    
                                                                                                    
                                                                                                    
                                                                                                    
                                                                                                    
                                                                                                    
                                                                                                    
                                                                                                    
                                                                                                    
                                                                                                    
                                                                                                    
                                                                                                    
                                                                                                    
                                                                                                    
                                                                                                    
                                                                                                    
                                                                                                    
                                                                                                    
                                                                                                    
                           
<?xpacket end="w"?></metadata>
<defs>
    <style>
      .cls-1 {
        fill: #eaeaea;
        fill-rule: evenodd;
      }
    </style>
  </defs>
  <path id="icon-star" class="cls-1" d="M209.559,381.06a1.534,1.534,0,0,0,.362-1.534,1.441,1.441,0,0,0-1.157-1.019l-4.839-.734a0.637,0.637,0,0,1-.477-0.362l-2.163-4.579a1.408,1.408,0,0,0-2.571,0l-2.163,4.579a0.639,0.639,0,0,1-.477.362l-4.839.734a1.444,1.444,0,0,0-1.158,1.019,1.536,1.536,0,0,0,.363,1.534l3.5,3.564a0.679,0.679,0,0,1,.183.585l-0.826,5.033a1.51,1.51,0,0,0,.312,1.213,1.406,1.406,0,0,0,1.767.364l4.328-2.376a0.624,0.624,0,0,1,.589,0l4.328,2.376a1.369,1.369,0,0,0,.667.174,1.414,1.414,0,0,0,1.1-.538,1.512,1.512,0,0,0,.312-1.213l-0.826-5.033a0.681,0.681,0,0,1,.182-0.585Z" transform="translate(-188 -370)"/>
</svg>
