<svg xmlns="http://www.w3.org/2000/svg" width="64" height="64" viewBox="0 0 64 64">
  <metadata><?xpacket begin="﻿" id="W5M0MpCehiHzreSzNTczkc9d"?>
<x:xmpmeta xmlns:x="adobe:ns:meta/" x:xmptk="Adobe XMP Core 5.6-c138 79.159824, 2016/09/14-01:09:01        ">
   <rdf:RDF xmlns:rdf="http://www.w3.org/1999/02/22-rdf-syntax-ns#">
      <rdf:Description rdf:about=""/>
   </rdf:RDF>
</x:xmpmeta>
                                                                                                    
                                                                                                    
                                                                                                    
                                                                                                    
                                                                                                    
                                                                                                    
                                                                                                    
                                                                                                    
                                                                                                    
                                                                                                    
                                                                                                    
                                                                                                    
                                                                                                    
                                                                                                    
                                                                                                    
                                                                                                    
                                                                                                    
                                                                                                    
                                                                                                    
                                                                                                    
                           
<?xpacket end="w"?></metadata>
<defs>
    <style>
      .cls-1 {
        fill: #ed107a;
        fill-rule: evenodd;
      }
    </style>
  </defs>
  <path id="icon-alert" class="cls-1" d="M558.5,257.189l-11.319,6.429a1.014,1.014,0,0,1-1.373-.362,0.98,0.98,0,0,1,.368-1.351l11.319-6.429a1.013,1.013,0,0,1,1.373.362A0.98,0.98,0,0,1,558.5,257.189Zm-9.4,32.854v2.967a1,1,0,0,1-1,.989H513.913a1,1,0,0,1-1-.989v-2.967a3.988,3.988,0,0,1,4.015-3.951h0.007V271.664a14.077,14.077,0,0,1,28.151,0v14.428h0.006A3.988,3.988,0,0,1,549.1,290.043Zm-6.032-18.379a12.067,12.067,0,0,0-24.13,0v14.428h24.13V271.664Zm4.021,18.379a1.991,1.991,0,0,0-2-1.973H516.923a1.991,1.991,0,0,0-2,1.973v1.978h32.172v-1.978Zm-21.67-26.605a1.015,1.015,0,0,1,1.394.271,0.98,0.98,0,0,1-.276,1.373,7.873,7.873,0,0,0-3.577,6.582,1.006,1.006,0,0,1-2.011,0A9.839,9.839,0,0,1,525.421,263.438Zm15.5-6.7a1.014,1.014,0,0,1-1.373.362,0.98,0.98,0,0,1-.368-1.351l3.318-6.056a1.014,1.014,0,0,1,1.373-.362,0.98,0.98,0,0,1,.368,1.351Zm-10.24-2.106c-0.534,0-.966-0.727-0.966-1.625V241.633c0-.9.432-1.625,0.966-1.625s0.965,0.728.965,1.625v11.375C531.649,253.906,531.217,254.633,530.684,254.633Zm-8.225,2.468a1.015,1.015,0,0,1-1.373-.361l-3.318-6.057a0.98,0.98,0,0,1,.368-1.351,1.014,1.014,0,0,1,1.373.362l3.318,6.057A0.979,0.979,0,0,1,522.459,257.1Zm-7.127,6.65a1.012,1.012,0,0,1-.5-0.133l-11.319-6.429a0.98,0.98,0,0,1-.368-1.351,1.014,1.014,0,0,1,1.373-.362l11.319,6.429a0.98,0.98,0,0,1,.368,1.351A1.006,1.006,0,0,1,515.332,263.751Zm-9.462,6.924h7.038a0.989,0.989,0,1,1,0,1.978H505.87A0.989,0.989,0,1,1,505.87,270.675Zm42.227,0.989a1,1,0,0,1,1-.989h7.038a0.989,0.989,0,1,1,0,1.978H549.1A1,1,0,0,1,548.1,271.664Z" transform="translate(-499.015 -235)"/>
</svg>
