<svg xmlns="http://www.w3.org/2000/svg" width="64" height="64" viewBox="0 0 64 64">
  <metadata><?xpacket begin="﻿" id="W5M0MpCehiHzreSzNTczkc9d"?>
<x:xmpmeta xmlns:x="adobe:ns:meta/" x:xmptk="Adobe XMP Core 5.6-c138 79.159824, 2016/09/14-01:09:01        ">
   <rdf:RDF xmlns:rdf="http://www.w3.org/1999/02/22-rdf-syntax-ns#">
      <rdf:Description rdf:about=""/>
   </rdf:RDF>
</x:xmpmeta>
                                                                                                    
                                                                                                    
                                                                                                    
                                                                                                    
                                                                                                    
                                                                                                    
                                                                                                    
                                                                                                    
                                                                                                    
                                                                                                    
                                                                                                    
                                                                                                    
                                                                                                    
                                                                                                    
                                                                                                    
                                                                                                    
                                                                                                    
                                                                                                    
                                                                                                    
                                                                                                    
                           
<?xpacket end="w"?></metadata>
<defs>
    <style>
      .cls-1 {
        fill: #f2b105;
        fill-rule: evenodd;
      }
    </style>
  </defs>
  <path id="icon-sun" class="cls-1" d="M477,268h-8a1,1,0,1,1,0-2h8A1,1,0,1,1,477,268Zm-4.886-6.965-3.629.973a1,1,0,0,1-.518-1.932l3.63-.972A1,1,0,1,1,472.114,261.034Zm-2.433-6.555-3.254,1.878a1,1,0,1,1-1-1.732l3.254-1.878A1,1,0,0,1,469.681,254.479Zm-6.711-3.036a1,1,0,0,1-1.414-1.414l5.657-5.657a1,1,0,0,1,1.414,1.414Zm-4.608-3.857a1,1,0,1,1-1.732-1l1.879-3.253a1,1,0,0,1,1.732,1Zm-5.449-2.534a1,1,0,0,1-1.932-.518l0.972-3.629a1,1,0,0,1,1.932.517ZM446,245a1,1,0,0,1-1-1v-8a1,1,0,0,1,2,0v8A1,1,0,0,1,446,245Zm-5.684.743a1,1,0,0,1-1.225-.707l-0.973-3.629a1,1,0,0,1,1.932-.518l0.973,3.63A1,1,0,0,1,440.316,245.743Zm-5.308,2.2a1,1,0,0,1-1.366-.366l-1.879-3.254a1,1,0,1,1,1.732-1l1.879,3.254A1,1,0,0,1,435.008,247.939Zm-5.979,3.5-5.657-5.657a1,1,0,0,1,1.415-1.414l5.657,5.657A1,1,0,0,1,429.029,251.443Zm-2.451,3.195a1,1,0,1,1-1,1.732l-3.254-1.879a1,1,0,0,1,1-1.732Zm-1.834,6.677a1,1,0,0,1-1.225.707l-3.629-.972a1,1,0,0,1,.517-1.932l3.63,0.973A1,1,0,0,1,424.744,261.315ZM424,267a1,1,0,0,1-1,1h-8a1,1,0,1,1,0-2h8A1,1,0,0,1,424,267Zm-4.1,5.953,3.63-.972a1,1,0,0,1,.517,1.931l-3.629.973A1,1,0,0,1,419.905,272.953Zm2.43,6.551,3.254-1.879a1,1,0,0,1,1,1.733l-3.254,1.878A1,1,0,1,1,422.335,279.5Zm6.694,3.052a1,1,0,0,1,1.415,1.414l-5.657,5.657a1,1,0,0,1-1.415-1.414Zm4.6,3.867a1,1,0,1,1,1.732,1l-1.878,3.253a1,1,0,1,1-1.732-1Zm5.445,2.544a1,1,0,0,1,1.932.517l-0.972,3.63a1,1,0,1,1-1.932-.518ZM446,289a1,1,0,0,1,1,1v8a1,1,0,0,1-2,0v-8A1,1,0,0,1,446,289Zm5.7-.755a1,1,0,0,1,1.225.707l0.972,3.629a1,1,0,1,1-1.932.518L451,289.469A1,1,0,0,1,451.7,288.244Zm5.3-2.2a1,1,0,0,1,1.366.366l1.879,3.254a1,1,0,0,1-1.732,1l-1.879-3.254A1,1,0,0,1,457.008,286.044Zm5.962-3.488,5.657,5.657a1,1,0,0,1-1.414,1.414l-5.657-5.657A1,1,0,0,1,462.97,282.556ZM446,287a20,20,0,1,1,20-20A20,20,0,0,1,446,287Zm0-38a18,18,0,1,0,18,18A18,18,0,0,0,446,249Zm19.415,30.37a1,1,0,1,1,1-1.732l3.254,1.879a1,1,0,0,1-1,1.732Zm1.83-6.667a1,1,0,0,1,1.224-.707l3.629,0.973a1,1,0,1,1-.517,1.932l-3.629-.973A1,1,0,0,1,467.245,272.7Z" transform="translate(-414 -235)"/>
</svg>
