<svg xmlns="http://www.w3.org/2000/svg" width="24" height="24" viewBox="0 0 24 24">
  <metadata><?xpacket begin="﻿" id="W5M0MpCehiHzreSzNTczkc9d"?>
<x:xmpmeta xmlns:x="adobe:ns:meta/" x:xmptk="Adobe XMP Core 5.6-c138 79.159824, 2016/09/14-01:09:01        ">
   <rdf:RDF xmlns:rdf="http://www.w3.org/1999/02/22-rdf-syntax-ns#">
      <rdf:Description rdf:about=""/>
   </rdf:RDF>
</x:xmpmeta>
                                                                                                    
                                                                                                    
                                                                                                    
                                                                                                    
                                                                                                    
                                                                                                    
                                                                                                    
                                                                                                    
                                                                                                    
                                                                                                    
                                                                                                    
                                                                                                    
                                                                                                    
                                                                                                    
                                                                                                    
                                                                                                    
                                                                                                    
                                                                                                    
                                                                                                    
                                                                                                    
                           
<?xpacket end="w"?></metadata>
<defs>
    <style>
      .cls-1 {
        fill: #1bbee8;
        fill-rule: evenodd;
      }
    </style>
  </defs>
  <path id="icon-arrow2-left" class="cls-1" d="M271.036,383.946H251.218l6.43,6.44a0.936,0.936,0,0,1-.014,1.34,0.975,0.975,0,0,1-1.362-.013l-7.97-7.983a0.823,0.823,0,0,1-.1-0.154,0.955,0.955,0,0,1-.1-0.15,1.287,1.287,0,0,1,0-.712,1,1,0,0,1,.1-0.149,0.98,0.98,0,0,1,.1-0.157l7.986-8.119a0.976,0.976,0,0,1,1.363-.022,0.935,0.935,0,0,1,.023,1.339l-6.339,6.445h19.707A0.948,0.948,0,1,1,271.036,383.946Z" transform="translate(-248.016 -371)"/>
</svg>
