<?xml version="1.0" encoding="utf-8"?><svg xmlns="http://www.w3.org/2000/svg" xmlns:xlink="http://www.w3.org/1999/xlink"><symbol viewBox="0 0 64 64" id="icon-alert"><defs><style>.aacls-1{fill:#ed107a;fill-rule:evenodd}</style></defs><path id="aaicon-alert" class="aacls-1" d="M558.5 257.189l-11.319 6.429a1.014 1.014 0 0 1-1.373-.362.98.98 0 0 1 .368-1.351l11.319-6.429a1.013 1.013 0 0 1 1.373.362.98.98 0 0 1-.368 1.351zm-9.4 32.854v2.967a1 1 0 0 1-1 .989h-34.187a1 1 0 0 1-1-.989v-2.967a3.988 3.988 0 0 1 4.015-3.951h.007v-14.428a14.077 14.077 0 0 1 28.151 0v14.428h.006a3.988 3.988 0 0 1 4.008 3.951zm-6.032-18.379a12.067 12.067 0 0 0-24.13 0v14.428h24.13v-14.428zm4.021 18.379a1.991 1.991 0 0 0-2-1.973h-28.166a1.991 1.991 0 0 0-2 1.973v1.978h32.172v-1.978zm-21.67-26.605a1.015 1.015 0 0 1 1.394.271.98.98 0 0 1-.276 1.373 7.873 7.873 0 0 0-3.577 6.582 1.006 1.006 0 0 1-2.011 0 9.839 9.839 0 0 1 4.472-8.226zm15.5-6.7a1.014 1.014 0 0 1-1.373.362.98.98 0 0 1-.368-1.351l3.318-6.056a1.014 1.014 0 0 1 1.373-.362.98.98 0 0 1 .368 1.351zm-10.24-2.106c-.534 0-.966-.727-.966-1.625v-11.374c0-.9.432-1.625.966-1.625s.965.728.965 1.625v11.375c.005.898-.427 1.625-.96 1.625zm-8.225 2.468a1.015 1.015 0 0 1-1.373-.361l-3.318-6.057a.98.98 0 0 1 .368-1.351 1.014 1.014 0 0 1 1.373.362l3.318 6.057a.979.979 0 0 1-.363 1.35zm-7.127 6.65a1.012 1.012 0 0 1-.5-.133l-11.319-6.429a.98.98 0 0 1-.368-1.351 1.014 1.014 0 0 1 1.373-.362l11.319 6.429a.98.98 0 0 1 .368 1.351 1.006 1.006 0 0 1-.868.496zm-9.462 6.924h7.038a.989.989 0 1 1 0 1.978h-7.033a.989.989 0 1 1 0-1.977zm42.227.989a1 1 0 0 1 1-.989h7.038a.989.989 0 1 1 0 1.978h-7.03a1 1 0 0 1-1-.988z" transform="translate(-499.015 -235)"/></symbol><symbol viewBox="0 0 24 24" id="icon-arrow1-left"><defs><style>.abcls-1{fill:#005d97;fill-rule:evenodd}</style></defs><path id="abicon-arrow1-left" class="abcls-1" d="M352.709 372.685l-6.32 6.315 6.32 6.314a.992.992 0 0 1-1.4 1.4l-7.023-7.016a.991.991 0 0 1 0-1.4l7.023-7.016a.992.992 0 0 1 1.4 1.403z" transform="translate(-336.5 -367)"/></symbol><symbol viewBox="0 0 24 24" id="icon-arrow1-right"><defs><style>.accls-1{fill:#005d97;fill-rule:evenodd}</style></defs><path id="acicon-arrow1-right" class="accls-1" d="M398.718 379.7l-7.023 7.016a.992.992 0 0 1-1.4-1.4l6.32-6.314-6.32-6.315a.992.992 0 0 1 1.4-1.4l7.023 7.016a.991.991 0 0 1 0 1.397z" transform="translate(-382.5 -367)"/></symbol><symbol viewBox="0 0 24 24" id="icon-arrow2-left"><defs><style>.adcls-1{fill:#1bbee8;fill-rule:evenodd}</style></defs><path id="adicon-arrow2-left" class="adcls-1" d="M271.036 383.946h-19.818l6.43 6.44a.936.936 0 0 1-.014 1.34.975.975 0 0 1-1.362-.013l-7.97-7.983a.823.823 0 0 1-.1-.154.955.955 0 0 1-.1-.15 1.287 1.287 0 0 1 0-.712 1 1 0 0 1 .1-.149.98.98 0 0 1 .1-.157l7.986-8.119a.976.976 0 0 1 1.363-.022.935.935 0 0 1 .023 1.339l-6.339 6.445h19.707a.948.948 0 1 1-.006 1.895z" transform="translate(-248.016 -371)"/></symbol><symbol viewBox="0 0 24 24" id="icon-arrow2-right"><defs><style>.aecls-1{fill:#1bbee8;fill-rule:evenodd}</style></defs><path id="aeicon-arrow2-right" class="aecls-1" d="M315.972 382.9a1.268 1.268 0 0 1-.041.527.955.955 0 0 1-.1.15.823.823 0 0 1-.1.154l-7.98 7.983a.978.978 0 0 1-1.365.013.936.936 0 0 1-.013-1.34l6.438-6.44h-19.846a.948.948 0 1 1 0-1.9H312.7l-6.348-6.445a.934.934 0 0 1 .024-1.339.978.978 0 0 1 1.365.022l8 8.119a.922.922 0 0 1 .1.157 1 1 0 0 1 .1.149.908.908 0 0 1 .031.19z" transform="translate(-292 -371)"/></symbol><symbol viewBox="0 0 64 64" id="icon-clown"><defs><style>.afcls-1{fill:#89af0f;fill-rule:evenodd}</style></defs><path id="aficon-clown" class="afcls-1" d="M326.96 255.239c-.728 1.121.421 2.493 1.5 3.563a35.483 35.483 0 0 0 10.077 6.565 7.188 7.188 0 0 0 2.438.606 1.576 1.576 0 0 0 1.424-.673 1.387 1.387 0 0 0 .219-.695l3.962-16.144a4.313 4.313 0 0 0 1.192-7.766 4.308 4.308 0 0 0-6.652 3.516l-13.618 10.545a1.811 1.811 0 0 0-.542.483zm14.565 5.515a1.973 1.973 0 1 1 .893-3.639zm1.957-17.713a2.322 2.322 0 0 1 3.212-.681 2.326 2.326 0 0 1-.785 4.223c-.07.015-.251.038-.271.041a2.325 2.325 0 0 1-2.156-3.583zm-4.907 5.654a1.973 1.973 0 0 1-2.726 2.733 2.008 2.008 0 0 1-.384-.326zm-4.681 3.625a3.984 3.984 0 0 0 .873.772 3.949 3.949 0 0 0 5.47-1.16 3.961 3.961 0 0 0-.091-4.455l1.479-1.145a4.324 4.324 0 0 0 2.9 2.193l-1.623 6.611a3.959 3.959 0 1 0-1.864 7.6l-.3 1.238a28.484 28.484 0 0 1-11.886-7.744zm-7.232 20.732a.992.992 0 0 1 .991-.993 1.969 1.969 0 0 1 1.965 1.969 2.162 2.162 0 0 1-2.956-.976zm11.7 9.228c-2.438 4.36-6.443 6.962-10.713 6.962s-8.275-2.6-10.713-6.962a.992.992 0 1 1 1.73-.97c2.083 3.723 5.441 5.947 8.983 5.947s6.9-2.224 8.983-5.947a.992.992 0 1 1 1.734.97zm10.8-18.07a5.723 5.723 0 0 0-.762-.21 5.66 5.66 0 0 0 .318-.732 5.8 5.8 0 0 0-1.178-5.846 6.129 6.129 0 0 0-.25-.257.992.992 0 0 0-1.381 1.425c.055.054.111.111.166.171a3.816 3.816 0 0 1-.3 5.433.993.993 0 0 0 .82 1.727 3.8 3.8 0 0 1 1.912.165 3.818 3.818 0 0 1-1.077 7.395.993.993 0 0 0-.786 1.524 3.811 3.811 0 0 1-3.487 5.844 6.129 6.129 0 0 0-.136-.605 5.706 5.706 0 0 0-2.716-3.453 5.409 5.409 0 0 0-.633-.306 3.858 3.858 0 0 1 .8-1.822.993.993 0 0 0-.449-1.56 3.867 3.867 0 0 1-2.245-1.983 3.768 3.768 0 0 1-.147-2.909.992.992 0 1 0-1.869-.664 5.743 5.743 0 0 0 .229 4.434 5.8 5.8 0 0 0 2.27 2.482 5.859 5.859 0 0 0-.524 1.6 5.745 5.745 0 0 0-5.234 2.93 7.819 7.819 0 0 1-2.45 2.755 4.163 4.163 0 0 1-4.79 0 7.83 7.83 0 0 1-2.451-2.755 5.735 5.735 0 0 0-5.012-2.934 4.123 4.123 0 0 0-.533-1.05 4.944 4.944 0 0 0 .336-7.809 6.364 6.364 0 0 0 1.716-1.99 8.529 8.529 0 0 0 .984-2.959 5.061 5.061 0 0 0 1.932.727 5.5 5.5 0 0 0 5.459-2.331.992.992 0 1 0-1.665-1.078 3.546 3.546 0 0 1-3.479 1.449 2.933 2.933 0 0 1-2.415-2.1q-.034-.13-.075-.258a.991.991 0 0 0-1.9.546c.022.088.047.174.074.259a6.756 6.756 0 0 1-.636 4.762 3.879 3.879 0 0 1-2.4 1.956.993.993 0 0 0-.03 1.921 3.005 3.005 0 0 1 1.839 1.429 2.924 2.924 0 0 1 .256 2.25 2.961 2.961 0 0 1-1.916 2 .993.993 0 0 0-.318 1.709 2.9 2.9 0 0 1 .787.927 5.741 5.741 0 0 0-3.6 4.171 2.965 2.965 0 0 1-1.155-4.911.992.992 0 0 0-.873-1.682 3.417 3.417 0 0 1-3.519-1.138 3.006 3.006 0 0 1-.447-3.028 3.117 3.117 0 0 1 2.852-1.645.992.992 0 0 0 .7-1.622c-2.2-2.678-2.822-5.482-1.741-7.9a6.85 6.85 0 0 1 5.909-3.9.936.936 0 0 0 .14-.015 1 1 0 0 0 .652-.433 4.709 4.709 0 0 1 2.737-2.03 2.6 2.6 0 0 1 2.09.75.992.992 0 0 0 1.625-.625 4.082 4.082 0 0 1 3.395-3.74 4.154 4.154 0 0 1 4.432 1.9.992.992 0 1 0 1.744-.944 6.15 6.15 0 0 0-6.533-2.908 6 6 0 0 0-4.653 3.971 4.127 4.127 0 0 0-2.379-.368 6.4 6.4 0 0 0-3.815 2.493 8.871 8.871 0 0 0-7.153 5.041c-.733 1.637-1.472 4.811 1.056 8.668a4.636 4.636 0 0 0-2.868 2.5 5.014 5.014 0 0 0 .7 5.063 5.108 5.108 0 0 0 3.424 1.928c-.051.133-.1.269-.135.406a4.947 4.947 0 0 0 3.39 6.117c.118.034.237.063.357.088a5.713 5.713 0 0 0 .672 1.984 19.322 19.322 0 0 0 6.174 6.753 15.566 15.566 0 0 0 17.353 0 19.315 19.315 0 0 0 6.153-6.763 5.755 5.755 0 0 0 .641-1.769 5.8 5.8 0 0 0 5.788-7.606 5.823 5.823 0 0 0 .241-11.015zm-8.4 19.422a17.334 17.334 0 0 1-5.53 6.063 13.583 13.583 0 0 1-15.18 0 17.314 17.314 0 0 1-5.53-6.062 3.764 3.764 0 0 1 1.438-5.114 3.751 3.751 0 0 1 5.107 1.44 9.809 9.809 0 0 0 3.094 3.446 6.142 6.142 0 0 0 6.963 0 9.809 9.809 0 0 0 3.094-3.446 3.752 3.752 0 0 1 6.555 3.673zM332.6 267.6h-.176a.993.993 0 0 1 0-1.986h.176a.993.993 0 0 1 0 1.986zm-4.946 11.42a4.994 4.994 0 1 0-4.987-4.994 5 5 0 0 0 4.986 4.996zm0-8a3.008 3.008 0 1 1-3 3.008 3.009 3.009 0 0 1 2.999-3.008zm-4.77-3.418h-.176a.993.993 0 0 1 0-1.986h.176a.993.993 0 0 1-.001 1.984z" transform="translate(-296.5 -235)"/></symbol><symbol viewBox="0 0 24 24" id="icon-eye"><defs><style>.agcls-1{fill:#737373;fill-rule:evenodd}</style></defs><path id="agicon-eye" class="agcls-1" d="M180.887 446.822a12.582 12.582 0 0 1-2.217 2.081 11.639 11.639 0 0 1-2.512 1.433 8.684 8.684 0 0 1-3.266.664c-2.737 0-5.349-1.4-7.763-4.157a.518.518 0 0 1-.016-.666 12.667 12.667 0 0 1 2.217-2.081 11.615 11.615 0 0 1 2.512-1.433 8.679 8.679 0 0 1 3.266-.663c2.737 0 5.346 1.4 7.763 4.156a.519.519 0 0 1 .016.666zm-7.783-3.729a8.677 8.677 0 0 0-5.016 1.839 12.582 12.582 0 0 0-1.744 1.563c2.09 2.266 4.291 3.414 6.548 3.414a8.674 8.674 0 0 0 5.017-1.839 12.322 12.322 0 0 0 1.744-1.563c-2.091-2.266-4.292-3.414-6.553-3.414zm-.104 5.965a2.564 2.564 0 1 1 0-5.114.547.547 0 1 1 0 1.091 1.47 1.47 0 1 0 1.58 1.466.59.59 0 0 1 1.176 0 2.664 2.664 0 0 1-2.756 2.557z" transform="translate(-161.016 -434.5)"/></symbol><symbol viewBox="0 0 30 30" id="icon-facebook"><defs><style>.ahcls-1{fill:#3b5998;fill-rule:evenodd}</style></defs><path id="ahicon-facebook" class="ahcls-1" d="M234 921h-22a4 4 0 0 1-4-4v-22a4 4 0 0 1 4-4h22a4 4 0 0 1 4 4v22a4 4 0 0 1-4 4zm-8.87-20.708h2.133V897h-3.631a2.984 2.984 0 0 0-3.04 3.094c0 .667 0 1.882-.008 3.335H218.5v2.652h2.08l-.026 8.917h3.708v-8.917h2.449l.79-2.652h-3.239v-1.606s-.181-1.531.868-1.531z" transform="translate(-208 -891)"/></symbol><symbol viewBox="0 0 30 30" id="icon-facebook-white"><defs><style>.aicls-1{fill:#f8f7f7;fill-rule:evenodd}</style></defs><path id="aiicon-facebook-white" class="aicls-1" d="M329 905.856h-3.958v-1.964s-.221-1.867 1.061-1.867h2.607V898h-4.438a3.646 3.646 0 0 0-3.715 3.781c0 .816 0 2.3-.009 4.077H318v3.242h2.542c-.014 5.155-.032 10.9-.032 10.9h4.533v-10.9h2.992z" transform="translate(-308.5 -894)"/></symbol><symbol viewBox="0 0 64 64" id="icon-heart"><defs><style>.ajcls-1{fill:#ed107a;fill-rule:evenodd}</style></defs><path id="ajicon-heart" class="ajcls-1" d="M762 286.988c-44.888-24.963-12.424-56 0-35.1 12.428-20.899 44.9 10.137 0 35.1zM762 255c-11.773-22.788-40.969 7.4-.012 29.989C802.95 262.4 773.4 232.025 762 255z" transform="translate(-730.015 -234)"/></symbol><symbol viewBox="0 0 30 30" id="icon-instagram-white"><defs><style>.akcls-1{fill:#fff;fill-rule:evenodd}</style></defs><path id="akicon-instagram-white" class="akcls-1" d="M370.922 916.36a9.509 9.509 0 0 1-.605 3.155 6.641 6.641 0 0 1-3.8 3.8 9.509 9.509 0 0 1-3.155.605c-1.387.063-1.829.078-5.36.078s-3.973-.015-5.36-.078a9.521 9.521 0 0 1-3.156-.605 6.648 6.648 0 0 1-3.8-3.8 9.538 9.538 0 0 1-.6-3.155c-.063-1.387-.078-1.829-.078-5.36s.015-3.973.078-5.36a9.55 9.55 0 0 1 .6-3.156 6.656 6.656 0 0 1 3.8-3.8 9.55 9.55 0 0 1 3.156-.6c1.387-.063 1.829-.078 5.36-.078s3.973.015 5.36.078a9.538 9.538 0 0 1 3.155.6 6.648 6.648 0 0 1 3.8 3.8 9.521 9.521 0 0 1 .605 3.156c.063 1.387.078 1.829.078 5.36s-.015 3.973-.078 5.36zm-2.34-10.613a7.193 7.193 0 0 0-.448-2.414 4.3 4.3 0 0 0-2.467-2.467 7.193 7.193 0 0 0-2.414-.448c-1.371-.062-1.782-.076-5.253-.076s-3.882.014-5.253.076a7.193 7.193 0 0 0-2.414.448 4.3 4.3 0 0 0-2.467 2.467 7.193 7.193 0 0 0-.448 2.414c-.062 1.371-.076 1.782-.076 5.253s.014 3.882.076 5.253a7.193 7.193 0 0 0 .448 2.414 4.3 4.3 0 0 0 2.467 2.467 7.193 7.193 0 0 0 2.414.448c1.37.062 1.782.076 5.253.076s3.882-.014 5.253-.076a7.193 7.193 0 0 0 2.414-.448 4.3 4.3 0 0 0 2.467-2.467 7.193 7.193 0 0 0 .448-2.414c.062-1.371.076-1.782.076-5.253s-.014-3.882-.076-5.253zm-3.643-.126a1.56 1.56 0 1 1 1.56-1.56 1.561 1.561 0 0 1-1.56 1.56zM358 917.676a6.676 6.676 0 1 1 6.676-6.676 6.676 6.676 0 0 1-6.676 6.676zm0-11.009a4.333 4.333 0 1 0 4.333 4.333 4.333 4.333 0 0 0-4.333-4.333z" transform="translate(-343 -896)"/></symbol><symbol viewBox="0 0 64 64" id="icon-kid"><defs><style>.alcls-1{fill:#005d97;fill-rule:evenodd}</style></defs><path id="alicon-kid" class="alcls-1" d="M709.294 274.843a18.107 18.107 0 0 1-5.164 9.791A18.576 18.576 0 0 1 691 290a18.589 18.589 0 0 1-18.264-15.153 5.322 5.322 0 0 1-.3-10.536v-9.577a3.391 3.391 0 0 0-.634.476 1.685 1.685 0 0 1-2.082.211 1.634 1.634 0 0 1-.7-1.946l.474-1.386a7.263 7.263 0 0 1 1.116-2.074c.54-4.995 4.039-8.508 10.143-10.17a24.6 24.6 0 0 1 14.314.468l6.12 2.049a6.351 6.351 0 0 1 5.569.684 6.176 6.176 0 0 1 2.815 5.176v16.089a5.321 5.321 0 0 1-.277 10.532zm-39.344-5.287a3.422 3.422 0 0 0 2.53 3.284q-.048-.666-.048-1.342v-5.213a3.422 3.422 0 0 0-2.482 3.271zm30.29-25.479l-5.8-1.943a22.631 22.631 0 0 0-13.17-.434c-4.314 1.174-7.056 3.273-8.189 6.253.168-.087.339-.17.515-.244a7.513 7.513 0 0 1 6.045.093 5.545 5.545 0 0 0 6.394-1.314l.242-.269a.985.985 0 0 1 1.376-.084.953.953 0 0 1 .084 1.358l-.242.269a7.522 7.522 0 0 1-8.677 1.784 5.533 5.533 0 0 0-4.454-.069 5.424 5.424 0 0 0-3.024 3.228l-.189.553a5.341 5.341 0 0 1 5.891-.054 17.367 17.367 0 0 0 23.276-4.157zm.081 10.565v-2.609a19.363 19.363 0 0 1-24.347 2.782 3.407 3.407 0 0 0-1.593-.534V271.5A16.626 16.626 0 0 0 691 288.076a16.622 16.622 0 0 0 11.749-4.8 16.181 16.181 0 0 0 4.868-11.6v-8.933a8.212 8.212 0 0 1-7.296-8.101zm7.3-6.42a4.211 4.211 0 0 0-1.943-3.574 4.32 4.32 0 0 0-3.486-.579l.08 10.574a6.275 6.275 0 0 0 5.349 6.164v-12.585zm1.949 18.063v5.394c0 .388-.013.774-.037 1.158a3.4 3.4 0 0 0 .035-6.552zm-5.837 2.749a.984.984 0 0 1-1.379 0 1.8 1.8 0 0 0-2.519 0 .984.984 0 0 1-1.379 0 .952.952 0 0 1 0-1.36 3.772 3.772 0 0 1 5.277 0 .952.952 0 0 1-.002 1.36zm-1.265 8.128a.952.952 0 0 1 0 1.36 16.391 16.391 0 0 1-22.932 0 .954.954 0 0 1 0-1.36.984.984 0 0 1 1.379 0 14.418 14.418 0 0 0 20.174 0 .984.984 0 0 1 1.377 0zm-19.609-7.846a.98.98 0 0 1-.69-.282 1.8 1.8 0 0 0-2.519 0 .984.984 0 0 1-1.379 0 .954.954 0 0 1 0-1.36 3.768 3.768 0 0 1 5.277 0 .952.952 0 0 1 0 1.36.979.979 0 0 1-.691.282z" transform="translate(-659 -232.5)"/></symbol><symbol viewBox="0 0 50 30" id="icon-mastercard"><defs><style>.amcls-1{fill:#fff;fill-rule:evenodd}</style></defs><path id="amicon-mastercard" class="amcls-1" d="M739 813h-46a2 2 0 0 1-2-2v-26a2 2 0 0 1 2-2h46a2 2 0 0 1 2 2v26a2 2 0 0 1-2 2zm-.009-28.007h-45.984v26.016h45.984v-26.016zM712 792a5.965 5.965 0 0 1 1.076.1l.07.01a6.038 6.038 0 0 1 .994.288l.06.022a5.9 5.9 0 0 1 .93.466l.024.015a5.944 5.944 0 0 1 .846.634 6 6 0 1 1 0 8.926 5.944 5.944 0 0 1-.846.634l-.024.015a6.019 6.019 0 0 1-.929.466l-.061.022a6.038 6.038 0 0 1-.994.288l-.07.01A6 6 0 1 1 712 792zm4 6zm4 4a4 4 0 1 0-2.771-6.876 5.75 5.75 0 0 1 0 5.752A3.98 3.98 0 0 0 720 802zm-5.941-3.2c0-.014 0-.028-.007-.042l.007.042zm0-1.594c0 .014 0 .028-.007.042l.007-.048z" transform="translate(-691 -783)"/></symbol><symbol viewBox="0 0 30 30" id="icon-odnoklassniki"><defs><style>.ancls-1{fill:#f58220;fill-rule:evenodd}</style></defs><path id="anicon-odnoklassniki" class="ancls-1" d="M194 921h-22a4 4 0 0 1-4-4v-22a4 4 0 0 1 4-4h22a4 4 0 0 1 4 4v22a4 4 0 0 1-4 4zm-11-25.5a5.419 5.419 0 1 0 5.347 5.42A5.389 5.389 0 0 0 183 895.5zm5.759 11.766a1.552 1.552 0 0 0-2.16-.5 6.711 6.711 0 0 1-7.2 0 1.551 1.551 0 0 0-2.159.5 1.6 1.6 0 0 0 .49 2.19 9.954 9.954 0 0 0 3.105 1.3l-2.989 3.03a1.6 1.6 0 0 0 0 2.245 1.553 1.553 0 0 0 2.216 0l2.938-2.974 2.939 2.977a1.548 1.548 0 0 0 2.214 0 1.6 1.6 0 0 0 0-2.245l-2.989-3.03a9.92 9.92 0 0 0 3.1-1.3 1.6 1.6 0 0 0 .495-2.193zm-5.759-4.1a2.244 2.244 0 1 1 2.214-2.243 2.232 2.232 0 0 1-2.214 2.24z" transform="translate(-168 -891)"/></symbol><symbol viewBox="0 0 64 64" id="icon-pillow"><defs><style>.aocls-1{fill:#1bbee8;fill-rule:evenodd}</style></defs><path id="aoicon-pillow" class="aocls-1" d="M643.52 257.978A33.081 33.081 0 0 1 645 267.2a35.824 35.824 0 0 1-1.563 9.81c1.082 3.28 2.643 8.88 1.006 9.712-1.931.983-8.219.085-10.341-.255A66.115 66.115 0 0 1 614.385 290a60.509 60.509 0 0 1-19.338-3.7c-2.24.337-8.241 1.122-10.112.185-1.77-.887.231-7.337 1.274-10.332a31.526 31.526 0 0 1-1.209-8.198 35.336 35.336 0 0 1 1.289-8.912c-1.017-2.939-3.171-9.831-1.353-10.762 1.977-1.012 8.546-.029 10.45.285A59.392 59.392 0 0 1 614.231 245a66.374 66.374 0 0 1 19.477 3.429c1.382-.247 8.715-1.489 10.83-.388 1.645.859.062 6.598-1.018 9.937zm-1.185-8.208c-1.976-1-7.208.386-8.5.611-4.776-1.493-13.127-3.381-19.805-3.381-6.6 0-13.985 1.966-18.465 3.491-1.779-.286-7.049-1.423-8.9-.5-1.7.849.38 6.334 1.33 9.011a37.894 37.894 0 0 0-1.27 8.915A32.891 32.891 0 0 0 588 276c-.974 2.729-2.984 7.987-1.331 8.8 1.747.853 6.239-.108 8.331-.414 4.518 1.554 12.366 3.618 19.173 3.618s15.065-2 19.827-3.515c1.982.311 6.443 1.42 8.247.525 1.528-.758-.237-5.02-1.247-8.009a38.118 38.118 0 0 0 1.766-9.778A35.474 35.474 0 0 0 641 258c1.012-3.043 2.871-7.451 1.335-8.23zm-3.648 27.235c1.082 3.28-1.427 2.984-2.437 0a38.118 38.118 0 0 0 1.766-9.778A35.474 35.474 0 0 0 636.25 258c1.012-3.043 3.6-3.361 2.52-.022a33.081 33.081 0 0 1 1.48 9.217 35.824 35.824 0 0 1-1.563 9.81z" transform="translate(-582.735 -235.5)"/></symbol><symbol viewBox="0 0 42 30" id="icon-pocket"><defs><style>.apcls-1{fill:#fff;fill-rule:evenodd}</style></defs><path id="apicon-pocket" class="apcls-1" d="M783 805v6a2 2 0 0 1-2 2h-36a2 2 0 0 1-2-2v-26a2 2 0 0 1 2-2h36a2 2 0 0 1 2 2v10a2 2 0 0 1 2 2v6a2 2 0 0 1-2 2zm-2.009-16H747v-2h33.991v-2.007h-35.984v26.016h35.984V805H771a2 2 0 0 1-2-2v-6a2 2 0 0 1 2-2h9.991v-6zm2.009 9a1 1 0 0 0-1-1h-10a1 1 0 0 0-1 1v4a1 1 0 0 0 1 1h10a1 1 0 0 0 1-1v-4zm-9 3a1 1 0 1 1 1-1 1 1 0 0 1-1 1z" transform="translate(-743 -783)"/></symbol><symbol viewBox="0 0 24 24" id="icon-print"><defs><style>.aqcls-1{fill:#333;fill-rule:evenodd}</style></defs><path id="aqicon-print" class="aqcls-1" d="M153.5 392.014H150v2.486a1.563 1.563 0 0 1-1.615 1.5h-10.771a1.563 1.563 0 0 1-1.614-1.5v-2.484h-3.37a1.62 1.62 0 0 1-1.63-1.565v-10.42a4.126 4.126 0 0 1 3.986-4.021v-2.51a1.614 1.614 0 0 1 1.67-1.5h12.822a1.487 1.487 0 0 1 1.536 1.5v2.5a4.023 4.023 0 0 1 3.986 4.031v10.418a1.518 1.518 0 0 1-1.5 1.565zM138 394h10v-7.006h-10V394zm-1-20v1.986h12V374h-12zm16 6a2 2 0 0 0-2-2h-1c-.019 0-.035.01-.054.01s-.032-.01-.046-.01h-13.8c-.018 0-.031.01-.049.01s-.031-.01-.051-.01h-1a2 2 0 0 0-2 2v10h3v-3.508a1.563 1.563 0 0 1 1.615-1.5h10.772a1.563 1.563 0 0 1 1.615 1.5V390h3v-10z" transform="translate(-131 -372)"/></symbol><symbol viewBox="0 0 30 30" id="icon-sale"><defs><style>.arcls-1{fill:#fff;fill-rule:evenodd}</style></defs><path id="aricon-sale" class="arcls-1" d="M466.7 911.783l-2.965 3.21.6 4.424a1.122 1.122 0 0 1-.879 1.267l-4.2.772-2 3.946a1.07 1.07 0 0 1-.951.6 1.041 1.041 0 0 1-.471-.114L452 923.924l-3.831 1.962a1.053 1.053 0 0 1-1.422-.484l-2-3.946-4.2-.772a1.122 1.122 0 0 1-.879-1.267l.6-4.424-2.965-3.21a1.165 1.165 0 0 1 0-1.566l2.965-3.211-.6-4.423a1.12 1.12 0 0 1 .878-1.267l4.2-.771 2-3.947a1.052 1.052 0 0 1 1.422-.484l3.832 1.962 3.831-1.962a1.052 1.052 0 0 1 1.422.484l2 3.946 4.2.772a1.121 1.121 0 0 1 .879 1.267l-.6 4.423 2.965 3.211a1.163 1.163 0 0 1 .003 1.566zm-4.875-3.606a1.158 1.158 0 0 1-.292-.941l.525-3.889-3.693-.679a1.081 1.081 0 0 1-.764-.581l-1.757-3.47-3.369 1.725a1.028 1.028 0 0 1-.944 0l-3.369-1.725-1.757 3.47a1.077 1.077 0 0 1-.764.581l-3.693.679.525 3.889a1.158 1.158 0 0 1-.292.941L439.57 911l2.607 2.823a1.158 1.158 0 0 1 .292.941l-.525 3.89 3.693.678a1.079 1.079 0 0 1 .764.582l1.757 3.47 3.369-1.725a1.026 1.026 0 0 1 .944 0l3.369 1.725 1.757-3.47a1.083 1.083 0 0 1 .764-.582l3.693-.678-.525-3.89a1.16 1.16 0 0 1 .292-.941l2.607-2.823zm-6.407 9.128a2.73 2.73 0 1 1 2.6-2.728 2.67 2.67 0 0 1-2.604 2.728zm0-3.653a.927.927 0 1 0 .883.925.906.906 0 0 0-.887-.925zm-7.391 2.788a.833.833 0 0 1-1.217 0 .933.933 0 0 1 0-1.274l9.17-9.606a.832.832 0 0 1 1.216 0 .931.931 0 0 1 0 1.274zm.562-6.29a2.73 2.73 0 1 1 2.6-2.727 2.67 2.67 0 0 1-2.604 2.727zm0-3.653a.927.927 0 1 0 .883.926.906.906 0 0 0-.887-.923z" transform="translate(-437.015 -896)"/></symbol><symbol viewBox="0 0 24 24" id="icon-star"><defs><style>.ascls-1{fill:#eaeaea;fill-rule:evenodd}</style></defs><path id="asicon-star" class="ascls-1" d="M209.559 381.06a1.534 1.534 0 0 0 .362-1.534 1.441 1.441 0 0 0-1.157-1.019l-4.839-.734a.637.637 0 0 1-.477-.362l-2.163-4.579a1.408 1.408 0 0 0-2.571 0l-2.163 4.579a.639.639 0 0 1-.477.362l-4.839.734a1.444 1.444 0 0 0-1.158 1.019 1.536 1.536 0 0 0 .363 1.534l3.5 3.564a.679.679 0 0 1 .183.585l-.826 5.033a1.51 1.51 0 0 0 .312 1.213 1.406 1.406 0 0 0 1.767.364l4.328-2.376a.624.624 0 0 1 .589 0l4.328 2.376a1.369 1.369 0 0 0 .667.174 1.414 1.414 0 0 0 1.1-.538 1.512 1.512 0 0 0 .312-1.213l-.826-5.033a.681.681 0 0 1 .182-.585z" transform="translate(-188 -370)"/></symbol><symbol viewBox="0 0 24 24" id="icon-star-pink"><defs><style>.atcls-1{fill:#ed107a;fill-rule:evenodd}</style></defs><path id="aticon-star-pink" class="atcls-1" d="M184.559 381.06a1.534 1.534 0 0 0 .362-1.534 1.441 1.441 0 0 0-1.157-1.019l-4.839-.734a.637.637 0 0 1-.477-.362l-2.163-4.579a1.408 1.408 0 0 0-2.571 0l-2.163 4.579a.639.639 0 0 1-.477.362l-4.839.734a1.444 1.444 0 0 0-1.158 1.019 1.536 1.536 0 0 0 .363 1.534l3.5 3.564a.679.679 0 0 1 .183.585l-.826 5.033a1.51 1.51 0 0 0 .312 1.213 1.406 1.406 0 0 0 1.767.364l4.328-2.376a.624.624 0 0 1 .589 0l4.328 2.376a1.369 1.369 0 0 0 .667.174 1.414 1.414 0 0 0 1.1-.538 1.512 1.512 0 0 0 .312-1.213l-.826-5.033a.681.681 0 0 1 .182-.585z" transform="translate(-163 -370)"/></symbol><symbol viewBox="0 0 64 64" id="icon-sun"><defs><style>.aucls-1{fill:#f2b105;fill-rule:evenodd}</style></defs><path id="auicon-sun" class="aucls-1" d="M477 268h-8a1 1 0 1 1 0-2h8a1 1 0 1 1 0 2zm-4.886-6.965l-3.629.973a1 1 0 0 1-.518-1.932l3.63-.972a1 1 0 1 1 .517 1.93zm-2.433-6.555l-3.254 1.878a1 1 0 1 1-1-1.732l3.254-1.878a1 1 0 0 1 1 1.731zm-6.711-3.036a1 1 0 0 1-1.414-1.414l5.657-5.657a1 1 0 0 1 1.414 1.414zm-4.608-3.857a1 1 0 1 1-1.732-1l1.879-3.253a1 1 0 0 1 1.732 1zm-5.449-2.534a1 1 0 0 1-1.932-.518l.972-3.629a1 1 0 0 1 1.932.517zM446 245a1 1 0 0 1-1-1v-8a1 1 0 0 1 2 0v8a1 1 0 0 1-1 1zm-5.684.743a1 1 0 0 1-1.225-.707l-.973-3.629a1 1 0 0 1 1.932-.518l.973 3.63a1 1 0 0 1-.707 1.224zm-5.308 2.2a1 1 0 0 1-1.366-.366l-1.879-3.254a1 1 0 1 1 1.732-1l1.879 3.254a1 1 0 0 1-.366 1.362zm-5.979 3.5l-5.657-5.657a1 1 0 0 1 1.415-1.414l5.657 5.657a1 1 0 0 1-1.415 1.414zm-2.451 3.195a1 1 0 1 1-1 1.732l-3.254-1.879a1 1 0 0 1 1-1.732zm-1.834 6.677a1 1 0 0 1-1.225.707l-3.629-.972a1 1 0 0 1 .517-1.932l3.63.973a1 1 0 0 1 .707 1.224zM424 267a1 1 0 0 1-1 1h-8a1 1 0 1 1 0-2h8a1 1 0 0 1 1 1zm-4.1 5.953l3.63-.972a1 1 0 0 1 .517 1.931l-3.629.973a1 1 0 0 1-.513-1.932zm2.43 6.551l3.254-1.879a1 1 0 0 1 1 1.733l-3.254 1.878a1 1 0 1 1-.995-1.736zm6.694 3.052a1 1 0 0 1 1.415 1.414l-5.657 5.657a1 1 0 0 1-1.415-1.414zm4.6 3.867a1 1 0 1 1 1.732 1l-1.878 3.253a1 1 0 1 1-1.732-1zm5.445 2.544a1 1 0 0 1 1.932.517l-.972 3.63a1 1 0 1 1-1.932-.518zM446 289a1 1 0 0 1 1 1v8a1 1 0 0 1-2 0v-8a1 1 0 0 1 1-1zm5.7-.755a1 1 0 0 1 1.225.707l.972 3.629a1 1 0 1 1-1.932.518l-.965-3.63a1 1 0 0 1 .7-1.225zm5.3-2.2a1 1 0 0 1 1.366.366l1.879 3.254a1 1 0 0 1-1.732 1l-1.879-3.254a1 1 0 0 1 .374-1.367zm5.962-3.488l5.657 5.657a1 1 0 0 1-1.414 1.414l-5.657-5.657a1 1 0 0 1 1.422-1.415zM446 287a20 20 0 1 1 20-20 20 20 0 0 1-20 20zm0-38a18 18 0 1 0 18 18 18 18 0 0 0-18-18zm19.415 30.37a1 1 0 1 1 1-1.732l3.254 1.879a1 1 0 0 1-1 1.732zm1.83-6.667a1 1 0 0 1 1.224-.707l3.629.973a1 1 0 1 1-.517 1.932l-3.629-.973a1 1 0 0 1-.707-1.228z" transform="translate(-414 -235)"/></symbol><symbol viewBox="0 0 30 30" id="icon-telegram"><defs><style>.avcls-1{fill:#2aa1da;fill-rule:evenodd}</style></defs><path id="avicon-telegram" class="avcls-1" d="M114 920H92a4 4 0 0 1-4-4v-22a4 4 0 0 1 4-4h22a4 4 0 0 1 4 4v22a4 4 0 0 1-4 4zm-3.628-21.969L94.3 904.317a.47.47 0 0 0 0 .875l3.917 1.482 1.516 4.942a.459.459 0 0 0 .732.223l2.184-1.8a.644.644 0 0 1 .794-.022l3.938 2.9a.459.459 0 0 0 .723-.283l2.885-14.064a.464.464 0 0 0-.617-.539zm-9.384 9.242a1.335 1.335 0 0 0-.406.794l-.215 1.616a.2.2 0 0 1-.387.029l-.828-2.948a.787.787 0 0 1 .337-.879l7.656-4.778a.135.135 0 0 1 .161.214z" transform="translate(-88 -890)"/></symbol><symbol viewBox="0 0 30 30" id="icon-twitter"><defs><style>.awcls-1{fill:#55acee;fill-rule:evenodd}</style></defs><path id="awicon-twitter" class="awcls-1" d="M274 921h-22a4 4 0 0 1-4-4v-22a4 4 0 0 1 4-4h22a4 4 0 0 1 4 4v22a4 4 0 0 1-4 4zm-1.767-22.209a7.6 7.6 0 0 1-2.444.965 3.78 3.78 0 0 0-2.807-1.256 3.913 3.913 0 0 0-3.847 3.976 4.158 4.158 0 0 0 .1.906 10.811 10.811 0 0 1-7.928-4.155 4.072 4.072 0 0 0 1.191 5.309 3.748 3.748 0 0 1-1.742-.5v.05a3.951 3.951 0 0 0 3.084 3.9 3.689 3.689 0 0 1-1.737.067 3.871 3.871 0 0 0 3.592 2.763 7.56 7.56 0 0 1-4.776 1.7 7.723 7.723 0 0 1-.918-.055 10.632 10.632 0 0 0 5.9 1.787c7.075 0 10.944-6.06 10.944-11.316l-.012-.515a7.9 7.9 0 0 0 1.922-2.056 7.5 7.5 0 0 1-2.208.627 3.986 3.986 0 0 0 1.686-2.197z" transform="translate(-248 -891)"/></symbol><symbol viewBox="0 0 24 24" id="icon-update"><defs><style>.axcls-1{fill:#fff;fill-rule:evenodd}</style></defs><path id="axicon-update" class="axcls-1" d="M683.333 910.667l3.35-2.21a5.845 5.845 0 0 0-9.449.082l-2.254-.376a7.985 7.985 0 0 1 13.112-1.33L690 904v6.667h-6.667zm-6.016 4.876a5.845 5.845 0 0 0 9.449-.082l2.254.376a7.985 7.985 0 0 1-13.112 1.33L674 920v-6.667h6.667z" transform="translate(-670 -900)"/></symbol><symbol viewBox="0 0 50 30" id="icon-visa"><defs><style>.aycls-1{fill:#fff;fill-rule:evenodd}</style></defs><path id="ayicon-visa" class="aycls-1" d="M687 813h-46a2 2 0 0 1-2-2v-26a2 2 0 0 1 2-2h46a2 2 0 0 1 2 2v26a2 2 0 0 1-2 2zm-.009-28.007h-45.984v26.016h45.984v-26.016zm-33.9 8.012l.456 4.75c.057.566.1 1.119.148 1.689.235-.546.508-1.143.825-1.8l2.239-4.638h2.971l-5.269 10h-2.829l-1.151-8.078 2.793 1.718-4.7-3.642h4.518zm10.606 0l-1.937 10h-2.662l1.941-10h2.658zm.64 7.282a4.3 4.3 0 0 0 2.115.56 1.041 1.041 0 0 0 1.23-.814c0-.312-.185-.588-1.137-1.07-1.008-.532-2.158-1.327-2.158-2.759 0-1.973 1.683-3.351 4.094-3.351a5 5 0 0 1 2.41.511l.224.12-.85 2.23-.3-.164a3.58 3.58 0 0 0-1.593-.382c-.856 0-1.219.364-1.219.7 0 .361.47.648 1.248 1.073 1.385.712 2.061 1.611 2.061 2.743 0 2.072-1.689 3.464-4.206 3.464a5.243 5.243 0 0 1-2.933-.731l-.183-.137.9-2.17zm13.9-7.282l1.2 10h-2.763l-.2-2.444h-2.3l-1.143 2.444h-2.85l4.971-10h3.09zm-1.9 5.438l-.159-1.71-.053-.653c-.106.267-.215.521-.322.746l-.758 1.617h1.292z" transform="translate(-639 -783)"/></symbol><symbol viewBox="0 0 30 30" id="icon-vkontakte"><defs><style>.azcls-1{fill:#45668e;fill-rule:evenodd}</style></defs><path id="azicon-vkontakte" class="azcls-1" d="M154 921h-22a4 4 0 0 1-4-4v-22a4 4 0 0 1 4-4h22a4 4 0 0 1 4 4v22a4 4 0 0 1-4 4zm-.6-20.2a.66.66 0 0 0-.351-.193 1.753 1.753 0 0 0-.725-.029l-3.261.024a.408.408 0 0 0-.227 0l-.147.035-.057.03-.045.035a.5.5 0 0 0-.124.122.809.809 0 0 0-.113.2 19.247 19.247 0 0 1-1.212 2.619q-.418.721-.77 1.251a6.075 6.075 0 0 1-.588.78 4.118 4.118 0 0 1-.431.4.412.412 0 0 1-.294.129l-.193-.047a.772.772 0 0 1-.254-.285 1.3 1.3 0 0 1-.131-.454c-.022-.183-.036-.34-.039-.472s0-.318 0-.558.012-.4.012-.489c0-.295.005-.615.017-.96s.02-.619.028-.821.011-.415.011-.64a2.811 2.811 0 0 0-.039-.53 1.831 1.831 0 0 0-.119-.372.629.629 0 0 0-.232-.28 1.326 1.326 0 0 0-.379-.157 7.366 7.366 0 0 0-1.529-.151 7.238 7.238 0 0 0-2.706.28 1.537 1.537 0 0 0-.431.348c-.136.171-.155.265-.056.28a1.377 1.377 0 0 1 .962.5l.068.139a2.279 2.279 0 0 1 .159.536 5.648 5.648 0 0 1 .1.849 9.233 9.233 0 0 1 0 1.455q-.056.606-.107.943a1.926 1.926 0 0 1-.153.547 2.234 2.234 0 0 1-.136.256.205.205 0 0 1-.056.058.827.827 0 0 1-.306.058.7.7 0 0 1-.385-.163 2.71 2.71 0 0 1-.47-.448 6.042 6.042 0 0 1-.549-.8q-.306-.513-.634-1.21l-.181-.338c-.114-.218-.268-.534-.465-.949s-.37-.817-.521-1.2a.765.765 0 0 0-.271-.373l-.057-.035a.77.77 0 0 0-.181-.1 1.158 1.158 0 0 0-.26-.075l-3.1.023a.776.776 0 0 0-.645.221l-.046.07a.394.394 0 0 0-.034.186.953.953 0 0 0 .068.314q.679 1.641 1.478 3.166t1.387 2.456q.588.93 1.2 1.757t.81 1.059c.132.156.236.272.311.35l.283.279a6.781 6.781 0 0 0 .8.669 13.42 13.42 0 0 0 1.167.768 6.221 6.221 0 0 0 1.489.617 5.014 5.014 0 0 0 1.653.192h1.3a.889.889 0 0 0 .6-.256l.045-.058a.749.749 0 0 0 .085-.215 1.193 1.193 0 0 0 .04-.32 3.953 3.953 0 0 1 .073-.9 2.417 2.417 0 0 1 .193-.605 1.472 1.472 0 0 1 .243-.343.955.955 0 0 1 .193-.169.745.745 0 0 1 .09-.041.7.7 0 0 1 .64.181 3.752 3.752 0 0 1 .691.675q.323.4.776.9a5.414 5.414 0 0 0 .792.744l.227.14a2.686 2.686 0 0 0 .589.256 1.229 1.229 0 0 0 .634.058l2.9-.046a1.281 1.281 0 0 0 .668-.146.563.563 0 0 0 .283-.32.917.917 0 0 0 .006-.4 1.451 1.451 0 0 0-.08-.308 1.488 1.488 0 0 0-.073-.145 11.541 11.541 0 0 0-2.163-2.573l-.023-.023-.011-.011-.011-.012h-.01q-.725-.711-.917-.955a.914.914 0 0 1-.158-.943 8.772 8.772 0 0 1 1.019-1.524c.309-.412.555-.741.736-.99q1.959-2.676 1.7-3.422z" transform="translate(-128 -891)"/></symbol><symbol viewBox="0 0 30 30" id="icon-vkontakte-white"><defs><style>.bacls-1{fill:#f8f7f7;fill-rule:evenodd}</style></defs><path id="baicon-vkontakte-white" class="bacls-1" d="M404.871 916.645a1.641 1.641 0 0 0-.081-.159 12.646 12.646 0 0 0-2.386-2.825l-.025-.026-.013-.012-.012-.013h-.013q-.8-.78-1.012-1.048a1 1 0 0 1-.175-1.035 9.619 9.619 0 0 1 1.125-1.674q.512-.678.812-1.087 2.161-2.938 1.874-3.757l-.075-.128a.731.731 0 0 0-.387-.21 1.915 1.915 0 0 0-.8-.032l-3.6.025a.455.455 0 0 0-.25.007l-.162.038-.063.032-.05.038a.6.6 0 0 0-.137.134.91.91 0 0 0-.125.224 21.1 21.1 0 0 1-1.337 2.876q-.462.792-.849 1.374a6.679 6.679 0 0 1-.65.856 4.592 4.592 0 0 1-.475.441.456.456 0 0 1-.325.14 8.464 8.464 0 0 1-.212-.051.836.836 0 0 1-.281-.313 1.423 1.423 0 0 1-.144-.5c-.025-.2-.04-.372-.044-.517s0-.35.007-.614.012-.443.012-.537c0-.323.006-.675.019-1.054s.022-.679.031-.9.012-.456.012-.7a3.024 3.024 0 0 0-.043-.581 2.031 2.031 0 0 0-.131-.409.693.693 0 0 0-.256-.307 1.432 1.432 0 0 0-.419-.172 11.7 11.7 0 0 0-4.673.14 1.7 1.7 0 0 0-.475.384q-.225.28-.062.306a1.523 1.523 0 0 1 1.062.55l.075.153a2.544 2.544 0 0 1 .175.588 6.023 6.023 0 0 1 .112.933 10.065 10.065 0 0 1 0 1.6 19.2 19.2 0 0 1-.119 1.036 2.082 2.082 0 0 1-.168.6 2.477 2.477 0 0 1-.15.281.208.208 0 0 1-.063.064.9.9 0 0 1-.337.064.778.778 0 0 1-.425-.179 3.015 3.015 0 0 1-.518-.492 6.584 6.584 0 0 1-.606-.875q-.337-.562-.7-1.329l-.2-.371q-.187-.359-.512-1.042t-.575-1.322a.834.834 0 0 0-.3-.409l-.062-.039a.835.835 0 0 0-.2-.108 1.278 1.278 0 0 0-.287-.083l-3.424.025a.858.858 0 0 0-.712.243l-.05.077a.416.416 0 0 0-.038.2 1.036 1.036 0 0 0 .075.345q.75 1.8 1.631 3.476t1.53 2.7q.649 1.022 1.325 1.93t.893 1.163c.146.17.26.3.344.383l.312.307a7.514 7.514 0 0 0 .881.734 14.729 14.729 0 0 0 1.287.844 6.855 6.855 0 0 0 1.643.677 5.552 5.552 0 0 0 1.824.211h1.437a.98.98 0 0 0 .662-.281l.05-.064a.879.879 0 0 0 .094-.236 1.342 1.342 0 0 0 .043-.352 4.352 4.352 0 0 1 .081-.99 2.679 2.679 0 0 1 .213-.664 1.643 1.643 0 0 1 .268-.377 1.106 1.106 0 0 1 .213-.185.679.679 0 0 1 .1-.045.781.781 0 0 1 .706.2 4.148 4.148 0 0 1 .762.741q.357.441.856.991a5.971 5.971 0 0 0 .875.818l.249.153a3.032 3.032 0 0 0 .65.281 1.37 1.37 0 0 0 .7.064l3.2-.051a1.422 1.422 0 0 0 .737-.16.632.632 0 0 0 .313-.351 1.018 1.018 0 0 0 .006-.435 1.6 1.6 0 0 0-.088-.346z" transform="translate(-378 -896)"/></symbol><symbol viewBox="0 0 64 64" id="icon-wreath-left"><defs><style>.bbcls-1{fill:#feb800;fill-rule:evenodd}</style></defs><path id="bbicon-wreath-left" class="bbcls-1" d="M185.5 293.571A74.91 74.91 0 0 0 198.774 297l.489-2.94a76.808 76.808 0 0 1-9.559-2.221 43.73 43.73 0 0 1-4.2-1.453q-1.543-.6-2.988-1.269c.845-3.077 1.175-9.423-8.032-14.145a25.859 25.859 0 0 0-.314 9.077 32.94 32.94 0 0 1-4.124-3.882c2.007-2.146 5.805-7.977-1.044-16.7a25.29 25.29 0 0 0-4.154 8.573 32.426 32.426 0 0 1-2-6.379c-.082-.4-.156-.808-.225-1.219 2.544-.838 8.682-4.007 6.622-14.746a24.466 24.466 0 0 0-7 5.112 38.445 38.445 0 0 1 1.278-7.371c2.42-.853 6.463-3.475 5.586-11.437 0 0-9.95 3.684-8.227 9.846a42.028 42.028 0 0 0-.993 4.278 13.993 13.993 0 0 0-5.973-4.285s-1.779 11.59 5.241 12.717a41.357 41.357 0 0 0 .5 6.039 13.01 13.01 0 0 0-7.718-2.109c-.609 0-1.252.026-1.928.083 0 0 3.445 10.351 9.785 10.351a6.329 6.329 0 0 0 2.065-.358 33.28 33.28 0 0 0 2.282 4.564.015.015 0 0 1 0 .009 13.33 13.33 0 0 0-3.311-.4 21.639 21.639 0 0 0-7.776 1.634s6.264 9.07 13 9.07a7.619 7.619 0 0 0 5.1-2.026 43.058 43.058 0 0 0 10.149 6.425c1.815.778 2.485 1.071 4.195 1.733zm-22.6-34.109c.342-1.438 1.675-3.1 3.763-4.695a8.4 8.4 0 0 1-1.332 4.162 6.771 6.771 0 0 1-2.4 2.145 3.076 3.076 0 0 1-.031-1.612zm.838-15.693a5.941 5.941 0 0 1 2.089-2.552 5.653 5.653 0 0 1-.94 1.772 4.954 4.954 0 0 1-1.229 1.095 2.888 2.888 0 0 1 .081-.315zm-5.657 11.007a7.163 7.163 0 0 1-1.292-3.687 6.322 6.322 0 0 1 1.489 2.156 5.5 5.5 0 0 1 .39 2.039 2.3 2.3 0 0 1-.586-.508zm1.7 15.162a3.764 3.764 0 0 1-2.334-.946 11.449 11.449 0 0 1-2.394-2.776q-.156-.245-.306-.491a7.3 7.3 0 0 1 4.72 2.83 7.158 7.158 0 0 1 .741 1.35 2.851 2.851 0 0 1-.423.033zm6.264 14.521c-1.97 0-4.366-1.267-6.931-3.66-.3-.282-.588-.564-.859-.841a14.637 14.637 0 0 1 2.566-.241 8.911 8.911 0 0 1 6.7 2.695 9.518 9.518 0 0 1 1.016 1.261 4.44 4.44 0 0 1-2.488.786zm3.855-10.531a7.259 7.259 0 0 1-1.311 3.328 3.376 3.376 0 0 1-.936-1.649c-.382-1.555.089-3.828 1.33-6.405a2.23 2.23 0 0 1 .048-.1 9.059 9.059 0 0 1 .869 4.826zm9.91 13.731a3.486 3.486 0 0 1-1.532-1.108c-1.2-1.522-1.488-4.123-1.432-6.468a8.967 8.967 0 0 1 2.776 4 7.291 7.291 0 0 1 .192 3.576z" transform="translate(-142.625 -234.5)"/></symbol><symbol viewBox="0 0 64 64" id="icon-wreath-right"><defs><style>.bccls-1{fill:#feb800;fill-rule:evenodd}</style></defs><path id="bcicon-wreath-right" class="bccls-1" d="M224.68 292.571A74.231 74.231 0 0 1 211.474 296l-.487-2.94a76.128 76.128 0 0 0 9.511-2.221 43.36 43.36 0 0 0 4.182-1.453q1.536-.6 2.973-1.269c-.841-3.077-1.169-9.423 7.991-14.145a25.98 25.98 0 0 1 .313 9.077 32.872 32.872 0 0 0 4.1-3.882c-2-2.146-5.775-7.977 1.039-16.7a25.335 25.335 0 0 1 4.133 8.573 32.472 32.472 0 0 0 1.99-6.379c.082-.4.155-.808.224-1.219-2.531-.838-8.638-4.007-6.588-14.746a24.344 24.344 0 0 1 6.967 5.112 38.642 38.642 0 0 0-1.272-7.371c-2.408-.853-6.43-3.475-5.557-11.437 0 0 9.9 3.684 8.185 9.846a41.972 41.972 0 0 1 .988 4.278 13.927 13.927 0 0 1 5.943-4.285s1.77 11.59-5.215 12.717a41.359 41.359 0 0 1-.493 6.039 12.893 12.893 0 0 1 7.678-2.109c.606 0 1.246.026 1.919.083 0 0-3.428 10.351-9.735 10.351a6.268 6.268 0 0 1-2.055-.358 33.33 33.33 0 0 1-2.27 4.564.015.015 0 0 0 0 .009 13.2 13.2 0 0 1 3.294-.4 21.441 21.441 0 0 1 7.737 1.634s-6.232 9.07-12.935 9.07a7.556 7.556 0 0 1-5.072-2.026 42.834 42.834 0 0 1-10.1 6.425c-1.814.778-2.481 1.071-4.182 1.733zm22.485-34.109c-.341-1.438-1.667-3.1-3.745-4.695a8.441 8.441 0 0 0 1.326 4.162 6.746 6.746 0 0 0 2.388 2.145 3.1 3.1 0 0 0 .031-1.612zm-.835-15.693a5.924 5.924 0 0 0-2.078-2.552 5.666 5.666 0 0 0 .936 1.772 4.931 4.931 0 0 0 1.222 1.095 2.493 2.493 0 0 0-.08-.315zm5.629 11.007a7.193 7.193 0 0 0 1.285-3.687 6.323 6.323 0 0 0-1.481 2.156 5.514 5.514 0 0 0-.388 2.039 2.281 2.281 0 0 0 .584-.508zm-1.694 15.162a3.732 3.732 0 0 0 2.321-.946 11.409 11.409 0 0 0 2.383-2.776q.155-.245.3-.491a7.257 7.257 0 0 0-4.7 2.83 7.127 7.127 0 0 0-.737 1.35 2.825 2.825 0 0 0 .433.033zm-6.233 14.521c1.96 0 4.344-1.267 6.9-3.66.3-.282.584-.564.853-.841a14.484 14.484 0 0 0-2.552-.241 8.843 8.843 0 0 0-6.663 2.695 9.535 9.535 0 0 0-1.011 1.261 4.4 4.4 0 0 0 2.473.786zm-3.832-10.531a7.291 7.291 0 0 0 1.3 3.328 3.38 3.38 0 0 0 .932-1.649c.379-1.555-.089-3.828-1.324-6.405a4.241 4.241 0 0 0-.047-.1 9.1 9.1 0 0 0-.861 4.826zm-9.86 13.731a3.465 3.465 0 0 0 1.524-1.108c1.2-1.522 1.481-4.123 1.425-6.468a8.978 8.978 0 0 0-2.762 4 7.327 7.327 0 0 0-.19 3.576z" transform="translate(-203.5 -233.5)"/></symbol></svg>