<svg xmlns="http://www.w3.org/2000/svg" viewBox="0 0 417.6 101.4"><style>.st0{fill-rule:evenodd;clip-rule:evenodd;fill:#9432A1;} .st1{fill-rule:evenodd;clip-rule:evenodd;fill:#51CAE8;} .st2{fill:#E8096A;} .st3{fill-rule:evenodd;clip-rule:evenodd;fill:#8FD100;} .st4{fill:#9432A1;} .st5{fill:#FEFEFE;} .st6{fill:#8FD100;} .st7{fill-rule:evenodd;clip-rule:evenodd;fill:#E8096A;} .st8{fill-rule:evenodd;clip-rule:evenodd;fill:#E61A73;} .st9{fill-rule:evenodd;clip-rule:evenodd;fill:#5B5B5B;} .st10{display:none;} .st11{display:inline;fill-rule:evenodd;clip-rule:evenodd;fill:#414546;} .st12{display:inline;fill-rule:evenodd;clip-rule:evenodd;fill:#E32C23;} .st13{fill-rule:evenodd;clip-rule:evenodd;fill:#505050;}</style><g id="Layer_1"><path d="M18.7 35.7c.4 0 .8.1 1.1.4.3.3.5.7.5 1.1 0 .4-.1.8-.4 1.1-.3.3-.7.5-1.1.5-.4 0-.8-.1-1.1-.4-.3-.3-.5-.7-.5-1.1 0-.4.1-.8.4-1.1.3-.3.7-.5 1.1-.5m1.4 0c-.4-.4-1-.5-1.5-.5s-1 .3-1.4.7c-.4.4-.5 1-.5 1.5s.3 1 .7 1.4c.4.4 1 .5 1.5.5s1-.3 1.4-.7c.4-.4.5-1 .5-1.5s-.2-1-.7-1.4zm-1 1c.1.1.2.1.3.1.1-.1.1-.2.1-.3l-.3-.3c-.1-.1-.2-.1-.4-.1h-.2c-.1 0-.1 0-.2.1s-.2.2-.1.3c.1.1.2.2.3.1h.4s.1 0 .1.1zm1.2 9.4c0-.1 0-.3-.2-.3-.1 0-.3 0-.3.2-.1.2-.2.6-.4 1-.2.3-.4.7-.7.9-.1.1-.1.2 0 .3.1.1.2.1.3 0 .3-.3.5-.7.7-1 .4-.4.5-.8.6-1.1zm.2-10.8c-1.1-.9-2.7-.8-3.6.3-.9 1.1-.8 2.7.3 3.6.7.6 1.7.8 2.5.5.6 2.4.5 4-2 8.2-.3.4-.3.9.1 1.2.4.3 1.2.2 1.4-.2 2-2.9 3-6.1 1.2-9.6.2-.1.3-.3.4-.4.9-1 .7-2.6-.3-3.6z" class="st0"/><path d="M2.2 29.3c0 .1-.1.2-.2.2h-.1c0-.2 0-.4.1-.6.1-.2.2-.3.4-.5.1-.1.2-.1.3-.2.1 0 .2-.1.3-.1.1 0 .2.1.2.2s-.1.2-.2.3c-.1 0-.1 0-.2.1-.1 0-.1.1-.2.1-.1.1-.2.2-.2.3-.2 0-.2.1-.2.2m-.8-.2c0-.4.2-.8.5-1.1.3-.3.7-.5 1.1-.4.4 0 .8.2 1.1.5.3.3.5.7.5 1.1V38c.2 0 .3.1.4.2.1.1.2.3.2.4 0 .2-.1.3-.2.4-.1.1-.3.2-.4.2H1.3c-.2 0-.3-.1-.4-.2-.1-.1-.2-.3-.2-.4 0-.2.1-.3.2-.4.1-.2.3-.3.4-.3.1-2.9.1-5.8.1-8.8zm.2 9.3h-.3-.1v.2H4.6v-.1-.1h-.4c-.1 0-.2-.1-.2-.2v-3.3H1.8v3.4s-.1.1-.2.1z" class="st1"/><path d="M56.6 58.1L53.7 53c-.1 0-.1.1-.2.1-.4.2-.8.5-1.3.8-.2.1-.4.2-.5.3-.4.3-.6.4-.7.5l.2.2.3.3 1.9-1.2c.1-.1.2 0 .3.1.1.1 0 .2 0 .3l-1.9 1.2c.1.1.1.2.2.3.4.5.8 1.2 1.1 2.2l1.6-.8c.1-.1.2 0 .3.1.1.1 0 .2 0 .3l-1.7.9c0 .2.1.3.1.5h.2c.2 0 .4-.1.7-.2.8-.3 2.1-.4 2.4-.8-.1.1-.1.1-.1 0m.6 1l-.3-.6c-.3.4-1.6.6-2.5.9-.3.1-.5.2-.8.2-.3 0-.5 0-.6-.2-.1-.1-.1-.2-.1-.3-.2-1.4-.7-2.3-1.2-2.9-.1-.1-.2-.2-.2-.4 0-.1-.1-.1-.1-.2-.1-.2-.3-.3-.3-.5-.2-.3-.3-.4-.3-.6.1-.2.3-.4.8-.7.1-.1.3-.2.5-.3.4-.3.9-.6 1.3-.8.1 0 .2-.1.2-.1l-7-12.4c-.7-1.2.9-1.8 1.5-.8l10.6 18.9c.6 1.2-1.1 1.7-1.5.8z" class="st0"/><path d="M41 43c.6-3.5 1.2-4.9 2.6-8.2.9 2.3-.5 7.1-2.6 8.2m-.9-4.7c0 .1.1.2.1.4s-.2.3-.3.4c-.9.7-.6 3.5.3 5.1.2.4.3.6.7.6 1.3 0 3.5-1.9 4.4-4.3 1-3 .6-6.3-1.3-7.3-.1 0-.2 0-.3.1-1.3.7-4.1 3.3-3.6 5z" class="st2"/><path d="M33.9 46.7c.9 0 1.8-.4 2.4-1 .6-.6 1-1.5 1-2.4 0-.9-.4-1.8-1-2.4-.6-.6-1.5-1-2.4-1-.9 0-1.8.4-2.4 1-.6.6-1 1.5-1 2.4 0 .9.4 1.8 1 2.4.6.6 1.4 1 2.4 1zm0 .4c-1.1 0-2.1-.4-2.8-1.1-.7-.7-1.2-1.7-1.2-2.7 0-1.1.4-2.1 1.1-2.8.7-.7 1.7-1.2 2.7-1.2 1.1 0 2.1.4 2.8 1.1.7.7 1.2 1.7 1.2 2.7 0 1.1-.4 2.1-1.1 2.8-.7.8-1.6 1.2-2.7 1.2zm1.9-2.6c.1-.1.2-.1.3-.1.1.1.1.2.1.3-.3.4-.6.7-.9.9-.4.2-.8.4-1.2.4-.1 0-.2-.1-.3-.2 0-.1.1-.2.2-.3.4 0 .7-.2 1-.4.3 0 .6-.3.8-.6zm-7-4.8c-.5.3-1.2.2-1.6-.1l-1-.8c-.6-.5-.7-1.4-.2-2 .5-.6 1.4-.7 2-.2l1 .8c.5.4.6 1.1.4 1.7l1.4 1.1c1.2-1.1 2.9-1.6 4.5-1 2.3.8 3.5 3.3 2.6 5.6-.8 2.3-3.3 3.5-5.6 2.6-2.3-.8-3.5-3.3-2.6-5.6.1-.3.3-.7.5-.9l-1.4-1.2z" class="st3"/><path d="M32.9 2.2c1.4.1 3.2.3 4.1.5.6.1 1.8.2 2.6.3.7.1.7.3 0 .7-2.5 1.5-5.5.9-7.3-1-.7-.6-.2-.5.6-.5M37 1.1c-.1.1-.3.1-.4.2-.2.1-.4-.2-.5-.3-.9-1-4.1-.6-5.9.6-.5.3-.6.3-.4.9 1.9 4.1 8.8 5.1 11.9 1.8 1-1.1 1-1.1-.1-1.8-1.3-.8-3.5-1.9-4.6-1.4z" class="st2"/><path d="M11.7 44.5c0-.1-.1-.2-.2-.1-.1 0-.2.1-.1.2 0 .2.1.3.2.4.1.1.2.2.4.3.1 0 .2.1.3.1h.3c.1 0 .2-.1.2-.2s-.4-.2-.5-.2h-.2c-.1 0-.1 0-.2-.1-.1 0-.2-.1-.2-.2v-.2m2.4 1.1c-2.2 2-5.5-1.1-2.5-5.1.8-1.1 1.1-.9 2.7-.7.7-.3 2-.5 2.8.6 2.9 4 0 7-2.6 5.2.3 1.7-.9 2.7-1.6 3.3-.1.1-.2.2-.3.2v.1c-.1.1-.2.1-.3 0-.1-.1-.1-.2 0-.4.1-.1.2-.2.4-.3.6-.4 1.8-1.4 1.4-2.9z" class="st3"/><path d="M26.1 8.1c-2.2-2.6-6.5-2.1-8.9-.5-.9.6-1.3 1.6-1.7 2.2-.3.6-1.3.8-2.1.2C8.7 5.8 18.3-4.6 29 3.2c1.2.9 1.8 1.6.9 2.4-1.2 1.2-3.2 3.1-3.8 2.5M12.7 9.9c.5.8 2 .7 1.2 1.6-.1.2-.3.3-.4.4-.4.4-.5.5-.9.2-.3-.1-.5-.3-.7-.5-.4-.4-.4-.5-.2-1 0-.2.1-.4.3-.8.4-1.4.1-.7.7.1zm6-3.8c-.3-.5-1.3-2.2-1.9-2.6-.8-.6 4.3-2.5 6.9-1.3.3.1.9 4.1.5 4-2.3-1.1-5.4 0-5.5-.1zm-3.6-1.7c.1-.1.3-.1.3 0 .1.1.1.3 0 .3-.3.2-.5.5-.7.7-.2.3-.4.6-.5.9-.1.1-.2.2-.3.1-.1-.1-.2-.2-.1-.3.2-.3.4-.7.6-1 .1-.2.4-.4.7-.7zm15.4 1c-.7 1-1.8 2.3-3.1 2.9-.6.3-.9.1-.5.8.1.2.1.3.4.4.7.5.7.4 1.4-.1 1.3-.8 1.9-2.4 2.9-3.1.7-.5.4-.8-.3-1.1-.4-.2-.5-.1-.8.2z" class="st3"/><path d="M4.5 8.7c1 .3 2 .3 2.8-.1.8-.4 1.5-1.1 1.9-2.1.3-1 .3-2-.1-2.8-.5-.9-1.2-1.6-2.2-1.9-.9-.4-1.9-.3-2.8.1-.8.4-1.5 1.2-1.9 2.1-.3 1-.2 2 .2 2.8.4.9 1.1 1.6 2.1 1.9zm-.2.5C3.2 8.8 2.4 8 1.9 7c-.5-1-.6-2.1-.2-3.2.4-1.1 1.2-1.9 2.1-2.4C4.9 1 6 .9 7.1 1.3c1.1.4 1.9 1.2 2.4 2.1.5 1 .6 2.1.2 3.2-.4 1.1-1.2 2-2.2 2.4-1 .5-2.1.6-3.2.2zm.5-6.3c-.1 0-.3 0-.3-.2 0-.1 0-.3.2-.3.5-.1.9-.2 1.4-.1.5 0 .9.2 1.3.4.1.1.2.2.1.3-.1.2-.2.2-.3.1-.4-.2-.8-.3-1.2-.3-.4-.1-.8 0-1.2.1zM3.9 10c.4.5.6 1.2.3 1.8L3.6 13c-.4.8-1.3 1.1-2.1.7-.8-.4-1.1-1.3-.7-2.1l.6-1.2c.3-.6 1-.9 1.6-.8l.2-.4C1.4 8.1.5 5.8 1.3 3.6c.9-2.4 3.6-3.7 6-2.8 2.4.9 3.7 3.6 2.8 6-.9 2.4-3.6 3.7-6 2.8l-.2.4z" class="st1"/><path d="M38.4 9.8l.1.2-1.1-2.8.1.2c.1.1 0 .3-.2.4l-3 1.1.7 1.9 3-1.1c.2-.1.3 0 .4.1zm-9.1.9c.1 0 .2 0 .2.1s0 .2-.1.2-.2.1-.3.2c-.1.1-.2.2-.2.3v.4c0 .1 0 .2-.1.2h-.1c-.1 0-.2 0-.2-.1v-.3c0-.1 0-.2.1-.3 0-.1.1-.3.2-.4.1-.1.2-.2.4-.3 0 .1 0 .1.1 0 0 .1 0 .1 0 0zm9-.1c-.1-.1-.3-.2-.3-.3l-7.8 3c-.4.2-.8.1-1.2 0-.4-.2-.7-.5-.8-.9-.2-.4-.1-.8 0-1.2.2-.4.5-.7.9-.8l4.8-1.8 3-1.1c-.1-.1 0-.3 0-.4.1-.1.2-.3.3-.3.2-.1.3-.1.5 0 .2-.1.3 0 .3.2l1.1 2.8c.1.2.1.3 0 .5-.1.1-.2.3-.3.3-.2.1-.3.1-.5 0z" class="st4"/><path d="M14 52.3c.1.1 0 .3-.1.3-.1.1-.3 0-.3-.1-.2-.3-.2-.5-.2-.8 0-.3.1-.6.3-.8.1-.1.2-.1.3 0 .1.1.1.2 0 .3-.1.2-.2.3-.2.5s.1.4.2.6" class="st5"/><path d="M2.4 49.8c.6.8 1.5 1.9 1.9 2.8.3.5 1.3 2.4 1.5 2.9.1.3-4.2-1.4-3.4-5.7m3.3 2.3c-.1-.1-.2-.1-.3-.2-.1-.1-.1-.4 0-.5.2-1.3-1.9-3-3.7-3.2-1.3.6-1.3 4.4 0 6.1 1.1 1.5 2.6 2.6 4.9 2.5.6-.4.7-3.8-.9-4.7z" class="st6"/><path d="M1.9 57.7c-.1-.1-.1-.3 0-.3.1-.1.3-.1.3 0 .2.3.8.6 1.5.8.7.2 1.5.3 1.9.2.1 0 .3.1.3.2s-.1.3-.2.3c-.5.1-1.4 0-2.2-.2-.6-.2-1.3-.6-1.6-1" class="st5"/><path d="M4.9 15.6c.1-.1.2-.2.3-.1.1.1.2.2.1.3-.2.4-.4.7-.8.9-.3.3-.7.4-1.1.6-.1 0-.3 0-.3-.2 0-.1 0-.3.2-.3.3-.1.6-.3.9-.5.3-.2.5-.4.7-.7m4.7 1.1c-1.1.1-2.2-1.4-3-1.1-1.5.4-2 3.3-4.6 2.3-.8-.3-1-1.1-.5-1.8 1.9-2.7 5.3-4.1 7.7-2.9 1.3.6 1.4-1.3 1.9-1.2 1.9.5 1.9 4.3-1.5 4.7z" class="st0"/><path d="M29.2 10.8c.1 0 .2 0 .2.1s0 .2-.1.2-.2.1-.3.2c-.1.1-.1.2-.1.3v.4c0 .1 0 .2-.1.2s-.2 0-.2-.1 0-.2-.1-.3v-.3c0-.2.1-.3.2-.5.2 0 .4-.1.5-.2" class="st5"/><path d="M42.3 9.2c1.9.7 3.8 1.3 4.7 2.9 1.7 2.8.9 5.8 2.4 6.4 4.4 1.8 5.3-3.6 1.9-9.4-.9-1.5-1.7-2.8-3.4-4.3-.8-.7-.7-1-1.7-.2-1.3 1-3.6 3-4.4 4-.4.5 0 .4.5.6m-.9-1c.7-1 3.2-3.3 4.5-3.8.6-.3.9-.1.5-.8-.1-.2-.3-.4-.5-.6-.7-.5-1-.4-1.8 0-1.3.8-2.8 3.5-3.8 4.3-.7.5-.4.8.3 1.1.4.2.6.1.8-.2zm7.3 6.1c0-.1.1-.2.2-.3.1 0 .2.1.3.2 0 .5.4 2.2.2 2.6 0 .1-.2.2-.3.2-.1 0-.2-.2-.2-.3.2-.4-.1-2-.2-2.4zm.8-1.4c1.5-.3 2-.2 1.6-1.9-.3-1.4-1.4-2.9-2.5-4-.8-.8-.8-.8-1.7-.2-1.4.9-2.4 1.7-2.4 2.2 0 .3.5.4 1.3.9 1 .7 1.6 1.4 2 2 .9 1.3.6 1.2 1.7 1zm2.5 6.4c-.6 0-1.1.2-1.6 0-1.2-.3-.9-.7-1.3.5-.2.5 0 .7.7 1.1.9.4 1 .2 1.7-.4.5-.5 1-1.2.5-1.2z" class="st1"/><path d="M44.4 46.5c-.1 0-.2-.1-.3-.2 0-.1.1-.2.2-.3.3 0 .5 0 .7.1.2.1.4.3.5.5.1.1 0 .2-.1.3-.1.1-.2 0-.3-.1-.1-.2-.2-.3-.3-.3 0 0-.2-.1-.4 0m-.4 3.3s0 .1 0 0c-.1.2-.1.5-.1.7 0 .2.1.4.2.5 0 0 0 .1.1.1s.1.1.1.2-.1.1-.2.1-.2-.1-.2-.2c-.1-.2-.2-.4-.2-.7v-.7-.1c-.1 0-.3-.1-.5-.2s-.3-.3-.4-.5c-.1-.1-.1-.3-.1-.4 0-.1.1-.1.2-.1s.1.1.1.2 0 .1.1.2.2.3.3.4c.1.1.3.2.3.2 0-.4.2-.9.6-.1.6.9 0 .6-.3.4zm-.3-.3zm-5.5-1.3c-.1 0-.2-.1-.1-.2 0-.1.1-.2.2-.1 1.3.2 1.6.5 2.1.7.1 0 .1.1.1.2s-.1.1-.2.1c-1-.5-1.7-.7-2.1-.7zM39 51c.9-.4 2-.1 2.4.8.4.9 0 1.9-.9 2.3-.9.4-2 .1-2.4-.8-.4-.9 0-1.9.9-2.3zm2.2-2.6c-.7-.2-1.8-1-2.7-1.2-.8-.1-2-.6-2.1.7 0 .4.3.9.7 1 .6.2.8.5 1.2 1 .1.1-.3.3-.7.4-.6.3-.4.2-.1.8.4.9.3 2.5-1.2 2.8-.4.1.5 2.7 1 2.4 1-.7 2-.5 2.5-.4.8.1.6.1.8-.2.2-.6.4-1.3.6-1.3.5 0-.2 2.2 1 2.8 1.6.8 1.1-2.4 1.6-4-2.7-1.3-2.7-4.7-2.6-4.8zm-.6 8.8c.5.9.1 1.9-.7 2.4-.9.5-1.9.1-2.4-.7-.5-.9-.1-1.9.7-2.4.9-.5 1.9-.2 2.4.7zm-3.6-6c.5.9.1 1.9-.7 2.4-.9.5-1.9.1-2.4-.7-.5-.9-.1-1.9.7-2.4.9-.5 2-.2 2.4.7zm10.3-3.1c.2.4.3.8.4 1.3.6-.1 1.3.3 1.5.9.4.8 0 1.7-.8 2-.5.2-1 .2-1.4-.1-.2.2-.4.4-.7.5-1.4.7-3.3-.4-4.2-2.3-.9-1.9-.4-4 1-4.7.3-.1.5-.2.8-.2.1-.5.4-1 .9-1.2.8-.4 1.7 0 2 .8.3.6.1 1.3-.3 1.8.3.3.6.7.8 1.2z" class="st1"/><path d="M102.2 47.2c.8-.8 2.1-.8 2.9 0 .8.8.8 2.1 0 2.9-.8.8-2.1.8-2.9 0-.7-.8-.7-2.1 0-2.9m.1-5.6c1 .1 1.9 1 2 2 .1 1-.6 1.7-1.6 1.6-1-.1-1.9-1-2-2-.2-1 .6-1.7 1.6-1.6zm-4.4 5c0 .1 0 .2-.1.2s-.2 0-.2-.1c-.2-1.3-.1-1.7.1-2.2 0-.1.1-.2.2-.2s.2.1.2.2c-.3.9-.3 1.6-.2 2.1zm-.5-2.7c-.1.8-.3 1.5-.2 2.1.2.9.1 2.3 1.5 2 .4-.1.9-.7.9-1.1 0-.7.3-1.1.6-1.6.1-.1.7.7.9 1 .5.5.4.4 1 .1.9-.5 3.4.4 2.9-1.3-.3-.9-.4-2.3.1-2.7.6-.5.4-.3-.3-.7-.4-.2-.7-.4-.5-.5.2-.2 1.6.1 2.3-1.2.7-1.3-2.1-1.4-3.7-1.4s-.9-.1-1.6 1.4c-.7 1.3-1.9 1.9-2.8 2.2-1.2.6-.9.5-1.1 1.7zm-1.8-4.1c.1.1 0 .2-.1.3-.1.1-.2 0-.3-.1-.1-.2-.2-.5-.1-.7 0-.2.1-.5.3-.7.1-.1.2-.1.3 0 .1.1.1.2 0 .3-.1.1-.2.3-.2.4 0 .2 0 .4.1.5zm2.4-.5c.7-.8.7-.2.6.2h.1c.2 0 .4-.1.6-.2.2-.1.4-.2.4-.3v-.1c0-.1.1-.2.1-.2.1 0 .2.1.2.1 0 .1 0 .2-.1.3-.1.2-.3.3-.5.4-.2.1-.5.2-.7.2h-.1c0 .1 0 .3-.1.5s-.2.4-.3.5c-.1.1-.2.2-.3.2-.1 0-.2 0-.2-.1s0-.2.1-.2.1-.1.2-.1c.1-.1.2-.3.3-.4.1-.2.1-.3.1-.4-.4.2-1 .3-.4-.4zm.4.6zM96 37c.3-.3.7-.6 1-.8-.3-.6-.2-1.3.3-1.8.6-.6 1.6-.6 2.2 0 .4.4.5.9.4 1.4.3.1.5.3.8.5 1.1 1.1.8 3.2-.7 4.7s-3.6 1.9-4.7.8c-.2-.2-.4-.4-.5-.7-.5.1-1.1 0-1.5-.4-.6-.6-.6-1.6 0-2.2.5-.5 1.2-.6 1.8-.3.2-.5.5-.9.9-1.2zm9.8 5.6c.8-.8 2.1-.8 2.9 0 .8.8.8 2.1 0 2.9-.8.8-2.1.8-2.9 0-.8-.9-.8-2.1 0-2.9z" class="st1"/><path d="M59.8 11c.2-.2.5-.3.9-.3s.6-.1.9-.1c.7-.1 1.4 0 1.9.3.7.4 1.2 1.1 1.4 2.1.2 1.2 1 .7 2.5.8 1.1 0 2.2.1 3 .1.6 0 1.1-.1 1 .6-.2.3-1.1.2-1.6.2l.8 4c.6-.6.7-.9 1.4-.6 1.7.6-2.8 3.4-6 3.9-2.1.3-5.1.6-6.4-1.8-.5-.9.2-1.4.6-.4.1.2.7.8.9.2.1-.2.8-3.7.8-4.2.1-.7.5-2.4-.1-2.7-.6.2-.6 1.4-1.4.8-.3-.2-.3-.5-.2-1 .1-2 .7-1.3-.4-1.9m4 1.5c0 .1.1.2.2.2s.2-.1.2-.2c0-.3-.1-.5-.3-.7-.2-.2-.4-.3-.6-.4-.1 0-.2 0-.3.2 0 .1 0 .2.2.3.2 0 .3.1.4.2.1.1.2.2.2.4zm-1.6 7.8c1.8 1.3 5.3.3 7.2-1 .3-1.9-3.6-3.5-6-1.8-.5.3-1.3 1.9-1.2 2.8z" class="st3"/><path d="M3.4 42.2c0 .1-.1.2-.3.2-.1 0-.2-.1-.2-.3.1-.1.1-.2.2-.3l.2-.2c.1 0 .2-.1.2-.1h.2c.1 0 .2.2.1.3.1.2 0 .2-.1.2h-.1-.1s-.1 0-.1.1v.1m-.5 1.1c.1.2.1.7.2 1 .1.4.3 1.4.8 1.4.2 0 .4-.2.4-.4v-.2c-.1-.1-.2-.1-.2-.4 0-.3.2-.7.7-.7.4 0 .7.5.7.7 0 .3-.1.3-.2.5v.2c0 .2.2.4.4.4.5 0 .7-1.1.8-1.4.1-.3.1-.8.2-1 .1-.4.4-.5.4-1 0-.6-.5-1.2-1.2-1.1-.6 0-.6.3-1.1.3-.5 0-.5-.3-1.1-.3-.6 0-1.2.5-1.2 1.1 0 .4.3.5.4.9zm6.2 4.8l-1.6-1.6c-.1-.1-.1-.2-.1-.3 0-.1 0-.2.1-.3l.7-.7c.1-.1.2-.1.3-.1.1 0 .2 0 .3.1l1.6 1.6c.1.1.1.2.1.3 0 .1 0 .2-.1.3l-.7.7c-.1.1-.2.1-.3.1-.2 0-.3 0-.3-.1zm-7.6-8h6.6c.5 0 .9.4.9 1v4.1l-.2-.2c-.1-.1-.2-.1-.3-.2-.1 0-.3 0-.4.1l-.9.9c-.1.1-.1.2-.1.3 0 .1.1.2.2.3l.3.3H1.5c-.5 0-.9-.4-.9-1V41c-.1-.5.4-.9.9-.9z" class="st0"/><path d="M14.9 18.7c0 .1-.2.1-.3.1-.1 0-.1-.2-.1-.3.3-1.5.6-1.7 1.1-2.2.1-.1.2-.1.3-.1.1.1.1.2.1.3-1 .9-1 1.4-1.1 2.2m3.5-3.1c-.2-.1-.5-.2-.8-.3-.3-.1-.6-.1-.9-.1h-.2s.1 0 .2.1c.2.1.5.2.8.3h.9c.1.1.2.1.2.1 0-.1-.1-.1-.2-.1zm-2.2-.2c-.2-.1-.2-.3-.2-.5s.2-.3.3-.3c-.8.1-1.4.5-2 1-.7.6-1.1 1.5-1.1 2.5 0 .7.2 1.3.5 1.8-.1-1.2.3-4 2.2-4.5.1.1.2 0 .3 0zm3 .1v.3c-.1.3-.3.4-.7.4.1.2.2.4.3.5.4.9.4 3.3.1 4.6.4-.2.7-.4 1-.7.7-.6 1.1-1.5 1.1-2.5s-.4-1.9-1.1-2.5l-.1-.1h-.6zm-2.1-1.4c1.2 0 2.2.5 3 1.2.8.7 1.3 1.8 1.3 2.9s-.5 2.1-1.3 2.9c-.8.7-1.8 1.2-3 1.2s-2.2-.5-3-1.2c-.8-.7-1.3-1.8-1.3-2.9s.5-2.1 1.3-2.9c.7-.8 1.8-1.2 3-1.2z" class="st1"/><path d="M45.2 19.1c-.3 0-.4.2-.6.5-.2.3-.3.3-.5.6-.4.4-.6.9-.7 1.4-.1.7.2 1.3.8 1.9.7.7.5.5-.2 1.5-.5.8-.9 1.5-1.3 2.1-.3.4-.6.7-.1.9.2 0 .4-.3.6-.6.4-.6.6 0 1.2.5l1.4 1.4c-.6.1-.9.1-1 .6-.3 1.4 3.1 0 4.9-2 1.1-1.2 3-3.8 2-5.7-.4-.7-1-.5-.5.2.1.2.2 1.7-.5 1.4-.2 0-2.9-1.2-3.2-1.3-.5-.2-1.9-.7-1.8-1.3.4-.3 1.2.3 1.2-.6 0-.3-.2-.4-.6-.6-1.4-.6-1.1.1-1.1-.9m-.8 2.7c0-.1 0-.2-.2-.3-.1 0-.2 0-.3.2-.1.2 0 .5.1.7.1.2.3.4.5.6.1.1.2 0 .3-.1.1-.1 0-.2-.1-.3-.1-.1-.2-.2-.3-.4-.1-.1-.1-.3 0-.4zm6 3.1c.1 1.8-1.8 3.2-3.5 3.9-1.4-.6-1.1-3.5 1.1-4.4.4-.1 1.8 0 2.4.5z" class="st3"/><path d="M3.5 21.7c.1.1 1.7 1.8 2.4.9.3-.4.7-1.2.3-1.5-2.1-1.5-3 .3-2.7.6m1-3.3c-.1.7.8 1.7 1.1 1.8.1 0 .3.1.6.2.7.2.6.3.7-.8.1-.6 0-1.2-.5-1.4-.6-.3-1.7-.8-1.9.2zM11 22c-.4.3-1.1.1-1.5 0-.1 0-1.2-.2-1.2-.3 0 0-.2-.2-.5-.4-.8-.7-.5-.6.6-1.1.4-.2 1.2-.5 1.6-.1.6.4 1.7 1.3 1 1.9zm-5.8 5.3c-.8-.7-1.6-1.6-2.3-2.4-.5-.5-.7-.5-.3-.9.5-.5.4-.4.9 0 .7.7 1.3 1.6 2.1 2.2.6.4.7.3.4.9 0 0 0 .1-.1.1-.2.5-.1.5-.7.1zm-3.5-5.5c-.1.3.1.6.6 1.1.4.4.6.3.2.8-.5.4-.4.3-.9-.2-.2-.3-.4-.5-.6-.6-.1-.1-.3-.2-.3-.2-.1.1-.3.3-.2.5 1.3 1.8 4.3 5.1 6.3 5.7.4.1.8.3.9-.1.1-.3-.7-.6-.9-.6-.5-.2-.4-.2-.2-.6.2-.6.1-.6.7-.7 1.3-.1 2.9.7 5.8 2.4 1.1.7 2.5.8 2.3-.2-.2-1-.6.6-1.7-.4-1.1-.9-3.7-2.4-4.5-3.9-.3-.5.8-1.3-.3-2.4-2.1-1.8-5.8-3.9-7.2-.6z" class="st3"/><path d="M13.2 32.2c-.1.1-1.6 1.5-2.2.7-.2-.4-.6-1.1-.2-1.3 2-1.2 2.7.4 2.4.6m-4.9 2.7c.1-.1 2.1-.6 1.7-1.5-.2-.4-.6-1.1-1-.9-2 1.1-1 2.5-.7 2.4zm6.1-.8c-.6.4-.9 1.2-.5 1.8.4.6 1.2.9 1.8.5.6-.4.9-1.2.5-1.8-.4-.6-1.2-.9-1.8-.5zm-5 2.8c-.6.4-.9 1.2-.5 1.8.4.6 1.2.9 1.8.5.6-.4.9-1.2.5-1.8-.4-.7-1.2-.9-1.8-.5zm-1.8.5c0 .1 0 .2-.1.3-.1 0-.2 0-.3-.1-.8-1.3-.7-1.6-.6-2.4 0-.1.1-.2.2-.2.1-.1.2 0 .2.1-.1 1.2.2 1.6.6 2.3zm7.5-6.8c-1.8 1-1.1-2-5.5.5-2 1.1-4.5 3.1-3.4 5.8.4.9.9 2.3 1.8 1.8l.5-.3c-.2-.7.1-1.5.8-1.8.7-.4 1.5-.2 2 .3l2.3-1.3c-.2-.7.1-1.5.8-1.8.7-.4 1.5-.2 2 .3l.6-.3c.9-.5 1.2-1.6.7-2.5-.6-.8-1.7-1.1-2.6-.7z" class="st7"/><path d="M34.3 15.4c0-.1 0-.3.1-.3s.3 0 .3.1c.3.7.5 1.6.7 2.5.1.7.2 1.4.1 2.1 0 .1-.2.2-.3.2-.1 0-.2-.2-.2-.3.1-.8 0-1.3-.1-2 0-.8-.3-1.7-.6-2.3m-6.2 13.3c.1.1.1.3 0 .3-.1.1-.3.1-.3 0-.1-.1-.1-.2-.2-.4v-.4c0-.1.1-.1.1-.2s.1-.1.1-.2c.1-.1.2-.1.3 0 .1.1.1.2 0 .3 0 0 0 .1-.1.1V28.5c0 .1 0 .2.1.2zm1.9-1.3c-.3-.3-.8-.5-1.2-.5-.5 0-.9.2-1.2.5-.3.3-.5.8-.5 1.2 0 .5.2.9.5 1.2.3.3.8.5 1.2.5.5 0 .9-.2 1.2-.5.3-.3.5-.8.5-1.2 0-.4-.1-.9-.5-1.2zm-2.8 2.8c-.4-.4-.6-1-.6-1.6 0-.6.3-1.2.7-1.6.4-.4 1-.7 1.6-.7m-.1.1c.6 0 1.2.3 1.6.7.4.4.7 1 .7 1.6 0 .6-.3 1.2-.7 1.6-.4.4-1 .6-1.6.6-.6 0-1.2-.3-1.6-.7m1.6-4.1c.8 0 1.6.4 2 1 4.3-3.1 4.5-8.9 3.3-10.9-.9-1.5.4-2.7 1.2-1.9 1.9 1.9 2.1 10.8-4 14.1v.3c0 1.4-1.1 2.6-2.6 2.6s-2.6-1.1-2.6-2.6 1.3-2.6 2.7-2.6z" class="st8"/><path d="M22.5 33.4c-.1-.1 0-.3.1-.3.1-.1.3 0 .3.1 1.4.9 2.8.7 4 .5.1 0 .2.1.3.2 0 .1-.1.2-.2.3-.6 0-2.6.5-4.5-.8m20.1-10.6c-.2 0-.3.1-.5.3H42c-.2-.3-.7-.9-1.3-1.3-.4-.3-.9-.6-1.3-.6-.2 0-.3.1-.4.3-.1.2-.4.6-.8.7-.2.1-.5.5-.8 1-.3.6-.6 1.3-.6 1.5.1.3.4.7.8 1.1.4.3.8.6 1.1.7-4.1 4.4-13.3 9-16.3 5.7-.6-.6-1.1-.6-1.5-.5-.5.1-.7.7-.7 1 0 2.6 4.7 3.4 8.8 2.2 4.8-1.4 10.4-5.9 13.4-10.3.4-.4 1.3-1.8.2-1.8zm-3.1-1.3c-.1 0 0 .1 0 .1 0 .1-.1.2-.2.2l1.7 1.5c.1.1.1.2 0 .3-.1.1-.2.1-.3 0L39 22.2c-.2.1-.4.3-.6.3 0 0-.2.4-.5.8l1 .8c.1.1.1.2 0 .3-.1.1-.2.1-.3 0l-.9-.7c-.2.4-.4.7-.4.7.1.2.3.5.6.8.4.3.8.6 1.1.7.1 0 .6-.4 1.2-1 .6-.7 1.3-1.5 1.4-1.8-.1-.1-.6-.7-1.2-1.2-.2-.1-.6-.4-.9-.4z" class="st1"/><path d="M16.3 24.4c.8.6 2 1.3 2.8 1.9.4.4 2.1 1.7 2.5 2.2 0 .2-4.6.2-5.3-4.1m3.9 1c-.1 0-.3 0-.4-.1-.2 0-.2-.3-.2-.5-.3-1.3-2.9-2.1-4.7-1.7-1 1 .3 4.5 2.2 5.7 1.6 1 3.4 1.5 5.5.6.5-.5-.7-3.8-2.4-4z" class="st4"/><path d="M74.5 1.2c0-.1.1-.2.2-.2s.2.1.2.2v1.9c0 .1-.1.2-.3.2-.1 0-.2-.1-.2-.3v-.9c.1-.2.1-.4.1-.9m.2-.5h1.8c.7 0 .6-.1.6.6V3c0 .9-.2.8.7.8h1.8c.9 0 .8-.2.8.8v1.7c0 .8 0 .6-.8.6h-2c-.6 0-.5-.1-.5.5v1c0 .9.2.8-.6 1-.6.1-1.1.3-1.7.3-1.1.1-.7-1.3-.7-2.4 0-.6.1-.5-.5-.5h-1.9c-.9 0-.7.1-.7-.8V4.8c0-1-.2-1 .7-1h1.8c.8 0 .6-.1.6-1.1V1.4c-.1-.8-.2-.7.6-.7z" class="st7"/><path d="M113.6 42.3c.3-1 1-2.9 1.4-3.7.4-.8.9-2.4 1.3-3 .9 2.9-.4 6.1-2.7 6.7m.1-5.1v1c0 .2-.8.8-.9.9-.8.4-.4 1.9-.6 3.4-.2 1 .1 1.3 1.1 1.2 1.9-.3 3.8-2 4.2-3.8.4-1.8.3-5.9-.7-6.2-.1 0-.2 0-.3.1-.5.3-2.2 2.2-2.8 3.4z" class="st2"/><path d="M103.2 9.7c1.1.5 3 1.4 3.8 2 .5.4 3 1.5 3.5 1.9.5.4-5.7 1.3-7.4-3.1-.2-.6-.5-1.1.1-.8m4.9.7h-.5c-.2 0-.3-.3-.3-.5-.5-1.4-3.6-1.8-5.4-1-1 1.4.4 4.5 2.8 5.9 2.2 1.3 6 1.4 7.7-.5v-.2-.2c-.6-1.5-2.3-3.6-4.3-3.5z" class="st4"/><path d="M73.7 41.2c.6.8 1.5 1.9 2 2.7.3.5 1.4 2.3 1.6 2.9.1.2-4.3-1.3-3.6-5.6m3.4 2.2c-.1-.1-.3-.1-.4-.2-.1-.1-.1-.4 0-.5.2-1.3-2-2.9-3.8-3.1-1.2.6-1.2 4.4.2 6.1 1.2 1.5 2.7 2.6 5 2.4.6-.4.6-3.9-1-4.7z" class="st2"/><path d="M68.6 42.1c-.6-.4-1.9-.6-2.2-.6-.6-.1-1.3 4-.1 6.4.7 1.3 1 1 2.4.7.5-.1 1-.2 1.4-.3 1.2-.3.7-.3.3-1-.8-1.2-1-3-1.1-4.1-.2-.8 0-.7-.7-1.1m-.4-3.9c.1-.1.3 0 .3.1.1.1 0 .3-.1.3-.3.2-.6.4-.8.6-.2.2-.5.5-.7.8-.1.1-.2.1-.3.1-.1-.1-.1-.2-.1-.3.2-.3.5-.6.7-.9.4-.3.7-.5 1-.7zM73 48.3c-1.6-.6-2.6-2.8-2.9-5.1-.2-2.2 1.5-3.3.6-4.5-.9-1.3-2-1.4-3.1-.7-4.4 2.7-4.6 9.7-.4 12.9.8.6.8.6 1.9.1 1.2-.6 3.2-1.7 4.2-2.1 1-.5.4-.4-.3-.6zm-1.4-9.9c.2-.2.3-.4.4-.6.2-.4.1-.4-.1-.7-.2-.3-.4-.5-.6-.6-.3-.2-.4-.2-.7-.1-.4.1-1 .4-1.5.8-.1 0-.1.1 0 .1.8 0 1.6.5 2 1.2.2.1.2.2.5-.1zM74 48.9c-1 .7-3.7 2.1-4.9 2.7-.6.3-.9.1-.5.8.1.2.3.4.5.6.7.5.7.4 1.4-.1 1.3-.8 3.6-2.3 4.6-3.1.7-.5.4-.8-.3-1.1-.4-.2-.4 0-.8.2zm4.4-16.7c0 .1-.1.3-.2.3s-.3-.1-.3-.2c0-.3 0-.6.1-.8.1-.2.3-.4.6-.6.1-.1.3 0 .3.1.1.1 0 .3-.1.3-.2.1-.3.2-.4.4v.5zm-1.3 1.4c.9-.7-.1-2.8 1.5-3.2 3.3-.8 2.2 6.3-2.6 4.7-1.6-.5-3.9 1.7-3.9 1 0-.3 1.1-1.9 3-2.6.8-.2 1.6.4 2 .1z" class="st0"/><path d="M107.6 5.3c0 .1-.1.2-.2.3-.1 0-.2-.1-.3-.2 0-.4 0-.8.2-1.2.1-.4.4-.7.6-1 .1-.1.2-.1.3 0 .1.1.1.2 0 .3-.2.3-.4.5-.5.9-.1.2-.1.6-.1.9m-1-.5c-.1.8.2 1.6.8 2.3.6.7 1.4 1 2.2 1.1.8.1 1.6-.2 2.3-.8.7-.6 1-1.4 1.1-2.2.1-.8-.2-1.6-.8-2.3-.6-.7-1.4-1-2.2-1.1-.8-.1-1.6.2-2.3.8-.6.6-1 1.4-1.1 2.2zm.5 2.6c-.7-.8-1-1.7-.9-2.6.1-.9.5-1.8 1.2-2.5.8-.7 1.7-1 2.6-.9.9.1 1.8.5 2.5 1.2.7.8 1 1.7.9 2.6-.1.9-.5 1.8-1.2 2.5-.8.7-1.7 1-2.6.9-1 0-1.9-.4-2.5-1.2zm-.4.4c-1.5-1.7-1.3-4.4.4-5.9 1.7-1.5 4.4-1.3 5.9.4l.6.9 1.4-.6c0-.5.3-1.1 1.1-1.4l1.1-.4c.7-.3 1.5.1 1.8.8.3.7-.1 1.5-.8 1.8l-1.2.3c-.8.3-1.4.1-1.7-.3l-1.4.6c.4 1.5 0 3.1-1.3 4.2-1.8 1.5-4.4 1.3-5.9-.4z" class="st3"/><path d="M73.5 25.4c0 .1-.1.2-.3.2-.1 0-.2-.1-.2-.3.1-.4.2-.9.5-1.2.2-.4.5-.7.9-.9.1-.1.3 0 .3.1.1.1 0 .3-.1.3-.3.2-.6.5-.8.8-.1.3-.2.7-.3 1m2.4 3.8c1 0 1.8-.4 2.4-1 .6-.6 1-1.5 1-2.5s-.4-1.8-1-2.4c-.6-.6-1.5-1-2.5-1s-1.8.4-2.4 1c-.6.6-1 1.5-1 2.5s.4 1.8 1 2.4c.7.6 1.5 1 2.5 1zm0 .5c-1.1 0-2.1-.4-2.8-1.1-.7-.7-1.2-1.7-1.2-2.8 0-1.1.4-2.1 1.1-2.8.7-.7 1.7-1.2 2.8-1.2 1.1 0 2.1.4 2.8 1.1.7.7 1.2 1.7 1.2 2.8 0 1.1-.4 2.1-1.1 2.8-.7.7-1.7 1.2-2.8 1.2zm0 .6c-2.5 0-4.6-2-4.6-4.5s2-4.6 4.5-4.6c.4 0 .8 0 1.1.1l.5-1.5c-.4-.4-.6-1-.4-1.6l.4-1.2c.3-.8 1.1-1.2 1.9-.9.8.3 1.2 1.1.9 1.9l-.4 1.2c-.2.7-.9 1.1-1.6 1l-.5 1.4c1.5.7 2.6 2.3 2.6 4.1.2 2.5-1.9 4.6-4.4 4.6z" class="st7"/><path d="M91.3 58.9c.1 0 .2 0 .3.1 0 .1 0 .2-.1.3-1.2.9-1.6.7-2.3.7-.1 0-.2 0-.2-.2 0-.1 0-.2.2-.2 1 .1 1.4-.2 2.1-.7m-17.4-5.2c-.1.6 0 1.2.4 1.7s.9.8 1.5.9c.6.1 1.2 0 1.7-.4s.8-.9.9-1.5c.1-.6 0-1.2-.4-1.7s-.9-.8-1.5-.9c-.6-.1-1.2 0-1.7.4-.5.3-.8.9-.9 1.5zm0 2c-.5-.6-.6-1.4-.5-2.1.1-.7.5-1.4 1.1-1.8.6-.5 1.4-.6 2.1-.5.7.1 1.4.5 1.8 1.1.5.6.6 1.4.5 2.1-.1.7-.5 1.4-1.1 1.8-.6.5-1.4.6-2.1.5-.6-.1-1.3-.5-1.8-1.1zm2-3.2c-.1 0-.3 0-.3-.2 0-.1 0-.3.2-.3.2-.1.4-.1.7 0 .2 0 .4.1.6.2.1.1.1.2.1.3-.1.1-.2.1-.3.1-.1-.1-.3-.1-.4-.2-.3.1-.5.1-.6.1zm3.1 3.2c2.6 2.1 6 5.2 11.5 2.4.5-.3 1.4-.4 1.8.1.7.8-.3 1.6-.9 1.8-4.7 1.9-10.4.1-13.3-3.4-1.4 1.1-3.5.8-4.6-.7-1.1-1.4-.8-3.5.7-4.6 1.4-1.1 3.5-.8 4.6.7.8 1.2.8 2.6.2 3.7z" class="st1"/><path d="M73.8 12.9c2.1-.4 4-1.1 5.2-1.4.1.1.3.3.4.6.2.3.6 1.9.3 1.9 0 0-.2 0-.5.1l-.8-1.8c-.1-.1-.2-.2-.3-.1-.1-.1-.1 0-.1.2l.7 1.7h-.4c-.4.1-.9.1-1.4.2l-.5-1.3c0-.1-.2-.2-.3-.1-.1 0-.2.2-.1.3l.5 1.2c-.2 0-.4.1-.5.1-.2.1-.7.2-1 .3-.2 0-.2.1-.3.1-.3-.3-.6-1-.8-1.6-.1-.1-.1-.3-.1-.4m-5-1.2c.1 0 .2.1.2.3 0 .1-.1.2-.3.2-.7-.1-1.3-.3-1.9-.5-.6-.2-1.2-.5-1.6-1-.1-.1-.1-.2 0-.3.1-.1.2-.1.3 0 .4.4.9.7 1.5.9.5.2 1.2.3 1.8.4zm10.9-.3c.4-.1.2-1.3-.8-1.1-2.5.3-6.2 1.6-9.8 1-4.4-.8-3-2.3-4.6-2.2-.6.1-.8 1-.5 1.3 2.3 2.7 6 2.9 9.4 2.3 0 .1 0 .5.1.7.2.7.6 1.4.9 1.8.1.1.4.1.7.1.4-.1.9-.2 1.1-.3.6-.2 1.5-.3 2.3-.4.2 0 .5-.1.7-.1.5-.1.8-.2 1-.3.4-.6.1-1.8-.2-2.3-.2-.2-.3-.4-.3-.5z" class="st1"/><path d="M98.4 14.9c0-.1.1-.2.2-.2s.2.1.2.2c0 .7 0 1.7-.1 2.5v2.4c0 .1-.1.2-.2.2s-.2-.1-.2-.2v-2.4c0-.9 0-1.8.1-2.5m1.1-13.2v5.4H101.9c.6 0 .8 0 .9-.1v-.3-.5h-2.5c-.1 0-.2-.1-.2-.2s.1-.2.2-.2h2.4v-.4c0-.7 0-1.5.3-2.6h-1.9c-.1 0-.2-.1-.2-.2s.1-.2.2-.2h2.1c.1-.2.1-.3.2-.5l-.2-.2c-.2-.1-.4-.2-.7-.2-.9-.2-2.2-.1-2.6.1-.2-.1-.3 0-.4.1zm-.8-.7c.2 0 .4.1.6.3.1-.1.2-.2.4-.3.5-.2 1.9-.3 2.8-.1.3.1.6.1.8.2.3.1.4.3.5.5 0 .1 0 .2-.1.3-.7 1.4-.7 2.5-.6 3.3V6.5c0 .3.1.5-.1.7-.2.2-.5.2-1.1.2h-2.4v12.8c0 1.2-1.6.8-1.6-.2V1.5c.1-.2.4-.5.8-.5z" class="st1"/><path d="M84.8 49.4c.1 0 .2-.1.3-.2 0-.1-.1-.2-.2-.3-.2 0-.4 0-.6.1-.2.1-.4.2-.5.3-.1.1-.1.2-.2.3-.1.1-.1.2-.1.3 0 .1 0 .2.2.3.1 0 .2 0 .3-.2 0-.1 0-.1.1-.2 0-.1.1-.1.1-.2.1-.1.2-.2.3-.2h.3m-2.2 1.8c-.7-3.1 3.8-4.6 6 .2.6 1.3.4 2.1-.7 2.9-.1.8-.5 2.1-2 2.3-5.2.7-6.6-3.4-3.7-5-1.6-.3-2.1-1.7-2.4-2.5 0-.1-.1-.2-.1-.3-.1 0-.1 0-.1-.1-.1-.1 0-.2.1-.3.2-.1.3-.1.4.1.1.1.1.3.2.4.3.8.8 2.2 2.3 2.3z" class="st3"/><path d="M62.5 3.1c0 .1-.2.2-.3.2-.1-.1-.2-.2-.2-.3 0-.1.1-.2.2-.3.1-.1.2-.1.3-.2.1 0 .2-.1.3-.1h.3c.1 0 .2.2.1.3 0 .1-.2.2-.3.1h-.1-.1s-.1 0-.1.1c-.1.1-.1.1-.1.2M62 4.3c.1.2.1.8.2 1.1.1.4.3 1.6.9 1.6.3 0 .5-.2.5-.5 0-.1 0-.2-.1-.2-.1-.1-.2-.2-.2-.5s.2-.8.7-.8c.5 0 .7.5.7.8 0 .3-.1.4-.2.5 0 .1-.1.1-.1.2 0 .3.2.5.5.5.5 0 .8-1.2.9-1.6.2-.3.2-.8.3-1.1.2-.4.4-.6.4-1.1 0-.7-.6-1.3-1.3-1.3-.6 0-.6.3-1.2.3s-.6-.3-1.2-.3c-.7 0-1.3.5-1.3 1.3 0 .6.3.7.5 1.1zM60.3.7h7.4c.6 0 1 .5 1 1.1v4.6l-.1-.1c-.1-.2-.3-.3-.4-.3-.1 0-.3 0-.4.1l-1 1c-.1.1-.1.2-.1.4 0 .1.1.3.2.4l.4.4h-6.8c-.6 0-1-.5-1-1.1V1.8c-.2-.6.3-1.1.8-1.1zm8.5 9L67 8v-.4c0-.1 0-.2.1-.3l.8-.8c.1-.1.2-.1.3-.1.1 0 .2.1.3.1l1.7 1.8c.1.1.1.2.1.3 0 .1 0 .2-.1.3l-.8.8c-.1.1-.2.1-.3.1-.1 0-.2 0-.3-.1z" class="st6"/><path d="M63 39.1c.1-.1.3-.1.4 0 0 0 .1.1.1.2-.2.2-.4.3-.7.3-.2.1-.5.1-.7 0-.1 0-.3-.1-.4-.2l-.3-.3c-.1-.1-.1-.3 0-.4.1-.1.3-.1.4 0l.2.2c.1 0 .2.1.3.1h.5c-.1.3.1.2.2.1m.5.9c-.4.3-.9.4-1.4.4-.5-.1-.9-.3-1.3-.7-.3-.4-.4-.9-.4-1.4.1-.5.3-.9.7-1.3 2.9-2.2 5.7-4.4 8.6-6.6-.1-.2-.2-.4-.1-.5 0-.2.1-.4.3-.5.2-.1.4-.2.5-.1.2 0 .4.1.5.3l2.4 3.1c.1.2.2.4.1.5 0 .2-.1.4-.3.5-.2.1-.4.2-.5.1-.2 0-.4-.1-.5-.3-2.9 2.1-5.8 4.3-8.6 6.5zm8.8-7.2l.2.3.1.1h.1l.1-.1V33l-2.4-3.1-.1-.1h-.1l-.1.1v.1l.2.3c.1.1.1.3-.1.4L67 33.2l1.6 2.1 3.3-2.5c.2-.1.4-.1.4 0z" class="st3"/><path d="M115.4 30.6c0-.2-.1-.3-.3-.3-.1 0-.1 0-.2.1 0 .3 0 .5.1.8.1.2.3.4.5.6.1.1.2.2.4.2.1.1.3.1.4.1.1 0 .3-.1.3-.2 0-.2-.1-.3-.2-.3s-.2 0-.3-.1c-.1 0-.2-.1-.2-.1-.1-.1-.2-.2-.3-.4-.2 0-.2-.2-.2-.4m-1.1.3c0 .5.2 1 .6 1.4.4.4.9.6 1.4.6.5 0 1-.2 1.4-.6.4-.4.6-.9.6-1.4V19.6h.1c.2 0 .4-.1.5-.2.1-.1.2-.3.2-.5s-.1-.4-.2-.5c-.1-.1-.3-.2-.5-.2h-4.1c-.2 0-.4.1-.5.2-.1.1-.2.3-.2.5s.1.4.2.5c.1.1.3.2.5.2v11.3zm.3-11.9h-.3-.1l-.1-.1s0-.1.1-.1l.1-.1h4.1s.1 0 .1.1.1.1.1.1 0 .1-.1.1h-.5c-.2 0-.3.1-.3.3v4.3h-2.8v-4.3c0-.2-.1-.3-.3-.3z" class="st1"/><path d="M108.7 29.3c-.1.1-.2 0-.3-.1-.1-.1 0-.2.1-.3.2-.1.4-.1.5-.1.2 0 .4 0 .5.1.1.1.2.1.3.2.1.1.1.2.2.2.1.1 0 .2-.1.3-.1.1-.2 0-.3-.1 0-.1-.1-.1-.1-.2-.1 0-.1-.1-.2-.1-.1-.1-.2-.1-.4-.1 0 .1-.1.1-.2.2m2.5.9c-.5-3-5-2.5-5 2.4 0 1.3.3 1.4 1.7 2.2.3.6 1.3 1.6 2.6 1.2 4.6-1.4 4.2-5.4 1.2-5.7 1.1-.9 1-2.2.9-3V27l.1-.1c0-.1-.1-.2-.2-.2-.2 0-.3.1-.3.3v.5c0 .6.2 1.9-1 2.7z" class="st0"/><path d="M95.9 56.4c.1 0 2.6-.4 2.2-1.5-.2-.5-.5-1.3-1-1.2-2.6.9-1.6 2.8-1.2 2.7m-1.7-2.6c.5.5 1.4.1 1.7-.1.1-.1.8-.7 1-.7-.5-.6-1.5-1.7-2.2-1.2-.6.3-1.2 1.2-.5 2zm6.5-3.6c.1.5-.6 1-.9 1.3-.1.1-.9.9-1 .8 0 0-1.2.3-1.4.4 0-.3.3-1.3.3-1.4.1-.5.3-1.3.9-1.5.6-.2 2-.5 2.1.4zm-.3 7.6c-1 .6-1.5.7-2.4.9-.7.2-.6.3-.8-.3-.1-.7-.1-.4.6-.7.7-.2 1.5-.5 2.2-.9.7-.4.6-.6 1 0 .5.5.1.6-.6 1zm1.3-4.3c.1.1.2.1.3.1.1-.1.1-.2.1-.3-.1-.2-.3-.4-.6-.5-.2-.1-.5-.1-.7-.1-.1 0-.2.1-.2.3 0 .1.1.2.3.2h.5s.2.1.3.3zM94.8 58c.1.3.6.3 1.4.2.5-.1.5-.2.7.3.1.5.2.5-.4.5-.4 0-.8.1-1.1.1-.7.1-.2.6-.1.6 2.3 0 5.6-1.2 7.4-2.5.3-.2.8-.4.5-.8-.2-.2-.7.2-.9.3-.5.4-.4.4-.7-.2-.4-.6-.1-.6.5-.8.9-.3 3.1-1.1 4.9-2.1 1.8-1 1.6-2.6 1.8-4.1.1-.6.2-1.6-.2-2.2-.6-.8-1.2.6-1 2 .2 1.4.1 2.9-1 3.3-4.1 1.5-3-1-6.9-.2-2.6.5-6.7 2.3-4.9 5.6z" class="st7"/><path d="M40.3 13.5c-.1.1-.2 0-.3-.1-.1-.1 0-.2.1-.3.2-.1.3-.2.5-.2s.4 0 .5.1c.1 0 .2.1.3.2.1.1.2.1.2.2.1.1 0 .2 0 .3-.1.1-.2 0-.3 0 0-.1-.1-.1-.1-.1-.1 0-.1-.1-.2-.1s-.2-.1-.3-.1c-.2 0-.3 0-.4.1m2.4.6c-.7-2.8-4.9-1.9-4.5 2.7.1 1.3.4 1.3 1.8 1.9.4.6 1.3 1.4 2.5.9 4.2-1.7 3.5-5.4.7-5.4.9-.9.7-2.2.6-2.9V11l.1-.1c0-.1-.1-.2-.2-.2-.2 0-.3.1-.3.3 0 .1 0 .2.1.4.1.7.3 1.9-.8 2.7z" class="st0"/><path d="M74.4 38.3c1.7 1.7 1.8 1.7 2.7 1.4.7-.2.7-.2 1.2-.8.2-.3.4-.3-.5-.5-1.9-.3-2.8-1.7-3.5-.9-.2.3-.3.3.1.8m6.4-1.3c-.1.1-.3 0-.3-.1-.1-.1 0-.3.1-.3.2-.1.3-.1.5-.1s.4 0 .5.1c.1 0 .2.2.1.3 0 .1-.2.2-.3.1-.1 0-.2-.1-.3-.1-.1 0-.2 0-.3.1zm-1.6 1.1c-.1.3-.6.9-.8 1.3-.3.5-1.1 1.9-.6 2.4.3.2.7.2 1-.1.1-.1.1-.2.2-.3 0-.2 0-.4.3-.7.3-.3 1-.6 1.5-.2.5.5.3 1.2 0 1.5-.3.3-.4.3-.6.4-.1 0-.2.1-.3.2-.2.3-.2.7.1 1 .6.5 1.9-.5 2.4-.8.4-.3.9-.8 1.2-1 .6-.3 1-.2 1.5-.8.7-.7.6-1.9-.2-2.5-.6-.6-.9-.3-1.5-.8s-.3-.9-.9-1.4c-.7-.7-1.8-.7-2.5.1-.7.7-.6 1.1-.8 1.7zm3.1 9.2c-1.2-2-1.2-2.2-.7-2.9.4-.6.4-.6 1-.9.3-.2.4-.3.3.6-.2 1.9 1 3.2 0 3.6-.2 0-.3.1-.6-.4z" class="st1"/><path d="M104.1 25c-.1.1-1.2 1.7-1.9 1-.3-.3-.8-.9-.5-1.2 1.6-1.4 2.6 0 2.4.2m-4 3.5c.1-.1 1.9-1 1.3-1.7-.2-.3-.8-.9-1.1-.6-1.8 1.3-.5 2.5-.2 2.3zm5.5-1.9c-.5.5-.6 1.3-.1 1.8s1.3.6 1.8.1.6-1.3.1-1.8-1.3-.6-1.8-.1zm-4.2 3.6c-.5.5-.6 1.3-.1 1.8s1.3.6 1.8.1.6-1.3.1-1.8-1.3-.6-1.8-.1zm-2.2.5c0 .1 0 .2-.1.3-.1 0-.2 0-.3-.1-.8-1.3-.7-1.6-.6-2.4 0-.1.1-.2.2-.2s.2.1.2.2c-.1 1.1.2 1.5.6 2.2zm6.4-7.5c-1.5 1.3-1.4-1.7-5.1 1.6-1.6 1.4-3.6 3.8-2.1 6.1.5.8 1.3 2 2 1.4l.5-.4c-.3-.6-.2-1.4.4-1.9.6-.5 1.3-.5 1.9-.1l2-1.7c-.3-.6-.2-1.4.4-1.9.6-.5 1.3-.5 1.9-.1l.5-.4c.7-.6.8-1.7.2-2.5-.8-.7-1.9-.7-2.6-.1z" class="st7"/><path d="M102.1 17.2c.4-.4 1-.7 1.6-.7.6 0 1.2.3 1.6.7.4.4.7 1 .7 1.6 0 .6-.3 1.2-.7 1.6-.4.4-1 .7-1.6.7-.6 0-1.2-.3-1.6-.7-.4-.4-.7-1-.7-1.6 0-.6.3-1.2.7-1.6zm1.6-1.1c-.8 0-1.5.3-2 .8s-.8 1.2-.8 2 .3 1.5.8 2 1.2.8 2 .8 1.5-.3 2-.8.8-1.2.8-2-.3-1.5-.8-2-1.2-.8-2-.8zm-1.3 3.4c-.1-.1-.2-.2-.3-.1-.1.1-.2.2-.1.3.1.2.2.4.4.5.2.1.3.3.6.3.1 0 .3 0 .3-.1s0-.3-.1-.3c-.1-.1-.3-.1-.4-.2-.3-.2-.4-.3-.4-.4zm9.8 2.6c0-.1 0-.2.1-.3.1 0 .2 0 .3.1.6.9.8 1.4.8 2.2 0 .1 0 .2-.2.2-.1 0-.2 0-.2-.2 0-.9-.4-1.3-.8-2zm-5.3-2.5c1.6.4 3.8.3 4.6 4.2.1.6.6 1.4 1.2 1.4 1.1.1 1.2-1.2 1-1.7-1.3-3.8-2.6-4.7-6.7-5.4-.3-1.5-1.6-2.5-3.2-2.5-1.8 0-3.3 1.5-3.3 3.3 0 1.8 1.5 3.3 3.3 3.3 1.5-.1 2.8-1.2 3.1-2.6z" class="st3"/><path d="M110.8 49.5c-.1.1-.2 0-.2-.1-.1-.1 0-.2.1-.2.7-1 .6-2.1.5-3 0-.1.1-.2.2-.2s.2.1.2.2c-.1.4.2 1.9-.8 3.3m-7.4-15.9c0 .1.1.2.2.3-.2.2-.7.6-1 1-.2.3-.4.6-.4 1 0 .2.1.2.3.3.2.1.4.3.6.6 0 .1.4.4.8.6.5.2 1 .5 1.1.4.3-.1.5-.3.8-.6.2-.3.4-.6.5-.9 3.2 3 5.7 10.9 3.6 13.2-.4.5-.4.8-.4 1.2.1.4.6.5.8.5 2-.1 2.5-3.6 1.5-6.7-1.1-3.6-3.7-8.7-7-10.9-.3-.2-1.4-.8-1.4 0zm-.9 2.3c0 .1.1 0 0 0 .1 0 .2.1.3.1l1.1-1.3c.1-.1.2-.1.3 0 .1.1.1.2 0 .3l-1.1 1.3c.1.1.2.3.3.5 0 0 .3.2.6.3l.6-.7c.1-.1.2-.1.2 0 .1.1.1.2 0 .2l-.5.7c.3.1.5.3.6.3.2 0 .4-.2.6-.5.2-.3.4-.6.5-.9 0-.1-.3-.5-.8-.9-.5-.5-1.1-.9-1.4-1l-.9.9c-.2.2-.3.5-.4.7z" class="st3"/><path d="M8.2 23.9c0 .1 0 .2.1.3.1 0 .2 0 .3-.1.1-.2.1-.5.1-.7 0-.2-.2-.5-.3-.6-.1-.1-.2-.1-.3 0-.1 0-.1.1 0 .2s.2.3.2.4c0 .2 0 .3-.1.5" class="st5"/><path d="M91.1 54.6c.1-.1.2-.1.3-.1l.1.1c-.1.2-.2.3-.4.4-.2.1-.3.2-.5.2h-.3c-.1 0-.2 0-.3-.1-.1-.1-.1-.2-.1-.3 0-.1.2-.2.3-.1.1 0 .1 0 .2.1h.2c.1 0 .2-.1.3-.1.1.1.2 0 .2-.1m.6.5c-.2.3-.5.6-.9.6-.4.1-.8 0-1.1-.2-.3-.2-.6-.5-.6-.9-.1-.4 0-.8.2-1.1 1.4-2.3 2.9-4.7 4.3-7-.1-.1-.2-.2-.2-.3 0-.1 0-.3.1-.4.1-.1.2-.2.3-.2.1 0 .3 0 .4.1l2.5 1.6c.1.1.2.2.2.3 0 .1 0 .3-.1.4-.1.1-.2.2-.3.2-.1 0-.3 0-.4-.1-1.6 2.4-3 4.7-4.4 7zm4.3-7.4l.2.1h.1s.1 0 .1-.1v-.1s0-.1-.1-.1L93.8 46h-.1s-.1 0-.1.1v.1s0 .1.1.1l.2.1c.1.1.1.2.1.3l-1.6 2.7 1.7 1.1 1.7-2.7c0-.2.1-.2.2-.1z" class="st0"/><path d="M117.5 10.8c1 .3 1.8.9 1.7 1.6 0 .9-1.5 1.6-3.3 1.6-1.8-.1-3.2-.9-3.2-1.8 0-.6.7-1.2 1.7-1.4.3-.1.3-.1.3.1 0 .1 0 .2-.1.3-.1.2-.3.1-.4.3 0 .1 0 .2.1.3l.3.3c.3.2.7.3 1.1.4.3 0 .6 0 .9-.1.3-.1.6-.2.7-.4.1-.1.1-.2.1-.3v-.2c0-.1-.1-.2-.2-.2-.1-.1-.2-.1-.2-.3.1-.4.2-.3.5-.2m-2.6.5c-.2.2-.4.2.1.6.6.4 2.3.3 2.1-.3l-.1-.1c-.2-.2-.4-.5 0-1.6.1-.3.2-.6.2-1s0-.8-.2-1.1c-.1-.3-.3-.6-.6-.7-.1 0-.2-.1-.4-.1-1.2 0-1.5.5-1.6 1.2 0 .5.1 1.1.2 1.6.1.3.2.7.2.9.2.3.2.5.1.6zm-1.3 2.7c0 .9.9 2.2 2.4 2.2 1.8 0 2.3-1 2.2-2-.1-.6-.1-.3-.6-.2-.5.1-.4 0-.4.4 0 .5-.6 1-1.2.9-.9 0-1.2-.4-1.3-.9-.1-.5.1-.3-.4-.5-.1 0-.2-.1-.3-.1-.2-.1-.4-.2-.4.2z" class="st7"/><path d="M21.9 12.7c-.6.8-1.2 1.1-1.8.9-.7-.3-.9-1.7-.3-3.1.6-1.4 1.6-2.3 2.4-2 .5.2.7.9.6 1.8 0 .2 0 .3-.2.2-.1 0-.2-.1-.2-.2-.1-.2 0-.3-.1-.4-.1-.1-.2-.1-.3 0-.1 0-.2.1-.3.2-.2.2-.5.5-.6.8-.1.2-.2.5-.2.7 0 .3 0 .5.1.6l.2.2c.1 0 .1.1.2.1s.2 0 .2-.1c.1 0 .2-.1.3-.1.2.2.1.2 0 .4m.3-2.2c-.1-.2-.1-.4-.5-.1-.5.4-1 1.8-.4 1.8h.1c.2-.1.5-.2 1.2.5.2.2.4.3.7.4.3.1.6.2.9.2.3 0 .5-.1.7-.3.1-.1.1-.2.2-.3.4-.9.1-1.4-.5-1.6-.4-.2-.9-.2-1.4-.3-.3 0-.6-.1-.8-.1l-.2-.2zm-1.8-1.8c-.8-.3-2 .1-2.5 1.3-.5 1.5.2 2.2 1 2.4.5.1.3 0 .3-.4 0-.5.1-.3-.2-.4-.4-.1-.6-.8-.4-1.2.3-.7.7-.9 1.1-.8.4.1.2.2.5-.2 0-.1.1-.1.2-.2.1-.2.3-.4 0-.5z" class="st7"/><path d="M47.9 59c-.7.7-1.4 1-1.9.7-.7-.4-.6-1.8.1-3.1.8-1.3 1.9-2.1 2.6-1.7.5.3.6 1 .4 1.9-.1.2-.1.3-.2.2-.1 0-.1-.1-.2-.2-.1-.2.1-.2-.1-.4-.1-.1-.2-.1-.3-.1-.1 0-.2.1-.3.1-.2.2-.5.4-.7.7-.2.2-.3.5-.3.7-.1.3 0 .5 0 .6.1.1.1.1.1.2.1.1.1.1.2.1h.2c.1 0 .2-.1.3 0 .4.1.3.1.1.3m.6-2.2c-.1-.2 0-.4-.5-.2-.5.3-1.2 1.6-.6 1.8h.1c.2-.1.5-.1 1.2.7.2.2.4.4.7.5.3.2.6.3.9.3.3 0 .6 0 .8-.2.1-.1.2-.2.2-.3.5-.9.2-1.4-.3-1.7-.4-.2-.9-.3-1.3-.5-.3-.1-.6-.1-.8-.2-.2 0-.3 0-.4-.2zm-1.6-2c-.7-.4-2-.2-2.6 1-.7 1.4-.1 2.2.7 2.5.5.2.3 0 .4-.4.1-.5.1-.3-.2-.4-.4-.2-.5-.9-.3-1.3.4-.7.8-.8 1.2-.6.4.1.2.2.5-.1l.2-.2c.3-.2.5-.3.1-.5z" class="st3"/><path d="M63.6 30.8c-.2-.1-.2.1-.3.2-.3.5-1.8 1.9-2.3 2.1-.1 0-.2.1-.2.3.1.2.2.1.4 0 .7-.5 2.8-2.3 2.4-2.6m-3.4-7.4c1.4-.1 4 .7 2.1 3.1 6.3 2.1 1.1 6.3-1.7 9.2-.5.5-.7.5-.8-.3l-.1-1.2c-.1-.8-.1-.6.5-1.2 2-1.7 5.2-3.9 1.7-5.1-3-1-.5-2.3-.4-2.7.1-.7-.8-.7-1.5-.6-.6.1-.4-.1-.5-.4V24c.1-.5.1-.5.7-.6z" class="st4"/><path d="M65.6 28.8c-.4-.7-.7-1.5-1-2-.4-.8-.7-1.6-.8-2.3-.2-.8-.1-1.5.3-2 .6-.6 2.2-.5 2.9-.4.6.1 1.2.2 1.8.5.6.3 1 .8 1.2 1.6.4 1.5-.1 4.3-1.5 5.6-1.4 1.4-2.1.3-2.9-1m-.4-6.3c-.6 0-1.3 1-.9 1 .2 0 .2-.3.5-.5.2-.1.4-.2.5-.3.1 0 .1-.2-.1-.2zm2.8 6.1c.5-.6 1.2-3.1 1-3.9-.1-.4-.3-.7-.7-.8-.4-.2-.8-.3-1.3-.4-.9-.1-2.2-.2-2 1 .1.6.3 1.2.6 1.9.5.9 1.4 3.3 2.4 2.2z" class="st4"/><path d="M34.8 37.1c.1-.1.2-.1.3 0v.1c-.2.1-.3.2-.5.3H34c-.1 0-.2-.1-.3-.1-.1-.1-.2-.1-.3-.2-.1-.1-.1-.2 0-.3.1-.1.2-.1.3 0 .1.1.1.1.2.1s.1.1.2.1h.4c.1.1.2.1.3 0m.3.7c-.3.2-.8.3-1.1.3-.4-.1-.8-.3-1-.6-.2-.3-.3-.7-.3-1.1.1-.4.3-.8.6-1 2.4-1.7 4.7-3.4 7.1-5.1-.1-.1-.1-.3-.1-.4 0-.1.1-.3.2-.4.1-.1.3-.1.4-.1.1 0 .3.1.4.2l1.9 2.6c.1.1.1.3.1.4 0 .1-.1.3-.2.4h-.4c-.1 0-.3-.1-.4-.2-2.4 1.6-4.8 3.3-7.2 5zm7.4-5.5l.2.2s.1 0 .1.1h.1s0-.1.1-.1v-.1l-2-2.6s-.1 0-.1-.1h-.1s0 .1-.1.1v.1l.2.2c.1.1.1.2-.1.3l-2.7 2 1.3 1.8 2.7-2c.2-.1.3 0 .4.1z" class="st0"/><path d="M1.5 57.5c-.1.2.1.4.4.6.5.2 1.6.5 3.4.7.2 0 .4 0 .4-.2 0-.1 0-.2-.3-.3-.5 0-1.1-.1-1.9-.2-.4-.1-.8-.2-1.1-.4-.4-.2-.8-.4-.9-.2m7.1-7.2c1.6-.1 4.1.8 1.9 3.5 4 2 6.9 4.6 5.3 5.8-.8.5-11.9.1-13.6.3C.5 60.1.7 59.4.6 58c-.1-.8-.2-1.6.6-1.3 6.9 2.7 15.9 1.7 8.6-1.4-3.3-1.1-.2-2.4-.1-2.9.1-.8-.6-.8-1.3-.7-.6.1-.5-.1-.5-.4V51c0-.6.1-.6.7-.7z" class="st2"/><path d="M13.4 53.5c-.5-.8-.8-1.6-.5-2.3.9-2.3 11.3-4.6 8.1 8-.7 2.7-6.9-4.7-7.6-5.7m1-2.7c.1-.3-.1-.4-.3-.2-.3.3-.7.6-.7 1.1 0 .3 0 .6.3.6.3-.1.1-.4.2-.7.1-.3.4-.5.5-.8zm5.1 5c.3-.9.3-3.2-.2-4-.8-1.1-1.6-1.2-2.8-.9-1 .3-2.3 1-1.6 2.2.4.6.7.9 1.3 1.5.9.8 2.8 2.8 3.3 1.2z" class="st2"/><path d="M88.4 46.6c.1.1.1.2 0 .3-.1.1-.2.1-.3 0-1.2-.8-1.3-1.2-1.6-1.9-.1-.1 0-.2.1-.3.1-.1.2 0 .3.1.4 1.1.9 1.4 1.5 1.8M87 42.1c-.2.1-.4.3-.6.6-.2.3-.4.5-.5.7 0 .1-.1.2-.1.2s0-.1.2-.1c.2-.1.4-.3.6-.6.2-.3.3-.6.4-.8.1-.1.2-.1.2-.1-.1-.1-.1 0-.2.1zm-1.1 2c-.2.1-.4 0-.5-.1-.1-.1-.2-.2-.2-.4-.2.8-.1 1.5.1 2.2.3.9 1 1.6 1.9 2 .6.3 1.3.3 1.9.2-1.2-.4-3.6-1.9-3.2-3.8v-.1zm1.3-2.7c.1 0 .2 0 .3.1.2.2.2.5.1.8h.6c1 0 3.2.9 4.3 1.8 0-.4-.1-.8-.2-1.2-.3-.9-1-1.6-1.9-2-.9-.4-1.9-.4-2.8 0 0 0-.1 0-.1.1-.2.1-.2.3-.3.4zM85 42.7c.5-1.1 1.3-1.9 2.3-2.3 1-.4 2.1-.5 3.1 0 1 .4 1.8 1.3 2.1 2.3.4 1 .4 2.2-.1 3.2-.5 1.1-1.3 1.9-2.3 2.3-1 .4-2.1.5-3.1 0-1-.4-1.8-1.3-2.1-2.3-.3-.9-.3-2.1.1-3.2z" class="st7"/><path d="M298.7 84.8c-.2 0-.5-.1-1-.1s-1-.1-1.6-.1c-1.1 0-1.9.2-2.6.7-.7.4-1 1.1-1 2.1 0 .9.3 1.6 1 1.9.7.4 1.5.5 2.6.5h2.6v-5zm-2.2 6.9h-1.6c-.6.9-1.2 1.8-1.7 2.9-.5 1-1 2-1.5 2.8h-2.6c.2-.5.5-1.1.8-1.7.3-.6.6-1.1.9-1.7.3-.5.6-1.1.9-1.5.3-.5.6-.9.9-1.3-.5-.2-.9-.4-1.3-.7-.3-.3-.6-.6-.8-.9-.2-.3-.3-.7-.4-1.1-.1-.4-.1-.8-.1-1.2 0-.8.2-1.5.5-2.1.3-.6.7-1.1 1.3-1.5.5-.4 1.2-.7 1.9-.9.7-.2 1.5-.3 2.4-.3 1.2 0 2.3.1 3.1.2.9.1 1.6.2 2.1.4v14.3h-2.6v-5.6h-2.2zm-11-8.9v14.5H283v-11c-.6.7-1.2 1.5-1.8 2.5-.7.9-1.3 1.9-2 2.9s-1.3 2-1.9 3c-.6 1-1.1 1.9-1.6 2.6h-2.3V82.8h2.5v10.4c.5-.8 1-1.7 1.6-2.6.6-1 1.3-1.9 1.9-2.8.7-.9 1.3-1.8 2-2.7.7-.9 1.3-1.6 1.9-2.2h2.2zM270 85h-6.4v12.3H261V82.8h9V85zm-15.9 5.1c0-1.6-.4-2.9-1.1-3.9-.7-1-1.7-1.4-3-1.4s-2.3.5-3 1.4c-.7 1-1.1 2.3-1.1 3.9s.4 2.9 1.1 3.9c.7 1 1.7 1.4 3 1.4s2.3-.5 3-1.4c.8-1 1.1-2.3 1.1-3.9zm2.7 0c0 1.2-.2 2.2-.5 3.1-.3.9-.8 1.7-1.4 2.4-.6.7-1.3 1.2-2.2 1.5-.8.4-1.7.5-2.7.5-1 0-1.9-.2-2.7-.5-.8-.4-1.6-.9-2.2-1.5-.6-.7-1.1-1.5-1.4-2.4-.3-.9-.5-2-.5-3.1s.2-2.2.5-3.1c.3-.9.8-1.7 1.4-2.4.6-.7 1.3-1.2 2.2-1.5.8-.4 1.7-.5 2.7-.5 1 0 1.9.2 2.7.5.8.4 1.6.9 2.2 1.5.6.7 1.1 1.5 1.4 2.4.4.9.5 1.9.5 3.1zm-25-5.1v2c0 .7-.1 1.4-.2 2.1l-.3 2.1c-.1.7-.3 1.3-.5 1.9-.2.6-.5 1.2-.8 1.7-.3.5-.7 1-1.1 1.4-.4.4-1 .7-1.6 1-.6.3-1.3.4-2.1.5l-.4-2.2c.9-.2 1.6-.5 2.2-1 .5-.5 1-1.1 1.3-1.8.3-.6.5-1.3.6-2.1.1-.8.2-1.6.3-2.5.1-.9.1-1.7.1-2.6V83h9.6v14.5h-2.6V85h-4.5zm-11.9 5.1c0-1.6-.4-2.9-1.1-3.9-.7-1-1.7-1.4-3-1.4s-2.3.5-3 1.4c-.7 1-1.1 2.3-1.1 3.9s.4 2.9 1.1 3.9c.7 1 1.7 1.4 3 1.4s2.3-.5 3-1.4c.7-1 1.1-2.3 1.1-3.9zm2.7 0c0 1.2-.2 2.2-.5 3.1-.3.9-.8 1.7-1.4 2.4-.6.7-1.3 1.2-2.2 1.5-.8.4-1.7.5-2.7.5-1 0-1.9-.2-2.7-.5-.8-.4-1.6-.9-2.2-1.5-.6-.7-1.1-1.5-1.4-2.4-.3-.9-.5-2-.5-3.1s.2-2.2.5-3.1c.3-.9.8-1.7 1.4-2.4.6-.7 1.3-1.2 2.2-1.5.8-.4 1.7-.5 2.7-.5 1 0 1.9.2 2.7.5.8.4 1.6.9 2.2 1.5.6.7 1.1 1.5 1.4 2.4.3.9.5 1.9.5 3.1zm-16.1-7.3V85h-4.7v12.3h-2.6V85h-4.7v-2.2h12zm-20.6-.3c1 0 1.9.1 2.6.4.7.3 1.3.7 1.7 1.1.4.5.7 1.1.9 1.8.2.7.3 1.4.3 2.2v9.1c-.2 0-.5.1-.9.2s-.9.1-1.4.2c-.5.1-1 .1-1.6.2-.6 0-1.2.1-1.7.1-.8 0-1.6-.1-2.3-.3-.7-.2-1.3-.4-1.8-.8s-.9-.8-1.2-1.4c-.3-.6-.4-1.3-.4-2.1s.2-1.5.5-2.1c.3-.6.8-1 1.3-1.4.6-.4 1.2-.6 2-.8.7-.2 1.5-.3 2.3-.3h.8c.3 0 .5.1.8.1.3 0 .5.1.7.1.2 0 .3.1.4.1v-.7c0-.4 0-.9-.1-1.3s-.3-.8-.5-1.1c-.2-.3-.6-.6-1-.8-.4-.2-1-.3-1.6-.3-.9 0-1.6.1-2.2.2-.6.1-1.1.2-1.4.4l-.3-2.1c.3-.1.9-.3 1.7-.4.6-.3 1.4-.3 2.4-.3zm.2 13h1.6c.5 0 .9-.1 1.2-.2V91c-.2-.1-.5-.2-.9-.2-.4-.1-.9-.1-1.5-.1-.4 0-.8 0-1.2.1l-1.2.3c-.4.2-.7.4-.9.7-.2.3-.4.7-.4 1.2 0 .9.3 1.6.9 1.9.5.4 1.4.6 2.4.6zM163 86.7c-.2 1.8-.3 3.7-.4 5.5-.1 1.8-.2 3.6-.2 5.2h-2.5c0-1.1.1-2.3.2-3.6.1-1.2.2-2.5.3-3.7.1-1.3.2-2.5.3-3.7.1-1.2.2-2.4.4-3.5h2.4c.6 1 1.3 2.3 2.1 4 .8 1.7 1.7 3.6 2.8 5.8 1-2.2 2-4.1 2.8-5.8.8-1.7 1.5-3 2.1-4h2.4c.1 1.1.3 2.3.4 3.5.1 1.2.2 2.5.3 3.7.1 1.3.2 2.5.3 3.7.1 1.2.1 2.4.2 3.6h-2.6c-.1-1.6-.1-3.3-.2-5.2-.1-1.8-.2-3.7-.4-5.5-.3.6-.6 1.3-1 2.1s-.8 1.6-1.2 2.5c-.4.8-.7 1.6-1.1 2.4-.3.8-.6 1.4-.8 1.8h-2.2c-.2-.5-.5-1.1-.8-1.8-.3-.8-.7-1.6-1.1-2.4-.4-.8-.8-1.7-1.2-2.5-.7-.9-1-1.6-1.3-2.1zm-9.7 3.4c0-1.6-.4-2.9-1.1-3.9-.7-1-1.7-1.4-3-1.4s-2.3.5-3 1.4c-.7 1-1.1 2.3-1.1 3.9s.4 2.9 1.1 3.9c.7 1 1.7 1.4 3 1.4s2.3-.5 3-1.4c.7-1 1.1-2.3 1.1-3.9zm2.7 0c0 1.2-.2 2.2-.5 3.1-.3.9-.8 1.7-1.4 2.4-.6.7-1.3 1.2-2.2 1.5-.8.4-1.7.5-2.7.5-1 0-1.9-.2-2.7-.5-.8-.4-1.6-.9-2.2-1.5-.6-.7-1.1-1.5-1.4-2.4-.3-.9-.5-2-.5-3.1s.2-2.2.5-3.1c.3-.9.8-1.7 1.4-2.4.6-.7 1.3-1.2 2.2-1.5.8-.4 1.7-.5 2.7-.5 1 0 1.9.2 2.7.5.8.4 1.6.9 2.2 1.5.6.7 1.1 1.5 1.4 2.4.3.9.5 1.9.5 3.1zm-16-7.3V85h-4.7v12.3h-2.6V85H128v-2.2h12zm-17.9 14.9c-1.2 0-2.2-.2-3.1-.6-.9-.4-1.6-.9-2.2-1.6-.6-.7-1.1-1.5-1.4-2.4-.3-.9-.4-1.9-.4-3.1 0-1.1.2-2.1.5-3.1.3-.9.8-1.7 1.4-2.4.6-.7 1.3-1.2 2.2-1.6.9-.4 1.8-.6 2.9-.6.7 0 1.3.1 2 .2s1.3.3 1.9.5l-.6 2.2c-.4-.2-.8-.3-1.4-.4-.5-.1-1.1-.2-1.6-.2-1.4 0-2.6.5-3.3 1.4-.8.9-1.2 2.2-1.2 4 0 .8.1 1.5.3 2.1.2.7.5 1.2.8 1.7.4.5.9.8 1.5 1.1.6.3 1.3.4 2.2.4.7 0 1.3-.1 1.9-.2.6-.1 1-.3 1.3-.4l.4 2.2c-.1.1-.4.2-.6.3-.3.1-.6.2-.9.2-.4.1-.7.1-1.1.2-.8 0-1.1.1-1.5.1zm-20.4-12.9c-.2 0-.5-.1-1-.1s-1-.1-1.6-.1c-1.1 0-1.9.2-2.6.7-.7.4-1 1.1-1 2.1 0 .9.3 1.6 1 1.9.7.4 1.5.5 2.6.5h2.6v-5zm-2.2 6.9h-1.6c-.6.9-1.2 1.8-1.7 2.9-.5 1-1 2-1.5 2.8h-2.6c.2-.5.5-1.1.8-1.7.3-.6.6-1.1.9-1.7.3-.5.6-1.1.9-1.5.3-.5.6-.9.9-1.3-.5-.2-.9-.4-1.3-.7-.3-.3-.6-.6-.8-.9-.2-.3-.3-.7-.4-1.1-.1-.4-.1-.8-.1-1.2 0-.8.2-1.5.5-2.1.3-.6.7-1.1 1.3-1.5.5-.4 1.2-.7 1.9-.9.7-.2 1.5-.3 2.4-.3 1.2 0 2.3.1 3.1.2.9.1 1.6.2 2.1.4v14.3h-2.6v-5.6h-2.2zm-16.4-9.2c1 0 1.9.1 2.6.4.7.3 1.3.7 1.7 1.1.4.5.7 1.1.9 1.8.2.7.3 1.4.3 2.2v9.1c-.2 0-.5.1-.9.2s-.9.1-1.4.2c-.5.1-1 .1-1.6.2-.6 0-1.2.1-1.7.1-.8 0-1.6-.1-2.3-.3-.7-.2-1.3-.4-1.8-.8s-.9-.8-1.2-1.4c-.3-.6-.4-1.3-.4-2.1s.2-1.5.5-2.1c.3-.6.8-1 1.3-1.4.6-.4 1.2-.6 2-.8.7-.2 1.5-.3 2.3-.3h.8c.3 0 .5.1.8.1.3 0 .5.1.7.1.2 0 .3.1.4.1v-.7c0-.4 0-.9-.1-1.3s-.3-.8-.5-1.1c-.2-.3-.6-.6-1-.8-.4-.2-1-.3-1.6-.3-.9 0-1.6.1-2.2.2-.6.1-1.1.2-1.4.4l-.3-2.1c.3-.1.9-.3 1.7-.4.6-.3 1.4-.3 2.4-.3zm.2 13h1.6c.5 0 .9-.1 1.2-.2V91c-.2-.1-.5-.2-.9-.2-.4-.1-.9-.1-1.5-.1-.4 0-.8 0-1.2.1l-1.2.3c-.4.2-.7.4-.9.7-.3.3-.4.7-.4 1.2 0 .9.3 1.6.9 1.9.5.4 1.4.6 2.4.6zm-15.2-6.1c.6.4 1.2.9 1.9 1.5s1.3 1.3 2 2c.6.7 1.2 1.5 1.8 2.2.6.8 1 1.5 1.4 2.1h-3.1c-.4-.6-.9-1.3-1.4-1.9-.5-.7-1.1-1.3-1.7-1.9-.6-.6-1.2-1.2-1.8-1.7-.6-.5-1.2-1-1.7-1.3v6.9h-2.6V82.8h2.6V89c.4-.4 1-.9 1.5-1.5.6-.6 1.2-1.1 1.7-1.7.6-.6 1.1-1.1 1.6-1.7.5-.5.9-1 1.2-1.3h3c-.4.4-.9 1-1.4 1.5-.5.6-1.1 1.1-1.7 1.7-.6.6-1.2 1.2-1.7 1.8-.6.7-1.1 1.2-1.6 1.6zm-12.5 8.3c-1.2 0-2.2-.2-3.1-.6-.9-.4-1.6-.9-2.2-1.6-.6-.7-1.1-1.5-1.4-2.4-.3-.9-.4-1.9-.4-3.1 0-1.1.2-2.1.5-3.1.3-.9.8-1.7 1.4-2.4.6-.7 1.3-1.2 2.2-1.6.9-.4 1.8-.6 2.9-.6.7 0 1.3.1 2 .2s1.3.3 1.9.5l-.6 2.2c-.4-.2-.8-.3-1.4-.4-.5-.1-1.1-.2-1.6-.2-1.4 0-2.6.5-3.3 1.4-.8.9-1.2 2.2-1.2 4 0 .8.1 1.5.3 2.1.2.7.5 1.2.8 1.7.4.5.9.8 1.5 1.1.6.3 1.3.4 2.2.4.7 0 1.3-.1 1.9-.2.6-.1 1-.3 1.3-.4l.4 2.2c-.1.1-.4.2-.6.3-.3.1-.6.2-.9.2-.4.1-.7.1-1.1.2-.7 0-1.1.1-1.5.1zm-9.5-14.9V85h-4.7v12.3h-2.6V85H34v-2.2h12.1zm-17.3 5.9c0-1.2-.3-2.1-.9-2.9-.6-.8-1.4-1.1-2.5-1.1-.6 0-1.1.1-1.6.3-.5.2-.8.5-1.2.9-.3.4-.6.8-.7 1.3-.2.5-.3 1-.3 1.5h7.2zm-9.9 1.4c0-1.3.2-2.4.6-3.4.4-1 .9-1.8 1.5-2.4.6-.6 1.3-1.1 2.1-1.4.8-.3 1.6-.5 2.5-.5 2 0 3.4.6 4.5 1.8 1 1.2 1.6 3.1 1.6 5.6v.9h-9.9c.1 1.5.5 2.6 1.3 3.4.8.8 2 1.2 3.6 1.2.9 0 1.7-.1 2.3-.2.6-.2 1.1-.3 1.4-.5l.4 2.2c-.3.2-.9.3-1.7.5-.8.2-1.7.3-2.7.3-1.3 0-2.4-.2-3.3-.6-.9-.4-1.7-.9-2.3-1.6-.6-.7-1-1.5-1.3-2.4-.5-.8-.6-1.8-.6-2.9zm-7.2 5.1V85H7.2c0 .9-.1 1.8-.1 2.6-.1.9-.2 1.8-.4 2.6-.2.9-.4 1.8-.7 2.6-.3.8-.7 1.6-1.2 2.4h6.9zm-11.2 0h1.6c.6-.9 1.1-1.8 1.5-2.8.4-.9.6-1.9.8-2.9.2-1 .3-2.1.4-3.2.1-1.1.1-2.3.1-3.5h9.5v12.4h2v6.2h-2.5v-4H3v4H.5v-6.2z" class="st9"/><path d="M316.9 84.9c-.3.6 1 6.2.7 8.7-.2 2.3 2.8 2.3 2.9.4.5-8.1 2.5 2.4 4 1.7 3.5-1.7 2.5-.8-.2-4.8-.4-.6-.6-1.2-.6-1.6-.2-3 5.6-6-.5-5.5-1.5.1-1.4 7.6-3.5 1.8-.5-1.6-2.6-1.1-2.8-.7m5-5.9c6 0 10.8 4.8 10.8 10.8 0 6-4.8 10.8-10.8 10.8-6 0-10.8-4.8-10.8-10.8-.1-6 4.8-10.8 10.8-10.8z" class="st0"/><path d="M348.9 94.6c-.2 1 3.2 1.8 3.3.5.2-2.3-.2-11.1-2.8-11.3-1.9-.2-1.1 1.1-.9 3 .2 2.8.6 6.7.4 7.8m1.3-15.6c6 0 10.8 4.8 10.8 10.8 0 6-4.8 10.8-10.8 10.8-6 0-10.8-4.8-10.8-10.8-.1-6 4.8-10.8 10.8-10.8z" class="st7"/><path d="M377.8 86.8c1.5-.2 3 4.2 1.1 5.5-2.2 1.4-2.1-5.4-1.1-5.5m-4.3-2.6c.8 2.7.8 7.1.8 9.9 0 2.1 3 1.8 4.6 1.7 5.1-.3 8-11.4-3.4-12.2-.4 0-2.1.2-2 .6zm4.9-5.2c6 0 10.8 4.8 10.8 10.8 0 6-4.8 10.8-10.8 10.8-6 0-10.8-4.8-10.8-10.8 0-6 4.9-10.8 10.8-10.8z" class="st1"/><path d="M404.1 88.7c.9.8 4.2 2.5 3.2 4-.4.7-1.8 0-2.8-.2-1-.2-.7-.4-1.5.2-1.3.9-1.4 1.6.6 2.9 1.8 1.1 4.4 1.3 6-.1 5.3-4.2-3.6-7.7-3.7-8.9 0-.7 1-.8 2.1-.9 1.5-.1 1.8 0 1.3-1.6-.4-1.2-.5-1.1-1.6-.9-2.3.4-7.8 1.6-3.6 5.5m2.6-9.7c6 0 10.8 4.8 10.8 10.8 0 6-4.8 10.8-10.8 10.8-6 0-10.8-4.8-10.8-10.8 0-6 4.9-10.8 10.8-10.8z" class="st3"/></g><g id="Layer_2" class="st10"><path d="M413 82.5c.9 0 1.6.1 2.2.3.6.2 1.1.5 1.4.9.4.4.6.9.8 1.4.2.6.2 1.2.2 1.8v7.4c-.2 0-.4.1-.8.1-.3.1-.7.1-1.1.1-.4 0-.9.1-1.3.1-.5 0-1 .1-1.4.1-.7 0-1.3-.1-1.8-.2-.6-.1-1-.4-1.5-.6-.4-.3-.7-.7-1-1.2-.2-.5-.3-1.1-.3-1.8s.1-1.2.4-1.7c.3-.5.6-.9 1.1-1.1.5-.3 1-.5 1.6-.6.6-.1 1.2-.2 1.9-.2h.7c.2 0 .4.1.6.1.2 0 .4.1.5.1.2 0 .3.1.3.1V87c0-.3 0-.7-.1-1-.1-.3-.2-.6-.4-.9-.2-.3-.5-.5-.8-.6-.3-.2-.8-.2-1.3-.2-.7 0-1.3 0-1.8.1s-.9.2-1.2.3l-.3-1.8c.3-.1.7-.2 1.4-.4h2m.2 10.6h1.3c.4 0 .7-.1 1-.1v-3.5c-.2-.1-.4-.1-.7-.2-.3-.1-.8-.1-1.2-.1-.3 0-.7 0-1 .1-.4 0-.7.1-1 .3-.3.1-.5.3-.7.6-.2.3-.3.6-.3 1 0 .8.2 1.3.7 1.6.4.1 1 .3 1.9.3zm-16.9-4.9c.5.3 1 .8 1.5 1.3s1.1 1.1 1.6 1.7l1.5 1.8c.5.6.8 1.2 1.2 1.7h-2.5c-.3-.5-.7-1-1.2-1.6-.4-.5-.9-1.1-1.4-1.6-.5-.5-1-1-1.5-1.4-.5-.4-1-.8-1.4-1.1v5.6H392V82.8h2.1v5.1c.4-.3.8-.8 1.3-1.2l1.4-1.4c.5-.5.9-.9 1.3-1.4.4-.4.7-.8 1-1.1h2.5c-.3.4-.7.8-1.2 1.2-.4.5-.9.9-1.4 1.4l-1.4 1.4c-.5.6-.9 1-1.3 1.4zm-12.9-5.4v11.9h-2.1v-9c-.5.6-1 1.3-1.5 2-.5.8-1.1 1.6-1.6 2.4-.5.8-1.1 1.6-1.6 2.5-.5.8-.9 1.5-1.3 2.1h-1.9V82.8h2.1v8.5c.4-.7.8-1.4 1.3-2.2.5-.8 1-1.6 1.6-2.3.5-.8 1.1-1.5 1.6-2.2.5-.7 1-1.3 1.5-1.8h1.9zm-18.6 11.8h-2.1v-5.2h-5.5v5.2h-2.1V82.8h2.1v4.8h5.5v-4.8h2.1v11.8zm-18.3-11.8v11.9h-2.1v-9c-.5.6-1 1.3-1.5 2-.5.8-1.1 1.6-1.6 2.4-.5.8-1.1 1.6-1.6 2.5-.5.8-.9 1.5-1.3 2.1h-1.9V82.8h2.1v8.5c.4-.7.8-1.4 1.3-2.2.5-.8 1-1.6 1.6-2.3.5-.8 1.1-1.5 1.6-2.2.5-.7 1-1.3 1.5-1.8h1.9zm-24.4 1.7v1.6c0 .6-.1 1.1-.1 1.7-.1.6-.1 1.1-.3 1.7-.1.6-.2 1.1-.4 1.6s-.4.9-.6 1.4c-.3.4-.6.8-.9 1.1-.4.3-.8.6-1.3.8-.5.2-1.1.4-1.7.4l-.3-1.8c.7-.2 1.3-.4 1.8-.8.4-.4.8-.9 1-1.5.2-.5.4-1.1.5-1.8.1-.7.2-1.3.2-2s.1-1.4.1-2.1v-2h7.9v11.9h-2.1V84.5h-3.8zm-17.5 3.7c.5.3 1 .8 1.5 1.3s1.1 1.1 1.6 1.7l1.5 1.8c.5.6.8 1.2 1.2 1.7h-2.5c-.3-.5-.7-1-1.2-1.6-.4-.5-.9-1.1-1.4-1.6-.5-.5-1-1-1.5-1.4-.5-.4-1-.8-1.4-1.1v5.6h-2.1V82.8h2.1v5.1c.4-.3.8-.8 1.3-1.2l1.4-1.4c.5-.5.9-.9 1.3-1.4.4-.4.7-.8 1-1.1h2.5c-.3.4-.7.8-1.2 1.2-.4.5-.9.9-1.4 1.4l-1.4 1.4c-.5.6-.9 1-1.3 1.4zm-20.3-3.9c-.2 0-.4-.1-.8-.1h-1.3c-.9 0-1.6.2-2.1.5-.5.4-.8.9-.8 1.7 0 .8.3 1.3.8 1.6.5.3 1.3.4 2.1.4h2.1v-4.1zm-1.9 5.7H281.1c-.5.7-1 1.5-1.4 2.3-.4.8-.8 1.6-1.2 2.3h-2.1c.2-.4.4-.9.6-1.4.2-.5.5-.9.7-1.4.3-.4.5-.9.8-1.3.3-.4.5-.8.7-1.1-.4-.2-.8-.3-1-.6-.3-.2-.5-.5-.7-.7-.2-.3-.3-.6-.4-.9-.1-.3-.1-.6-.1-.9 0-.7.1-1.3.4-1.8.3-.5.6-.9 1-1.2.4-.3 1-.6 1.6-.7.6-.2 1.3-.3 2-.3 1 0 1.9 0 2.6.1.7.1 1.3.2 1.8.3v11.7h-2.1V90h-1.9zm-17.9-7.5c.9 0 1.6.1 2.2.3.6.2 1.1.5 1.4.9.4.4.6.9.8 1.4.2.6.2 1.2.2 1.8v7.4c-.2 0-.4.1-.8.1-.3.1-.7.1-1.1.1-.4 0-.9.1-1.3.1-.5 0-1 .1-1.4.1-.7 0-1.3-.1-1.8-.2-.6-.1-1-.4-1.5-.6-.4-.3-.7-.7-1-1.2-.2-.5-.3-1.1-.3-1.8s.1-1.2.4-1.7c.3-.5.6-.9 1.1-1.1.5-.3 1-.5 1.6-.6.6-.1 1.2-.2 1.9-.2h.7c.2 0 .4.1.6.1.2 0 .4.1.5.1.2 0 .3.1.3.1V87c0-.3 0-.7-.1-1-.1-.3-.2-.6-.4-.9-.2-.3-.5-.5-.8-.6-.3-.2-.8-.2-1.3-.2-.7 0-1.3 0-1.8.1s-.9.2-1.2.3l-.3-1.8c.3-.1.7-.2 1.4-.4h2zm.2 10.6h1.3c.4 0 .7-.1 1-.1v-3.5c-.2-.1-.4-.1-.7-.2-.3-.1-.8-.1-1.2-.1-.3 0-.7 0-1 .1-.4 0-.7.1-1 .3-.3.1-.5.3-.7.6-.2.3-.3.6-.3 1 0 .8.2 1.3.7 1.6.4.1 1.1.3 1.9.3zm-16.9-4.9c.5.3 1 .8 1.5 1.3s1.1 1.1 1.6 1.7l1.5 1.8c.5.6.8 1.2 1.2 1.7h-2.5c-.3-.5-.7-1-1.2-1.6-.4-.5-.9-1.1-1.4-1.6-.5-.5-1-1-1.5-1.4-.5-.4-1-.8-1.4-1.1v5.6h-2.1V82.8h2.1v5.1c.4-.3.8-.8 1.3-1.2l1.4-1.4c.5-.5.9-.9 1.3-1.4.4-.4.7-.8 1-1.1h2.5c-.3.4-.7.8-1.2 1.2-.4.5-.9.9-1.4 1.4l-1.4 1.4c-.5.6-.9 1-1.3 1.4zm-14.7 6.7c-1 0-1.8-.2-2.5-.5s-1.3-.7-1.8-1.3c-.5-.5-.9-1.2-1.1-1.9-.2-.8-.4-1.6-.4-2.5 0-.9.1-1.7.4-2.5.3-.8.6-1.4 1.1-2 .5-.6 1.1-1 1.8-1.3.7-.3 1.5-.5 2.4-.5.5 0 1.1 0 1.6.1s1 .2 1.5.4l-.5 1.8c-.3-.2-.7-.3-1.1-.4-.4-.1-.9-.1-1.3-.1-1.2 0-2.1.4-2.7 1.1-.6.7-.9 1.8-.9 3.3 0 .6.1 1.2.2 1.8.1.5.4 1 .7 1.4.3.4.7.7 1.2.9.5.2 1.1.3 1.8.3.6 0 1.1-.1 1.5-.2.5-.1.8-.2 1.1-.3l.3 1.8c-.1.1-.3.1-.5.2s-.5.1-.8.2c-.3.1-.6.1-.9.1-.5.1-.8.1-1.1.1zm-15.4-7.3c0-1-.2-1.7-.7-2.4-.5-.6-1.2-.9-2-.9-.5 0-.9.1-1.3.3-.4.2-.7.4-.9.7-.3.3-.5.7-.6 1l-.3 1.2h5.8zm-8.1 1.1c0-1 .2-2 .5-2.7.3-.8.7-1.4 1.2-1.9s1.1-.9 1.7-1.2c.7-.3 1.3-.4 2-.4 1.6 0 2.8.5 3.7 1.5.9 1 1.3 2.5 1.3 4.5v.8h-8.1c.1 1.2.4 2.2 1.1 2.8.6.6 1.6 1 2.9 1 .7 0 1.4-.1 1.9-.2s.9-.3 1.2-.4l.3 1.8c-.3.1-.7.3-1.4.4-.6.2-1.4.2-2.2.2-1 0-1.9-.2-2.7-.5-.8-.3-1.4-.7-1.9-1.3-.5-.5-.8-1.2-1.1-1.9-.3-.8-.4-1.6-.4-2.5zm-15.1-5.9v3.5c0 .9.2 1.5.7 1.9.5.4 1.1.5 1.9.5.6 0 1.1 0 1.4-.1.4-.1.7-.1 1-.2v-5.6h2.1v11.9h-2.1V90c-.1 0-.3.1-.5.1s-.4.1-.7.1c-.3 0-.5.1-.8.1h-.8c-.7 0-1.2-.1-1.8-.2-.5-.1-1-.4-1.4-.7-.4-.3-.7-.7-.9-1.3-.2-.5-.3-1.2-.3-2v-3.5h2.2zm-10 0v11.9h-2.1v-9c-.5.6-1 1.3-1.5 2-.5.8-1.1 1.6-1.6 2.4-.5.8-1.1 1.6-1.6 2.5-.5.8-.9 1.5-1.3 2.1h-1.9V82.8h2.1v8.5c.4-.7.8-1.4 1.3-2.2.5-.8 1-1.6 1.6-2.3.5-.8 1.1-1.5 1.6-2.2.5-.7 1-1.3 1.5-1.8h1.9zm-17.1 1.7h-5.2v10.1h-2.1V82.8h7.3v1.7zm-17.5 4.2c0-1.3-.3-2.4-.9-3.2-.6-.8-1.4-1.2-2.5-1.2s-1.8.4-2.4 1.2c-.6.8-.9 1.8-.9 3.2 0 1.3.3 2.4.9 3.2.6.8 1.4 1.2 2.4 1.2s1.9-.4 2.5-1.2c.6-.8.9-1.9.9-3.2zm2.2 0c0 .9-.1 1.8-.4 2.6-.3.8-.7 1.4-1.2 2-.5.5-1.1 1-1.8 1.3-.7.3-1.4.4-2.2.4-.8 0-1.5-.1-2.2-.4-.7-.3-1.3-.7-1.8-1.3-.5-.5-.9-1.2-1.2-2-.3-.8-.4-1.6-.4-2.6 0-.9.1-1.8.4-2.5.3-.8.7-1.4 1.2-2 .5-.5 1.1-1 1.8-1.3.7-.3 1.4-.4 2.2-.4.8 0 1.6.1 2.2.4.7.3 1.3.7 1.8 1.3.5.5.9 1.2 1.2 2 .3.7.4 1.6.4 2.5zm-24.9-4.2v1.6c0 .6-.1 1.1-.1 1.7-.1.6-.1 1.1-.3 1.7-.1.6-.2 1.1-.4 1.6s-.4.9-.6 1.4c-.3.4-.6.8-.9 1.1-.4.3-.8.6-1.3.8-.5.2-1.1.4-1.7.4l-.3-1.8c.7-.2 1.3-.4 1.8-.8.4-.4.8-.9 1-1.5.2-.5.4-1.1.5-1.8.1-.7.2-1.3.2-2s.1-1.4.1-2.1v-2h7.9v11.9H131V84.5h-3.8zm-14.3 4.2c0-1.3-.3-2.4-.9-3.2-.6-.8-1.4-1.2-2.5-1.2-1 0-1.9.4-2.5 1.2-.6.8-.9 1.8-.9 3.2 0 1.3.3 2.4.9 3.2.6.8 1.4 1.2 2.5 1.2 1 0 1.9-.4 2.5-1.2.6-.8.9-1.9.9-3.2zm2.2 0c0 .9-.1 1.8-.4 2.6-.3.8-.7 1.4-1.2 2-.5.5-1.1 1-1.8 1.3-.7.3-1.4.4-2.2.4-.8 0-1.6-.1-2.2-.4-.7-.3-1.3-.7-1.8-1.3-.5-.5-.9-1.2-1.2-2-.3-.8-.4-1.6-.4-2.6 0-.9.1-1.8.4-2.5.3-.8.7-1.4 1.2-2 .5-.5 1.1-1 1.8-1.3.7-.3 1.4-.4 2.2-.4.8 0 1.5.1 2.2.4.7.3 1.3.7 1.8 1.3.5.5.9 1.2 1.2 2 .3.7.4 1.6.4 2.5zm-17.6-5.9v1.8h-3.9v10.1h-2.1V84.5h-3.9v-1.8h9.9zm-21.4-.3c.9 0 1.6.1 2.2.3.6.2 1.1.5 1.4.9.4.4.6.9.8 1.4.2.6.2 1.2.2 1.8v7.4c-.2 0-.4.1-.8.1-.3.1-.7.1-1.1.1-.4 0-.9.1-1.3.1-.5 0-1 .1-1.4.1-.7 0-1.3-.1-1.8-.2-.6-.1-1-.4-1.5-.6-.4-.3-.7-.7-1-1.2-.2-.5-.3-1.1-.3-1.8s.1-1.2.4-1.7c.3-.5.6-.9 1.1-1.1.5-.3 1-.5 1.6-.6.6-.1 1.2-.2 1.9-.2h.7c.2 0 .4.1.6.1.2 0 .4.1.5.1.2 0 .3.1.3.1V87c0-.3 0-.7-.1-1-.1-.3-.2-.6-.4-.9-.2-.3-.5-.5-.8-.6-.3-.2-.8-.2-1.3-.2-.7 0-1.3 0-1.8.1s-.9.2-1.2.3l-.3-1.7c.3-.1.7-.2 1.4-.4.6-.1 1.3-.1 2-.1zm.2 10.6h1.3c.4 0 .7-.1 1-.1v-3.5c-.2-.1-.4-.1-.7-.2-.3-.1-.8-.1-1.2-.1-.3 0-.7 0-1 .1-.4 0-.7.1-1 .3-.3.1-.5.3-.7.6-.2.3-.3.6-.3 1 0 .8.2 1.3.7 1.6.4.1 1.1.3 1.9.3zm-23.4-7.2c-.2 1.5-.3 3-.3 4.5-.1 1.5-.1 2.9-.2 4.2h-2c0-.9.1-1.9.1-2.9.1-1 .1-2 .2-3.1l.3-3c.1-1 .2-1.9.3-2.9h1.9c.5.8 1.1 1.9 1.7 3.2.7 1.4 1.4 3 2.3 4.8.9-1.8 1.6-3.4 2.3-4.8.7-1.4 1.2-2.5 1.7-3.2h2c.1.9.2 1.9.3 2.9l.3 3c.1 1 .1 2 .2 3.1.1 1 .1 2 .1 2.9H62c0-1.3-.1-2.7-.2-4.2l-.3-4.5c-.2.5-.5 1-.8 1.7-.3.7-.6 1.3-.9 2-.3.7-.6 1.3-.9 2-.3.6-.5 1.1-.6 1.5h-1.8c-.2-.4-.4-.9-.7-1.5-.3-.6-.6-1.3-.9-2-.3-.7-.6-1.4-.9-2-.5-.7-.8-1.3-1.1-1.7zm-12.4 2.8c0-1.3-.3-2.4-.9-3.2-.6-.8-1.4-1.2-2.5-1.2-1 0-1.8.4-2.5 1.2-.6.8-.9 1.8-.9 3.2 0 1.3.3 2.4.9 3.2.6.8 1.4 1.2 2.5 1.2 1 0 1.9-.4 2.5-1.2.6-.8.9-1.9.9-3.2zm2.2 0c0 .9-.1 1.8-.4 2.6-.3.8-.7 1.4-1.2 2-.5.5-1.1 1-1.8 1.3-.7.3-1.4.4-2.2.4-.8 0-1.5-.1-2.2-.4-.7-.3-1.3-.7-1.8-1.3-.5-.5-.9-1.2-1.2-2-.3-.8-.4-1.6-.4-2.6 0-.9.1-1.8.4-2.5.3-.8.7-1.4 1.2-2 .5-.5 1.1-1 1.8-1.3.7-.3 1.4-.4 2.2-.4.8 0 1.5.1 2.2.4.7.3 1.3.7 1.8 1.3.5.5.9 1.2 1.2 2 .3.7.4 1.6.4 2.5zm-17.6-5.9v1.8h-3.9v10.1h-2.1V84.5h-3.9v-1.8h9.9zM6 94.9c-1 0-1.8-.2-2.5-.5s-1.3-.7-1.8-1.3c-.5-.5-.9-1.2-1.1-1.9-.2-.8-.4-1.6-.4-2.5 0-.9.1-1.7.4-2.5.3-.8.6-1.4 1.1-2 .5-.6 1.1-1 1.8-1.3.7-.3 1.5-.5 2.4-.5.5 0 1.1 0 1.6.1.5.2 1 .3 1.5.5l-.5 1.8c-.3-.2-.7-.3-1.1-.4-.4-.1-.9-.1-1.3-.1-1.2 0-2.1.4-2.7 1.1-.6.7-.9 1.8-.9 3.3 0 .6.1 1.2.2 1.8.1.5.4 1 .7 1.4.3.4.7.7 1.2.9.4.1 1 .2 1.7.2.6 0 1.1-.1 1.5-.2.5-.1.8-.2 1.1-.3l.3 1.8c-.1.1-.3.1-.5.2s-.5.1-.8.2c-.3.1-.6.1-.9.1-.4.1-.7.1-1 .1z" class="st11"/><path d="M11.9 42.1H8.2h-.1v2H12V42.2v-.1h-.1M3.2 42c0 .1-.2.2-.3.2-.1 0-.2-.2-.2-.3 0-.1.1-.2.2-.3.1-.1.2-.1.3-.2.1 0 .2-.1.3-.1h.3c.1 0 .2.2.1.3 0 .1-.2.2-.3.1h-.1-.1s-.1 0-.1.1c-.1.1-.1.1-.1.2zm-.4.9c.1.2.1.6.2.9.1.3.3 1.3.7 1.3.1 0 .3-.1.3-.3v-.2c-.1-.1-.1-.2-.1-.4s.2-.7.6-.7c.4 0 .6.4.6.7 0 .2-.1.3-.1.4v.2c0 .2.2.4.4.4.4 0 .6-1 .7-1.3-.1-.3-.1-.8 0-1 .1-.3.4-.5.4-.9 0-.6-.5-1-1.1-1-.5 0-.5.2-1 .3-.4 0-.4-.3-.9-.3-.6 0-1.1.4-1.1 1 0 .5.2.6.4.9zM20 40.7c-.3-.3-.7-.5-1.1-.5-.4 0-.8.2-1.1.5-.3.3-.5.7-.5 1.1 0 .4.2.8.5 1.1.3.3.7.5 1.1.5.4 0 .8-.2 1.1-.5.3-.3.5-.7.5-1.1 0-.4-.2-.8-.5-1.1zm-1.1-.9c.6 0 1.1.2 1.5.6.4.4.6.9.6 1.5s-.2 1.1-.6 1.5c-.4.4-.9.6-1.5.6s-1.1-.2-1.5-.6c-.4-.4-.6-.9-.6-1.5s.2-1.1.6-1.5c.4-.4 1-.6 1.5-.6zm.2 1.4c-.1 0-.3 0-.3-.2 0-.1 0-.3.2-.3h.4c.1 0 .3.1.4.2.1 0 .1.1.2.2 0 .1.1.1.1.2s0 .3-.1.3-.3 0-.3-.1v-.1s0-.1-.1-.1c0 0-.1-.1-.2-.1h-.3zm-7.2 6.2c.1-.1.2-.2.3-.1.1.1.2.2.1.3-.2.4-.5 1.6-.5 2.2 0 .1-.1.2-.2.2s-.2-.1-.2-.2c0-.5.3-1.9.5-2.4zm7-8.2c1.4 0 2.6 1.2 2.6 2.6 0 1.4-1.2 2.6-2.6 2.6-.9 0-1.8-.5-2.2-1.3-2 1.4-3.1 2.7-3.9 7.6-.1.5-.4.9-.9.9s-1-.6-1-1.1c.4-3.6 1.7-6.7 5.4-8.1 0-.2-.1-.4-.1-.6.1-1.4 1.3-2.6 2.7-2.6zm15-22.6c0-.1 0-.3.1-.3s.3 0 .3.1c.4 1.1.9 2.8.6 4 0 .1-.2.2-.3.2-.1 0-.2-.2-.2-.3.3-1.1-.1-2.7-.5-3.7zm-6.8 12.7c0 .1 0 .2-.2.2-.1 0-.2 0-.2-.2v-.1-.1c0-.1 0-.2.1-.3 0-.1.1-.2.2-.3.1-.1.2-.1.3 0 .1.1.1.2 0 .3 0 0-.1.1-.1.2v.2c-.1 0-.1.1-.1.1zm2.3-1.2c-.3-.3-.8-.5-1.2-.5-.5 0-.9.2-1.2.5-.3.3-.5.8-.5 1.2 0 .5.2.9.5 1.2.3.3.8.5 1.2.5.5 0 .9-.2 1.2-.5.3-.3.5-.8.5-1.2 0-.4-.2-.8-.5-1.2zm-1.3-.9c.6 0 1.1.2 1.5.6.4.4.6.9.6 1.5s-.2 1.1-.6 1.5c-.4.4-.9.6-1.5.6s-1.1-.2-1.5-.6c-.4-.3-.6-.8-.6-1.4 0-.6.2-1.1.6-1.5.4-.4.9-.7 1.5-.7zm0-.4c.8 0 1.6.4 2.1 1 4.3-3.1 4.5-9 3.4-11-.9-1.6.4-2.7 1.2-2 1.9 1.9 2.1 10.9-4.1 14.2v.3c0 1.4-1.2 2.6-2.6 2.6s-2.6-1.2-2.6-2.6c.1-1.4 1.2-2.5 2.6-2.5zM41 59.6c-.4.6-1.1 1.1-1.9 1.1-1.2 0-2.1-1-2.1-2.1 0-.2 0-.4.1-.6l3.9 1.6zm-1.8-3.3c1.2 0 2.1 1 2.1 2.1 0 .2 0 .4-.1.6l-3.9-1.7c.4-.5 1.1-1 1.9-1zM1.9 28.8c0 .1-.1.2-.2.3h-.2c0-.2 0-.4.1-.6.1-.5.2-.7.4-.8.1-.1.2-.1.3-.2.1 0 .2-.1.4-.1.1 0 .2.1.2.2s-.1.3-.2.3-.2 0-.2.1c-.1 0-.1.1-.2.1-.1.1-.2.2-.2.3-.1.1-.2.3-.2.4zm-.8-.2c0-.5.2-.9.5-1.2.3-.2.7-.4 1.1-.4.4 0 .9.2 1.2.5.3.3.5.7.5 1.2V38c.2 0 .3.1.4.2.2.1.2.2.2.4s0 .3-.2.4c-.1.1-.3.2-.4.2H1c-.2 0-.3-.1-.4-.2-.1-.1-.2-.3-.2-.4 0-.2.1-.3.2-.4.1-.2.3-.2.4-.2.1-3.2.1-6.3.1-9.4zm.2 9.8H1 .9v.2h3.6v-.1-.1h-.4c-.1 0-.2-.1-.2-.2v-3.6H1.6v3.6c0 .1-.1.2-.3.2zm55.4 20.2l-2.3-4.1c-.1 0-.1.1-.2.1-.3.2-.8.5-1.2.7-.2.1-.3.2-.5.3-.4.3-.5.4-.5.4l.2.2c.1.1.1.2.2.3l1.8-1.1c.1-.1.2 0 .3.1.1.1 0 .2 0 .3l-1.8 1.1c.1.1.1.2.2.3.3.5.7 1.1 1 2l1.4-.9c.1-.1.2 0 .3.1.1.1 0 .2 0 .3l-1.5 1c0 .1.1.3.1.5h.2c.2 0 .4-.1.6-.2.7-.3 1.6-.9 1.9-1.3-.2 0-.2-.1-.2-.1zm.9 1.4l-.6-1c-.3.4-1.2 1-2 1.4-.3.1-.5.2-.7.2-.3 0-.5 0-.6-.2-.1-.1-.1-.2-.1-.2-.2-1.3-.7-2.1-1.1-2.7-.1-.1-.1-.2-.2-.3 0-.1-.1-.1-.1-.1-.1-.2-.2-.3-.3-.4-.2-.2-.3-.4-.3-.6 0-.2.3-.3.7-.6.1-.1.3-.2.5-.3.4-.3.8-.6 1.2-.8.1 0 .1-.1.2-.1l-6.4-11.4c-.6-1.1.8-1.7 1.3-.7l9.8 17.4c.6.8-.9 1.2-1.3.4zM39.9 48.2l2.8 2.3.5.4-.6.6-.5-.4-.7.7.5.4-.6.6-.5-.4-.7.7.5.4-.6.6-.5-.4-.7.7.5.4-.6.6-.6-.4-.6.6c-.4.4-1 .5-1.4.1-.4-.3-.4-.9-.1-1.4l.5-.7-.5-.4.5-.7.5.4.5-.9-.5-.4.5-.7.5.4.5-.9-.6-.4.5-.7.5.4.5-.9-.5-.4.5-.7.5.5zm2.5-4.4c-.1.1-.3.1-.3 0-.1-.1-.1-.3 0-.3.2-.1.4-.2.6-.2h.6c.1 0 .2.1.3.1.1.1.2.1.3.2.1.1.1.2 0 .3-.1.1-.2.1-.3 0 0-.1-.1-.1-.2-.1s-.1-.1-.2-.1h-.4c-.2 0-.3 0-.4.1zm2-.5l.9 1.2 1.3.6c1.2.5 1.4 2.5.3 3.2l-3.2 2.3-4.3-3.5 1.7-3.5c.7-1.1 2.6-1.3 3.3-.3zm-8.7-6.8c4.1.4 5.8.9 9.7 2.3-2.5 1.2-8.3 0-9.7-2.3zm5.4-1.5c-.1.1-.3.1-.4.2-.2.1-.4-.2-.5-.3-.8-1-4.1-.4-5.9.7-.4.3-.7.4-.6.9.1 1.6 2.5 3.9 5.4 4.7 3.5 1 7.4.2 8.4-2.2 0-.1 0-.2-.1-.4-1.2-1.3-4.4-4.3-6.3-3.6zM20.9 20.3l.2 2.9c0 .6-.7.9-1.4.9l-2.5.1c-.2 0-.3-.2-.3-.4 0-.5-.2-.9-.2-1.4 0-.4 0-.6.3-.6.8-.1 1.3-.6 1.8-1.8.2-.5.2-.4.7-.3l1.2.2c.1 0 .2.2.2.4zm.5-5.2c.1.3 0 .5-.3.6h-.2v3c0 .5 0 .5-.5.4-.1 0-.2 0-.3-.1-.2 0-.2-.1-.4-.1-.4-.1-.4-.1-.2-.6.2-.4.4-.9.6-1.3l.6-1.4v-.1c-.1-.1-.2-.1-.2-.3-.1-.3 0-.5.3-.6.2.1.5.2.6.5zm-5.2 7.6c.1.4.2.9-.1 1.1-.1 0-.2.1-.3.1-.4.2-.4.2-.6-.2-.1-.1-.1-.2-.1-.3-.2-.5-.2-.4.2-.7.2-.1.3-.2.5-.3.3-.2.3-.1.4.3zm1.7-.6c-.1.1-.3 0-.3-.1-.1-.1 0-.3.1-.3.2-.1.4-.3.6-.4.2-.2.3-.4.5-.6.1-.1.2-.1.3-.1.1.1.1.2.1.3-.2.2-.3.5-.5.7-.3.2-.6.4-.8.5zm-6.2 2c.1-.1.3 0 .3.1.1.1 0 .3-.1.3l-.4.2c-.9.6-1.5 1-2.1 1.2-.1 0-.3 0-.3-.1s0-.3.1-.3c.5-.2 1.2-.6 2-1.2l.5-.2zm2.7-1.4l.8 2.7c.2.5 0 1.1-.4 1.3-1.8.9-9 6.8-9.2 3.9l-.2-3c0-.5-.1-1.2.4-1.3 2.4-.7 5.5-2 7.4-4 .3-.4 1.1-.1 1.2.4zm24.8-9.5c-.1.1-.3.1-.3 0-.1-.1-.1-.3 0-.3.4-.3.8-.5 1.2-.6.4-.1.9-.1 1.3-.1.1 0 .2.1.2.3s-.1.2-.3.2c-.4-.1-.8 0-1.1 0-.3.1-.7.3-1 .5zm1.6 5.3c1 0 1.8-.4 2.5-1 .6-.6 1-1.5 1-2.5s-.4-1.8-1-2.5c-.6-.6-1.5-1-2.5-1s-1.8.4-2.5 1c-.6.6-1 1.5-1 2.5s.4 1.8 1 2.5 1.5 1 2.5 1zm0 .5c-1.1 0-2.1-.4-2.8-1.1-.7-.7-1.2-1.7-1.2-2.8 0-1.1.4-2.1 1.1-2.8.7-.7 1.7-1.2 2.8-1.2 1.1 0 2.1.4 2.8 1.1.7.7 1.2 1.7 1.2 2.8 0 1.1-.4 2.1-1.1 2.8-.7.7-1.7 1.2-2.8 1.2zm-1.7 2.1c.5.4.7 1 .4 1.6l-.4 1.3c-.3.8-1.1 1.2-1.9.9-.8-.3-1.2-1.1-.9-1.9l.4-1.2c.2-.6.8-1 1.4-1l.6-1.7c-1.5-.7-2.5-2.3-2.5-4 0-2.5 2-4.5 4.5-4.5s4.5 2 4.5 4.5-2 4.5-4.5 4.5c-.4 0-.7 0-1-.1l-.6 1.6zM34.2 48c1 0 1.8-.4 2.5-1 .6-.6 1-1.5 1-2.5s-.4-1.8-1-2.5c-.6-.6-1.5-1-2.5-1s-1.8.4-2.5 1c-.6.6-1 1.5-1 2.5s.4 1.8 1 2.5c.6.6 1.5 1 2.5 1zm0 .5c-1.1 0-2.1-.4-2.8-1.1-.7-.7-1.2-1.7-1.2-2.8 0-1.1.4-2.1 1.1-2.8.7-.7 1.7-1.2 2.8-1.2 1.1 0 2.1.4 2.8 1.1.7.7 1.2 1.7 1.2 2.8 0 1.1-.4 2.1-1.1 2.8-.7.7-1.7 1.2-2.8 1.2zm1.9-2.7c.1-.1.2-.1.3-.1.1.1.1.2.1.3-.3.4-.6.7-1 .9-.4.2-.8.4-1.2.4-.1 0-.3-.1-.3-.2s.1-.3.2-.3c.4 0 .7-.2 1.1-.4.3 0 .6-.3.8-.6zm-7.2-5c-.5.3-1.2.2-1.7-.1l-1-.8c-.6-.5-.7-1.4-.2-2.1.5-.6 1.4-.7 2.1-.2l1 .8c.5.4.7 1.1.4 1.7l1.5 1.1c1.2-1.2 3-1.6 4.6-1 2.3.8 3.5 3.4 2.7 5.7-.8 2.3-3.4 3.5-5.7 2.7-2.3-.8-3.5-3.4-2.7-5.7.1-.3.3-.7.5-1l-1.5-1.1zm22-21.1c0-.1.1-.3.2-.3s.3.1.3.2c.1.6.1 1.1.1 1.7 0 .5-.1.9-.3 1.3l.6.2c.9.3 1.1.2.7 1.2-.8 2.3-3.8 8.1-10.7 8v.2c0 .4-.6.3-.6.1l-.8-4.8c0-.2.5-.5.6-.1v.6c1.1 0 2-.2 2.9-.4l.2 1.1c0 .1.1.2.3.2.1 0 .2-.1.2-.3l-.2-1.1c.5-.2 1-.4 1.4-.7v.1l.6 1c.1.1.2.1.3.1.1-.1.1-.2.1-.3l-.6-1s0-.1-.1-.1c.5-.4.9-.8 1.3-1.2v.1l1 .8c.1.1.3.1.3 0 .1-.1.1-.3 0-.3l-1-.8h-.1c.6-.8 1-1.6 1.2-2.2.3-.9.3-.8 1.1-.5l.8.3.3-1.2c0-.9 0-1.4-.1-1.9zm-10.6 8.5c-.7.2-.3 3.6.5 3.4l-.5-3.4zM32.9 2.6c1.4.1 3.2.3 4.2.5.6.1 1.9.2 2.6.3.7.1.7.3 0 .7-2.5 1.6-5.6.9-7.4-1-.6-.6-.2-.5.6-.5zm4.2-1.1c-.1.1-.3.1-.4.2-.2.1-.4-.2-.5-.3-1-1-4.1-.6-6 .6-.5.3-.6.3-.4.9 1.9 4.2 8.9 5.2 12 1.9 1-1.1 1-1.1-.1-1.8-1.3-.9-3.5-2.1-4.6-1.5zM22 28.4l-1.9 1.9 1.2 1.1c.3.3.6.4 1 .4.3 0 .7-.1.9-.4.3-.3.4-.6.4-1 0-.3-.1-.7-.4-.9L22 28.4zm-3.6-1.7c.3-.4.8-.5 1.3-.6.5 0 .9.2 1.3.5l2.5 2.4c.4.3.5.8.6 1.3 0 .5-.2.9-.5 1.3s-.8.5-1.3.6c-.5 0-.9-.2-1.3-.5l-2.5-2.4c-.4-.3-.5-.8-.6-1.3 0-.4.2-.9.5-1.3zm2.4-16.2c.1-.4.4-.6.7-.8.3-.1.7-.2 1.1 0l2.5 1c.4.1.6.4.8.7.1.3.2.7 0 1.1-.1.4-.4.6-.7.8-.3.1-.7.2-1.1 0l-2.5-1c-.4-.1-.6-.4-.8-.7-.1-.3-.1-.7 0-1.1zm3.1.1l-.7 1.9 1.1.4c.3.1.5.1.8 0 .2-.1.4-.3.5-.5.1-.3.1-.5 0-.8-.1-.2-.3-.4-.5-.5l-1.2-.5zM12 31.7c-.1.1-.3 0-.3-.1-.1-.1 0-.3.1-.3.2-.1.4-.2.6-.2.2 0 .4 0 .6.1.1 0 .2.1.3.2.1.1.2.2.3.2.1.1.1.3 0 .3-.1.1-.3.1-.3 0s-.1-.1-.2-.2c-.1 0-.1-.1-.2-.1s-.3-.1-.4 0c-.2 0-.4 0-.5.1zm3.3 1.4c0-4-6-4.4-7.2 2.1-.3 1.8 0 1.9 1.7 3.3.3.9 1.3 2.4 3.1 2.2 6.5-.7 6.9-6.3 2.7-7.2 2-1.2 1.9-3.3 1.8-4.4v-.5c.1 0 .1-.1.1-.2s-.1-.3-.2-.3c-.2 0-.3.1-.4.3v.6c.1 1.1.2 3.1-1.6 4.1zm29.5 20.1c-.1.1-.3.1-.3 0-.1-.1-.1-.3 0-.3l.6-.3h.6c.1 0 .2.1.3.2.1.1.2.1.3.2.1.1.1.2 0 .3-.1.1-.2.1-.3 0l-.2-.2c-.1 0-.1-.1-.2-.1h-.4c-.2.1-.3.1-.4.2zm3 .5c-1.2-3.3-6.2-1.7-5.1 3.8.3 1.5.6 1.5 2.4 2.1.5.6 1.8 1.5 3.2.8 4.9-2.6 3.6-7 .2-6.7 1-1.2.6-2.7.4-3.5 0-.1-.1-.3-.1-.3s.1-.1.1-.2-.1-.2-.2-.2c-.2 0-.3.1-.3.3 0 .1.1.3.1.5 0 .8.4 2.2-.7 3.4zM20.9 34.2c-.1-.1 0-.3.1-.3.1-.1.3 0 .3.1.2.3.8.7 1.4.9.7.3 1.5.5 1.9.4.1 0 .2.1.3.2 0 .1-.1.2-.2.3-.5.1-1.4-.1-2.2-.5-.7-.3-1.4-.7-1.6-1.1zM38.8 29c-.2 0-.3.1-.5.3h-.1c-.2-.3-.7-.9-1.3-1.3-.4-.3-.9-.6-1.3-.6-.2 0-.3.1-.5.4-.1.2-.4.6-.8.7-.2.1-.5.5-.8 1-.2.5-.5 1.2-.5 1.4.1.3.4.7.8 1.1.4.3.8.6 1.2.7-4.4 2.9-11.1 3.5-14.1.2-.6-.6-1.1-.6-1.5-.5-.5.1-.8.7-.7 1 1 5.1 15.3 4.9 20.1-2.6.2-.4 1.1-1.7 0-1.8zm-3.1-1.1c0 .1-.1.2-.2.2l1.7 1.5c.1.1.1.2 0 .3-.1.1-.2.1-.3 0l-1.7-1.5c-.2.1-.4.3-.6.3 0 0-.3.4-.5.8l1 .8c.1.1.1.2 0 .3-.1.1-.2.1-.3 0l-1-.6c-.2.4-.4.7-.4.7.1.2.3.6.6.8.4.3.8.6 1.2.7.1 0 .6-.5 1.2-1 .6-.7 1.3-1.5 1.4-1.8-.1-.1-.6-.7-1.2-1.2-.2-.2-.8-.6-.9-.3zM4.2 8.8c.9.2 1.9 0 2.6-.4.8-.5 1.3-1.2 1.6-2.1.2-1 .1-2-.4-2.7-.5-.8-1.2-1.4-2.1-1.6-1-.3-1.9-.1-2.7.4-.8.4-1.3 1.2-1.6 2.1-.2 1 0 1.9.4 2.7.5.8 1.2 1.3 2.2 1.6zm-.1.4C3 9 2.1 8.3 1.6 7.4s-.7-1.9-.5-3c.3-1 1-1.9 1.9-2.4.9-.5 1.9-.7 3-.5 1 .3 1.9.9 2.4 1.8s.7 1.9.5 3c-.3 1.1-1 1.9-1.8 2.5-.9.5-2 .7-3 .4zm-.1-6c-.1.1-.3 0-.3-.1-.1-.1 0-.2.1-.3.4-.2.9-.3 1.3-.3s.9.1 1.3.3c.1.1.2.2.1.3 0 .1-.2.2-.3.1-.4-.1-.7-.2-1.1-.2-.4 0-.7.1-1.1.2zm-.2 6.9c.5.4.6 1 .4 1.6l-.4 1.2c-.3.8-1.1 1.1-1.9.9-.8-.3-1.1-1.1-.9-1.9l.4-1.2c.2-.6.8-1 1.4-.9l.2-.4C1.1 8.5.1 6.4.6 4.3 1.2 1.9 3.6.5 6 1.1c2.4.6 3.8 3 3.2 5.4-.6 2.4-3 3.8-5.4 3.2v.4zm8.6-8.4c.2.2.3.5.3.8 0 .8-.5 1.4-1.3 1.5-.3 0-.6-.1-.8-.2l1.8-2.1zm-2.5.9c0-.8.5-1.4 1.3-1.5.3 0 .6.1.8.2l-1.8 2c-.1-.2-.2-.4-.3-.7zm-2.3 9.3c-.3-.3-.4-.6-.4-.8 0-.3.1-.6.3-.9L9 8.6c.2-.2.5-.4.8-.4.3 0 .6.1.9.3.2.2.4.5.4.8 0 .3-.1.6-.3.9l-1.5 1.5c-.2.2-.5.4-.8.4-.4.1-.7 0-.9-.2zm1.1-2.2l1.1 1 .7-.7c.1-.1.2-.3.2-.5s-.1-.4-.2-.5c-.3-.2-.5-.3-.7-.3-.1 0-.3.1-.5.3l-.6.7zM1.5 58.3c-.1.2.1.4.4.6.5.2 1.6.5 3.4.7.2 0 .4 0 .4-.2 0-.1 0-.2-.3-.3-.4-.1-1-.1-1.8-.3-.4-.1-.8-.2-1.1-.4-.6-.1-.9-.3-1-.1zM8.6 51c1.6-.1 4.1.8 1.9 3.5 4 2 6.9 4.7 5.3 5.8-.9.6-12 .1-13.7.3-1.7.2-1.5-.6-1.6-2-.1-.9-.2-1.6.6-1.3C8 60 17.1 59 9.8 55.9c-3.3-1.1-.2-2.4-.1-2.9.1-.8-.6-.8-1.3-.7-.6.1-.5-.1-.5-.4v-.3c0-.5.1-.5.7-.6zm4.8 3.2c-.5-.8-.8-1.6-.5-2.3.9-2.4 11.3-4.6 8.1 8.1-.6 2.7-6.9-4.7-7.6-5.8zm1-2.7c.1-.3-.1-.4-.3-.2-.3.3-.7.6-.7 1.1 0 .3 0 .6.3.6.3-.1.1-.4.2-.7.1-.3.4-.5.5-.8zm5.2 5.1c.3-.9.3-3.2-.2-4-.8-1.1-1.6-1.2-2.9-.9-1 .3-2.4 1-1.6 2.2.4.6.7.9 1.3 1.5.9.8 2.8 2.8 3.4 1.2zm.2-8.1c-.3.2-.6.3-1 .3-.9 0-1.6-.7-1.6-1.6 0-.4.1-.7.4-1l2.2 2.3zm-1-3c.9 0 1.6.7 1.6 1.6 0 .4-.1.7-.3 1l-2.2-2.3c.2-.2.6-.3.9-.3zM1.9 52.3c.6-.7 1.1-1.3 1.8-1.9.5-.4 2-1.9 2.4-2.2.2-.1-.3 4.1-4.2 4.7-.6.1-.3-.1 0-.6zm.9-3.1c0 .1-.1.3-.1.4-.1.2-.4.2-.5.2-1.3.1-2.4 2.7-2.2 4.5.9 1.1 4.6.2 6-1.6 1.2-1.5 1.9-3.2 1.2-5.5-.6-.6-3.9.2-4.4 2zm3.5 6.3l-.6 1.6 1.1.4c.2.1.5.1.7 0 .2-.1.4-.3.5-.5.1-.2.1-.5 0-.7-.1-.2-.3-.4-.5-.5l-1.2-.3zm-2.8-.1c.2-.4.4-.7.7-.8.3-.1.7-.2 1 0l2.3.9c.3.1.6.4.8.7.1.3.2.7 0 1-.1.3-.3.6-.7.8-.3.1-.7.2-1 0l-2.3-.9c-.4-.1-.6-.4-.8-.7-.1-.3-.1-.7 0-1zm1.2-39.3c0-.2.2-.2.3-.1.1.1.2.2.1.3-.2.4-.5.7-.8.9-.3.3-.7.4-1.1.6-.1 0-.3 0-.3-.2 0-.1 0-.3.2-.3.3-.1.6-.3.9-.5.3-.2.5-.4.7-.7zm21.4-7.6c-2.2-2.6-6.5-2.2-9-.5-.9.6-1.3 1.6-1.7 2.3-.3.6-1.3.9-2.1.2-4.7-4.2 5-14.7 15.8-6.8 1.3.9 1.8 1.6.9 2.4-1.3 1.1-3.3 3-3.9 2.4zm-13.5 1.9c.6.8 2 .7 1.2 1.6-.1.2-.3.3-.4.4-.4.4-.5.5-1 .2-.3-.1-.5-.3-.7-.5-.4-.4-.4-.5-.2-1 0-.2.1-.4.3-.9.4-1.3.2-.6.8.2zm6-3.9c-.3-.6-1.3-2.2-1.9-2.6-.8-.6 4.3-2.5 7-1.4.3.1.9 4.1.5 4-2.4-1-5.5.1-5.6 0zM15 4.8c.1-.1.3-.1.3 0 .1.1.1.3 0 .3-.3.2-.5.5-.7.7-.2.3-.4.6-.5.9-.1.2-.3.3-.4.2-.1-.1-.2-.2-.1-.3.2-.3.4-.7.6-1l.8-.8zm15.6 1.1c-.7 1-1.8 2.3-3.1 2.9-.7.2-1 0-.5.7.1.2.1.3.4.5.7.5.7.4 1.5-.1 1.3-.8 1.9-2.4 2.9-3.2.7-.5.4-.9-.3-1.1-.6-.2-.7-.1-.9.3zM9.5 17.2c-1.1.1-2.2-1.4-3.1-1.2-1.5.4-2 3.3-4.7 2.3-.8-.3-1-1.1-.5-1.8 1.9-2.7 5.4-4.1 7.7-2.9 1.3.6 1.4-1.3 1.9-1.2 2.1.6 2.1 4.4-1.3 4.8zm.9 2.1c-.1 0-.2-.1-.3-.2 0-.1.1-.2.2-.3 1.2-.1 2.5.1 3.8.4.5.1 1 .2 1.5.4.1 0 .2.1.2.3 0 .1-.1.2-.3.2-.5-.1-1-.3-1.5-.4-1.2-.3-2.5-.5-3.6-.4zm-8.9 2.3h.2c.6-.1 1.5-.3 2.6-.5 1.5-.3 2.9-.6 3-.6.2.2.2.6.2 1.1 0 .3.1 1.1-.1 1.4 0 0-.4.2-.8.3-.4.1-.8.2-1 .2h-.1l-.3-2.1c0-.1-.1-.2-.3-.2-.1 0-.2.1-.2.3l.3 2c-.6.1-1.3.4-1.9.7l-.4-1.8c0-.1-.2-.2-.3-.2-.1 0-.2.2-.2.3l.4 1.9-.2.1c-.3.1-.5.2-.6.3-.2-.5-.3-1.1-.3-1.6-.1-.8 0-1.3 0-1.6zm-.8-1.1c-.3.1-.2.8.3 1 0 .4 0 1 .1 1.6.1.4.2 1.5.4 1.9.1.2.2.2.4.1 0 0 .7-.4.8-.4.1-.1.2-.1.4-.2.7-.4 1.6-.8 2.2-.8h.2c.2 0 .7-.1 1.2-.2.2-.1 1-.3 1.1-.5.2-.4.2-1 .1-1.6 0-.5 0-1-.3-1.3.9-.1 1.9-.1 2.9 0 4.5.4 4.1 1.1 5.6.8.6-.1.8-1.2.4-1.4-5.5-2.7-14.4.6-15.8 1zM42.4 9.7c1.9.7 3.8 1.4 4.7 2.9 1.7 2.8-.7 5.1.8 5.8 4.4 1.8 7-3 3.6-8.8-.9-1.5-1.7-2.8-3.4-4.3-.7-.7-.7-.9-1.7-.2C45 5.9 42.7 8 42 9c-.5.5-.1.5.4.7zm-.9-1.1c.7-1 3.3-3.3 4.5-3.9.6-.3.7-.5.5-.8-.1-.2-.3-.4-.5-.6-.7-.5-1-.4-1.8 0-1.3.8-2.8 3.6-3.9 4.4-.7.5-.4.9.3 1.1.6.2.7.2.9-.2zm6.9 6.1c0-.1.1-.2.2-.3.1 0 .2.1.3.2.1.7.1 1.1 0 1.5 0 .4-.1.7-.2 1.1 0 .1-.2.2-.3.2-.1 0-.2-.2-.2-.3.1-.4.2-.7.2-1 .1-.3.1-.7 0-1.4zm1.3-1.4c1.5-.3 2-.2 1.6-1.9-.3-1.4-1.4-2.9-2.5-4.1-.8-.8-.8-.8-1.7-.2-1.4.9-2.4 1.7-2.5 2.2 0 .3.5.4 1.3.9 1 .7 1.6 1.4 2 2 .9 1.5.7 1.4 1.8 1.1zM41 24.5c0 .1-.1.2-.3.2-.1 0-.2-.1-.2-.3l.3-1.2c.2-.4.4-.7.6-1 .1-.1.2-.1.3 0 .1.1.1.2 0 .3-.2.3-.4.6-.5.9-.1.3-.2.7-.2 1.1zm1.1-3.5c1.2-.5 2 2.4 3.4-.2.8-1.3 1.8.5 1.3 2.3-.3 1.3-1.8.5-3.2.7-2 .3-.5 3.4-3.2 2.8-1.4-.3 0-4.8 1.7-5.6zm7.4-1.9c-.6 0-1.1-.1-1.7-.4-.8-.4-.5-.8-1.3.6-.3.5 0 .7.7 1.1.9.4.8.1 1.7-.4.6-.5 1.1-.9.6-.9zm13.7 1.4c-.3.3-.7.4-1.1.4-.9 0-1.6-.7-1.6-1.6 0-.3.1-.6.2-.8l2.5 2zm-1.1-2.9c.9 0 1.6.7 1.6 1.6 0 .3-.1.6-.2.8L61 18c.3-.2.6-.4 1.1-.4zm43.2 7.4c.1.1.1.2.1.3-.1.1-.2.1-.3.1-.2-.1-.3-.3-.4-.5-.1-.2-.2-.4-.2-.6v-.4c0-.1.1-.2.1-.3.1-.1.2-.2.3-.1.1.1.2.2.1.3 0 .1-.1.1-.1.2v.2c0 .1 0 .3.1.4.1.2.2.3.3.4zm5.1-2.7l-2.8-1.5-.5-.3.4-.6.5.3.5-.7-.5-.3.4-.6.5.3.5-.7-.5-.3.4-.6.5.3.5-.7-.5-.3.4-.6.5.3.4-.6c.3-.4.7-.6 1.2-.3.4.2.5.7.3 1.2l-.3.7.5.3-.3.7-.5-.3-.3.8.5.3-.3.7-.5-.3-.3.8.5.3-.3.7-.5-.3-.3.8.5.3-.3.7-.3-.5zm-3.1 4.9l-.9-.9-1.2-.3c-1.1-.3-1.6-1.9-.8-2.7l2.4-2.5 4.4 2.4-1.1 3.2c-.4 1-2 1.5-2.8.8zM62.9 3c0 .1-.2.2-.3.2-.1 0-.2-.2-.2-.3 0-.1.1-.2.2-.3.1-.1.2-.2.3-.2.1 0 .2-.1.3-.1h.3c.1 0 .2.2.1.3 0 .1-.2.2-.3.1h-.1-.1s-.1 0-.1.1l-.1.2zm-.6 1.3c.1.2.1.8.2 1.1.1.4.3 1.6.9 1.6.3 0 .5-.2.5-.5 0-.1 0-.2-.1-.2-.1-.1-.2-.2-.2-.5s.2-.8.7-.8c.5 0 .7.5.7.8 0 .3-.1.4-.2.5 0 .1-.1.1-.1.2 0 .3.2.5.5.5.5 0 .8-1.2.9-1.6.1-.4.1-.9.2-1.1.2-.4.4-.6.4-1.1 0-.7-.6-1.3-1.3-1.3-.6 0-.6.3-1.2.3s-.6-.3-1.2-.3c-.7 0-1.3.5-1.3 1.3.2.5.5.7.6 1.1zm7 5.4l-1.8-1.8c-.1-.1-.1-.2-.1-.3 0-.1 0-.2.1-.3l.8-.8c.1-.1.2-.1.3-.1.1 0 .2.1.3.1l1.8 1.8c.1.1.1.2.1.3 0 .1 0 .2-.1.3l-.8.8c-.1.1-.2.1-.3.1-.1 0-.2 0-.3-.1zm-8.6-9h7.4c.6 0 1 .5 1 1.1v4.6l-.1-.2c-.1-.1-.2-.2-.4-.2-.1 0-.3 0-.4.1l-1 1c-.1.2-.2.4-.2.5 0 .1.1.3.2.4l.4.4h-6.9c-.6 0-1-.5-1-1.1V1.7c0-.6.4-1 1-1zm14.1.3c0-.1.1-.2.2-.2s.2.1.2.2v1.9c0 .1-.1.2-.3.2-.1 0-.2-.1-.2-.3v-.9c.1-.2.1-.4.1-.9zm.2-.5h1.8c.7 0 .6-.1.6.6v1.7c0 .9-.2.8.7.8h1.8c.9 0 .8-.2.8.8v1.7c0 .8 0 .6-.8.6h-2c-.6 0-.5-.1-.5.5v1c0 .9.2.8-.6 1-.6.1-1.1.3-1.7.3-1.1.1-.7-1.3-.7-2.4 0-.6.1-.5-.5-.5h-2c-.9 0-.7.1-.7-.8V4.6c0-1-.2-1 .7-1h1.8c.8 0 .6-.1.6-1.1V1.2c0-.9-.1-.7.7-.7zm38.3 42.3c.4-1.1 1.5-3.1 2-4.1.5-.8 1.3-2.6 1.8-3.2.8 3.4-1.1 6.9-3.8 7.3zm.9-5.8c0 .2-.1 1-.1 1.1 0 .2-1 .8-1.1.9-.9.4-.7 2.1-1.1 3.8-.3 1.1-.1 1.5 1 1.5 2.2-.1 4.5-1.7 5.3-3.8.7-2 1.1-6.6 0-7.1h-.4c-.7.5-2.8 2.3-3.6 3.6zm-11.1-27c1.1.4 2.8 1.1 3.6 1.5.5.3 2.5 1.2 3 1.6.5.4-4.8 1.5-6.7-2.4-.2-.5-.5-1 .1-.7zm4.5.3h-.4c-.2 0-.3-.3-.3-.4-.6-1.2-3.4-1.4-5.1-.5-.8 1.4.7 4.1 3 5.3 2.1 1.1 5 .8 6.4-1.1v-.3c-.6-1.5-1.7-3.2-3.6-3zm-15.8 48c-.1 0-.3-.1-.3-.2s.1-.3.2-.3c.2 0 .4-.1.6-.2.2-.1.3-.3.4-.4.1-.1.2-.1.3-.1.1.1.1.2.1.3-.2.2-.3.4-.6.6-.1.2-.4.3-.7.3zm3-1.4l.2 2.9c0 .6-.8 1.1-1.4.9l-3.4-1c-.2-.1-.3-.2-.3-.4.1-.3.1-.7.2-1.1.1-.7 0-.6.6-.6.7 0 1.4-.1 1.8-1 .2-.4.2-.4.6-.3l1.3.3c.3-.1.4.1.4.3zm-5.3 1.6c-.2.9-.1.7-1 .7s-.7.2-.6-.7c.1-.7 0-.6.7-.6 1 0 1.1-.3.9.6zm-12-6.3c.1.1.1.3 0 .3-.1.1-.3.1-.3 0-.1-.2-.4-.2-.6-.1-.3.2-.7.5-1 .8-.1.1-.2.1-.3 0-.1-.1-.1-.2 0-.3.4-.4.8-.7 1.2-.9.3-.2.7-.2 1 .2zm10.1 5.1l-.5 2.8c-.1.5-.7.7-1.2.7-4.4.2-15.8-4.7-13.2-6.6l2.8-2.1c1.5-1.1 1.4-1.1 2.9.2 1.4 1.3 2 2.5 8.5 3.8.5.1.8.7.7 1.2zm7.1-4.9v3.1c0 .7-.1.4-.8.3-.8-.1-.9 0-.6-.6l.6-1.5.6-1.4v-.1c-.1 0-.2-.2-.3-.3-.1-.3 0-.5.3-.6.3-.1.5 0 .6.3.1.3 0 .5-.3.6 0 .2-.1.2-.1.2zM74 41.3c.6.8 1.5 1.9 2 2.8.3.5 1.4 2.3 1.6 2.9.1.2-4.3-1.4-3.6-5.7zm3.4 2.2c-.1-.1-.3-.1-.4-.2-.1-.1-.1-.4 0-.5.2-1.3-2-3-3.9-3.2-1.2.6-1.2 4.4.2 6.2 1.2 1.5 2.7 2.6 5 2.4.7-.4.7-3.8-.9-4.7zm-8.6-1.3c-.6-.4-1.9-.6-2.2-.6-.6-.1-1.3 4.1-.1 6.5.7 1.3 1 1 2.4.7.5-.1 1-.2 1.4-.3 1.2-.3.7-.3.3-1-.8-1.2-1-3-1.1-4.1-.1-.9 0-.8-.7-1.2zm-.4-3.9c.1-.1.3 0 .3.1.1.1 0 .3-.1.3-.3.2-.6.4-.8.6-.2.2-.5.5-.7.8-.1.1-.2.1-.3.1-.1-.1-.1-.2-.1-.3.2-.3.5-.6.7-.9.4-.3.7-.5 1-.7zm4.9 10.1c-1.6-.6-2.7-2.9-2.9-5.2-.3-2.2 1.5-3.2.6-4.4-.9-1.3-2.1-1.4-3.1-.7-4.4 2.7-4.6 9.8-.4 13 .8.6.8.6 1.9.1 1.2-.6 3.2-1.7 4.3-2.2.9-.4.3-.3-.4-.6zm-1.4-9.9c.2-.2.3-.4.4-.6.2-.4.1-.4-.1-.7-.2-.3-.4-.5-.6-.6-.3-.2-.4-.2-.8-.1s-1 .4-1.5.8c-.1 0-.1.1 0 .1.8 0 1.6.5 2 1.2.3.1.3.2.6-.1zm6.8-6.3c0 .1-.1.3-.2.3s-.3-.1-.3-.2c0-.3 0-.6.1-.8.1-.2.3-.5.6-.6.1-.1.3 0 .3.1.1.1 0 .3-.1.3-.2.1-.3.2-.4.4v.5zm-1.3 1.5c.9-.7-.1-2.8 1.5-3.2 3.3-.8 2.3 6.4-2.7 4.8-1.6-.5-4 1.7-4 1 0-.3 1.1-1.9 3-2.6 1-.3 1.8.3 2.2 0zm-3.1 15.4c-1 .7-3.7 2.2-5 2.7-.6.3-.9.1-.5.8.1.2.3.4.5.6.7.5.7.4 1.5-.1 1.3-.8 3.6-2.3 4.7-3.1.7-.5.4-.9-.3-1.1-.5-.2-.6 0-.9.2zm33.9-43.9c0 .1-.1.2-.2.3-.1 0-.2-.1-.3-.2 0-.4 0-.8.2-1.2.1-.4.4-.7.6-1 .1-.1.2-.1.3 0 .1.1.1.2 0 .3-.2.3-.4.5-.5.9-.1.2-.1.5-.1.9zm-1-.6c-.1.8.2 1.6.8 2.3.6.7 1.4 1 2.2 1.1.8.1 1.6-.2 2.3-.8.7-.6 1-1.4 1.1-2.2.1-.8-.2-1.6-.8-2.3-.6-.7-1.4-1-2.2-1.1-.8-.1-1.6.2-2.3.8-.7.6-1 1.4-1.1 2.2zm.4 2.6c-.7-.8-1-1.7-.9-2.7.1-.9.5-1.8 1.2-2.5.8-.7 1.7-1 2.7-.9.9.1 1.8.5 2.5 1.2.7.8 1 1.7.9 2.7-.1.9-.5 1.8-1.2 2.5-.8.7-1.7 1-2.7.9-.9 0-1.8-.4-2.5-1.2zm-.4.4c-1.5-1.7-1.4-4.4.4-5.9 1.7-1.5 4.4-1.4 5.9.4l.6.9 1.4-.6c0-.5.3-1.1 1.1-1.4l1.1-.4c.7-.3 1.5.1 1.8.8.3.7-.1 1.5-.8 1.8l-1.1.4c-.8.3-1.4.1-1.8-.3l-1.4.6c.4 1.5 0 3.1-1.3 4.2-1.7 1.4-4.3 1.2-5.9-.5zm-44.7 3.1c-.5-.5-3.3 1.6-2.5 2.5l2.5-2.5zm14.9 3.9c.1-.1.2-.1.3-.1.1.1.1.2.1.3-.4.6-.9 1.1-1.4 1.5-.5.4-1 .7-1.6.9l.2.5c.4 1 .5 1.1-.7 1.3-2.8.6-9.9 1.1-13.7-4.9l-.3.3c-.2.3-.6-.2-.5-.4l3-3 .3-.3c.1-.1.7.1.5.4l-.4.4c.7.9 1.4 1.5 2.1 2.1l-1 1.2c-.1.1-.1.3 0 .3.1.1.3.1.3 0l1-1.2c.6.4 1.3.8 1.9 1l-.5 1.4c0 .1 0 .3.2.3.1 0 .3 0 .3-.2L68 15c.7.2 1.4.4 2.1.5l.1 1.6c0 .1.1.2.2.2s.2-.1.2-.2l-.1-1.5c.9.1 1.7 0 2.3-.1 1.2-.2 1.2-.6 1.6.3l.4 1c.5-.2 1-.5 1.4-.8.4-.4.8-.9 1.2-1.4zm-3.6 10.8c0 .1-.1.2-.3.2-.1 0-.2-.1-.2-.3.1-.4.2-.9.5-1.2.2-.4.6-.7.9-.9.1-.1.3 0 .3.1.1.1 0 .3-.1.3-.3.2-.6.5-.8.8-.1.3-.2.6-.3 1zm2.4 3.8c1 0 1.8-.4 2.5-1 .6-.6 1-1.5 1-2.5s-.4-1.8-1-2.5c-.6-.6-1.5-1-2.5-1s-1.8.4-2.5 1c-.6.6-1 1.5-1 2.5s.4 1.8 1 2.5c.7.6 1.5 1 2.5 1zm0 .5c-1.1 0-2.1-.4-2.8-1.1-.7-.7-1.2-1.7-1.2-2.8 0-1.1.4-2.1 1.1-2.8.7-.7 1.7-1.2 2.8-1.2 1.1 0 2.1.4 2.8 1.1.7.7 1.2 1.7 1.2 2.8 0 1.1-.4 2.1-1.1 2.8-.7.7-1.7 1.2-2.8 1.2zm0 .6c-2.5 0-4.6-2-4.6-4.6 0-2.5 2-4.6 4.6-4.6.4 0 .8 0 1.1.1l.5-1.5c-.4-.4-.6-1-.4-1.6l.4-1.2c.3-.8 1.1-1.2 1.9-.9.8.3 1.2 1.1.9 1.9l-.4 1.2c-.2.7-.9 1.1-1.6 1l-.5 1.5c1.5.7 2.6 2.3 2.6 4.1.1 2.5-1.9 4.6-4.5 4.6zm22.2 27c.4.4 1 .7 1.6.7.6 0 1.2-.3 1.6-.7.4-.4.7-1 .7-1.6 0-.6-.3-1.2-.7-1.6-.4-.4-1-.7-1.6-.7-.6 0-1.2.3-1.6.7-.4.4-.7 1-.7 1.6 0 .6.3 1.2.7 1.6zm1.6 1.2c-.8 0-1.5-.3-2-.8s-.8-1.2-.8-2 .3-1.5.8-2 1.2-.8 2-.8 1.5.3 2 .8.8 1.2.8 2-.3 1.5-.8 2-1.2.8-2 .8zM98.7 55c-.1.1-.2.2-.3.1-.1-.1-.2-.2-.1-.3.1-.2.2-.4.4-.5.2-.2.4-.3.6-.3.1 0 .3 0 .3.1s0 .3-.1.3c-.1.1-.3.1-.4.2-.3.2-.4.3-.4.4zm1.3 4c-1.8 0-3.3-1.5-3.3-3.3 0-1.8 1.5-3.3 3.3-3.3 1.4 0 2.6.9 3.1 2.1 3.3-.8 7.8-1.7 8.8-7.9.1-.6.6-1.4 1.2-1.4 1.1-.1 1.1 1.2 1 1.7-1.3 4.9-6.2 8.5-10.7 8.8-.1 1.8-1.5 3.3-3.4 3.3zM74.3 12.3c2.1-.4 4.1-1.1 5.2-1.4.1.1.3.3.4.6.2.3.6 1.9.3 1.9 0 0-.2 0-.5.1l-.7-2c-.1-.1-.2-.2-.3-.1-.1.1-.2.2-.1.3l.7 1.7h-.4c-.5.1-.9.1-1.4.2l-.5-1.3c-.1-.1-.2-.2-.3-.1-.1.1-.2.2-.1.3l.5 1.3c-.2 0-.4.1-.5.1-.2.1-.7.2-1 .3-.2 0-.2.1-.3.1-.3-.3-.7-1-.8-1.6-.1-.2-.2-.3-.2-.4zm-5.4-.9c.1 0 .2.1.2.3 0 .1-.1.2-.3.2-.6-.1-1.3-.2-1.8-.5-.6-.2-1.1-.5-1.6-.9-.1-.1-.1-.2 0-.3.1-.1.2-.1.3 0 .4.4.9.6 1.4.8.5.1 1.1.3 1.8.4zm11.3-.6c.4-.1.2-1.3-.8-1.1-2.5.3-6.5 2.2-10.1 1.6-4.5-.8-3.1-2.4-4.6-2.2-.6.1-.8 1-.5 1.3 2.3 2.8 6.3 2.7 9.7 2 0 .1 0 .3.1.4.2.7.6 1.4.9 1.8.1.1.4.1.7.1.4-.1.9-.2 1.1-.3.6-.2 1.5-.3 2.3-.4.2 0 .5-.1.7-.1.5-.1.8-.2 1-.3.4-.6.1-1.8-.3-2.4 0-.2-.1-.3-.2-.4zm18.7 4c0-.1.1-.2.2-.2s.2.1.2.2c0 .7 0 1.7-.1 2.5v2.4c0 .1-.1.2-.2.2s-.2-.1-.2-.2v-2.4c0-.9 0-1.8.1-2.5zm2.7-12.3c-.1 0-.2-.1-.2-.2s.1-.2.2-.2h2.1c.1-.2.1-.3.2-.5l-.2-.2c-.2-.1-.4-.2-.7-.2-.9-.2-2.2-.1-2.7.1-.2.1-.2.2-.3.3V7H102.4c.6 0 .8 0 .9-.1v-.3-.5h-2.5c-.1 0-.2-.1-.2-.2s.1-.2.2-.2h2.5v-.4c0-.7 0-1.6.3-2.6h-2zM99.2.8c.2 0 .4.1.6.3.1-.1.2-.2.4-.3.5-.2 1.9-.3 2.9-.1.3.1.6.1.8.2.3.1.4.3.5.6 0 .1 0 .2-.1.3-.7 1.4-.7 2.5-.6 3.3V6.4c0 .4.1.5-.1.7-.2.2-.5.2-1.1.2h-2.4v12.9c0 1.2-1.6.8-1.6-.2V1.4c0-.3.3-.6.7-.6zm5.3 15.6c.2.3.3.6.3.9 0 .9-.7 1.6-1.6 1.6-.4 0-.8-.1-1.1-.4l2.4-2.1zm-1.3-.7c.4 0 .8.1 1.1.4l-2.4 2.2c-.2-.3-.3-.6-.3-.9-.1-1 .7-1.7 1.6-1.7zm2 25.5c.1 0 .2.1.2.2s-.1.2-.2.2c-.5 0-1.1.1-1.6.3-.5.2-1 .5-1.4.8-.1.1-.3.1-.3 0-.1-.1-.1-.3 0-.3.5-.4 1-.7 1.5-.9.6-.2 1.2-.3 1.8-.3zm-6 7c3 5.7 9.6 4 10.6.8.7-2-.4-1.1-1.5-.5-2 1.1-5.4 2.5-7.7-2-.4.6-.8 1.2-1.4 1.7zm-7.2-5c.4.7.6.1.9-.2 1.6-1.5 4.3.7 5.1 2.3.1-.2.2-.3.4-.5.2-.4.5-.8.9-1.2-.2-.3-.4-.6-.7-.9-.8-.9-2.3-1.5-3.6-1.6-1.8 0-3.3 1.7-3 2.1zm0 3c.2-.2.6-.3.6-.2.6 1.1 3.1 3.6 5.9-.8 5.2-7.9 12.8-3.4 11.7-1.9-.6.9-1-2-6.2-.6-2.8.7-3.2 4.6-6.1 6.1-1 .5-3.2.8-4.5 0-.7-.4-1.8-2.3-1.4-2.6zm5.2-7.3c-.1.1-.3 0-.3-.1-.1-.1 0-.3.1-.3.2-.1.4-.3.6-.4.2-.2.3-.4.5-.6.1-.1.2-.1.3-.1.1.1.1.2.1.3-.2.2-.3.5-.5.7-.4.2-.6.4-.8.5zm-.4 1.4l2.7-.2c.5 0 .7-.7.7-1.2v-3.2c0-.2-.2-.3-.4-.2-.2.1-.6.1-1 .2-.8.2-.5.2-.8.8-.2.5-.8 1.5-1.5 1.9-.7.4-.7.1-.4.8l.3.9c.1.2.2.2.4.2zm2.5-5.1h.1c.5 0 .5.1.6-.4 0-.1 0-.2.1-.3.1-.6.1-.5-.5-.7-.4-.1-.5-.2-.6.5 0 .2-.1.4-.1.5-.1.5-.2.4.4.4zm-.1-8.8c0-.1.1-.3.2-.3s.3.1.3.2c.1.8.2 1.6.2 2.5 0 .8-.1 1.7-.2 2.6 0 .1-.1.2-.3.2-.1 0-.2-.1-.2-.3.1-.8.2-1.7.2-2.5s0-1.6-.2-2.4zm1.4 7.5c.5.3 1.2 0 1.4-.5.9-2 2.3-11.2-.9-10.7l-1.4.2c-1.2.2-1.1.1-1.1 1.5v6.1c0 .5 0 .9-.1 1.4-.2 1.2-.6 1.1.5 1.5.6 0 1.1.2 1.6.5zm-7.5 6.2h2.1c.7 0 .6.1.5-.7-.1-.6 0-.7-.5-.5-.4.2-.8.3-1.2.5l-.9.4c-.1-.2-.4-.3-.6-.2-.3.1-.4.4-.3.6.1.3.4.4.6.3.2-.1.3-.2.3-.4zm-7.4 6.3c-.1 0-.2-.1-.2-.3 0-.1.1-.2.3-.2.2 0 .4.1.6.2.2.1.3.3.4.5.1.1.1.2.1.3v.3c0 .1-.1.2-.3.2-.1 0-.2-.1-.2-.3v-.2c0-.1 0-.1-.1-.2s-.1-.2-.3-.3c0 .1-.1 0-.3 0zm1.7 2.5c1.7-2.9-2.4-5.8-6.2-1.7-1 1.1-1.1 2.1-.2 3.2-.2.8-.2 2.3 1.3 3 5 2.4 7.8-1.4 5.3-4 1.7.2 2.7-1.1 3.2-1.8.1-.1.2-.2.2-.3.1 0 .1 0 .2-.1s.1-.2 0-.3c-.1-.2-.3-.2-.5 0-.1.1-.2.2-.3.4-.5.7-1.4 1.9-3 1.6zM64 29.7c-.2-.1-.3.1-.3.2-.3.5-2 2.1-2.5 2.3-.1.1-.3.1-.2.3.1.2.3.1.4 0 .8-.5 3.1-2.4 2.6-2.8zm-3.7-8.1c1.6-.1 4.5.8 2.3 3.5 6.9 2.3 1.3 6.9-1.8 10.2-.5.5-.8.5-.9-.3l-.1-1.3c-.1-.9-.1-.7.6-1.3 2.2-1.9 5.8-4.3 1.9-5.7-3.3-1.1-.6-2.5-.4-3 .1-.8-.9-.8-1.6-.7-.6.1-.5-.1-.5-.4v-.3c-.2-.7-.1-.7.5-.7zm6 5.8l-1.1-2.2c-.4-.9-.7-1.7-.9-2.5-.2-.9-.1-1.7.3-2.2.6-.7 2.4-.6 3.2-.5.7.1 1.4.2 2 .6.6.4 1.1.9 1.4 1.7.4 1.7-.2 4.8-1.7 6.2-1.6 1.6-2.4.4-3.2-1.1zm-.5-6.9c-.7 0-1.5 1.1-1 1.1.3 0 .2-.3.5-.6.2-.1.5-.2.6-.2.1-.1.1-.3-.1-.3zm3.1 6.7c.6-.7 1.3-3.4 1.1-4.3-.1-.4-.4-.7-.7-.9-.4-.2-.9-.4-1.4-.4-.9-.1-2.4-.2-2.2 1.1.1.7.3 1.3.7 2.1.4 1 1.5 3.6 2.5 2.4zm23.6 23.7c.3.4.4 1 .2 1.5-.3.9-1.2 1.3-2.1 1-.2-.1-.3-.1-.4-.2l2.3-2.3zm-2.9.5c.3-.9 1.2-1.3 2.1-1 .2.1.3.1.4.2l-2.3 2.3c-.3-.4-.4-1-.2-1.5zm18.3-7.5c.3.3.4.7.3 1 0 .4-.2.7-.5 1l-2 1.7c-.3.3-.7.4-1 .3-.4 0-.7-.2-1-.5-.3-.3-.4-.7-.3-1 0-.4.2-.7.5-1l2-1.7c.3-.3.7-.4 1-.3.3.1.7.2 1 .5zm-2.8 1.2l-.9.8c-.2.2-.3.4-.3.6 0 .2.1.5.2.7.2.2.4.3.6.3.2 0 .5-.1.7-.2l.9-.8-1.2-1.4zm-41.9-5.9c.1-.1.3-.1.4 0 0 0 .1.1.1.2-.2.2-.4.3-.7.3-.2.1-.5.1-.7 0-.1 0-.3-.1-.4-.2l-.3-.3c-.1-.1-.1-.3 0-.4.1-.1.3-.1.4 0l.2.2c.1 0 .2.1.3.1h.5c-.1.3.1.2.2.1zm.5.9c-.4.3-.9.4-1.4.4-.5-.1-1-.3-1.3-.7-.3-.4-.4-.9-.4-1.4.1-.5.3-1 .7-1.3 2.9-2.2 5.8-4.5 8.7-6.7-.1-.2-.2-.4-.1-.5 0-.2.1-.4.3-.5.2-.1.4-.2.5-.1.2 0 .4.1.5.3l2.4 3.1c.1.2.2.4.1.5 0 .2-.1.4-.3.5-.2.1-.4.2-.5.1-.2 0-.4-.1-.5-.3l-8.7 6.6zm8.9-7.2l.2.3.1.1h.1l.1-.1v-.1L70.7 30l-.1-.1h-.1l-.1.1v.1l.2.3c.1.1.1.3-.1.4l-3.3 2.5 1.7 2.2 3.3-2.6c.2-.2.3-.1.4 0zm43.4-2.2c0-.2-.1-.3-.3-.3-.1 0-.1 0-.2.1 0 .3 0 .5.1.8.1.2.3.4.5.6.1.1.2.2.4.2.1.1.3.1.4.1.1 0 .3-.1.3-.3 0-.2-.1-.3-.2-.3s-.2 0-.3-.1c-.1 0-.2-.1-.2-.1-.1-.1-.2-.2-.3-.4-.2 0-.2-.2-.2-.3zm-1 .2c0 .6.2 1.1.6 1.4.4.4.9.6 1.4.6.5 0 1-.2 1.4-.6.4-.4.6-.9.6-1.4V19.5h.1c.2 0 .4-.1.5-.2.1-.1.2-.3.2-.5s-.1-.4-.2-.5c-.1-.1-.3-.2-.5-.2H115c-.2 0-.4.1-.5.2-.1.1-.2.3-.2.5s.1.4.2.5c.1.1.3.2.5.2v11.4zm.2-12h-.3s-.1 0-.1-.1l-.1-.1s0-.1.1-.1l.1-.1h4.1s.1 0 .1.1l.1.1s0 .1-.1.1l-.1.1h-.3c-.2 0-.3.1-.3.3v4.3h-2.8v-4.4c-.1 0-.2-.2-.4-.2zm-8.1 10.9c-.1.1-.3 0-.4-.1-.1-.1 0-.3.1-.4.2-.1.5-.2.8-.2.3 0 .5.1.7.2.1.1.3.2.4.3l.3.3c.1.1 0 .3-.1.4-.1.1-.3 0-.4-.1 0-.1-.1-.2-.2-.2l-.2-.2c-.2-.1-.3-.1-.5-.1s-.4.1-.5.1zm3.4 1.2c-.7-4.1-6.9-3.4-6.9 3.3 0 1.8.4 1.9 2.3 3 .5.8 1.7 2.2 3.6 1.6 6.3-1.9 5.8-7.4 1.7-7.8 1.5-1.2 1.3-3 1.2-4v-.4c.1 0 .1-.1.1-.2 0-.2-.1-.3-.2-.3-.3 0-.4.1-.4.3v.6c0 1.1.2 2.9-1.4 3.9zm-6.5 6.3c.3.4.4.9.2 1.4-.3.8-1.1 1.2-1.9.9-.1-.1-.3-.1-.4-.2l2.1-2.1zm-2.6.4c.3-.8 1.1-1.2 1.9-.9.1 0 .3.1.4.2l-2.1 2.1c-.3-.4-.4-.9-.2-1.4zM116 5.8V9.1H117.7V5.8v-.1h-1.6-.1v.1zm-.1 7.6c.1 0 .2.1.2.2s-.1.2-.2.2-.2-.1-.3-.1l-.2-.2c0-.1-.1-.2-.1-.2v-.2c0-.1.2-.2.3-.1.1 0 .2.2.1.3v.2s0 .1.1.1l.1-.2c-.1 0 0 0 0 0zm.8.4c.2-.1.5-.1.8-.1.3-.1 1.1-.2 1.1-.6 0-.2-.2-.3-.3-.3h-.2c-.1.1-.1.1-.4.1-.2 0-.6-.2-.6-.5s.4-.5.6-.5c.2 0 .3 0 .4.1h.2c.2 0 .3-.2.3-.3 0-.4-.8-.6-1.1-.6-.3-.1-.6-.1-.8-.1-.3-.1-.4-.3-.8-.3-.5 0-.9.4-.9.9 0 .4.2.5.2.8 0 .4-.2.4-.2.8 0 .5.4.9.9.9.4 0 .5-.2.8-.3zm-2.6 1.3V9.5c0-.4.3-.8.8-.8h.7V9c0 .1.1.3.1.4.1.1.2.2.4.2h1.5c.1 0 .3-.1.4-.2.1-.1.1-.2.1-.4v-.2h.7c.4 0 .8.3.8.8v5.5c0 .4-.3.8-.8.8h-3.9c-.4-.1-.8-.4-.8-.8zm-83.8-2.9c.1-.1.1-.2.1-.3l-.1-.1c-.2.1-.3.2-.4.3-.1.1-.2.3-.2.5v.3c0 .1 0 .2.1.3 0 .1.2.1.2.1.1 0 .1-.2.1-.3 0-.1 0-.1-.1-.2v-.2c0-.1.1-.2.1-.3 0 .1.1 0 .2-.1zm-.5-.5c-.3.2-.5.5-.6.8-.1.3 0 .7.1 1 .2.3.5.5.8.6.3.1.7 0 1-.1 2.2-1.3 4.3-2.6 6.5-3.9.1.1.2.2.3.2.1 0 .3 0 .4-.1.1-.1.2-.2.2-.3 0-.1 0-.3-.1-.4L37 7.1c-.1-.1-.2-.2-.3-.2-.1 0-.3 0-.4.1-.1.1-.2.2-.2.3 0 .1 0 .3.1.4-2.1 1.4-4.2 2.7-6.4 4zm6.9-3.9l-.1-.2v-.1s0-.1.1-.1h.1s.1 0 .1.1l1.4 2.4v.1s0 .1-.1.1h-.1s-.1 0-.1-.1l-.1-.2c-.1-.1-.2-.1-.3-.1l-2.5 1.5-1-1.6 2.5-1.5c.2-.1.2-.2.1-.3zM18.2 9L17 11.6v.1l1.2.6h.1s.1 0 .1-.1l1.2-2.6v-.1l-1.2-.6c-.1 0-.1 0-.2.1.1 0 .1 0 0 0zm-2.8 6c.1.1.1.2 0 .3-.1.1-.2.1-.3 0l-.2-.2c0-.1-.1-.2-.1-.2v-.2c0-.1.1-.1.1-.2.1-.1.2-.1.3 0 .1.1.1.2 0 .3v.2c.1-.1.1-.1.2 0-.1 0-.1 0 0 0zm.5.7c.2 0 .5.1.7.2.3.1 1 .2 1.1-.1.1-.2 0-.3-.1-.4h-.4c-.2-.1-.4-.3-.3-.6.1-.3.5-.3.7-.2.2.1.2.1.2.2l.1.1c.2.1.3 0 .4-.1.1-.3-.5-.7-.7-.9-.2-.1-.5-.3-.6-.4-.2-.2-.2-.4-.5-.5-.4-.2-.9 0-1 .4-.2.3 0 .4-.1.8-.1.3-.3.2-.5.6-.2.4 0 .9.4 1.1.1-.1.3-.3.6-.2zm-2.6 0l2-4.4c.2-.3.6-.5.9-.3l.5.3-.1.2c-.1.1-.1.2 0 .4 0 .1.1.2.2.3l1.2.6c.1.1.2 0 .4 0 .1 0 .2-.1.3-.3l.1-.2.5.3c.3.2.5.6.3.9l-2 4.4c-.2.3-.6.5-.9.3l-3.1-1.4c-.3-.3-.4-.7-.3-1.1zm78 25.8c.1-.1.2 0 .3.1.1.1 0 .2-.1.3-.4.3-.9.5-1.4.6-.4.1-.8.2-1.2.2v.5c0 .8.2.9-.8 1-2.2.1-7.9-.6-10.1-6.3l-.1.1c-.3.1-.5-.4-.3-.5l3.7-2.2c.1-.1.6.3.3.5l-.4.2c.4.9.8 1.6 1.3 2.2l-.8.5c-.1.1-.1.2-.1.3.1.1.2.1.3.1l.9-.5c.3.4.7.7 1 .9h-.1l-.6.8c-.1.1-.1.2 0 .3.1.1.2.1.3 0l.6-.8v-.1c.5.3.9.5 1.4.7v.1l-.3 1.1c0 .1 0 .2.1.3.1 0 .2 0 .3-.1l.3-1.1v-.1c.9.2 1.7.3 2.2.3.8 0 .8 0 .8.7v.7c.4 0 .7-.1 1.1-.2.5-.1 1-.3 1.4-.6zm-10.5-6c-.4-.6-3.1.9-2.7 1.5l2.7-1.5zM1.3 40h6.3c.5 0 .9.4.9.9v.8h-.3c-.2 0-.3.1-.4.2-.1.1-.2.3-.2.4V44c0 .2.1.3.2.4.1.1.3.2.4.2h.3v.8c0 .5-.4.9-.9.9H1.3c-.5 0-.9-.4-.9-.9v-4.5c0-.5.4-.9.9-.9z" class="st12"/></g><path id="Layer_3" d="M386.7 14.7c-.3.9-.7 2.1-1.3 3.6-.6 1.5-1.2 3.2-2 5.2-.7 2-1.6 4.1-2.5 6.5-.9 2.4-1.9 4.9-2.8 7.5h17.2c-.9-2.6-1.8-5.1-2.7-7.5-.9-2.4-1.7-4.5-2.5-6.5s-1.4-3.7-2-5.2c-.5-1.6-1-2.7-1.4-3.6M403 61.3c-.7-2.1-1.4-4.2-2.2-6.4-.8-2.2-1.5-4.4-2.3-6.6H375c-.8 2.2-1.5 4.4-2.3 6.6-.8 2.2-1.5 4.3-2.1 6.4h-14.1c2.3-6.5 4.4-12.5 6.4-18s4-10.7 6-15.6c1.9-4.9 3.9-9.5 5.8-13.9s3.9-8.6 5.9-12.8h12.8c2 4.2 3.9 8.4 5.9 12.8 1.9 4.4 3.9 9 5.8 13.9 2 4.9 3.9 10.1 6 15.6s4.2 11.5 6.5 18H403zM361.1 1.1v11.6h-18.2v48.7h-13.6V12.6h-18.2V1.1h50zm-70 60.2c-3.9-6.9-8.1-13.7-12.6-20.4-4.5-6.7-9.3-13.1-14.4-19v39.5h-13.4V1.1h11c1.9 1.9 4 4.3 6.3 7 2.3 2.8 4.7 5.8 7.1 8.9 2.4 3.2 4.8 6.4 7.2 9.8 2.4 3.4 4.6 6.6 6.7 9.8V1.1h13.5v60.2h-11.4zm-93.1 0V1.1h40.7v11.4h-27.1v11.8h24.1v11.1h-24.1v14.5h29.1v11.4H198zm-11.3-30.2c0 5.2-.8 9.8-2.4 13.6-1.6 3.9-3.9 7.1-6.9 9.6-3 2.5-6.6 4.5-10.9 5.7-4.3 1.3-9.1 1.9-14.4 1.9-2.4 0-5.3-.1-8.5-.3-3.2-.2-6.4-.6-9.6-1.3V1.9c3.1-.6 6.4-1 9.8-1.2 3.4-.2 6.3-.3 8.7-.3 5.2 0 9.8.6 14 1.7 4.2 1.2 7.8 3 10.8 5.5 3 2.5 5.3 5.7 7 9.6 1.6 3.8 2.4 8.5 2.4 13.9zm-39.2 19.2c.6.1 1.4.1 2.2.1h3c6.8 0 11.8-1.7 15.1-5.1 3.3-3.4 4.9-8.1 4.9-14.2 0-6.3-1.6-11.1-4.7-14.3-3.1-3.2-8.1-4.9-14.9-4.9h-2.9s-1.9.1-2.8.2v38.2z" class="st13"/></svg>